<svg width="48" height="48" viewBox="0 0 48 48" fill="none" xmlns="http://www.w3.org/2000/svg">
<path d="M6.75922 31.6982C6.93857 32.006 6.83464 32.4011 6.52638 32.5805C6.42421 32.6401 6.3124 32.6682 6.20233 32.6682C5.98045 32.6682 5.76428 32.5533 5.64413 32.3476C3.91426 29.379 3 25.9842 3 22.5297C3 17.3129 5.03155 12.4088 8.72017 8.72017C12.4092 5.03155 17.3138 3 22.5306 3C26.6678 3 30.7028 4.32163 34.0284 6.74387L33.6337 5.3613C33.536 5.01883 33.7346 4.6619 34.0771 4.56411C34.4195 4.46589 34.7765 4.66497 34.8742 5.00743L35.8302 8.35754C35.8845 8.54828 35.8481 8.7535 35.7315 8.91399C35.6149 9.07448 35.4311 9.17226 35.2329 9.17928L31.7513 9.30425C31.7434 9.30469 31.7355 9.30469 31.7276 9.30469C31.3821 9.30469 31.0957 9.03107 31.0834 8.6829C31.0707 8.32684 31.3487 8.02779 31.7048 8.01507L33.4886 7.95105C30.3415 5.58449 26.4863 4.29005 22.5297 4.29005C12.4724 4.29005 4.29005 12.4724 4.29005 22.5297C4.29093 25.7562 5.14424 28.9265 6.75922 31.6982ZM36.2485 20.0588C36.2678 20.2408 36.209 20.4227 36.0867 20.5587C35.9643 20.695 35.7898 20.7727 35.607 20.7727H28.3617C28.3832 20.8968 28.402 21.0217 28.4156 21.1485C28.4349 21.3304 28.3762 21.512 28.2538 21.6483C28.1315 21.7847 27.957 21.8623 27.7741 21.8623H17.2884C17.1055 21.8623 16.931 21.7847 16.8087 21.6483C16.6863 21.512 16.6276 21.3304 16.6469 21.1485C16.6605 21.0217 16.6793 20.8968 16.7008 20.7727H9.45553C9.27268 20.7727 9.09816 20.695 8.97582 20.5587C8.85348 20.4223 8.79472 20.2408 8.81401 20.0588C9.01353 18.1934 10.1983 16.6583 11.8199 15.9453C11.3029 15.4226 10.9828 14.7043 10.9828 13.9124C10.9828 12.3172 12.2808 11.0196 13.8756 11.0196C15.4704 11.0196 16.7683 12.3176 16.7683 13.9124C16.7683 14.707 16.446 15.4278 15.926 15.951C16.8192 16.3469 17.5905 16.9941 18.1334 17.8181C18.7297 17.1573 19.4721 16.6346 20.3079 16.2969C19.64 15.6905 19.2199 14.8161 19.2199 13.8449C19.2199 12.019 20.7056 10.5334 22.5315 10.5334C24.3574 10.5334 25.843 12.019 25.843 13.8449C25.843 14.8157 25.4229 15.6905 24.7551 16.2969C25.5913 16.6346 26.3332 17.1573 26.9296 17.8181C27.4724 16.9941 28.2437 16.3465 29.137 15.951C28.6165 15.4274 28.2946 14.707 28.2946 13.9124C28.2946 12.3172 29.5926 11.0196 31.1874 11.0196C32.7822 11.0196 34.0801 12.3176 34.0801 13.9124C34.0801 14.7043 33.76 15.4226 33.243 15.9453C34.8646 16.6583 36.049 18.193 36.2485 20.0588ZM31.1865 15.5147H31.1874C32.0709 15.5142 32.7896 14.7955 32.7896 13.912C32.7896 13.0284 32.0709 12.3093 31.1869 12.3093C30.3029 12.3093 29.5842 13.028 29.5842 13.912C29.5842 14.7955 30.3029 15.5147 31.1865 15.5147ZM22.5306 15.8659C22.531 15.8659 22.531 15.8659 22.5315 15.8659C22.5319 15.8659 22.5319 15.8659 22.5323 15.8659C23.6466 15.8655 24.5525 14.9591 24.5525 13.8449C24.5525 12.7307 23.6457 11.8238 22.5315 11.8238C21.4173 11.8238 20.5104 12.7307 20.5104 13.8449C20.5104 14.9591 21.4164 15.8655 22.5306 15.8659ZM13.8751 15.5147H13.876C14.7596 15.5142 15.4783 14.7955 15.4783 13.912C15.4783 13.0284 14.7596 12.3093 13.8756 12.3093C12.9916 12.3093 12.2729 13.028 12.2729 13.912C12.2729 14.7955 12.9916 15.5147 13.8751 15.5147ZM17.0761 19.4822C17.1476 19.3116 17.227 19.1454 17.3138 18.984C16.6916 17.6699 15.3463 16.8056 13.8769 16.8052C13.8764 16.8052 13.8764 16.8052 13.876 16.8052C13.8756 16.8052 13.8756 16.8052 13.8751 16.8052C12.1764 16.8056 10.7232 17.9154 10.2431 19.4822H17.0761ZM26.9997 20.5718C26.4656 18.5819 24.6564 17.1568 22.5323 17.1564C22.5319 17.1564 22.5319 17.1564 22.5315 17.1564C22.531 17.1564 22.531 17.1564 22.5306 17.1564C20.4061 17.1568 18.5973 18.5824 18.0628 20.5718H26.9997ZM34.8199 19.4822C34.3397 17.9154 32.8865 16.8056 31.1878 16.8052C31.1874 16.8052 31.1874 16.8052 31.1869 16.8052C31.1865 16.8052 31.1865 16.8052 31.1861 16.8052C29.7167 16.8056 28.3714 17.6699 27.7491 18.984C27.8355 19.1458 27.9149 19.3116 27.9868 19.4822H34.8199ZM10.7491 27.878L9.11789 26.5669C8.84909 26.3508 8.74429 25.9995 8.85085 25.6715C8.9574 25.3435 9.249 25.1212 9.59322 25.1046L11.6831 25.0028L12.4259 23.0463C12.5478 22.7244 12.8499 22.5166 13.1946 22.5166C13.5397 22.5166 13.8414 22.7244 13.9637 23.0463L14.7065 25.0028L16.7968 25.1046C17.141 25.1212 17.4322 25.344 17.5392 25.6715C17.6458 25.9995 17.5409 26.3508 17.2722 26.5669L15.6409 27.878L16.1899 29.8973C16.2803 30.2301 16.1588 30.5757 15.8799 30.7787C15.601 30.9813 15.2345 30.9905 14.9459 30.8015L13.195 29.6553L11.4441 30.8015C11.3055 30.8923 11.1494 30.937 10.9933 30.937C10.8241 30.937 10.6553 30.8839 10.5101 30.7787C10.2312 30.5761 10.1093 30.2301 10.1997 29.8973L10.7491 27.878ZM10.8863 26.3332L11.7958 27.0642C12.051 27.2694 12.1602 27.6057 12.0742 27.9215L11.7682 29.0471L12.7442 28.4077C13.0183 28.2288 13.3717 28.2288 13.6449 28.4077L14.6214 29.0471L14.3154 27.921C14.2294 27.6053 14.3391 27.269 14.5938 27.0642L15.5033 26.3332L14.3377 26.2762C14.0111 26.2604 13.7252 26.0526 13.609 25.7465L13.1946 24.6555L12.7802 25.7465C12.6644 26.0521 12.3781 26.26 12.0514 26.2762L10.8863 26.3332ZM43 32.6033C43 38.1932 38.4524 42.7408 32.8624 42.7408C30.9984 42.7408 29.2505 42.2344 27.7482 41.353C26.0539 41.8218 24.3004 42.0599 22.5306 42.0599C18.3929 42.0599 14.3583 40.7387 11.0332 38.3173L11.4274 39.6986C11.5252 40.041 11.3266 40.398 10.9841 40.4957C10.9249 40.5128 10.8653 40.5207 10.807 40.5207C10.5259 40.5207 10.2676 40.3361 10.1869 40.0524L9.23102 36.7023C9.17665 36.5116 9.21304 36.3064 9.32968 36.1459C9.44632 35.9854 9.63005 35.8876 9.82825 35.8806L13.3099 35.7556C13.6655 35.7407 13.965 36.0209 13.9777 36.377C13.9905 36.733 13.7124 37.0321 13.3564 37.0448L11.5713 37.1088C14.7184 39.4754 18.574 40.7698 22.531 40.7698C23.8206 40.7698 25.1006 40.6348 26.3525 40.3677C24.239 38.5927 22.8586 35.9727 22.7354 33.0326L22.5319 32.8997L20.268 34.3818C20.1224 34.477 19.9575 34.5248 19.7935 34.5248C19.6155 34.5248 19.4379 34.4691 19.2848 34.3581C18.9911 34.145 18.863 33.7806 18.9582 33.4307L19.6681 30.8195L17.5589 29.1242C17.2761 28.8967 17.1656 28.527 17.2779 28.1819C17.3901 27.8368 17.6966 27.6022 18.0593 27.5847L20.7617 27.4531L21.722 24.9235C21.8505 24.5849 22.1684 24.3657 22.5315 24.3657C22.8945 24.3657 23.2125 24.5845 23.3409 24.9235L24.2372 27.2839C26.0254 24.3955 29.2229 22.4666 32.8629 22.4666C35.8837 22.4666 38.5997 23.7952 40.4585 25.8982C40.6655 24.791 40.7703 23.6632 40.7703 22.5306C40.7703 19.305 39.9165 16.1351 38.302 13.3638C38.1226 13.056 38.2265 12.6609 38.5348 12.4816C38.8426 12.3022 39.2377 12.4062 39.4171 12.714C41.1469 15.6826 42.0612 19.077 42.0612 22.5306C42.0612 24.132 41.8656 25.725 41.4806 27.2703C42.4427 28.8199 43 30.6476 43 32.6033ZM22.7779 31.5618C22.8849 30.52 23.1502 29.5246 23.5497 28.5998C23.39 28.5016 23.2629 28.3525 23.1936 28.1696L22.5315 26.4253L21.8693 28.1696C21.747 28.4915 21.4458 28.7103 21.102 28.727L19.2384 28.8177L20.6924 29.9863C20.9608 30.2021 21.0757 30.5564 20.9853 30.8883L20.496 32.6883L22.057 31.6666C22.2736 31.5254 22.538 31.4904 22.7779 31.5618ZM41.7095 32.6033C41.7095 27.725 37.7407 23.7562 32.8624 23.7562C27.9842 23.7562 24.0153 27.725 24.0153 32.6033C24.0153 37.4815 27.9842 41.4504 32.8624 41.4504C37.7407 41.4504 41.7095 37.4815 41.7095 32.6033ZM39.9446 28.887V36.3195C39.9446 36.5502 39.8218 36.7628 39.6218 36.8782L33.1852 40.5944C33.0852 40.6519 32.9738 40.6808 32.8624 40.6808C32.751 40.6808 32.6397 40.6519 32.5397 40.5944L26.103 36.8782C25.9035 36.7628 25.7803 36.5497 25.7803 36.3195V28.887C25.7803 28.6564 25.9031 28.4437 26.103 28.3284L32.5397 24.6121C32.7392 24.4968 32.9852 24.4968 33.1847 24.6121L39.6214 28.3284C39.8213 28.4437 39.9446 28.6568 39.9446 28.887ZM38.009 28.887L37.0141 28.3126L31.8675 31.2838L32.8624 31.8583L38.009 28.887ZM30.5774 30.5393L35.724 27.568L35.1479 27.2352L30.0008 30.2065L30.5774 30.5393ZM29.3558 32.7607L29.932 33.0935V31.6566L29.3558 31.3237V32.7607ZM27.7158 28.887L28.7107 29.4614L33.8574 26.4902L32.8624 25.9158L27.7158 28.887ZM27.0708 35.9472L32.2174 38.9185V32.976L31.2224 32.4016V34.2108C31.2224 34.4414 31.0997 34.6541 30.8997 34.7694C30.7997 34.8269 30.6884 34.8558 30.577 34.8558C30.4656 34.8558 30.3542 34.8269 30.2543 34.7694L28.3876 33.6916C28.1881 33.5763 28.0648 33.3632 28.0648 33.133V30.5787L27.0699 30.0043V35.9472H27.0708ZM38.6541 35.9472V30.0043L33.5074 32.9755V38.918L38.6541 35.9472Z" fill="#FDFEFE"/>
</svg>
