<svg xmlns="http://www.w3.org/2000/svg" viewBox="0 0 60 60" width="60"
height="60" fill="#fff" x="0px" y="0px"><g data-name="Layer 46"><path d="M45.13,38.34l-.19-.03a.9.9,0,0,0,.05-.43,1,1,0,0,0-.6-.8L38,34.34V32.98a10.977,10.977,0,0,0,3.9-7.04,5,5,0,0,0,3.96-3.36,3.432,3.432,0,0,0-.47-3.13,3.129,3.129,0,0,0-.39-.42V11a9.014,9.014,0,0,0-9-9H31a4.989,4.989,0,0,0-4.33,2.51A2.964,2.964,0,0,0,25,4H24a5,5,0,0,0-5,5V19.03a3.129,3.129,0,0,0-.39.42,3.416,3.416,0,0,0-.47,3.12,5.027,5.027,0,0,0,3.96,3.37A10.977,10.977,0,0,0,26,32.98v1.36l-6.39,2.74a1,1,0,0,0-.6.8.9.9,0,0,0,.05.43l-.19.03A12.961,12.961,0,0,0,8,51.17V61a1,1,0,0,0,1,1H55a1,1,0,0,0,1-1V51.17A12.961,12.961,0,0,0,45.13,38.34ZM43.76,20.62a1.437,1.437,0,0,1,.2,1.33A2.93,2.93,0,0,1,42,23.86V20h.56A1.47,1.47,0,0,1,43.76,20.62ZM22,23.86a2.97,2.97,0,0,1-1.96-1.92,1.421,1.421,0,0,1,.2-1.32,1.47,1.47,0,0,1,1.2-.62H22ZM23,14a1,1,0,0,0-1,1v3h-.56a3.293,3.293,0,0,0-.44.05V9a3.009,3.009,0,0,1,3-3h1a.949.949,0,0,1,.71.31A.928.928,0,0,1,26,7a1,1,0,0,0,2,0,3.009,3.009,0,0,1,3-3h5a7.008,7.008,0,0,1,7,7v7.05a3.293,3.293,0,0,0-.44-.05H42V15a1,1,0,0,0-1-1H36.24a21.012,21.012,0,0,1-7.8-1.5l-1.07-.43a1.008,1.008,0,0,0-1.08.22l-.83.83a2.956,2.956,0,0,1-2.12.88Zm1,10.5V15.96a5,5,0,0,0,2.88-1.42l.36-.37.46.18A22.691,22.691,0,0,0,36.24,16H40v8.5a9.033,9.033,0,0,1-5.34,8.23l-.63.27a4.954,4.954,0,0,1-4.06,0l-.63-.27A9.033,9.033,0,0,1,24,24.5ZM10,60V51.17a10.955,10.955,0,0,1,9.19-10.85l1.83-.31,1.25.94-1.82,1.22a1,1,0,0,0-.37,1.23L27.42,60ZM22.25,43.37l2.3-1.54a.994.994,0,0,0,.05-1.63l-2.62-1.96,4.13-1.77,1.45,18.9ZM34.07,60H29.93L28.82,45.56a11.711,11.711,0,0,0,6.36,0ZM36,34.96l-.65,8.45a10.129,10.129,0,0,1-6.7,0L28,34.96v-.67c.18.09.35.18.53.26l.63.28a7.021,7.021,0,0,0,5.68,0l.63-.28c.18-.08.35-.17.53-.26Zm1.89,1.51,4.13,1.77L39.4,40.2a.994.994,0,0,0,.05,1.63l2.3,1.54-5.31,12ZM54,60H36.58l7.34-16.6a1,1,0,0,0-.37-1.23l-1.82-1.22,1.25-.94,1.83.31A10.955,10.955,0,0,1,54,51.17Z"/><path d="M46,55H45V54a1,1,0,0,0-2,0v1H42a1,1,0,0,0,0,2h1v1a1,1,0,0,0,2,0V57h1a1,1,0,0,0,0-2Z"/><path d="M23,54H18a1,1,0,0,0-1,1v3a1,1,0,0,0,1,1h5a1,1,0,0,0,1-1V55A1,1,0,0,0,23,54Zm-1,3H19V56h3Z"/><path d="M27,20h3a1,1,0,0,0,0-2H27a1,1,0,0,0,0,2Z"/><path d="M34,20h3a1,1,0,0,0,0-2H34a1,1,0,0,0,0,2Z"/><path d="M34,21v1a1,1,0,0,0,2,0V21a1,1,0,0,0-2,0Z"/><path d="M28,21v1a1,1,0,0,0,2,0V21a1,1,0,0,0-2,0Z"/><path d="M29.706,27.292a1,1,0,0,0-1.412,1.416l.171.17a5,5,0,0,0,7.069,0l.172-.171a1,1,0,0,0-1.412-1.416l-.173.172a3.069,3.069,0,0,1-4.243,0Z"/></g></svg>