<svg width="48" height="48" viewBox="0 0 48 48" fill="none" xmlns="http://www.w3.org/2000/svg">
<path d="M23.2506 32.7324C22.2508 32.7324 21.4375 33.546 21.4375 34.5455C21.4375 35.545 22.2508 36.3586 23.2506 36.3586C24.2501 36.3586 25.0631 35.545 25.0631 34.5455C25.0631 33.546 24.2501 32.7324 23.2506 32.7324ZM23.2506 35.3126C22.8277 35.3126 22.4835 34.9684 22.4835 34.5455C22.4835 34.1226 22.8277 33.7784 23.2506 33.7784C23.6735 33.7784 24.0172 34.1226 24.0172 34.5455C24.0172 34.9684 23.6735 35.3126 23.2506 35.3126Z" fill="#fff"/>
<path d="M39.4258 32.7324C38.4264 32.7324 37.6133 33.546 37.6133 34.5455C37.6133 35.545 38.4264 36.3586 39.4258 36.3586C40.4253 36.3586 41.2389 35.545 41.2389 34.5455C41.2389 33.546 40.4253 32.7324 39.4258 32.7324ZM39.4258 35.3126C39.003 35.3126 38.6592 34.9684 38.6592 34.5455C38.6592 34.1226 39.003 33.7784 39.4258 33.7784C39.8487 33.7784 40.193 34.1226 40.193 34.5455C40.193 34.9684 39.8487 35.3126 39.4258 35.3126Z" fill="#fff"/>
<path d="M43.9959 33.8289V28.7181C43.9959 28.6267 43.9719 28.5368 43.9265 28.4571L40.6931 22.8358C40.5996 22.6736 40.4265 22.5735 40.2395 22.5735H40.1767H38.4295H35.4612C35.4443 22.5735 35.4305 22.5815 35.4137 22.583C35.3968 22.5815 35.382 22.573 35.3641 22.573C35.0751 22.573 34.8412 22.8072 34.8412 23.096V30.9362H34.593V21.3473C34.593 20.3616 33.7906 19.5598 32.8049 19.5598H26.0735C25.8192 13.1427 20.5215 8 14.0424 8C7.4022 8 2 13.4019 2 20.0419C2 26.6828 7.4022 32.0858 14.0424 32.0858C14.7656 32.0858 15.4847 32.0204 16.1885 31.8938V32.5919C16.1885 33.5776 16.9906 34.38 17.9765 34.38H19.811C19.8082 34.4372 19.8024 34.4939 19.8024 34.5516C19.8024 36.4479 21.3453 37.9908 23.2416 37.9908C25.1379 37.9908 26.6808 36.4479 26.6808 34.5516C26.6808 34.4939 26.6752 34.4372 26.6721 34.38H32.8049C32.831 34.38 32.855 34.3733 32.8805 34.3723H35.9949C35.9918 34.4321 35.9857 34.4908 35.9857 34.5516C35.9857 36.4479 37.5286 37.9908 39.4249 37.9908C41.3218 37.9908 42.8647 36.4479 42.8647 34.5516C42.8647 34.4908 42.8585 34.4316 42.8555 34.3718H43.4811C43.7702 34.3718 44 34.1379 44 33.8488C44 33.8417 43.9964 33.8361 43.9959 33.8289ZM42.95 30.4045H42.2921C42.2191 30.4045 42.1593 30.3442 42.1593 30.2702C42.1593 30.2237 42.1793 30.1946 42.1997 30.1742C42.2165 30.1573 42.2462 30.1369 42.2921 30.1369H42.95V30.4045ZM39.8744 23.6195L41.9908 27.2993H39.3544C39.1328 27.2993 38.9525 27.119 38.9525 26.8973V23.6195H39.8744ZM34.8412 31.9821V33.3264H34.4311C34.5327 33.1016 34.593 32.8544 34.593 32.5919V31.9821H34.8412ZM14.0424 31.0398C7.97906 31.0398 3.04597 26.1062 3.04597 20.0419C3.04597 13.9788 7.97906 9.04597 14.0424 9.04597C19.9438 9.04597 24.7605 13.7211 25.0153 19.5598H17.9765C16.9906 19.5598 16.1885 20.3616 16.1885 21.3473V30.8258C15.487 30.9653 14.7676 31.0398 14.0424 31.0398ZM23.2416 36.9448C21.9219 36.9448 20.8483 35.8713 20.8483 34.5516C20.8483 33.2319 21.9219 32.1578 23.2416 32.1578C24.5613 32.1578 25.6348 33.2319 25.6348 34.5516C25.6348 35.8713 24.5613 36.9448 23.2416 36.9448ZM23.2416 31.1118C21.7743 31.1118 20.522 32.0373 20.0291 33.334H17.9765C17.5674 33.334 17.2344 33.001 17.2344 32.5919V21.3473C17.2344 20.9385 17.5674 20.6057 17.9765 20.6057H32.8049C33.214 20.6057 33.547 20.9385 33.547 21.3473V32.5919C33.547 32.975 33.2538 33.2875 32.8805 33.3264H32.4443C32.4311 33.3264 32.4193 33.333 32.4065 33.334H26.454C25.9612 32.0373 24.7089 31.1118 23.2416 31.1118ZM39.4249 36.9448C38.1052 36.9448 37.0317 35.8713 37.0317 34.5516C37.0317 33.2319 38.1052 32.1578 39.4249 32.1578C40.7446 32.1578 41.8187 33.2319 41.8187 34.5516C41.8187 35.8713 40.7446 36.9448 39.4249 36.9448ZM39.4249 31.1118C37.9607 31.1118 36.7104 32.0332 36.2155 33.3258H35.8871V23.6195H37.9065V26.8973C37.9065 27.6956 38.5562 28.3453 39.3544 28.3453H42.6553L42.95 28.8575V29.0909H42.2921C41.9755 29.0909 41.6788 29.214 41.4612 29.4336C41.237 29.6553 41.1134 29.952 41.1134 30.2702C41.1134 30.9208 41.642 31.4505 42.2921 31.4505H42.95V33.3258H42.6348C42.1399 32.0332 40.8897 31.1118 39.4249 31.1118Z" fill="#fff"/>
<path d="M14.5145 17.8738V15.4566C14.5145 15.1678 14.2804 14.9336 13.9916 14.9336C13.7027 14.9336 13.4686 15.1678 13.4686 15.4566V17.9037C12.5237 18.1573 11.8225 19.013 11.8225 20.0368C11.8225 20.2234 11.8526 20.4019 11.8963 20.5753L7.48389 23.0771C7.23261 23.2196 7.14451 23.5388 7.28675 23.7901C7.38302 23.9602 7.55999 24.0551 7.74232 24.0551C7.82965 24.0551 7.91826 24.0332 7.99972 23.9872L12.3869 21.4997C12.7934 21.9586 13.38 22.2538 14.0396 22.2538C15.262 22.2538 16.2566 21.2592 16.2566 20.0368C16.2566 18.9778 15.5089 18.0922 14.5145 17.8738ZM14.0396 21.2079C13.3937 21.2079 12.8685 20.6826 12.8685 20.0368C12.8685 19.3909 13.3937 18.8657 14.0396 18.8657C14.6854 18.8657 15.2107 19.3909 15.2107 20.0368C15.2107 20.6826 14.6854 21.2079 14.0396 21.2079Z" fill="#fff"/>
<path d="M14.0464 11.4741C14.3352 11.4741 14.5694 11.2399 14.5694 10.9511V9.76517C14.5694 9.47636 14.3352 9.24219 14.0464 9.24219C13.7576 9.24219 13.5234 9.47636 13.5234 9.76517V10.9511C13.5234 11.2399 13.7576 11.4741 14.0464 11.4741Z" fill="#fff"/>
<path d="M14.0464 28.6152C13.7576 28.6152 13.5234 28.8491 13.5234 29.1382V30.3241C13.5234 30.6132 13.7576 30.8471 14.0464 30.8471C14.3352 30.8471 14.5694 30.6132 14.5694 30.3241V29.1382C14.5694 28.8491 14.3352 28.6152 14.0464 28.6152Z" fill="#fff"/>
<path d="M5.46234 20.0464C5.46234 19.7576 5.22817 19.5234 4.93936 19.5234H3.75345C3.46464 19.5234 3.23047 19.7576 3.23047 20.0464C3.23047 20.3352 3.46464 20.5694 3.75345 20.5694H4.93936C5.22817 20.5694 5.46234 20.3352 5.46234 20.0464Z" fill="#fff"/>
<path d="M18.0151 12.4551C18.0925 12.4955 18.1752 12.5146 18.257 12.5146C18.4454 12.5146 18.6275 12.4125 18.7209 12.234L19.2705 11.1834C19.4043 10.9275 19.3052 10.6116 19.0493 10.4776C18.7932 10.3438 18.4776 10.4428 18.3435 10.6987L17.794 11.7493C17.6602 12.0052 17.7593 12.321 18.0151 12.4551Z" fill="#fff"/>
<path d="M10.0735 27.6304C9.81764 27.4956 9.50125 27.5957 9.36769 27.851L8.81764 28.9016C8.68358 29.1575 8.7824 29.4736 9.03828 29.6074C9.11565 29.6483 9.19864 29.6672 9.28036 29.6672C9.46882 29.6672 9.65089 29.565 9.7441 29.3868L10.2941 28.3362C10.4282 28.0803 10.3294 27.7642 10.0735 27.6304Z" fill="#fff"/>
<path d="M4.68671 15.7423L5.73728 16.2924C5.81465 16.333 5.89764 16.3521 5.97936 16.3521C6.16782 16.3521 6.34989 16.2502 6.4431 16.0717C6.57716 15.8159 6.47834 15.4997 6.22246 15.3659L5.1719 14.8159C4.91629 14.6815 4.59964 14.7804 4.46608 15.0365C4.33202 15.2924 4.43084 15.6085 4.68671 15.7423Z" fill="#fff"/>
<path d="M21.9924 16.1648C22.0779 16.1648 22.1647 16.1439 22.2449 16.0995L23.2827 15.5254C23.5358 15.3857 23.6272 15.0673 23.4873 14.8147C23.3478 14.5619 23.0294 14.4708 22.7766 14.6102L21.7388 15.1843C21.486 15.3239 21.3943 15.6424 21.5343 15.8949C21.6298 16.0676 21.8083 16.1648 21.9924 16.1648Z" fill="#fff"/>
<path d="M5.843 23.9832L4.8052 24.5573C4.5524 24.6972 4.46072 25.0154 4.60066 25.2682C4.69616 25.4403 4.87466 25.5378 5.05878 25.5378C5.14433 25.5378 5.23115 25.5169 5.31133 25.4725L6.34913 24.8984C6.60194 24.7585 6.69361 24.4403 6.55367 24.1875C6.41373 23.9352 6.09606 23.8438 5.843 23.9832Z" fill="#fff"/>
<path d="M9.18178 12.3358C9.27729 12.5085 9.45579 12.606 9.64016 12.606C9.7257 12.606 9.81227 12.5851 9.89246 12.5409C10.1453 12.4012 10.2372 12.083 10.0975 11.8302L9.52397 10.7919C9.38377 10.5391 9.0661 10.4469 8.81329 10.5869C8.56048 10.7265 8.46855 11.0447 8.60824 11.2975L9.18178 12.3358Z" fill="#fff"/>
<circle cx="24" cy="24" r="23.95"/>
</svg>
