<svg xmlns="http://www.w3.org/2000/svg" xmlns:xlink="http://www.w3.org/1999/xlink" width="60"
height="60" fill="#fff" version="1.1" x="0px" y="0px" viewBox="0 0 512 512" style="enable-background:new 0 0 512 512;" xml:space="preserve"><g><path d="M223.9,195.7c-5.5,0-10,4.5-10,10v5.2c0,5.9-5.1,10.7-11,10.7c-5.9,0-11-4.8-11-10.7v-5.2c0-5.5-4.5-10-10-10   s-10,4.5-10,10v5.2c0,16.9,14.1,30.7,31,30.7c16.9,0,31-13.8,31-30.7v-5.2C233.9,200.2,229.4,195.7,223.9,195.7z"/><path d="M306.4,241.6c16.9,0,30.5-13.8,30.5-30.7v-5.2c0-5.5-4.5-10-10-10s-10,4.5-10,10v5.2c0,5.9-4.6,10.7-10.5,10.7   c-5.9,0-10.5-4.8-10.5-10.7v-5.2c0-5.5-4.5-10-10-10s-10,4.5-10,10v5.2C275.9,227.8,289.5,241.6,306.4,241.6z"/><path d="M231.4,84.9h13.5V98c0,5.5,4.5,10,10,10c5.5,0,10-4.5,10-10V84.9h12.9c5.5,0,10-4.5,10-10s-4.5-10-10-10h-12.9V51.5   c0-5.5-4.5-10-10-10c-5.5,0-10,4.5-10,10v13.4h-13.5c-5.5,0-10,4.5-10,10S225.8,84.9,231.4,84.9z"/><path d="M357.7,363h-49.8v-9.9c51-1.2,97.5-29.4,122.1-75.3c11.9-22.2,17.8-46.8,16.9-71.3c-1-26.2-9.7-51.6-25.3-73.6   c-10.1-14-21.7-25-35.7-32.4V78.6c0-25.1-17-47-41.3-53.1L272,7c-11.6-3-23.9-2.9-35.5,0l-72.1,18.4c-24.4,6.2-41.5,28.1-41.5,53.1   V100c-14,7.4-26,18.6-36.4,33.2c-15.6,22-24.3,47.4-25.2,73.6c-0.9,24.5,5,49.1,16.9,71.3c25.5,47.4,74.7,76.1,127.7,75.2v9.6   h-49.6c-51.1,0-92.6,41.8-92.6,92.9v25.8c0,5.5,4.5,10,10,10s10-4.5,10-10v-25.8c0-38.4,30-70,68-72.5v12c-21,4.7-37,23.5-37,45.9   v51.9c0,5.5,4.6,9.8,10.1,9.8h14.8c5.5,0,10-4.5,10-10s-4.5-10-10-10h-4.7v-41.7c0-14.9,12.1-27.1,27-27.1c14.9,0,27,12.1,27,27.1   v41.7h-8.3c-5.5,0-10,4.5-10,10s4.5,10,10,10h18.5c5.5,0,9.8-4.3,9.8-9.8v-51.9c0-22.7-16-41.6-37-46.1v-12.2h40   c9.3,9,21,14,33,16.2v82.4c0,5.5,4.5,10,10,10c5.5,0,10-4.4,10-9.9v-81.7c14-1.5,26.7-6.9,37.3-16.9h46.7v48.3   c-16,4.4-28.5,19.5-28.5,37.3c0,21.3,17.4,38.6,38.6,38.6s38.5-17.3,38.5-38.6c0-17.8-11.7-32.9-28.7-37.3v-47.2   c35,5.4,62,35.5,62,71.8v25.8c0,5.5,4.5,10,10,10s10-4.5,10-10v-25.8C450.8,404.8,408.8,363,357.7,363z M385.9,190.2   c5,2.1,8.7,7.2,8.7,13.1c0,5.9-3.7,11-8.7,13.1V190.2z M385.3,237.1c16.4-2.5,29.2-16.7,29.2-33.8c0-17-12.6-31.1-28.6-33.8V124   c7,5.5,13.7,12.4,19.6,20.8c26.3,37,28.9,83.3,7.1,123.8c-16.3,30.3-43.5,51.7-75.2,60.4C364.5,306.9,382.6,274.1,385.3,237.1z    M142.8,78.5c0.1-15.9,11.1-29.8,26.5-33.7l72-18.4c8.4-2.1,17.3-2.2,25.7,0l72.7,18.5c15.5,3.9,26.2,17.8,26.2,33.8v25.2   c0,0.8,0,1.7,0,2.5v34.9c-33,6.7-63.2,3.1-89.8-10.7c-21.5-11.1-32.8-25-32.9-25.1c-1.9-2.4-4.9-3.7-8-3.7h-0.1   c-3.1,0-5.9,1.4-7.8,3.9c-30.4,40.5-67.5,42.2-83.5,40.9v-40.2c0-0.9,0-1.7-1-2.5V78.5z M96,268.6c-21.8-40.6-19.1-86.8,7.2-123.8   c6.2-8.7,12.7-15.8,20.7-21.4v46.1c-17,2.6-28.9,16.8-28.9,33.8c0,17.1,12.6,31.3,29,33.8c2.7,37.2,20.9,70.1,48.3,92.2   C140.1,320.8,112.4,299.2,96,268.6z M123.9,190.2v26.2c-5-2.1-8.7-7.2-8.7-13.1C115.2,197.4,118.9,192.3,123.9,190.2z M143.9,227.5   v-60.9c2,0.1,4.1,0.2,6.5,0.2c5.7,0,12.2-0.4,19.5-1.8c18-3.3,43.2-12.7,65.9-38.3c6.4,6,16.5,14.1,30.1,21.2   c21,11,54.9,21.8,99.9,13.7v65.8c0.1,61.3-49.7,111.1-110.9,111.1S143.9,288.7,143.9,227.5z M256.9,380h-0.1   c-11.4,0-22.3-3.8-30.9-11.1v-13.7c9,2.1,18.7,3.2,28.6,3.2c11.6,0,23.4-1.5,33.4-4.4v14.7C279.3,376,268.4,380,256.9,380z    M377.7,468.5c0,10.3-8.3,18.6-18.6,18.6c-10.3,0-18.6-8.3-18.6-18.6c0-10.3,8.3-18.6,18.6-18.6   C369.4,449.9,377.7,458.2,377.7,468.5z"/></g></svg>