<svg width="48" height="48" viewBox="0 0 48 48" fill="none" xmlns="http://www.w3.org/2000/svg">
<path d="M12.8678 32.5441C15.3697 35.5667 18.9729 37.4281 22.8693 37.7214C20.7745 36.2071 18.9729 34.2918 17.5783 32.0832C15.8904 32.3166 14.3223 32.4902 12.8678 32.5441ZM15.7707 17.6645C15.9443 17.5508 16.064 17.4909 16.1777 17.4311C16.3513 16.9642 16.5249 16.5572 16.6984 16.2101C15.244 15.7432 13.8494 15.1627 12.5147 14.4684C10.7131 16.7967 9.60583 19.6457 9.4921 22.782H15.1303C15.1303 22.4348 15.1303 22.0817 15.1901 21.7346C14.4899 21.2138 13.6759 20.5135 13.3287 19.6995C13.0953 19.0591 13.1551 18.4785 13.4424 18.0117C13.9153 17.1977 15.0166 17.0241 15.7707 17.6645ZM17.285 17.3114C17.6322 17.4251 17.9853 17.6585 18.1589 18.0117C18.4522 18.4785 18.506 19.0591 18.2726 19.6995C17.8656 20.5734 16.9379 21.3874 16.1777 21.9081C16.1179 22.2014 16.1179 22.4887 16.1179 22.782H23.5038V17.2575C21.5286 17.1977 19.5475 16.9642 17.6322 16.4435C17.5184 16.7308 17.3987 17.0241 17.285 17.3114ZM16.2376 18.6521C16.0041 18.9454 15.5971 18.9454 15.3637 18.6521C15.1901 18.4187 14.9567 18.305 14.7831 18.305C14.2624 18.305 14.0829 18.8855 14.2624 19.2925C14.5557 19.933 15.25 20.5135 15.7767 20.9205C16.2974 20.5135 17.0576 19.933 17.3449 19.2925C17.5184 18.8855 17.3449 18.305 16.8241 18.305C16.5847 18.299 16.3573 18.4785 16.2376 18.6521ZM31.8174 8.59075C32.5716 8.01018 33.6788 8.1239 34.1996 8.99776C34.4929 9.40476 34.5467 10.0452 34.2594 10.6258C34.1457 10.919 34.026 11.0926 33.8524 11.3261C34.7802 12.1401 35.654 13.0139 36.4082 14.0015C38.6766 13.9416 40.5919 14.1751 42.0463 14.7018C43.5606 15.2225 44.5482 15.9826 44.8954 17.0839C45.4161 18.8855 43.9676 21.0403 41.1186 23.189C40.5979 23.5361 40.0113 23.9431 39.4308 24.3501C38.91 32.4303 32.1646 38.7688 24.0245 38.7688C19.1405 38.7688 14.5497 36.5004 11.6408 32.6039C10.5934 32.6039 9.66568 32.5441 8.79182 32.4902C5.70937 32.1431 3.6145 31.1555 3.09378 29.4676C2.8005 28.4202 3.2075 27.1992 4.14121 25.9183C5.12879 24.7571 6.58323 23.4763 8.55839 22.2553C8.79182 18.3588 10.4797 14.9292 13.0354 12.3136C15.8246 9.52447 19.721 7.77675 24.0245 7.77675C25.8859 7.77675 27.8012 8.1239 29.549 8.82418C30.0757 8.12988 31.0633 8.01018 31.8174 8.59075ZM33.1581 12.0802C32.811 12.3735 32.4578 12.6608 32.1107 12.8942C31.9371 13.0079 31.7037 13.0079 31.5301 12.8942C30.7161 12.3136 29.7884 11.5595 29.3814 10.6258C29.2078 10.3325 29.2078 10.0452 29.2078 9.75191C27.8731 9.23118 26.5324 8.9379 25.1378 8.82418C27.4661 10.5659 29.4412 12.7805 30.8358 15.2764C32.2304 14.8694 33.5711 14.3486 34.846 13.6484C34.3791 13.0678 33.7986 12.5471 33.1581 12.0802ZM32.2244 9.57833C32.0508 9.87161 31.584 9.92548 31.4104 9.63819C31.177 9.34491 30.9435 9.23118 30.77 9.23118C30.2493 9.23118 30.1295 9.81176 30.3031 10.2188C30.5964 10.8592 31.2907 11.4398 31.8174 11.8468C32.3381 11.4398 33.0384 10.8592 33.3317 10.2188C33.5053 9.81176 33.3916 9.23118 32.8648 9.23118C32.5775 9.23118 32.404 9.40476 32.2244 9.57833ZM24.4914 24.811C25.5986 23.997 26.9932 23.7636 28.2681 24.5177C28.735 24.7512 29.0821 25.0983 29.3754 25.5053C30.1894 25.212 31.0633 24.8649 31.8773 24.5177C31.8773 24.2843 31.8773 23.997 31.8773 23.7636H24.4914V24.811ZM29.7824 26.439C29.8961 26.846 29.956 27.3129 29.8961 27.7738C34.2594 26.1457 37.9763 24.2245 40.4782 22.369C42.9801 20.5076 44.2549 18.706 43.9078 17.3712C43.6744 16.6171 42.9202 16.0365 41.6992 15.6295C40.538 15.2824 38.9639 15.0489 37.1084 14.9891C37.3419 15.4559 37.6292 15.8629 37.8626 16.3238C41.1186 16.4375 42.6329 16.9642 42.6329 18.1254C42.6928 20.8607 32.2843 25.5113 29.7824 26.439ZM29.6088 29.0008C29.4951 29.294 29.3754 29.5813 29.2018 29.8746C29.549 29.9345 29.956 30.0482 30.3091 30.108C30.6024 29.5873 30.8298 29.0008 31.0094 28.48C30.5425 28.6536 30.0757 28.8272 29.6088 29.0008ZM28.6212 30.7425C27.514 32.1969 25.8859 33.4778 24.4914 34.4654V36.9672C26.6999 35.3991 28.5614 33.3641 29.8422 31.0358C29.4352 30.9161 29.0282 30.8023 28.6212 30.7425ZM23.5038 34.4654C22.3965 33.7112 21.1755 32.7236 20.134 31.6163C19.6672 31.7301 19.1465 31.7899 18.6197 31.9096C19.9006 33.8848 21.5825 35.5727 23.5038 36.9672V34.4654ZM19.3799 30.7425C19.0866 30.3355 18.8592 29.9285 18.6257 29.5215C16.2974 29.9883 13.9751 30.2218 11.593 30.2756C8.10351 30.2756 6.1882 29.8686 5.66149 28.9948C5.14076 28.0072 6.12835 26.7263 8.62423 24.9846C8.56438 24.5177 8.51051 23.997 8.51051 23.4703C6.94235 24.5177 5.77521 25.5652 4.9612 26.5527C4.20705 27.5403 3.91377 28.474 4.08735 29.1683C4.49435 30.3893 6.23608 31.1435 8.91153 31.4368C11.6468 31.7301 15.3099 31.5026 19.3799 30.7425ZM18.2127 28.5937C17.8057 27.0256 18.2726 25.3377 19.727 24.5237C21.0079 23.7696 22.4025 24.003 23.5038 24.817V23.7696H16.1239C16.1837 25.4574 16.471 27.1393 17.1114 28.7673C17.4586 28.7075 17.8656 28.6536 18.2127 28.5937ZM26.8197 29.695C26.4127 30.2158 25.5986 29.5813 26.0056 29.0546C26.3528 28.6476 27.1668 27.7199 26.7059 27.1932C26.2989 26.6725 27.0531 26.032 27.5199 26.5527C28.3878 27.6062 27.5199 28.8272 26.8197 29.695ZM25.3652 30.1021C25.6585 30.1021 25.8859 30.3355 25.8859 30.6228C25.8859 30.9161 25.6525 31.1435 25.3652 31.1435C25.0719 31.1435 24.8445 30.9101 24.8445 30.6228C24.8445 30.3355 25.0779 30.1021 25.3652 30.1021ZM24.0305 33.6514C26.0655 32.4902 27.8671 30.4552 28.6212 28.7673C29.142 27.5463 28.9684 26.0919 27.7474 25.3976C26.5862 24.6973 25.3054 25.2839 24.4914 26.2714C24.1442 26.5647 23.7911 26.5647 23.5038 26.2714C22.8633 25.3976 22.0493 25.0504 21.2952 25.1103C19.3739 25.1701 18.6796 27.1453 19.3739 28.7733C20.134 30.4552 21.9356 32.4902 24.0305 33.6514ZM16.064 28.881C15.4834 27.253 15.1901 25.5113 15.1363 23.7636H9.49809C9.55794 25.6849 10.0188 27.4865 10.779 29.2282C12.5746 29.2342 14.3223 29.1145 16.064 28.881ZM9.66568 29.2342C9.25868 28.2466 8.96539 27.1992 8.79182 26.1517C7.10396 27.3129 6.3498 28.1269 6.58323 28.48C6.76279 28.9409 7.81022 29.1145 9.66568 29.2342ZM38.3295 17.3712C38.7365 18.3588 39.0297 19.4063 39.2033 20.4537C40.8313 19.3464 41.6453 18.5923 41.6453 18.1254C41.6453 17.6585 40.5979 17.4311 38.3295 17.3712ZM38.3295 21.0343C37.9823 18.6521 36.9947 16.3837 35.4804 14.4624C34.1457 15.1627 32.7451 15.7432 31.2967 16.2041C32.2843 18.3528 32.8648 20.741 32.8648 23.2967C32.8648 23.5302 32.8648 23.8174 32.8648 24.0509C34.7861 23.183 36.5877 22.1954 38.3295 21.0343ZM32.2244 28.0132C31.9311 28.8272 31.6438 29.6412 31.2967 30.3953C32.7511 30.8023 34.1457 31.3829 35.4804 32.1371C37.0486 30.1021 38.096 27.66 38.3893 24.9846C36.6476 26.032 34.5527 27.0256 32.2244 28.0132ZM24.0305 4C24.2639 4 24.4973 4.23343 24.4973 4.52072C24.4973 4.81401 24.2639 5.04145 24.0305 5.04145C23.7372 5.04145 23.5098 4.80802 23.5098 4.52072C23.5038 4.23343 23.7372 4 24.0305 4ZM22.2289 4.11372C22.5222 4.05387 22.7496 4.2873 22.7496 4.52072C22.8095 4.81401 22.5761 5.1013 22.3426 5.1013C22.0493 5.1013 21.762 4.92773 21.762 4.63445C21.762 4.34715 21.9356 4.11372 22.2289 4.11372ZM20.4812 4.34715C20.7146 4.2873 21.0019 4.46087 21.0618 4.75415C21.1216 5.04743 20.948 5.27488 20.6548 5.33473C20.3615 5.39458 20.134 5.22101 20.0742 4.92773C20.0203 4.64043 20.1939 4.407 20.4812 4.34715ZM18.7394 4.75415C18.9729 4.64043 19.2602 4.81401 19.3799 5.1013C19.4397 5.33473 19.2662 5.62203 19.0327 5.74173C18.7394 5.80159 18.4522 5.62801 18.3923 5.39458C18.2726 5.1013 18.4462 4.81401 18.7394 4.75415ZM17.0516 5.28086C17.285 5.22101 17.5723 5.34072 17.692 5.57414C17.8057 5.86742 17.692 6.15472 17.3987 6.27443C17.1653 6.38815 16.878 6.21457 16.7583 5.98115C16.6446 5.68786 16.7643 5.39458 17.0516 5.28086ZM15.4236 6.03501C15.657 5.92129 15.9443 5.97516 16.1239 6.26844C16.2376 6.50187 16.1239 6.78917 15.8904 6.96873C15.5971 7.08245 15.3099 6.96873 15.1901 6.7353C15.0764 6.44202 15.1363 6.14874 15.4236 6.03501ZM13.8554 6.90887C14.0888 6.7353 14.436 6.79515 14.5557 7.08245C14.7293 7.31588 14.6156 7.60317 14.3821 7.78273C14.1487 7.89645 13.8614 7.84259 13.6818 7.60916C13.5621 7.36974 13.622 7.02259 13.8554 6.90887ZM12.401 7.89645C12.6344 7.72288 12.9217 7.78273 13.1013 8.01018C13.2748 8.2436 13.215 8.5309 12.9875 8.71046C12.814 8.88403 12.4668 8.82418 12.2873 8.59674C12.1077 8.35732 12.1675 8.07003 12.401 7.89645ZM11.0064 9.05761C11.2398 8.82418 11.5271 8.88403 11.7605 9.05761C11.9341 9.29104 11.9341 9.57833 11.7007 9.75789C11.4673 9.99132 11.18 9.93147 11.0004 9.75789C10.773 9.52447 10.8328 9.23118 11.0064 9.05761ZM9.78539 10.2786C9.95896 10.105 10.2522 10.0452 10.4857 10.2786C10.7191 10.4522 10.7191 10.7455 10.5455 10.9789C10.3121 11.2123 10.0248 11.2123 9.79137 11.0388C9.61181 10.7993 9.55196 10.512 9.78539 10.2786ZM8.62423 11.6732C8.79781 11.4398 9.09109 11.3799 9.32452 11.5595C9.55794 11.7331 9.6178 12.0263 9.43824 12.2598C9.26466 12.4932 8.97138 12.553 8.73795 12.3735C8.50452 12.1939 8.44467 11.9066 8.62423 11.6732ZM7.63066 13.1276C7.74439 12.8942 8.09752 12.8344 8.33095 12.9541C8.56438 13.1276 8.62423 13.4209 8.50452 13.6543C8.33095 13.8878 8.03767 14.0015 7.80424 13.8279C7.51694 13.6484 7.45709 13.3611 7.63066 13.1276ZM6.76279 14.6958C6.87651 14.4025 7.16979 14.3486 7.46308 14.4624C7.6965 14.5761 7.81022 14.8694 7.6965 15.1028C7.52293 15.3961 7.22965 15.5098 6.99622 15.3362C6.70294 15.2225 6.64308 14.9292 6.76279 14.6958ZM6.00265 16.3238C6.11637 16.0305 6.40966 15.9168 6.70294 16.0305C6.93637 16.0904 7.10994 16.3777 6.99622 16.671C6.8825 16.9044 6.58922 17.078 6.29593 16.9642C6.06251 16.8505 5.94879 16.5572 6.00265 16.3238ZM5.48193 18.0117C5.54178 17.7184 5.82908 17.5448 6.12236 17.6645C6.35579 17.7244 6.52936 18.0117 6.46951 18.2451C6.35579 18.5384 6.06251 18.712 5.82908 18.5923C5.54178 18.5324 5.36821 18.2451 5.48193 18.0117ZM5.07493 19.6995C5.13478 19.4661 5.36821 19.2925 5.6555 19.2925C5.94879 19.3524 6.12236 19.6397 6.06251 19.933C6.00265 20.1664 5.71536 20.3998 5.48193 20.34C5.18865 20.2801 5.01507 19.9868 5.07493 19.6995ZM4.78164 21.5011C4.8415 21.2078 5.07493 20.9804 5.36222 21.0343C5.6555 21.0343 5.82908 21.3275 5.82908 21.555C5.76923 21.8483 5.5358 22.0757 5.2485 22.0218C4.9612 22.0218 4.78164 21.7884 4.78164 21.5011ZM4.72778 23.2429C4.72778 22.9496 4.9612 22.776 5.2485 22.776C5.5358 22.776 5.71536 22.9496 5.71536 23.2429C5.71536 23.5361 5.54178 23.7636 5.2485 23.7636C4.95522 23.7636 4.72778 23.5361 4.72778 23.2429ZM7.5768 33.4179C7.46308 33.1845 7.51694 32.8374 7.75037 32.7176C7.9838 32.5441 8.33095 32.6039 8.45066 32.8912C8.62423 33.1246 8.51051 33.4119 8.27708 33.5915C8.03767 33.7112 7.75037 33.6514 7.5768 33.4179ZM8.62423 34.8724C8.45066 34.6389 8.45066 34.3516 8.68408 34.1721C8.91751 33.9985 9.26466 34.0584 9.43824 34.2858C9.55196 34.4594 9.55196 34.8065 9.32452 34.9861C9.0851 35.1597 8.73795 35.1058 8.62423 34.8724ZM9.72553 36.2669C9.55196 36.0335 9.55196 35.6864 9.78539 35.5128C9.95896 35.3392 10.3061 35.3392 10.4857 35.5726C10.6592 35.7462 10.6592 36.0934 10.4258 36.2729C10.2522 36.4405 9.89911 36.4405 9.72553 36.2669ZM11.0064 37.488C10.773 37.3144 10.773 36.9672 10.9465 36.7877C11.1201 36.5542 11.4673 36.5542 11.7007 36.7278C11.8743 36.9612 11.8743 37.2485 11.7007 37.482C11.5271 37.6615 11.18 37.7214 11.0064 37.488ZM12.3411 38.6491C12.1077 38.4755 12.1077 38.1284 12.2274 37.9488C12.401 37.7154 12.7481 37.6555 12.9816 37.8351C13.215 38.0087 13.215 38.302 13.0414 38.5354C12.9217 38.7688 12.5746 38.8227 12.3411 38.6491ZM13.7956 39.6367C13.5621 39.523 13.5023 39.1698 13.6818 38.9364C13.7956 38.703 14.1487 38.6431 14.3821 38.7628C14.6156 38.9364 14.6754 39.2297 14.4958 39.4631C14.3761 39.7564 14.0888 39.8163 13.7956 39.6367ZM15.3637 40.5106C15.1303 40.3968 15.0166 40.1035 15.1303 39.8103C15.244 39.5768 15.5971 39.4631 15.8306 39.6367C16.064 39.7504 16.1777 40.0437 16.064 40.2771C15.9503 40.5704 15.5971 40.6303 15.3637 40.5106ZM16.9917 41.2647C16.7583 41.151 16.5847 40.8577 16.6984 40.5644C16.8122 40.331 17.1055 40.2173 17.3389 40.2711C17.6322 40.3849 17.7459 40.6781 17.6322 40.9714C17.5783 41.2108 17.285 41.3246 16.9917 41.2647ZM18.6796 41.7914C18.3863 41.7316 18.2726 41.4443 18.3324 41.2108C18.3923 40.9176 18.6796 40.744 18.9729 40.8637C19.2662 40.9235 19.3799 41.2108 19.32 41.4443C19.2602 41.7316 18.9729 41.9051 18.6796 41.7914ZM20.4273 42.1984C20.134 42.1984 19.9605 41.9051 20.0203 41.6178C20.0802 41.3246 20.3136 41.151 20.6009 41.2108C20.8942 41.2707 21.0677 41.558 21.0079 41.8513C20.948 42.0787 20.7146 42.2583 20.4273 42.1984ZM22.169 42.4857C21.8758 42.4259 21.7022 42.1924 21.7022 41.9051C21.762 41.6119 21.9955 41.4383 22.2828 41.4383C22.576 41.4981 22.7496 41.7316 22.7496 42.0189C22.6898 42.3121 22.4623 42.4857 22.169 42.4857ZM23.9706 42.5456C23.6774 42.5456 23.4499 42.3121 23.4499 42.0248C23.4499 41.7914 23.6833 41.558 23.9706 41.558C24.2639 41.558 24.4375 41.7914 24.4375 42.0787C24.4375 42.3121 24.2639 42.5456 23.9706 42.5456ZM25.7124 42.4857C25.4191 42.4857 25.1916 42.3121 25.1916 42.0189C25.1318 41.7256 25.3652 41.4981 25.6585 41.4383C25.9518 41.4383 26.1792 41.6717 26.1792 41.9051C26.2391 42.1984 26.0056 42.4318 25.7124 42.4857ZM27.5199 42.2583C27.2267 42.3181 26.9394 42.1445 26.8795 41.8513C26.8795 41.558 27.0531 41.2707 27.2865 41.2707C27.5798 41.2108 27.8671 41.3844 27.9269 41.6777C27.9269 41.9051 27.7474 42.1984 27.5199 42.2583ZM29.2018 41.8513C28.9684 41.9111 28.6811 41.7375 28.6212 41.5041C28.5075 41.2108 28.6811 40.9235 28.9684 40.8637C29.2018 40.8038 29.4891 40.9235 29.549 41.2108C29.6687 41.4981 29.4951 41.7914 29.2018 41.8513ZM30.8897 41.2647C30.6563 41.3784 30.369 41.2647 30.2493 40.9714C30.1355 40.738 30.3091 40.4507 30.5425 40.331C30.8358 40.2173 31.1231 40.331 31.183 40.6243C31.2967 40.8577 31.183 41.151 30.8897 41.2647ZM32.5177 40.5704C32.2843 40.6841 31.997 40.5704 31.8773 40.337C31.7635 40.1036 31.8174 39.7564 32.1107 39.6367C32.3441 39.523 32.6314 39.6367 32.7511 39.8701C32.9247 40.1634 32.811 40.4507 32.5177 40.5704ZM34.0859 39.6965C33.8524 39.8701 33.5651 39.7564 33.3856 39.523C33.2718 39.2895 33.3257 39.0022 33.5591 38.8227C33.7926 38.709 34.1397 38.7628 34.2594 38.9963C34.439 39.2297 34.3193 39.5828 34.0859 39.6965ZM35.6001 38.709C35.3667 38.8825 35.0196 38.8227 34.846 38.5952C34.6724 38.3618 34.7323 38.0745 34.9597 37.895C35.1931 37.7214 35.4804 37.7812 35.66 38.0087C35.8336 38.1882 35.7737 38.5354 35.6001 38.709ZM36.9349 37.5478C36.7613 37.7812 36.4141 37.7214 36.2346 37.5478C36.061 37.3144 36.061 37.0271 36.2346 36.7937C36.468 36.6201 36.7553 36.6201 36.9887 36.8535C37.1683 37.081 37.1683 37.3742 36.9349 37.5478ZM38.2157 36.3268C38.0422 36.5004 37.695 36.5602 37.4616 36.3268C37.288 36.1532 37.288 35.8599 37.4616 35.6265C37.6352 35.3931 37.9823 35.3931 38.1619 35.5667C38.3893 35.8001 38.3893 36.0934 38.2157 36.3268ZM39.323 34.9322C39.2093 35.1656 38.8562 35.2255 38.6227 35.0459C38.3893 34.8724 38.3893 34.5791 38.5629 34.3457C38.6766 34.1122 39.0297 34.0524 39.2632 34.2319C39.4966 34.4055 39.4966 34.6988 39.323 34.9322ZM40.3645 33.4778C40.1909 33.7112 39.8976 33.8249 39.6642 33.6514C39.4308 33.4778 39.317 33.1845 39.4906 32.9511C39.6642 32.7176 39.9575 32.6578 40.1909 32.7775C40.4243 32.9511 40.4842 33.2444 40.3645 33.4778ZM41.2383 31.9096C41.1246 32.2029 40.7715 32.3166 40.538 32.1431C40.3046 32.0293 40.1909 31.736 40.3046 31.5026C40.4183 31.2093 40.7715 31.1555 41.0049 31.2692C41.2383 31.3829 41.358 31.6762 41.2383 31.9096ZM41.9386 30.3355C41.8788 30.5689 41.5316 30.6826 41.2982 30.5689C41.0049 30.5091 40.8912 30.2218 41.0049 29.9285C41.1186 29.695 41.4119 29.5215 41.6453 29.6352C41.9386 29.7549 42.0523 30.0482 41.9386 30.3355ZM42.5192 28.6536C42.4593 28.887 42.172 29.0606 41.8788 29.0008C41.6453 28.887 41.4718 28.5937 41.5316 28.3603C41.6453 28.067 41.8788 27.8935 42.172 28.0132C42.4593 28.067 42.579 28.3603 42.5192 28.6536ZM42.9262 26.9059C42.8663 27.1992 42.6329 27.3727 42.3456 27.3129C42.0523 27.253 41.8788 26.9657 41.9386 26.6725C41.9985 26.439 42.2319 26.2655 42.5192 26.3253C42.8065 26.3253 42.986 26.6186 42.9262 26.9059ZM43.2135 25.1043C43.1536 25.3976 42.9202 25.625 42.6329 25.5712C42.3396 25.5712 42.1661 25.3377 42.1661 25.0504C42.2259 24.7571 42.4593 24.5297 42.7466 24.5836C42.986 24.5836 43.2135 24.8709 43.2135 25.1043ZM43.2733 23.3626C43.2733 23.6558 43.0399 23.8833 42.7526 23.8833C42.4593 23.8833 42.2319 23.6499 42.2858 23.3626C42.2858 23.0693 42.4593 22.8418 42.7526 22.8418C43.0399 22.8359 43.2733 23.0693 43.2733 23.3626ZM40.4243 13.1875C40.5979 13.4209 40.4842 13.7681 40.2507 13.8878C40.0173 14.0614 39.73 14.0015 39.5505 13.7142C39.4367 13.4808 39.4906 13.1935 39.724 13.0139C39.9575 12.8942 40.3106 12.9541 40.4243 13.1875ZM39.4367 11.7331C39.6103 11.9665 39.5505 12.2538 39.323 12.4333C39.0896 12.6069 38.8023 12.5471 38.6227 12.3196C38.4492 12.146 38.509 11.7989 38.7365 11.6193C38.9699 11.4398 39.2632 11.4996 39.4367 11.7331ZM38.2756 10.3385C38.509 10.5719 38.4492 10.919 38.2756 11.0926C38.0422 11.2662 37.7549 11.2662 37.5214 11.0328C37.3479 10.8592 37.4077 10.512 37.5813 10.3325C37.8087 10.105 38.102 10.1649 38.2756 10.3385ZM37.0546 9.11746C37.2282 9.29104 37.288 9.58432 37.0546 9.81775C36.881 10.0512 36.5877 10.0512 36.3543 9.8776C36.1807 9.64417 36.1209 9.35688 36.3543 9.12345C36.5279 8.94389 36.8211 8.88403 37.0546 9.11746ZM35.66 7.95032C35.8934 8.1239 35.9533 8.41718 35.7737 8.65061C35.6001 8.88403 35.3069 8.94389 35.0734 8.76433C34.84 8.59075 34.7802 8.29747 34.9597 8.06404C35.1333 7.8366 35.4804 7.77675 35.66 7.95032ZM34.2056 6.96274C34.439 7.07646 34.5527 7.4296 34.3791 7.66303C34.2056 7.89645 33.9123 7.95631 33.6788 7.77675C33.4454 7.66303 33.3856 7.30989 33.5053 7.07646C33.6788 6.84902 33.9721 6.78917 34.2056 6.96274ZM32.6913 6.09487C32.9247 6.20859 33.0384 6.50187 32.9247 6.7353C32.7511 7.02858 32.4578 7.08245 32.2244 6.96873C31.9311 6.85501 31.8773 6.56172 31.991 6.26844C32.1107 6.03501 32.404 5.91531 32.6913 6.09487ZM31.0633 5.33473C31.2967 5.44845 31.4104 5.74173 31.3565 5.97516C31.2428 6.26844 30.9495 6.38216 30.6563 6.26844C30.4228 6.20859 30.3091 5.92129 30.363 5.62801C30.4827 5.39458 30.776 5.22101 31.0633 5.33473ZM29.3754 4.75415C29.6088 4.86787 29.7824 5.1013 29.7225 5.39458C29.6088 5.68786 29.3754 5.80159 29.0821 5.74173C28.7888 5.68188 28.6751 5.39458 28.735 5.1013C28.7948 4.87386 29.0881 4.6943 29.3754 4.75415ZM27.6337 4.34715C27.9269 4.407 28.1005 4.6943 28.0407 4.92773C27.9808 5.22101 27.6935 5.39458 27.4601 5.33473C27.1668 5.27488 26.9932 5.04145 27.0531 4.75415C27.1129 4.46686 27.3404 4.2873 27.6337 4.34715ZM26.3528 4.64043C26.2929 4.93371 26.0595 5.16116 25.7722 5.10729C25.4789 5.10729 25.3054 4.81401 25.3054 4.58656C25.3652 3.88029 26.4126 4 26.3528 4.64043ZM24.4914 9.57833V16.264C26.2929 16.2041 28.0945 15.9707 29.8422 15.5637C28.5614 13.2414 26.7059 11.2063 24.4914 9.57833ZM30.3091 16.4435C28.3878 16.9642 26.4725 17.1977 24.4973 17.2575V22.782H31.8832C31.8174 20.5674 31.2368 18.4187 30.3091 16.4435ZM25.0779 37.7214C28.9744 37.4281 32.404 35.6265 34.846 32.8972C33.5651 32.1969 32.2304 31.6762 30.8358 31.2692C29.4352 33.8249 27.4601 36.0335 25.0779 37.7214ZM23.5038 9.57833C21.2952 11.1465 19.4337 13.1815 18.099 15.5697C19.9006 15.9767 21.7022 16.2101 23.5038 16.2699V9.57833ZM17.1713 15.2764C18.506 12.7206 20.541 10.5061 22.8693 8.82418C19.1465 9.11746 15.657 10.8592 13.1611 13.6484C14.436 14.3486 15.7707 14.8694 17.1713 15.2764Z" fill="#FDFEFE"/>
</svg>
