<svg width="48" height="48" viewBox="0 0 48 48" fill="none" xmlns="http://www.w3.org/2000/svg">
<path d="M16.9747 29.1815C16.9747 29.6335 17.158 30.0431 17.4529 30.338C17.7478 30.6329 18.1579 30.8162 18.6094 30.8162C19.0609 30.8162 19.4711 30.6329 19.766 30.338C20.0608 30.0431 20.2442 29.633 20.2442 29.1815C20.2442 28.7499 20.0755 28.3345 19.766 28.025C19.4711 27.7301 19.0609 27.5467 18.6094 27.5467C18.1579 27.5467 17.7478 27.7301 17.4529 28.025C17.1423 28.3356 16.9747 28.7499 16.9747 29.1815ZM4.10886 24.8419C3.49655 24.8419 3 24.3454 3 23.733C3 23.1207 3.49655 22.6242 4.10886 22.6242H12.9803C13.5926 22.6242 14.0891 23.1207 14.0891 23.733C14.0891 24.3454 13.5926 24.8419 12.9803 24.8419H4.10886ZM5.64618 21.9281C5.03387 21.9281 4.53732 21.4315 4.53732 20.8192C4.53732 20.2069 5.03387 19.7103 5.64618 19.7103H6.49891C7.11122 19.7103 7.60777 20.2069 7.60777 20.8192C7.60777 21.4315 7.11122 21.9281 6.49891 21.9281H5.64618ZM8.87639 21.9291C8.26408 21.9291 7.76752 21.4326 7.76752 20.8203C7.76752 20.2079 8.26408 19.7114 8.87639 19.7114H14.802C15.4143 19.7114 15.9109 20.2079 15.9109 20.8203C15.9109 21.4326 15.4143 21.9291 14.802 21.9291H8.87639ZM6.49891 19.0163C5.8866 19.0163 5.39005 18.5198 5.39005 17.9075C5.39005 17.2952 5.8866 16.7986 6.49891 16.7986H13.4066C14.0189 16.7986 14.5155 17.2952 14.5155 17.9075C14.5155 18.5198 14.0189 19.0163 13.4066 19.0163H6.49891ZM27.1179 24.5737V26.2184C27.1179 26.8307 26.6213 27.3273 26.009 27.3273H22.9448C22.3325 27.3273 21.836 26.8307 21.836 26.2184V24.5737H20.1913C19.579 24.5737 19.0824 24.0772 19.0824 23.4649V20.4007C19.0824 19.7884 19.579 19.2918 20.1913 19.2918H21.836V17.6477C21.836 17.0354 22.3325 16.5388 22.9448 16.5388H26.009C26.6213 16.5388 27.1179 17.0354 27.1179 17.6477V19.2918H28.7625C29.3749 19.2918 29.8714 19.7884 29.8714 20.4007V23.4649C29.8714 24.0772 29.3749 24.5737 28.7625 24.5737H27.1179ZM24.9001 25.1096V23.4649C24.9001 22.8526 25.3967 22.356 26.009 22.356H27.6537V21.5096H26.009C25.3967 21.5096 24.9001 21.013 24.9001 20.4007V18.7565H24.0537V20.4007C24.0537 21.013 23.5571 21.5096 22.9448 21.5096H21.3001V22.356H22.9448C23.5571 22.356 24.0537 22.8526 24.0537 23.4649V25.1096H24.9001ZM14.8177 29.8666H11.2528C10.6405 29.8666 10.144 29.3701 10.144 28.7577V26.3928C10.144 25.7805 10.6405 25.284 11.2528 25.284C11.8651 25.284 12.3617 25.7805 12.3617 26.3928V27.6489H15.0744C15.2687 27.2016 15.5458 26.7977 15.8857 26.4578C16.5829 25.7606 17.5472 25.329 18.6094 25.329C19.6717 25.329 20.636 25.7606 21.3331 26.4578C21.6731 26.7977 21.9502 27.2016 22.1445 27.6489H30.7692V16.2177H11.2528C10.6405 16.2177 10.144 15.7212 10.144 15.1089C10.144 14.4966 10.6405 14 11.2528 14H31.878C32.4904 14 32.9869 14.4966 32.9869 15.1089V28.7577C32.9869 29.3701 32.4904 29.8666 31.878 29.8666H22.4011C22.2592 30.6549 21.8768 31.3615 21.3331 31.9052C20.636 32.6024 19.6717 33.034 18.6094 33.034C17.5472 33.034 16.5829 32.6024 15.8857 31.9052C15.342 31.3615 14.9597 30.6554 14.8177 29.8666ZM39.0759 25.329C40.1392 25.329 41.1025 25.7606 41.7997 26.4578C42.1396 26.7977 42.4167 27.2016 42.611 27.6489H42.7823V22.676L39.3567 19.2505H35.3696V27.6489H35.5409C35.7352 27.2016 36.0123 26.7977 36.3522 26.4578C37.0494 25.7606 38.0137 25.329 39.0759 25.329ZM42.8677 29.8666C42.7257 30.6554 42.3433 31.3615 41.7997 31.9052C41.1025 32.6024 40.1392 33.034 39.0759 33.034C38.0137 33.034 37.0494 32.6024 36.3522 31.9052C35.8086 31.3615 35.4262 30.6554 35.2842 29.8666H34.2608C33.6484 29.8666 33.1519 29.3701 33.1519 28.7577V18.1416C33.1519 17.5293 33.6484 17.0327 34.2608 17.0327H39.815C40.134 17.0327 40.4216 17.1674 40.6237 17.3832L44.6747 21.4341C44.891 21.6505 44.9995 21.9344 44.9995 22.2177L45 28.7577C45 29.3701 44.5034 29.8666 43.8911 29.8666H42.8677ZM40.2325 28.025C39.9376 27.7301 39.528 27.5467 39.0759 27.5467C38.6244 27.5467 38.2143 27.7301 37.9194 28.025C37.6088 28.3356 37.4412 28.7499 37.4412 29.1815C37.4412 29.6335 37.6245 30.0431 37.9194 30.338C38.2143 30.6329 38.6244 30.8162 39.0759 30.8162C39.528 30.8162 39.9376 30.6329 40.2325 30.338C40.5274 30.0431 40.7107 29.6335 40.7107 29.1815C40.7107 28.7504 40.5426 28.335 40.2325 28.025Z" fill="#FDFEFE"/>
</svg>
