<svg xmlns="http://www.w3.org/2000/svg" data-name="Layer 1" width="60"
height="60" fill="#fff" viewBox="0 0 100 100" x="0px" y="0px"><defs><style>
      .cls-1 {
        fill-rule: evenodd;
        stroke-width: 0px;
      }
    </style></defs><path class="cls-1" d="m46.745,27.967h-16.486c.364,1.326,1.3,2.38,2.483,3.156,1.672,1.097,3.796,1.66,5.604,1.693.125.002-.071-.003.175-.003,2.106,0,4.477-.64,6.185-1.962.953-.737,1.694-1.697,2.039-2.884h0Zm-22.023,3.158c1.182-.777,2.117-1.831,2.48-3.158H10.672c.364,1.326,1.301,2.381,2.485,3.159,1.666,1.094,3.791,1.657,5.607,1.691.125.002-.071-.003.175-.003.233,0,.062.006.18.003,1.814-.035,3.938-.598,5.603-1.692h0Zm6.075-16.634h-12.517l-6.643,10.75h16.069l3.091-10.75h0Zm16.151,0v10.75h-16.406l3.091-10.75h13.315Zm19.421,13.477h-16.486c.345,1.188,1.085,2.147,2.039,2.884,1.709,1.321,4.08,1.962,6.185,1.962.246,0,.05.006.175.003,1.808-.034,3.932-.596,5.604-1.694,1.183-.776,2.119-1.83,2.483-3.156h0Zm3.057,0c.363,1.327,1.297,2.381,2.48,3.158,1.666,1.094,3.789,1.657,5.603,1.692.118.002-.054-.003.18-.003.246,0,.05.006.175.003,1.816-.034,3.941-.596,5.607-1.691,1.183-.777,2.117-1.831,2.481-3.159h-16.525Zm-3.34-2.727l-3.091-10.75h-13.32v10.75h16.411Zm-.256-10.75h12.517l6.643,10.75h-16.069l-3.091-10.75h0Zm11.908-2.727v-3.592c0-.134-.049-.252-.128-.334-.065-.068-.154-.11-.249-.11H19.266c-.095,0-.183.042-.249.11-.079.082-.128.2-.128.334v3.592h58.848Zm9.643,53.187c-2.079-2.079-4.727-3.588-7.691-4.275l-.013-.003c-1.161-.268-2.371-.41-3.614-.41-4.42,0-8.421,1.791-11.318,4.688-2.896,2.896-4.688,6.898-4.688,11.318s1.791,8.421,4.688,11.318,6.898,4.688,11.318,4.688,8.421-1.791,11.318-4.688c2.896-2.896,4.688-6.898,4.688-11.318s-1.791-8.421-4.688-11.318h0Zm-29.621,15.325c-.246-1.129-.39-2.296-.422-3.491H12.516v3.491h45.244Zm2.605,6.219H7.931v-3.491h50.648c.475,1.232,1.076,2.401,1.788,3.491h0Zm20.992-28.199c3.044.895,5.767,2.543,7.952,4.728,3.39,3.39,5.487,8.073,5.487,13.246s-2.097,9.856-5.487,13.246-8.073,5.487-13.246,5.487-9.856-2.097-13.246-5.487c-.097-.097-.192-.194-.286-.293H6.567c-.753,0-1.364-.611-1.364-1.364v-6.219c0-.753.611-1.364,1.364-1.364h3.222v-4.855c0-.753.611-1.364,1.364-1.364h4.113v-39.049c-1.263-.356-2.507-.893-3.6-1.611-2.241-1.472-3.875-3.687-3.875-6.667h-.005c0-.135.002.087.006-.145.006-.373.162-.709.41-.951l7.962-12.882v-4.578c0-.86.343-1.646.895-2.219.565-.587,1.347-.952,2.209-.952h58.095c.862,0,1.644.365,2.209.952.552.573.895,1.359.895,2.219v4.578l7.961,12.882c.248.242.404.578.41.951.004.232.006.011.006.145,0,2.977-1.636,5.193-3.881,6.668-1.094.719-2.34,1.256-3.604,1.612v23.286h0Zm-5.294-.759c-4.937,0-9.428,1.91-12.774,5.031v-15.576c0-.858-.493-1.579-1.288-2.049-.58-.343-1.352-.556-2.175-.556h-23.03c-.823,0-1.594.213-2.175.556-.795.47-1.288,1.191-1.288,2.048v27.066h-15.341v-38.558c.246.019.49.031.728.036.256.005.102.007.218.007.1,0-.03-.002.222-.007,2.274-.044,4.945-.755,7.052-2.139.984-.646,1.851-1.435,2.514-2.368.665.938,1.535,1.73,2.522,2.378,2.104,1.38,4.777,2.087,7.053,2.13.256.005.101.007.217.007,2.636,0,5.638-.828,7.847-2.537.753-.582,1.415-1.263,1.946-2.045.53.782,1.193,1.462,1.945,2.045,2.21,1.709,5.212,2.537,7.847,2.537.116,0-.039-.002.218-.007,2.276-.043,4.949-.75,7.053-2.13.988-.648,1.858-1.44,2.522-2.378.663.933,1.53,1.722,2.514,2.369,2.107,1.384,4.778,2.096,7.052,2.139.253.005.122.007.222.007.116,0-.039-.002.218-.007.238-.004.479-.016.724-.035v22.211c-.839-.115-1.696-.175-2.567-.175h0Zm-1.364,8.043c0-.753.611-1.364,1.364-1.364s1.364.611,1.364,1.364v9.855l5.788,2.944c.671.341.938,1.162.597,1.832-.341.671-1.162.938-1.832.597l-6.481-3.297c-.471-.215-.799-.69-.799-1.241v-10.69h0Zm-27.752,8.478v-26.944h-10.151c-.3,0-.556.054-.736.143v26.8h10.887Zm2.727-26.944h10.151c.3,0,.556.054.735.143v18.492c-1.648,2.424-2.742,5.254-3.102,8.308h-7.785v-26.944h0Zm-7.409,12.119v3.571c0,.753.611,1.364,1.364,1.364s1.364-.611,1.364-1.364v-3.571c0-.753-.611-1.364-1.364-1.364s-1.364.611-1.364,1.364Z"/></svg>