<svg width="48" height="48" viewBox="0 0 48 48" fill="none" xmlns="http://www.w3.org/2000/svg">
<path d="M6.97284 36.1627C6.43556 36.1627 6 35.7272 6 35.1899V27.4072C6 25.1188 8.5758 22.543 10.8642 22.543H36.158C38.4464 22.543 41.0222 25.1188 41.0222 27.4072V35.1899C41.0222 35.7272 40.5867 36.1627 40.0494 36.1627H6.97284ZM12.8507 31.9795C14.3014 31.9795 15.4774 30.8035 15.4774 29.3528C15.4774 27.9022 14.3014 26.7262 12.8507 26.7262C11.4 26.7262 10.224 27.9022 10.224 29.3528C10.224 30.8035 11.4 31.9795 12.8507 31.9795ZM34.2301 31.9795C35.6808 31.9795 36.8568 30.8035 36.8568 29.3528C36.8568 27.9022 35.6808 26.7262 34.2301 26.7262C32.7795 26.7262 31.6035 27.9022 31.6035 29.3528C31.6035 30.8035 32.7795 31.9795 34.2301 31.9795Z" fill="#FDFEFE"/>
<path d="M9.89062 35.1896V41.0267C9.89062 41.564 10.3262 41.9995 10.8635 41.9995H16.7005C17.2378 41.9995 17.6733 41.564 17.6733 41.0267V35.1896C17.6733 34.6524 17.2378 34.2168 16.7005 34.2168H10.8635C10.3262 34.2168 9.89062 34.6524 9.89062 35.1896Z" fill="#FDFEFE"/>
<path d="M29.3516 35.1896V41.0267C29.3516 41.564 29.7871 41.9995 30.3244 41.9995H36.1614C36.6987 41.9995 37.1343 41.564 37.1343 41.0267V35.1896C37.1343 34.6524 36.6987 34.2168 36.1614 34.2168H30.3244C29.7871 34.2168 29.3516 34.6524 29.3516 35.1896Z" fill="#FDFEFE"/>
<path d="M10.8641 24.4905C10.2124 24.4905 9.74504 23.8623 9.93229 23.2381L12.8508 13.5097C12.9743 13.0982 13.353 12.8164 13.7826 12.8164H33.2394C33.669 12.8164 34.0478 13.0982 34.1712 13.5097L37.0898 23.2381C37.277 23.8623 36.8096 24.4905 36.1579 24.4905H10.8641ZM34.8504 22.5448L32.5156 14.7621H14.5064L12.1716 22.5448H34.8504Z" fill="#FDFEFE"/>
<path d="M22.7582 10.8413C23.3394 10.7022 23.6923 10.7022 24.242 10.8392C24.7634 10.9691 25.2913 10.6519 25.4213 10.1305C25.5512 9.6092 25.234 9.08123 24.7126 8.95128C23.8568 8.73795 23.1871 8.73795 22.3051 8.94914C21.7826 9.07426 21.4604 9.59926 21.5856 10.1218C21.7107 10.6443 22.2357 10.9664 22.7582 10.8413Z" fill="#FDFEFE"/>
<path d="M20.9156 7.89214C22.6488 7.28538 24.5515 7.28538 26.1185 7.88293C26.6205 8.07438 27.1826 7.82261 27.3741 7.32059C27.5655 6.81857 27.3138 6.2564 26.8117 6.06496C24.8063 5.3002 22.4309 5.3002 20.2728 6.05575C19.7656 6.23328 19.4985 6.78829 19.676 7.29539C19.8535 7.8025 20.4085 8.06968 20.9156 7.89214Z" fill="#FDFEFE"/>
<path d="M19.4346 4.73805C21.7277 3.68233 25.313 3.68233 27.53 4.73342C28.0155 4.96359 28.5956 4.75662 28.8258 4.27113C29.056 3.78565 28.849 3.20549 28.3635 2.97532C25.6223 1.67567 21.4338 1.67567 18.6209 2.97068C18.1329 3.19537 17.9194 3.77316 18.1441 4.26121C18.3688 4.74925 18.9466 4.96275 19.4346 4.73805Z" fill="#FDFEFE"/>
</svg>
