<svg width="24" height="24" viewBox="0 0 24 24" fill="none" xmlns="http://www.w3.org/2000/svg">
<path d="M10.4768 4.88235C10.5015 4.88206 10.5261 4.88008 10.5505 4.87642C10.5525 4.94324 10.5682 5.0089 10.5966 5.06912C10.6251 5.12933 10.6656 5.18277 10.7156 5.22594L10.9184 5.40126C11.0014 5.47296 11.1066 5.51223 11.2153 5.51209C11.2721 5.51188 11.3285 5.50108 11.3815 5.48021C11.3888 5.47855 11.396 5.47632 11.4029 5.47354L11.891 5.27116L12.3581 5.49726C12.3774 5.50676 12.3987 5.5117 12.4201 5.51172C12.4368 5.51166 12.4534 5.50878 12.4691 5.50319C12.5054 5.48981 12.535 5.46237 12.5515 5.42684L12.676 5.15922C12.6925 5.12369 12.6945 5.08291 12.6816 5.04586C12.6686 5.00881 12.6418 4.97853 12.607 4.96167C12.5722 4.94481 12.5323 4.94276 12.496 4.95596C12.4598 4.96917 12.4301 4.99655 12.4136 5.03209L12.3512 5.1659L11.9578 4.97538C11.9379 4.96574 11.916 4.96092 11.8939 4.9613L12.0649 4.77115H12.5816C12.6201 4.77115 12.6571 4.75553 12.6843 4.72772C12.7115 4.69992 12.7268 4.66221 12.7268 4.62289V4.32636C12.7268 4.28704 12.7115 4.24933 12.6843 4.22153C12.6571 4.19372 12.6201 4.1781 12.5816 4.1781C12.5431 4.1781 12.5062 4.19372 12.479 4.22153C12.4518 4.24933 12.4365 4.28704 12.4365 4.32636V4.47463H12.001C11.9808 4.47463 11.9609 4.47892 11.9425 4.48722C11.9241 4.49551 11.9075 4.50763 11.8939 4.52281L11.6555 4.7882L11.3637 4.68998L11.5905 4.53838C11.6097 4.52554 11.6256 4.50829 11.637 4.488C11.6484 4.46772 11.655 4.44498 11.6562 4.42162L11.6787 3.93495C11.6799 3.91533 11.6773 3.89565 11.671 3.87707C11.6647 3.85849 11.6549 3.84138 11.642 3.82672C11.6292 3.81207 11.6136 3.80018 11.5962 3.79173C11.5788 3.78328 11.56 3.77845 11.5408 3.77751C11.5215 3.77658 11.5023 3.77956 11.4842 3.78629C11.4661 3.79301 11.4495 3.80334 11.4354 3.81669C11.4212 3.83003 11.4098 3.84611 11.4018 3.86399C11.3938 3.88188 11.3894 3.90121 11.3888 3.92087L11.3695 4.33155L11.011 4.571L10.9504 4.55024C10.9894 4.44692 10.995 4.33356 10.9664 4.22676C10.9377 4.11996 10.8764 4.02531 10.7913 3.95668C10.7062 3.88805 10.6019 3.84902 10.4935 3.84532C10.3852 3.84162 10.2785 3.87344 10.1891 3.93611C10.0998 3.99879 10.0324 4.08903 9.99682 4.19365C9.96127 4.29826 9.95944 4.41174 9.99159 4.51749C10.0237 4.62324 10.0882 4.71571 10.1755 4.78136C10.2628 4.84701 10.3684 4.8824 10.4768 4.88235Z" fill="#1A76D1"/>
<path d="M8.41743 5.77641L8.62791 7.2909H14.0348L14.0323 6.10629C14.0321 5.84249 14.118 5.58616 14.2763 5.37771C14.4346 5.16925 14.6563 5.02055 14.9065 4.95504V2.39826C14.9065 2.35894 14.8912 2.32123 14.864 2.29342C14.8367 2.26562 14.7998 2.25 14.7613 2.25H7.7936C7.7551 2.25 7.71818 2.26562 7.69095 2.29342C7.66373 2.32123 7.64844 2.35894 7.64844 2.39826V4.61589C7.66832 4.61924 7.68734 4.62668 7.70432 4.63776C7.89615 4.76426 8.0591 4.9314 8.18214 5.12786C8.30517 5.32432 8.38542 5.5455 8.41743 5.77641ZM8.59561 4.77749C8.59924 4.77305 8.60287 4.76897 8.6065 4.76489L10.3187 3.01651C10.3217 3.01315 10.325 3.01005 10.3285 3.00725C10.3563 2.9836 10.3918 2.97141 10.428 2.97306C10.4641 2.9747 10.4984 2.99007 10.5241 3.01614C10.623 3.1172 10.7405 3.19737 10.8697 3.25206C10.999 3.30675 11.1375 3.3349 11.2775 3.3349C11.4174 3.3349 11.5559 3.30675 11.6852 3.25206C11.8145 3.19737 11.9319 3.1172 12.0308 3.01614C12.0565 2.99007 12.0908 2.9747 12.127 2.97306C12.1631 2.97141 12.1986 2.9836 12.2264 3.00725C12.2299 3.01014 12.2332 3.01324 12.2362 3.01651L13.9484 4.76489C13.952 4.76897 13.9557 4.77305 13.9589 4.77712L13.9593 4.77749C13.9815 4.80599 13.9927 4.84184 13.9907 4.87821C13.9887 4.91458 13.9736 4.94892 13.9484 4.97468C13.5977 5.33297 13.1813 5.61718 12.723 5.81109C12.2647 6.005 11.7735 6.1048 11.2775 6.1048C10.7814 6.1048 10.2902 6.005 9.83192 5.81109C9.37363 5.61718 8.95723 5.33297 8.6065 4.97468C8.58128 4.94892 8.56624 4.91458 8.56423 4.87821C8.56222 4.84184 8.57339 4.80599 8.59561 4.77749Z" fill="#1A76D1"/>
<path d="M20.9999 9.78379V6.19733C21.0024 5.94736 20.9122 5.7057 20.7474 5.52089C20.6592 5.42381 20.5524 5.34642 20.4335 5.2936C20.3147 5.24078 20.1864 5.21368 20.0568 5.21399H17.9516V4.648C18.0383 4.60708 18.1118 4.54162 18.1632 4.45938C18.2147 4.37713 18.242 4.28154 18.2419 4.18394V3.50898C18.2419 3.33203 18.1731 3.16233 18.0506 3.03721C17.9281 2.91209 17.7619 2.8418 17.5887 2.8418H16.2096C16.1711 2.8418 16.1342 2.85742 16.107 2.88522C16.0798 2.91303 16.0645 2.95074 16.0645 2.99006V3.39741C16.0641 3.52739 16.0992 3.6549 16.1659 3.76562C16.2326 3.87634 16.3282 3.96588 16.4419 4.02419C16.5058 4.05716 16.5744 4.07955 16.6451 4.09053V4.47045C16.6454 4.60198 16.6883 4.72971 16.767 4.83376C16.8458 4.93781 16.9561 5.01233 17.0806 5.04571V5.21399H15.1902C15.1052 5.21397 15.0206 5.22658 14.9391 5.25142C14.9271 5.25476 14.9152 5.25884 14.9032 5.26328C14.8529 5.28111 14.8043 5.3037 14.758 5.33074C14.6908 5.3704 14.629 5.41888 14.574 5.47493C14.4929 5.55746 14.4286 5.65562 14.3849 5.76372C14.3411 5.87182 14.3188 5.98771 14.3193 6.10467L14.3222 7.43754H14.3207L14.3215 8.13734L14.0043 8.05617C13.5647 7.94402 13.1008 7.98829 12.6892 8.18169C12.2776 8.37509 11.9428 8.70605 11.7401 9.11994L11.71 9.18147C11.6403 9.16645 11.5679 9.17187 11.5011 9.19713C11.4343 9.22238 11.3759 9.26643 11.3326 9.32418L11.1588 9.33826C11.0962 9.34346 11.0354 9.36134 10.9797 9.39084C10.924 9.42034 10.8746 9.46088 10.8345 9.51009C10.7943 9.5593 10.7641 9.61619 10.7457 9.67743C10.7273 9.73868 10.721 9.80306 10.7273 9.86681L10.7937 10.5451L10.7893 10.5496C10.5399 10.3732 10.2617 10.2435 9.96772 10.1667V9.38645C9.96744 9.21879 9.92853 9.05355 9.85414 8.9041C9.77975 8.75465 9.67196 8.62518 9.5395 8.52616L8.38329 7.66438L8.12672 5.81704C8.07989 5.47873 7.90747 5.17176 7.64515 4.95972C7.64515 4.95972 7.61212 4.93451 7.59543 4.92191C7.57874 4.90931 7.56095 4.89745 7.54354 4.88559C7.35603 4.76191 7.14059 4.68944 6.91783 4.6751C6.69507 4.66076 6.47243 4.70503 6.2712 4.80367C5.98269 4.94535 5.73174 5.15577 5.53949 5.41721C5.34725 5.67865 5.21933 5.98345 5.16653 6.30594C5.12945 6.53412 5.03997 6.75009 4.90542 6.93616C4.77088 7.12222 4.59509 7.27308 4.39246 7.37639L4.02084 7.56616C3.79806 7.67981 3.60202 7.8414 3.44622 8.03982C3.29042 8.23823 3.17855 8.46877 3.11831 8.71556C3.07896 8.87588 3.04939 9.03854 3.02976 9.2026C3.00996 9.36664 3.00003 9.53177 3 9.69705V13.7075C2.99997 14.212 3.15748 14.7033 3.44964 15.1101L3.58064 15.2928V19.7373C3.58006 19.775 3.59311 19.8115 3.6173 19.8399C3.64148 19.8683 3.67508 19.8865 3.71165 19.8912H4.29229C4.31245 19.8932 4.3328 19.8909 4.35203 19.8844C4.37126 19.8779 4.38894 19.8673 4.40395 19.8535C4.41895 19.8396 4.43094 19.8226 4.43915 19.8037C4.44736 19.7848 4.4516 19.7643 4.45161 19.7436V16.5056L6.05564 18.7399C6.12214 18.8333 6.22174 18.8965 6.3332 18.9159C6.44466 18.9354 6.55915 18.9096 6.65225 18.8441L7.56204 18.2102C7.61188 18.1757 7.65411 18.131 7.68604 18.0788C7.71797 18.0267 7.7389 17.9683 7.74749 17.9074C7.75519 17.8471 7.75117 17.7859 7.73567 17.7272C7.72016 17.6685 7.69347 17.6135 7.65712 17.5653L7.4735 17.3151C7.53233 17.2839 7.584 17.2403 7.6251 17.1872C7.66621 17.1341 7.6958 17.0727 7.71192 17.007C7.72805 16.9414 7.73033 16.873 7.71864 16.8063C7.70694 16.7397 7.68152 16.6764 7.64406 16.6205C7.62742 16.5957 7.6038 16.5767 7.57632 16.5659C7.54885 16.5551 7.51881 16.5531 7.49019 16.5601L7.00644 16.6794L6.57749 16.0953L8.51611 16.7095V19.7373C8.51553 19.775 8.52858 19.8115 8.55277 19.8399C8.57695 19.8683 8.61055 19.8865 8.64712 19.8912H9.22776C9.24792 19.8932 9.26827 19.8909 9.2875 19.8844C9.30673 19.8779 9.32441 19.8673 9.33942 19.8535C9.35442 19.8396 9.36641 19.8226 9.37462 19.8037C9.38283 19.7848 9.38707 19.7643 9.38708 19.7436V16.9856L17.0741 19.4215L17.384 19.9664C17.3968 19.9888 17.4151 20.0075 17.4371 20.0204C17.4592 20.0333 17.4841 20.0402 17.5096 20.0402C17.5328 20.0403 17.5558 20.0346 17.5763 20.0235L18.0993 19.7466L19.6674 20.2433C19.7012 20.254 19.7376 20.2517 19.7699 20.2369C19.8022 20.2221 19.8281 20.1958 19.8427 20.1629L20.1141 19.5502L20.3587 19.0883C20.3776 19.0544 20.3831 19.0144 20.3742 18.9764C20.3653 18.9384 20.3427 18.9053 20.3108 18.8837C20.294 18.8732 20.2752 18.8663 20.2557 18.8634C20.2362 18.8605 20.2163 18.8617 20.1972 18.867C20.1782 18.8722 20.1604 18.8814 20.1449 18.8939C20.1294 18.9064 20.1166 18.922 20.1072 18.9397L19.9127 19.307L19.2918 19.1146L20.5844 18.43C20.6017 18.421 20.6169 18.4085 20.6293 18.3933C20.6417 18.3781 20.651 18.3605 20.6566 18.3415C20.6623 18.3226 20.6641 18.3027 20.662 18.283C20.66 18.2633 20.6541 18.2442 20.6447 18.2269C20.5652 18.0807 20.4473 17.96 20.3042 17.8785C20.1611 17.797 19.9986 17.758 19.835 17.7658L19.1546 17.801L18.2248 17.1502L20.8806 15.218C20.8963 15.2065 20.9097 15.1919 20.9198 15.175C20.93 15.1582 20.9368 15.1395 20.9397 15.1199C20.9427 15.1004 20.9418 15.0804 20.9372 15.0612C20.9325 15.042 20.9241 15.024 20.9125 15.0082C20.8099 14.8676 20.6682 14.7619 20.5059 14.7049C20.3436 14.6479 20.1682 14.6422 20.0027 14.6887L19.2809 14.8888L17.4261 13.3232L18.3696 13.5756C18.3935 13.5923 18.4216 13.6014 18.4506 13.6015C18.4542 13.6015 18.4578 13.6004 18.4614 13.6004L20.5278 14.1538C20.5398 14.1568 20.5521 14.1585 20.5645 14.1586C20.6004 14.1586 20.6351 14.145 20.6617 14.1205C20.6884 14.0959 20.7052 14.0621 20.7089 14.0256C20.7118 13.9895 20.702 13.9535 20.6812 13.9241C20.6605 13.8948 20.6301 13.874 20.5957 13.8654L20.1587 13.7483L20.1344 11.481L20.6643 10.7842C20.8812 10.4977 20.9993 10.146 20.9999 9.78379ZM20.0568 5.51051C20.2299 5.51054 20.3959 5.5808 20.5184 5.70585C20.6408 5.83089 20.7096 6.00048 20.7096 6.17732V8.17922H19.405L19.4039 6.84487C19.4039 6.80555 19.3886 6.76783 19.3614 6.74003C19.3342 6.71223 19.2972 6.6966 19.2587 6.6966C19.2202 6.6966 19.1833 6.71223 19.1561 6.74003C19.1289 6.76783 19.1136 6.80555 19.1136 6.84487L19.1161 9.75747L18.2437 10.8479H17.4413L17.6769 9.75895C17.8802 8.81716 17.9591 7.8518 17.9117 6.8886L17.8913 6.48422L17.9588 6.43307C17.9748 6.43285 17.9906 6.42984 18.0056 6.42417L18.4419 6.25701C18.4776 6.24298 18.5065 6.21509 18.5222 6.17941C18.5379 6.14373 18.5392 6.10315 18.5257 6.06652C18.5123 6.02989 18.4852 6.00018 18.4504 5.98386C18.4156 5.96753 18.3758 5.96593 18.3399 5.97939L17.9911 6.11282L17.6986 5.81445L17.8866 5.51051H20.0568ZM16.9354 4.47045V4.07311C16.9642 4.06547 16.9923 4.05568 17.0196 4.04383L17.2595 3.94042C17.2741 3.98483 17.2935 4.02747 17.3172 4.06755C17.3299 4.08921 17.3479 4.10717 17.3694 4.1197C17.3909 4.13223 17.4151 4.1389 17.4399 4.13909C17.4647 4.13915 17.4891 4.13283 17.5108 4.12071C17.5326 4.1086 17.551 4.09108 17.5644 4.06978C17.5831 4.03904 17.6093 4.01372 17.6404 3.99621C17.6714 3.97869 17.7063 3.96957 17.7418 3.9697C17.7942 3.9698 17.8446 3.98985 17.8832 4.02592C17.9218 4.06199 17.9459 4.11149 17.9506 4.16473C17.9554 4.21796 17.9405 4.2711 17.909 4.31373C17.8774 4.35636 17.8314 4.38542 17.7799 4.39521C17.7466 4.40153 17.7165 4.41955 17.6948 4.44615C17.6732 4.47276 17.6613 4.50627 17.6612 4.54088V5.31925L17.5135 5.5587L17.3709 5.32036V5.0509C17.383 5.04867 17.395 5.04608 17.4069 5.04311C17.4442 5.03338 17.4762 5.0089 17.4959 4.97505C17.5156 4.94119 17.5213 4.90075 17.5117 4.86261C17.5022 4.82446 17.4782 4.79175 17.4451 4.77166C17.4119 4.75157 17.3723 4.74575 17.335 4.75549C17.3 4.76472 17.2641 4.76932 17.2279 4.7692C17.1504 4.76905 17.0761 4.73753 17.0213 4.68154C16.9665 4.62554 16.9356 4.54964 16.9354 4.47045ZM17.3125 11.2656L16.6946 11.7113C16.6781 11.7232 16.6595 11.7314 16.6397 11.7355C16.62 11.7396 16.5997 11.7395 16.5801 11.7351C16.5604 11.7308 16.5418 11.7223 16.5256 11.7102C16.5093 11.6982 16.4956 11.6828 16.4855 11.665L16.2305 11.2193C16.2207 11.2024 16.2142 11.1838 16.2115 11.1644C16.2088 11.1451 16.2099 11.1253 16.2147 11.1064C16.2195 11.0874 16.2279 11.0696 16.2394 11.054C16.251 11.0384 16.2654 11.0253 16.282 11.0154C16.2985 11.0056 16.3168 10.9991 16.3358 10.9965C16.3548 10.9939 16.3741 10.9951 16.3926 11.0002C16.4111 11.0052 16.4285 11.014 16.4437 11.0259C16.4589 11.0378 16.4716 11.0527 16.4811 11.0697L16.6563 11.3759L17.145 11.0234C17.1605 11.0119 17.1782 11.0036 17.1969 10.9991C17.2156 10.9947 17.2349 10.994 17.2539 10.9972C17.2728 11.0004 17.291 11.0074 17.3072 11.0179C17.3235 11.0283 17.3376 11.0419 17.3487 11.0579C17.3597 11.074 17.3676 11.0921 17.3718 11.1112C17.376 11.1304 17.3764 11.1502 17.373 11.1695C17.3696 11.1888 17.3626 11.2072 17.3522 11.2237C17.3418 11.2402 17.3283 11.2544 17.3125 11.2656ZM14.7794 5.68435C14.8333 5.62913 14.8973 5.58534 14.9678 5.55551C15.0383 5.52567 15.1139 5.51038 15.1902 5.51051H17.1445L17.3303 5.82149L17.045 6.11282L16.6959 5.97939C16.6779 5.97187 16.6587 5.96812 16.6392 5.96836C16.6198 5.9686 16.6006 5.97282 16.5828 5.98078C16.565 5.98873 16.5489 6.00026 16.5356 6.01467C16.5222 6.02909 16.5118 6.0461 16.505 6.06469C16.4982 6.08329 16.4951 6.10309 16.4959 6.12292C16.4968 6.14276 16.5015 6.16222 16.5098 6.18016C16.5181 6.19809 16.5299 6.21414 16.5444 6.22734C16.5589 6.24054 16.5759 6.25063 16.5943 6.25701L17.0305 6.42417C17.0455 6.42987 17.0613 6.43288 17.0773 6.43307L17.1445 6.48422L17.1191 7.00425C17.0762 7.86589 16.9297 8.71888 16.6829 9.54397L16.2927 10.8479H15.4838V6.84487C15.4838 6.80555 15.4685 6.76783 15.4413 6.74003C15.4141 6.71223 15.3772 6.6966 15.3387 6.6966C15.3002 6.6966 15.2633 6.71223 15.236 6.74003C15.2088 6.76783 15.1935 6.80555 15.1935 6.84487V8.17922H14.6118L14.6096 6.1043C14.6094 6.02631 14.6243 5.94906 14.6534 5.87698C14.6826 5.8049 14.7254 5.73943 14.7794 5.68435ZM11.9996 9.25264C12.1727 8.89901 12.4587 8.61624 12.8104 8.451C13.162 8.28577 13.5583 8.24795 13.9339 8.34379L14.3218 8.44313L14.3225 9.07843L11.9913 9.27006L11.9996 9.25264ZM11.8396 9.57993H11.8432L14.4793 9.36309C14.5157 9.36005 14.5496 9.34316 14.5743 9.31576C14.5991 9.28837 14.6128 9.25247 14.6129 9.2152L14.6121 8.47575H15.1935V10.3031C15.0112 10.4277 14.8012 10.5034 14.5828 10.5232L11.452 10.8053L11.4897 10.6304C11.4965 10.5992 11.4932 10.5666 11.4804 10.5375C11.4676 10.5084 11.4459 10.4843 11.4186 10.4688L11.4074 10.4625L11.8396 9.57993ZM15.1935 10.6456V11.4695C14.9606 11.3269 14.7011 11.2354 14.4316 11.201C14.1621 11.1665 13.8885 11.1898 13.6283 11.2694L11.7557 11.8405C11.6674 11.5855 11.5412 11.3459 11.3816 11.13L11.3859 11.1089L14.6082 10.8183C14.8124 10.7998 15.0111 10.7411 15.1935 10.6456ZM11.0575 9.70002C11.0729 9.68105 11.0919 9.66544 11.1134 9.65411C11.1348 9.64278 11.1583 9.63595 11.1824 9.63404L11.4306 9.61366C11.4631 9.61077 11.4937 9.59695 11.5177 9.57437L11.1533 10.3186C11.1247 10.3056 11.0927 10.3025 11.0622 10.3097L11.0161 9.83716C11.0137 9.81264 11.0162 9.78787 11.0233 9.76432C11.0304 9.74076 11.042 9.7189 11.0575 9.70002ZM6.07197 6.32743C6.07392 6.32739 6.07587 6.32714 6.07777 6.32669C6.12714 6.32093 6.1771 6.32978 6.22168 6.35218C6.26627 6.37459 6.30361 6.40962 6.32926 6.45308C6.34566 6.48093 6.37055 6.50251 6.40012 6.5145C6.4297 6.52649 6.4623 6.52822 6.49293 6.51943L7.0137 6.3708C7.11092 6.34347 7.2026 6.29867 7.28442 6.23848L7.37696 6.93642C7.39497 7.0689 7.36618 7.20359 7.29575 7.31635C7.22532 7.42911 7.11786 7.51255 6.99265 7.55171C6.9912 7.55208 6.98975 7.55245 6.98866 7.55282C6.95982 7.56165 6.93033 7.56809 6.90047 7.57209C6.8631 7.57754 6.82527 7.57891 6.78761 7.57617C6.74968 7.57436 6.71256 7.5878 6.68422 7.61362C6.65588 7.63943 6.63858 7.67556 6.63601 7.71426C6.63345 7.75296 6.64583 7.79114 6.67051 7.82062C6.69519 7.85009 6.73019 7.86852 6.76801 7.87195C6.81517 7.8753 6.86251 7.87456 6.90955 7.86973L6.99084 8.48464C6.99233 8.49619 6.99306 8.50783 6.99301 8.51948C6.99281 8.57298 6.97675 8.62516 6.94696 8.66916C6.91716 8.71315 6.87502 8.74691 6.82608 8.76597C6.78973 8.77997 6.75076 8.78541 6.71207 8.78189C6.67338 8.77837 6.63597 8.76597 6.60262 8.74563C6.56927 8.72529 6.54085 8.69752 6.51947 8.6644C6.49809 8.63127 6.48431 8.59365 6.47914 8.55433L6.27084 6.97978C6.2661 6.94428 6.24894 6.91173 6.22252 6.88815C6.1961 6.86458 6.16221 6.85157 6.12713 6.85154C6.1247 6.85149 6.12228 6.85161 6.11987 6.85191C6.05351 6.85515 5.98848 6.83213 5.93831 6.78764C5.88814 6.74315 5.8567 6.68062 5.85053 6.61305C5.84436 6.54549 5.86393 6.47809 5.90518 6.42489C5.94642 6.37169 6.00616 6.33679 6.07197 6.32743ZM6.18737 8.56174L6.19172 8.59399C6.21033 8.73468 6.28057 8.86291 6.38823 8.95272C6.49588 9.04253 6.63292 9.08722 6.77162 9.07776C6.91031 9.06829 7.04031 9.00537 7.13531 8.90173C7.23031 8.79809 7.28322 8.66146 7.28333 8.51948C7.28336 8.49444 7.28166 8.46942 7.27825 8.44461L7.24922 8.22222L8.2218 7.91087L9.36821 8.7656C9.46387 8.837 9.54172 8.93042 9.59544 9.03829C9.64916 9.14615 9.67724 9.26543 9.6774 9.38645V10.1934C8.33344 10.8956 7.16203 11.8987 6.25052 13.1278L4.88709 10.4869V9.8468C4.8878 9.7104 4.8567 9.57579 4.79637 9.45411C4.73604 9.33242 4.64822 9.22715 4.54016 9.147C4.52129 9.13255 4.50205 9.11994 4.48246 9.10734L6.18737 8.56174ZM6.83152 16.9352C6.84852 16.9584 6.87181 16.976 6.89852 16.9859C6.92523 16.9957 6.95418 16.9973 6.98176 16.9904L7.43539 16.8789C7.43645 16.8978 7.43461 16.9168 7.42995 16.9352C7.4239 16.9603 7.41264 16.9837 7.39692 17.0039C7.3812 17.0241 7.3614 17.0406 7.33886 17.0523L7.18753 17.1316C7.16874 17.1415 7.15229 17.1554 7.13932 17.1724C7.12635 17.1894 7.11718 17.2091 7.11244 17.2301C7.1077 17.2511 7.10752 17.2729 7.1119 17.294C7.11629 17.3151 7.12513 17.335 7.13781 17.3522L7.43285 17.754C7.44455 17.77 7.45296 17.7883 7.45757 17.8077C7.46219 17.8272 7.4629 17.8474 7.45968 17.8671C7.45646 17.8868 7.44937 17.9057 7.43884 17.9226C7.4283 17.9394 7.41454 17.9539 7.39837 17.9652L6.48858 18.5994C6.45752 18.6212 6.41936 18.6298 6.38221 18.6233C6.34507 18.6168 6.31188 18.5957 6.28971 18.5646L3.68371 14.9348C3.42732 14.5793 3.28943 14.1491 3.29032 13.7075V10.1051C3.28983 9.92546 3.3458 9.75036 3.44999 9.60558C3.55418 9.4608 3.7011 9.35398 3.86915 9.30082C3.92387 9.28323 3.98089 9.27424 4.03826 9.27414C4.18653 9.27491 4.32848 9.33556 4.43312 9.44285C4.53776 9.55014 4.59659 9.69536 4.59677 9.8468V13.8425C4.59677 13.8745 4.60696 13.9057 4.6258 13.9314L6.83152 16.9352ZM5.70036 14.9003L4.88709 13.7932V11.8569L5.25979 11.8443L6.79813 14.8243C6.7985 14.8251 6.79922 14.8258 6.79959 14.8265L6.92406 15.0571C6.97789 15.1566 7.04083 15.2507 7.11204 15.338L5.70036 14.9003ZM7.37805 14.6023L7.0137 14.606L6.40076 13.4188C7.29781 12.1731 8.4668 11.1581 9.81494 10.4543L9.84071 10.441C10.1023 10.5025 10.3511 10.6109 10.5756 10.7612L9.98296 11.3483L9.95067 11.3298C9.934 11.3195 9.91547 11.3128 9.8962 11.31C9.87693 11.3072 9.85731 11.3084 9.83849 11.3135C9.81968 11.3186 9.80206 11.3275 9.78668 11.3397C9.77131 11.3519 9.75849 11.3671 9.749 11.3844C9.7395 11.4018 9.73352 11.4209 9.73142 11.4407C9.72931 11.4605 9.73111 11.4805 9.73672 11.4995C9.74233 11.5185 9.75163 11.5362 9.76407 11.5515C9.77651 11.5668 9.79184 11.5794 9.80913 11.5885L11.0768 12.3113C11.0982 12.3238 11.1225 12.3303 11.1472 12.3302C11.1793 12.3302 11.2105 12.3194 11.236 12.2993C11.2614 12.2793 11.2797 12.2512 11.2878 12.2195C11.2959 12.1877 11.2935 12.1541 11.2809 12.1239C11.2684 12.0937 11.2463 12.0686 11.2183 12.0526L11.1856 12.034L11.2949 11.5299C11.5033 11.8908 11.6135 12.3019 11.6142 12.7209C11.6143 12.959 11.5462 13.192 11.4181 13.391C11.2901 13.5901 11.1079 13.7465 10.8938 13.841C9.78362 14.3325 8.58806 14.5914 7.37805 14.6023ZM9.27893 16.01L12.6779 16.0656L15.003 17.7847L9.27893 16.01ZM19.1546 18.0979L19.8495 18.062C19.9334 18.0579 20.0171 18.0722 20.095 18.104C20.173 18.1358 20.2433 18.1843 20.3014 18.2462L17.5654 19.6951L17.2795 19.1921L19.1546 18.0979ZM19.3117 15.1876L20.0785 14.9748C20.1633 14.951 20.2522 14.9478 20.3384 14.9654C20.4245 14.9831 20.5054 15.0211 20.5746 15.0764L18.1472 16.8425L17.7926 16.3714L19.3117 15.1876ZM17.4838 16.4474L17.7763 16.8362L13.8047 14.056C13.6467 13.9452 13.4739 13.8585 13.2915 13.7983L14.0645 13.5671L17.4838 16.4474ZM18.4005 13.2776L16.9797 12.8969L17.1931 12.63C17.2056 12.6144 17.2149 12.5963 17.2203 12.5769C17.2257 12.5575 17.2272 12.5371 17.2247 12.5171C17.2221 12.4971 17.2156 12.4778 17.2055 12.4604C17.1954 12.4431 17.1819 12.428 17.1659 12.4162L17.0175 12.3065C17.0052 12.2976 16.995 12.2861 16.9873 12.2729C16.9797 12.2597 16.9749 12.245 16.9732 12.2297C16.9732 12.2289 16.9731 12.228 16.9728 12.2271L17.3259 12.3254C17.353 12.3328 17.3816 12.3321 17.4083 12.3234C17.435 12.3146 17.4587 12.2982 17.4765 12.2761L19.3738 9.90388C19.3949 9.87738 19.4064 9.84427 19.4064 9.8101L19.4054 8.47575H20.7096V9.78379C20.7091 10.0802 20.6125 10.3681 20.4349 10.6026L18.4005 13.2776Z" fill="#1A76D1"/>
<circle cx="12" cy="12" r="11.95" stroke="#1A76D1" stroke-width="0.1"/>
</svg>
