<svg width="24" height="24" viewBox="0 0 24 24" fill="none" xmlns="http://www.w3.org/2000/svg">
<circle cx="12" cy="12" r="11.95" stroke="#1A76D1" stroke-width="0.1"/>
<path d="M5.71129 3.0017C5.55188 3.0196 5.4361 3.1749 5.45236 3.3481C5.68488 5.78961 5.5557 7.8079 5.06848 9.34904C2.64882 12.5319 2.35048 15.4878 4.18149 18.1364C4.445 19.0068 4.55753 19.8581 4.516 20.6666C4.50701 20.8407 4.62948 20.9897 4.78947 20.9997C4.79502 20.9999 4.80056 20.9999 4.80611 20.9999C4.95883 20.9999 5.08685 20.87 5.09565 20.7018C5.14216 19.7977 5.01471 18.8505 4.71694 17.8868C4.70679 17.8541 4.69187 17.8235 4.67273 17.7959C2.96286 15.3558 3.24934 12.7107 5.54843 9.70835C5.57063 9.67942 5.58785 9.64694 5.59933 9.61134C6.12923 7.97506 6.27391 5.84582 6.0301 3.28294C6.01346 3.10974 5.87203 2.98379 5.71129 3.0017Z" fill="#1A76D1"/>
<path d="M20.6592 4.99779C20.4546 4.78628 20.1857 4.6697 19.9021 4.6697C19.6017 4.6697 19.3108 4.80502 19.1049 5.04088L17.072 7.36789C16.3721 5.43517 14.9983 3.86946 13.2404 3.02697C13.0936 2.9566 12.9224 3.02863 12.8579 3.18831C12.7932 3.34798 12.8598 3.5343 13.0064 3.60466C14.7076 4.41989 16.0173 5.97185 16.6265 7.87793L16.5321 7.98576C16.4793 8.04655 16.4502 8.12795 16.4523 8.21143C16.4539 8.27805 16.4755 8.34154 16.512 8.39379L13.5401 11.7956C13.475 11.8699 13.4475 11.974 13.4656 12.0746C13.4838 12.1751 13.546 12.2601 13.6321 12.3015C13.9733 12.4674 14.3389 12.5494 14.7038 12.5494C15.1652 12.5494 15.6256 12.4177 16.0336 12.1579C16.4116 11.9174 16.7222 11.58 16.9457 11.1838C16.8756 11.7863 16.7371 12.3687 16.5383 12.9219C16.4022 12.9924 16.2642 13.0597 16.1257 13.1207C15.9772 13.1858 15.9052 13.3697 15.9651 13.5314C16.0057 13.6411 16.0971 13.7092 16.1982 13.7231C15.4721 15.1871 14.2901 16.3664 12.8072 17.0161C12.7453 17.0432 12.6939 17.0925 12.6615 17.1558C12.1624 18.1361 12.047 19.345 12.3195 20.7496C12.3484 20.8984 12.4688 21 12.6032 21C12.6231 21 12.6431 20.9977 12.6632 20.9933C12.82 20.9573 12.9204 20.7897 12.8875 20.6192C12.6537 19.4149 12.7327 18.3855 13.1223 17.5578C15.7862 16.342 17.5316 13.5424 17.5785 10.3925C17.5816 10.1795 17.5745 9.96512 17.5621 9.75215C17.6051 9.70219 17.6459 9.65577 17.6847 9.61309L17.7157 9.64515C17.7718 9.70323 17.8438 9.73196 17.9155 9.73196C17.9923 9.73196 18.069 9.69928 18.126 9.6337L20.6988 6.6884C21.1163 6.21042 21.0985 5.45182 20.6592 4.99779ZM17.0448 9.43093C17.0444 9.43135 17.044 9.43177 17.0437 9.43218C16.9717 9.51879 16.8959 9.61267 16.8148 9.71635C16.7759 9.76589 16.752 9.82731 16.7467 9.89246C16.6864 10.6073 16.3103 11.2504 15.7408 11.6133C15.2961 11.8964 14.7723 11.9842 14.2769 11.8693L16.9298 8.83242L17.2635 9.17737C17.1954 9.25232 17.1225 9.33684 17.0448 9.43093ZM20.2782 6.25352L17.9052 8.97003L17.1527 8.19207L19.5257 5.47597C19.7152 5.25843 20.0594 5.24885 20.2594 5.45536C20.4668 5.66979 20.4751 6.02806 20.2782 6.25352Z" fill="#1A76D1"/>
<path d="M14.0057 14.3077C14.2055 14.2894 14.4066 14.2629 14.6033 14.229C14.7616 14.2015 14.8695 14.0398 14.8445 13.8678C14.8192 13.6954 14.6722 13.5789 14.5123 13.6053C14.3297 13.6369 14.1429 13.6615 13.9575 13.6786C13.7977 13.6929 13.679 13.8455 13.6924 14.0194C13.7051 14.1842 13.8319 14.3087 13.9814 14.3087C13.9894 14.3085 13.9977 14.3083 14.0057 14.3077Z" fill="#1A76D1"/>
<path d="M12.2442 14.2544C12.3862 14.2544 12.5106 14.141 12.5312 13.9838C12.5538 13.811 12.4438 13.6509 12.2853 13.6262C12.1016 13.5972 11.9168 13.5608 11.7359 13.5175C11.58 13.4792 11.4246 13.5872 11.3897 13.7573C11.3551 13.9274 11.4538 14.0962 11.6102 14.1337C11.8056 14.1807 12.0048 14.2203 12.2027 14.2513C12.2168 14.2536 12.2306 14.2544 12.2442 14.2544Z" fill="#1A76D1"/>
</svg>
