<svg width="24" height="24" viewBox="0 0 24 24" fill="none" xmlns="http://www.w3.org/2000/svg">
<path d="M19.6966 7.56589C20.0276 5.63042 18.3848 4.35881 18.3203 4.31043C17.2293 3.43753 15.0909 3.12011 14.1769 2.98463L13.9249 2.95173C13.8121 2.56521 13.7423 2.16893 13.7167 1.76915C13.7114 1.69471 13.6752 1.6251 13.6158 1.57493C13.5564 1.52477 13.4784 1.49795 13.3982 1.50012H10.6019C10.5237 1.49989 10.4484 1.52706 10.3909 1.57622C10.3333 1.62537 10.2979 1.69289 10.2916 1.76528C10.2662 2.16445 10.1965 2.56011 10.0834 2.94592L9.83146 2.98463C8.90492 3.12011 6.77074 3.43753 5.68595 4.30655C5.61724 4.35881 3.97235 5.62461 4.30341 7.56589C4.59075 9.24588 4.28259 10.9665 3.6996 13.2097C3.12701 15.3387 3.00416 19.0452 3 19.2097C3.00216 19.2821 3.03335 19.3511 3.08745 19.4032C3.11642 19.4315 3.15131 19.454 3.18998 19.4694C3.22865 19.4847 3.27029 19.4925 3.31232 19.4923H4.61365C4.67315 19.492 4.73135 19.476 4.78148 19.4462C4.8316 19.4164 4.8716 19.374 4.89682 19.3239C4.99468 19.1303 7.28086 14.4678 6.79572 12.0562C7.15207 11.4437 7.45966 10.8078 7.71602 10.1536C8.36981 11.7233 8.13245 13.6646 7.61192 14.8587C7.37473 15.3885 7.09637 15.9014 6.77906 16.3936C5.8192 17.6226 6.00659 19.171 6.01492 19.2368C6.02493 19.3069 6.06181 19.3714 6.11879 19.4183C6.17577 19.4652 6.24904 19.4915 6.32516 19.4923H17.7102C17.7866 19.4923 17.8604 19.4663 17.9175 19.4192C17.9747 19.3722 18.0113 19.3073 18.0205 19.2368C18.0205 19.1729 18.212 17.6613 17.2938 16.44C17.2881 16.4266 17.2812 16.4136 17.273 16.4013C16.9533 15.9057 16.6749 15.388 16.4401 14.8529C15.9217 13.6742 15.6843 11.7562 16.311 10.2078C16.5628 10.8419 16.8634 11.4584 17.2105 12.0523C16.7191 14.4755 19.0053 19.1303 19.1073 19.3316C19.1327 19.382 19.173 19.4246 19.2236 19.4545C19.2741 19.4843 19.3327 19.5001 19.3926 19.5H20.6918C20.7338 19.4988 20.7751 19.4896 20.813 19.4729C20.851 19.4563 20.8849 19.4326 20.9126 19.4032C20.9667 19.3511 20.9978 19.2821 21 19.2097C21 19.0529 20.873 15.3542 20.3067 13.2097C19.7174 10.9665 19.4093 9.24588 19.6966 7.56589ZM19.5904 18.9194C19.174 18.0484 17.3604 14.0342 17.8393 12.0813C17.8567 12.0109 17.8448 11.9369 17.806 11.8742C17.3379 11.0859 16.9597 10.2543 16.6775 9.39297C17.0587 8.51217 17.2762 7.57761 17.3209 6.62912C17.3209 6.55212 17.288 6.47828 17.2294 6.42383C17.1708 6.36939 17.0914 6.3388 17.0086 6.3388C16.9257 6.3388 16.8463 6.36939 16.7877 6.42383C16.7291 6.47828 16.6962 6.55212 16.6962 6.62912C16.6465 7.51126 16.4403 8.37971 16.0862 9.19942C16.0862 9.19942 15.499 9.9349 12.7277 9.9349C12.6449 9.9349 12.5654 9.96549 12.5069 10.0199C12.4483 10.0744 12.4154 10.1482 12.4154 10.2252C12.4154 10.3022 12.4483 10.3761 12.5069 10.4305C12.5654 10.485 12.6449 10.5155 12.7277 10.5155C14.1852 10.5155 15.1055 10.322 15.6864 10.1052C15.043 11.7949 15.2866 13.7826 15.8592 15.0813C16.099 15.6232 16.3816 16.1478 16.7046 16.651C16.7138 16.6788 16.7278 16.7049 16.7462 16.7284C17.3542 17.5026 17.4208 18.4703 17.4146 18.9136H13.8042C14.4853 18.4128 14.9651 17.7132 15.1659 16.9278C15.1728 16.8896 15.1717 16.8506 15.1624 16.8129C15.1532 16.7752 15.136 16.7396 15.1119 16.708C15.0879 16.6765 15.0574 16.6496 15.0221 16.6291C14.9869 16.6085 14.9477 16.5946 14.9067 16.5881C14.8656 16.5816 14.8237 16.5827 14.7831 16.5913C14.7425 16.5999 14.7042 16.6158 14.6703 16.6382C14.6363 16.6606 14.6075 16.689 14.5853 16.7217C14.5632 16.7544 14.5482 16.7909 14.5412 16.829C14.5412 16.8426 14.2747 18.1587 12.6423 18.9136H11.3889C9.77108 18.1723 9.50041 16.8871 9.48791 16.8329C9.46975 16.7606 9.42249 16.6975 9.35584 16.6566C9.28919 16.6157 9.20821 16.6001 9.12956 16.613C9.0509 16.6259 8.98055 16.6663 8.93296 16.7259C8.88537 16.7856 8.86416 16.8599 8.87368 16.9336C9.07344 17.7194 9.55337 18.4193 10.2354 18.9194H6.62499C6.62499 18.4684 6.68537 17.5065 7.29127 16.7342C7.29614 16.7289 7.30033 16.723 7.30376 16.7168C7.64421 16.196 7.94009 15.6511 8.18866 15.0871C8.76125 13.7846 9.00278 11.7968 8.36148 10.113C8.94448 10.3297 9.86686 10.5214 11.3119 10.5214C11.3947 10.5214 11.4741 10.4908 11.5327 10.4363C11.5913 10.3819 11.6242 10.308 11.6242 10.231C11.6242 10.154 11.5913 10.0802 11.5327 10.0257C11.4741 9.9713 11.3947 9.94071 11.3119 9.94071C8.77791 9.94071 8.07415 9.33297 7.98045 9.22265C7.61932 8.39824 7.40822 7.52373 7.35581 6.63493C7.35581 6.55793 7.32291 6.48408 7.26434 6.42964C7.20577 6.37519 7.12633 6.34461 7.04349 6.34461C6.96066 6.34461 6.88122 6.37519 6.82265 6.42964C6.76408 6.48408 6.73117 6.55793 6.73117 6.63493C6.77496 7.55767 6.9825 8.46734 7.3454 9.32717C7.06369 10.2124 6.679 11.0665 6.19815 11.8742C6.16028 11.9372 6.14844 12.0108 6.16484 12.0813C6.63956 14.0342 4.82186 18.0484 4.4096 18.9194H3.63713C3.67877 17.9845 3.84534 15.0794 4.30133 13.3375C4.90931 11.0343 5.2258 9.25168 4.92597 7.47492C4.65113 5.86848 6.07114 4.76526 6.09196 4.75171C7.04974 3.97752 9.1402 3.67559 9.92516 3.55753C10.0699 3.54211 10.2133 3.51689 10.3541 3.48204C10.4936 3.43559 10.7455 3.3543 10.8913 2.08076H13.1191C13.2649 3.3543 13.5147 3.43559 13.6543 3.48204C13.7951 3.51689 13.9384 3.54211 14.0832 3.55753C14.8702 3.67559 16.9607 3.98527 17.9247 4.75752C17.9393 4.7672 19.3593 5.86074 19.0824 7.46718C18.7805 9.24201 19.0949 11.0265 19.707 13.3297C20.1692 15.0716 20.3316 17.9748 20.3733 18.9116L19.5904 18.9194Z" fill="#1A76D1"/>
<path d="M12.0272 9.58387C12.11 9.58387 12.1894 9.55328 12.248 9.49883C12.3066 9.44439 12.3395 9.37054 12.3395 9.29355V7.72001C12.3395 7.64301 12.3066 7.56917 12.248 7.51472C12.1894 7.46027 12.11 7.42969 12.0272 7.42969C11.9443 7.42969 11.8649 7.46027 11.8063 7.51472C11.7477 7.56917 11.7148 7.64301 11.7148 7.72001V9.29355C11.7148 9.37054 11.7477 9.44439 11.8063 9.49883C11.8649 9.55328 11.9443 9.58387 12.0272 9.58387Z" fill="#1A76D1"/>
<path d="M9.86578 9.07249C9.66714 9.08702 9.4674 9.06398 9.27862 9.00474C9.2067 8.98805 9.13074 8.99568 9.06431 9.02626C8.99789 9.05685 8.94533 9.1084 8.91604 9.1717C8.88675 9.235 8.88263 9.30591 8.90443 9.37177C8.92622 9.43763 8.97251 9.49414 9.03501 9.53119C9.26549 9.61317 9.51076 9.65325 9.75751 9.64926H9.90742C9.94843 9.64671 9.98851 9.63669 10.0254 9.61975C10.0622 9.60281 10.0951 9.57929 10.1222 9.55054C10.1492 9.52178 10.1699 9.48835 10.1831 9.45216C10.1963 9.41596 10.2017 9.37771 10.1989 9.33958C10.1962 9.30146 10.1854 9.2642 10.1672 9.22995C10.149 9.1957 10.1237 9.16512 10.0927 9.13996C10.0618 9.1148 10.0258 9.09555 9.98688 9.08331C9.94794 9.07107 9.90679 9.06607 9.86578 9.06862V9.07249Z" fill="#1A76D1"/>
<path d="M12.3377 11.1165C12.3377 11.0395 12.3048 10.9657 12.2462 10.9112C12.1877 10.8568 12.1082 10.8262 12.0254 10.8262C11.9426 10.8262 11.8631 10.8568 11.8045 10.9112C11.746 10.9657 11.7131 11.0395 11.7131 11.1165V11.6971C10.6907 11.8539 10.1265 11.4107 10.0973 11.3875C10.035 11.341 9.95597 11.3185 9.87637 11.3245C9.79678 11.3306 9.7227 11.3648 9.66938 11.4201C9.61605 11.4753 9.58753 11.5475 9.58968 11.6217C9.59182 11.6959 9.62447 11.7665 9.68091 11.8191C10.1385 12.154 10.7082 12.3287 11.2904 12.3126C11.4297 12.3115 11.5687 12.3024 11.7068 12.2855V13.05C11.4013 13.1418 11.0785 13.1729 10.7592 13.1412C10.44 13.1095 10.1315 13.0158 9.85373 12.8662C9.81994 12.8423 9.78126 12.825 9.74006 12.8155C9.69885 12.8059 9.65599 12.8043 9.61409 12.8107C9.57219 12.8171 9.53213 12.8314 9.49636 12.8526C9.46059 12.8739 9.42985 12.9017 9.40604 12.9344C9.38223 12.9671 9.36583 13.0039 9.35786 13.0427C9.34988 13.0814 9.35049 13.1213 9.35965 13.1599C9.36882 13.1984 9.38634 13.2348 9.41114 13.2668C9.43595 13.2989 9.46752 13.3258 9.50393 13.3462C9.95404 13.6031 10.4728 13.7372 11.001 13.7332C11.2388 13.7312 11.4756 13.704 11.7068 13.652V14.5403C10.9056 14.6977 10.0732 14.6454 9.30197 14.3894C9.26412 14.3714 9.22273 14.3608 9.18033 14.3583C9.13794 14.3557 9.09542 14.3612 9.05538 14.3744C9.01535 14.3876 8.97863 14.4083 8.94749 14.4352C8.91635 14.4621 8.89144 14.4945 8.87427 14.5307C8.85711 14.5668 8.84806 14.6058 8.84767 14.6453C8.84728 14.6848 8.85557 14.724 8.87202 14.7604C8.88847 14.7968 8.91274 14.8297 8.94335 14.8571C8.97396 14.8845 9.01026 14.9058 9.05003 14.9197C9.60203 15.1157 10.1895 15.211 10.7803 15.2003C11.2011 15.2004 11.6204 15.1543 12.0296 15.0629C12.4333 15.1532 12.8469 15.1994 13.2622 15.2003C13.8514 15.2075 14.4366 15.1096 14.9862 14.912C15.0557 14.8776 15.1086 14.8201 15.1344 14.751C15.1603 14.6819 15.1571 14.6062 15.1255 14.5392C15.0939 14.4722 15.0363 14.4187 14.9641 14.3895C14.892 14.3603 14.8106 14.3575 14.7363 14.3816C13.9678 14.6363 13.1386 14.6892 12.3398 14.5345V13.6462C12.5682 13.6976 12.8023 13.7242 13.0373 13.7255C13.5654 13.7291 14.0841 13.595 14.5344 13.3384C14.6028 13.295 14.65 13.2282 14.6654 13.1525C14.6808 13.0768 14.6633 12.9985 14.6166 12.9349C14.5699 12.8712 14.498 12.8274 14.4166 12.8131C14.3352 12.7987 14.2509 12.815 14.1825 12.8584C13.9068 13.0083 13.6005 13.103 13.2831 13.1363C12.9658 13.1696 12.6445 13.1409 12.3398 13.052V12.2778C12.4778 12.295 12.6169 12.304 12.7562 12.3049C13.3377 12.3207 13.9067 12.146 14.3636 11.8113C14.4201 11.7588 14.4527 11.6882 14.4549 11.614C14.457 11.5397 14.4285 11.4676 14.3752 11.4123C14.3218 11.3571 14.2478 11.3229 14.1682 11.3168C14.0886 11.3107 14.0095 11.3333 13.9472 11.3797C13.9222 11.3991 13.36 11.8442 12.3398 11.6913L12.3377 11.1165Z" fill="#1A76D1"/>
<path d="M14.7618 9.00705C14.5723 9.06644 14.3719 9.08948 14.1726 9.07479C14.0897 9.06991 14.0082 9.09582 13.9459 9.14682C13.8837 9.19782 13.8457 9.26972 13.8405 9.34672C13.8352 9.42372 13.8631 9.4995 13.918 9.5574C13.9728 9.61529 14.0502 9.65055 14.133 9.65543H14.2829C14.5299 9.65819 14.7752 9.61679 15.0054 9.5335C15.0785 9.50155 15.1354 9.44454 15.1642 9.37444C15.193 9.30434 15.1915 9.22658 15.16 9.15748C15.1285 9.08838 15.0694 9.03331 14.9952 9.00382C14.921 8.97433 14.8373 8.97271 14.7618 8.99931V9.00705Z" fill="#1A76D1"/>
<path d="M11.4329 5.14599L9.62146 4.46083C9.58345 4.44647 9.54277 4.43921 9.50175 4.43946C9.46072 4.43971 9.42015 4.44747 9.38235 4.4623C9.34456 4.47713 9.31027 4.49873 9.28145 4.52588C9.25263 4.55302 9.22985 4.58518 9.2144 4.62051C9.19895 4.65583 9.19114 4.69365 9.19141 4.73178C9.19168 4.76992 9.20003 4.80763 9.21599 4.84277C9.23194 4.8779 9.25518 4.90978 9.28438 4.93656C9.31358 4.96335 9.34817 4.98453 9.38618 4.99889L11.1976 5.68405C11.2355 5.69761 11.2757 5.70482 11.3163 5.70534C11.3889 5.70562 11.4593 5.6824 11.5154 5.63967C11.5716 5.59694 11.61 5.53738 11.624 5.4712C11.6381 5.40502 11.6269 5.33636 11.5924 5.27701C11.5579 5.21767 11.5022 5.17134 11.435 5.14599H11.4329Z" fill="#1A76D1"/>
<path d="M14.9866 4.62103C14.9556 4.54972 14.8955 4.49276 14.8194 4.46264C14.7432 4.43253 14.6574 4.43171 14.5806 4.46038L12.7691 5.14554C12.7019 5.17089 12.6463 5.21722 12.6118 5.27657C12.5773 5.33591 12.5661 5.40457 12.5801 5.47075C12.5942 5.53693 12.6326 5.5965 12.6887 5.63922C12.7449 5.68195 12.8153 5.70517 12.8878 5.70489C12.9278 5.70456 12.9673 5.69734 13.0044 5.6836L14.8159 4.99844C14.8922 4.96927 14.953 4.91319 14.985 4.84247C15.017 4.77176 15.0176 4.69214 14.9866 4.62103Z" fill="#1A76D1"/>
<circle cx="12" cy="12" r="11.95" stroke="#1A76D1" stroke-width="0.1"/>
</svg>
