<svg width="24" height="24" viewBox="0 0 24 24" fill="none" xmlns="http://www.w3.org/2000/svg">
<path d="M20.98 6.70333C20.8133 5.55333 19.6933 4.66667 18.3333 4.66667C17.88 4.66667 17.4533 4.76333 17.08 4.94C16.6933 4.18333 15.9067 3.66667 15 3.66667C14.8067 3.66667 14.6233 3.69 14.4467 3.73667L14.6667 2H9.33333L9.55333 3.73667C9.37667 3.69 9.19333 3.66667 9 3.66667C8.09333 3.66667 7.30667 4.18333 6.92 4.94C6.54667 4.76333 6.12 4.66667 5.66667 4.66667C4.30667 4.66667 3.18667 5.55333 3.02 6.70333C2.43333 6.84667 2 7.37333 2 8V14H2.66667C3.42333 14 4.09667 13.64 4.51667 13.0833L4.90667 15.71C4.96667 16.1033 5.19667 16.4533 5.54 16.6567L6.07667 16.9767C6.44667 17.2 6.68667 17.5867 6.72 18.0167L7 21.9967H17L17.28 18.0167C17.3133 17.5867 17.5533 17.1967 17.9233 16.9767L18.46 16.6567C18.8033 16.45 19.0333 16.1033 19.0933 15.71L19.4833 13.0833C19.9033 13.64 20.5767 14 21.3333 14H22V8C22 7.37333 21.5667 6.84667 20.98 6.70333ZM14.7333 8.06667L14.5833 7.41667C15.0667 7.30667 15.5833 7.30333 16.0667 7.41333L15.92 8.06333C15.5333 7.97667 15.12 7.97667 14.7333 8.06667ZM15.6667 11V11.6667H15V11H15.6667ZM14.7433 13.2667L14.5967 13.9167C14.1133 13.8067 13.65 13.5867 13.26 13.2733L13.6767 12.7533C13.99 13.0033 14.3567 13.18 14.7467 13.2667H14.7433ZM16.9967 12.75L17.4133 13.27C17.0233 13.58 16.5633 13.8033 16.0767 13.9133L15.93 13.2633C16.3167 13.1767 16.6867 12.9967 16.9967 12.7467V12.75ZM16.4233 6.14333L16.2433 6.78667C14.9767 6.43 13.6633 6.88 13.31 7.78667L12.6867 7.54667C13.16 6.32667 14.8333 5.7 16.42 6.14667L16.4233 6.14333ZM13.2467 8.06333L13.6633 8.58333C13.3533 8.83333 13.0967 9.15667 12.9267 9.51333L12.3267 9.22333C12.54 8.77667 12.86 8.37333 13.25 8.06333H13.2467ZM12.93 11.8267L12.33 12.1167C12.11 11.6633 12 11.1767 11.9967 10.67H12.6633C12.6633 11.0733 12.7533 11.4633 12.93 11.8233V11.8267ZM11.9967 10.68C11.9967 11.1733 11.8867 11.66 11.6667 12.1133L11.0667 11.8233C11.24 11.46 11.33 11.07 11.33 10.6667L11.9967 10.6533V10.68ZM11.0633 9.5C10.89 9.14333 10.6333 8.82333 10.32 8.57667L10.7333 8.05333C11.1233 8.36333 11.4433 8.76333 11.6633 9.21L11.0633 9.50333V9.5ZM8.06333 8.06667L7.91333 7.41667C8.39667 7.30667 8.91333 7.30333 9.39667 7.41333L9.25 8.06333C8.86333 7.97667 8.45 7.97667 8.06333 8.06667ZM8.99667 11V11.6667H8.33V11H8.99667ZM10.3267 12.75L10.7433 13.27C10.3533 13.58 9.89333 13.8033 9.40667 13.9133L9.26 13.2633C9.64667 13.1767 10.0167 12.9967 10.3267 12.7467V12.75ZM11.3067 7.54333L10.6833 7.78333C10.3333 6.87667 9.01667 6.42667 7.75 6.78333L7.57 6.14C9.15667 5.69333 10.8333 6.32333 11.3033 7.54L11.3067 7.54333ZM8.07 13.2667L7.92333 13.9167C7.44 13.8067 6.97667 13.5867 6.58667 13.2733L7.00333 12.7533C7.31667 13.0033 7.68333 13.18 8.07333 13.2667H8.07ZM5.66 12.1167C5.44 11.6633 5.33 11.1767 5.32667 10.67H5.99333C5.99333 11.0733 6.08333 11.4633 6.26 11.8233L5.66 12.1133V12.1167ZM6.25667 9.51333L5.65667 9.22333C5.87 8.77667 6.19 8.37333 6.58 8.06333L6.99667 8.58333C6.68667 8.83333 6.43 9.15667 6.26 9.51333H6.25667ZM17.0367 14.99C16.74 15.4133 16.26 15.6633 15.76 15.6633H12.33V16.9967H15.1067C15.39 16.9967 15.6533 16.8533 15.83 16.6067L16.39 15.8067L16.9367 16.19L16.3767 16.99C16.08 17.4133 15.6067 17.6667 15.1067 17.6667H12.33V19H14.4567C14.7367 19 14.9967 18.8567 15.1667 18.61L15.72 17.81L16.2667 18.19L15.7133 18.99C15.42 19.4133 14.95 19.6667 14.4533 19.6667H12.3267V21H11.66V19.6667H9.53333C9.04 19.6667 8.57 19.4133 8.27667 18.99L7.72333 18.19L8.27 17.81L8.82333 18.61C8.99667 18.8567 9.25333 19 9.53333 19H11.66V17.6667H8.88333C8.38667 17.6667 7.91333 17.4133 7.61667 16.99L7.05667 16.19L7.60333 15.8067L8.16333 16.6067C8.33667 16.8567 8.6 16.9967 8.88667 16.9967H11.6633V15.6633H8.23333C7.73333 15.6633 7.25667 15.41 6.95667 14.99L6.39333 14.19L6.93667 13.8067L7.5 14.6067C7.67333 14.8533 7.94667 15 8.23 15H11.66V14.28C11.47 14.3033 11.28 14.3367 11.1 14.3967L10.89 13.7633C11.6033 13.5267 12.3867 13.5267 13.1 13.7633L12.89 14.3967C12.7067 14.3367 12.52 14.3 12.33 14.28V15H15.76C16.0433 15 16.3167 14.8533 16.49 14.6067L17.0533 13.8067L17.5967 14.19L17.0333 14.99H17.0367ZM16.9833 8.57333L17.3967 8.05C17.7867 8.36 18.1067 8.76 18.3267 9.20667L17.7267 9.5C17.5533 9.14333 17.2967 8.82333 16.9833 8.57667V8.57333ZM18.66 10.68C18.66 11.1733 18.55 11.66 18.33 12.1133L17.73 11.8233C17.9033 11.46 17.9933 11.07 17.9933 10.6667L18.66 10.6533V10.68Z" fill="#1A76D1"/>
<circle cx="12" cy="12" r="11.95" stroke="#1A76D1" stroke-width="0.1"/>
</svg>
