<svg width="24" height="24" viewBox="0 0 24 24" fill="none" xmlns="http://www.w3.org/2000/svg">
<circle cx="12" cy="12" r="11.95" stroke="#1A76D1" stroke-width="0.1"/>
<path d="M17.6111 13.3564C17.69 13.3138 17.7685 13.2681 17.8444 13.2213C17.9557 13.1525 18.0981 13.1653 18.1937 13.2436C18.2853 12.7242 18.342 12.1741 18.342 11.6093C18.342 8.07689 12.7134 6.47966 12.0091 6.29367C11.6765 6.38134 10.2435 6.78219 8.8319 7.5509C7.90367 8.05626 7.16662 8.61904 6.64145 9.22342C6.00107 9.9598 5.67652 10.7629 5.67652 11.6093C5.67652 12.1697 5.73285 12.7156 5.82299 13.2313C5.91784 13.1642 6.05086 13.1563 6.15553 13.2213C6.23186 13.2681 6.31036 13.3138 6.38922 13.3564C6.52842 13.4317 6.57712 13.5998 6.49717 13.7315C6.44374 13.8205 6.34561 13.87 6.24458 13.87C6.19551 13.87 6.14608 13.8583 6.10065 13.8339C6.04105 13.8016 5.98181 13.7676 5.92293 13.7329C6.25802 15.2304 6.84171 16.4051 7.06849 16.8259C7.93965 18.4424 10.2115 20.25 11.9484 20.25C12.7418 20.25 13.763 19.8536 14.7498 19.1626C15.6965 18.4994 16.519 17.6262 16.9504 16.8259C17.1779 16.4037 17.7641 15.2239 18.0985 13.7198C18.0331 13.7593 17.9666 13.7975 17.8997 13.8339C17.8543 13.8583 17.8045 13.87 17.7554 13.87C17.6547 13.87 17.5566 13.8205 17.5028 13.7315C17.4232 13.5998 17.4716 13.4317 17.6111 13.3564ZM10.8424 14.2227C10.962 14.1213 11.1459 14.1306 11.2531 14.2437C11.461 14.4627 11.7325 14.5882 11.9974 14.5882C12.2722 14.5882 12.5506 14.4551 12.7614 14.2227C12.8657 14.1076 13.0492 14.0942 13.1714 14.1932C13.2931 14.2922 13.3073 14.4658 13.2026 14.581C12.8813 14.9351 12.4419 15.1383 11.9974 15.1383C11.5679 15.1383 11.1386 14.9461 10.8206 14.6112C10.7131 14.4981 10.7232 14.3242 10.8424 14.2227ZM7.03578 13.9446C7.07576 13.7978 7.23422 13.7091 7.38977 13.7473C7.477 13.7686 7.56531 13.7868 7.65181 13.8013C7.80991 13.8277 7.9153 13.9704 7.88732 14.12C7.86261 14.2533 7.73976 14.3472 7.60129 14.3472C7.58457 14.3472 7.56749 14.3458 7.55041 14.3427C7.44901 14.3259 7.34616 14.3046 7.2444 14.2798C7.08884 14.242 6.99544 14.0918 7.03578 13.9446ZM9.12301 16.0197C9.06704 16.0682 8.99653 16.0919 8.92639 16.0919C8.84789 16.0919 8.76938 16.062 8.71196 16.0029L8.49026 15.7739V16.7173C8.49026 16.8692 8.36015 16.9923 8.19951 16.9923C8.03887 16.9923 7.90876 16.8692 7.90876 16.7173V15.7739L7.68706 16.0029C7.5784 16.1149 7.3945 16.1222 7.27601 16.0197C7.1579 15.9169 7.1499 15.743 7.25821 15.6309L7.98508 14.8814C8.04033 14.8244 8.1181 14.7921 8.19951 14.7921C8.28092 14.7921 8.3587 14.8244 8.41394 14.8814L9.14082 15.6309C9.24912 15.743 9.24113 15.9169 9.12301 16.0197ZM9.12846 14.2695C9.02415 14.3011 8.91767 14.3273 8.81227 14.3462C8.79373 14.3496 8.77556 14.351 8.75739 14.351C8.62074 14.351 8.49862 14.2595 8.47209 14.1275C8.44193 13.9783 8.54551 13.8343 8.70324 13.8057C8.78501 13.791 8.86824 13.771 8.94965 13.7459C9.10266 13.6992 9.26657 13.7786 9.31563 13.9233C9.36506 14.0677 9.28111 14.2227 9.12846 14.2695ZM8.65417 11.8688C7.96655 11.8688 7.40685 11.3394 7.40685 10.6886C7.40685 10.6639 7.40831 10.6391 7.40976 10.6144C7.26002 10.6938 7.18116 10.7591 7.18043 10.7601C7.12482 10.8086 7.05468 10.8323 6.98454 10.8323C6.90603 10.8323 6.82789 10.8024 6.77011 10.7433C6.66144 10.6312 6.67016 10.4566 6.78828 10.3538C6.81517 10.3304 7.46246 9.77897 8.65417 9.77897C9.84589 9.77897 10.4935 10.3304 10.5204 10.3538C10.6385 10.4566 10.6462 10.6305 10.5375 10.7426C10.4288 10.8543 10.2449 10.8616 10.1268 10.7588C10.1268 10.7588 10.0483 10.6934 9.89895 10.6144C9.90041 10.6391 9.90186 10.6639 9.90186 10.6886C9.90186 11.3394 9.34216 11.8688 8.65417 11.8688ZM9.84734 13.2533C9.96183 13.158 10.0258 13.0886 10.0262 13.0879C10.1308 12.9731 10.3144 12.96 10.4361 13.0587C10.5575 13.1574 10.572 13.3303 10.4681 13.4454C10.459 13.4554 10.3772 13.5451 10.2308 13.6665C10.1755 13.7126 10.1072 13.7349 10.0392 13.7349C9.95819 13.7349 9.87787 13.7033 9.82045 13.6414C9.71469 13.5273 9.72668 13.3533 9.84734 13.2533ZM14.1439 16.9964C14.0222 17.1312 12.9282 18.3131 12.0094 18.3131C11.0907 18.3131 9.99672 17.1312 9.87497 16.9964C9.81609 16.9314 9.79283 16.8438 9.81173 16.7599C9.83099 16.6763 9.89023 16.6055 9.972 16.5691C10.1137 16.5058 11.3749 15.9523 12.0094 15.9523C12.644 15.9523 13.9048 16.5058 14.0465 16.5691C14.1287 16.6055 14.1879 16.6763 14.2072 16.7599C14.2261 16.8438 14.2028 16.9314 14.1439 16.9964ZM14.1799 13.6414C14.1221 13.7033 14.0418 13.7349 13.9611 13.7349C13.8931 13.7349 13.8245 13.7126 13.7696 13.6665C13.6231 13.5451 13.541 13.4554 13.5322 13.4454C13.4279 13.3299 13.4425 13.1563 13.5646 13.0577C13.6867 12.9593 13.8695 12.9727 13.9742 13.0879C13.9767 13.091 14.0403 13.1598 14.153 13.2533C14.2737 13.3533 14.2857 13.5273 14.1799 13.6414ZM14.6843 13.9233C14.7338 13.7786 14.8977 13.6992 15.0503 13.7459C15.1321 13.771 15.215 13.791 15.2971 13.8057C15.4548 13.8343 15.5581 13.9783 15.5283 14.1275C15.5014 14.2595 15.3796 14.351 15.243 14.351C15.2248 14.351 15.2062 14.3496 15.1881 14.3462C15.0827 14.3273 14.9762 14.3011 14.8719 14.2695C14.7189 14.2227 14.6353 14.0677 14.6843 13.9233ZM16.7392 16.0197C16.6833 16.0682 16.6128 16.0919 16.5426 16.0919C16.4641 16.0919 16.3856 16.062 16.3282 16.0029L16.1065 15.7739V16.7173C16.1065 16.8692 15.9764 16.9923 15.8157 16.9923C15.6551 16.9923 15.525 16.8692 15.525 16.7173V15.7739L15.3033 16.0029C15.1946 16.1149 15.0107 16.1222 14.8922 16.0197C14.7741 15.9169 14.7661 15.743 14.8744 15.6309L15.6013 14.8814C15.6565 14.8244 15.7343 14.7921 15.8157 14.7921C15.8971 14.7921 15.9749 14.8244 16.0302 14.8814L16.757 15.6309C16.8653 15.743 16.8573 15.9169 16.7392 16.0197ZM16.7559 14.2798C16.6542 14.3046 16.551 14.3259 16.4496 14.3427C16.4325 14.3458 16.4154 14.3472 16.3987 14.3472C16.2602 14.3472 16.1377 14.2533 16.1127 14.12C16.0847 13.9704 16.1904 13.8277 16.3485 13.8013C16.435 13.7868 16.5233 13.7686 16.6102 13.7473C16.7661 13.7091 16.9246 13.7978 16.9646 13.9446C17.0049 14.0918 16.9111 14.242 16.7559 14.2798ZM17.2477 10.7426C17.1394 10.854 16.9566 10.8616 16.8385 10.7598C16.8345 10.7567 16.7559 10.6921 16.6088 10.6144C16.6106 10.6391 16.6117 10.6639 16.6117 10.6886C16.6117 11.3394 16.0523 11.8688 15.3643 11.8688C14.6764 11.8688 14.117 11.3394 14.117 10.6886C14.117 10.6639 14.1181 10.6391 14.1199 10.6144C13.9702 10.6938 13.8913 10.7591 13.8902 10.7601C13.8346 10.8086 13.7645 10.8323 13.6947 10.8323C13.6162 10.8323 13.5377 10.8024 13.4803 10.7433C13.3716 10.6312 13.38 10.4566 13.4981 10.3538C13.5253 10.3304 14.1723 9.77897 15.3643 9.77897C16.5564 9.77897 17.2037 10.3304 17.2306 10.3538C17.3487 10.4566 17.3564 10.6305 17.2477 10.7426Z" fill="#1A76D1"/>
<path d="M19.8666 10.8038C19.7572 11.1105 19.6311 11.4006 19.4977 11.6701C19.5286 11.534 19.557 11.3927 19.5813 11.2469C19.8103 9.86492 19.7216 7.80358 17.996 5.83334C17.9524 5.78349 17.9081 5.73468 17.8637 5.68655C17.8619 5.68483 17.8601 5.68276 17.8586 5.68104C16.9373 4.68682 15.8779 4.09826 14.9646 3.75H17.2844C17.7932 4.07625 18.2424 4.44685 18.6211 4.85183C19.5119 5.80481 20.0429 6.85645 20.1999 7.97753C20.326 8.87757 20.2137 9.82848 19.8666 10.8038Z" fill="#1A76D1"/>
<path d="M19.01 11.1414C18.9853 11.293 18.9558 11.4391 18.9231 11.5797C18.9159 10.6113 18.5459 9.69956 17.8223 8.86931C17.2506 8.21268 16.4579 7.60693 15.4657 7.06822C14.5964 6.59586 13.734 6.26067 13.0972 6.04546C13.5577 5.95779 14.1039 5.8715 14.5913 5.84159C15.7434 5.77077 17.1259 6.03996 17.4872 6.11593C17.5075 6.13862 17.5279 6.16131 17.5482 6.18435C18.2471 6.98227 18.7145 7.86099 18.938 8.79574C19.1172 9.5452 19.1412 10.3345 19.01 11.1414Z" fill="#1A76D1"/>
<path d="M16.7679 5.42699C16.1483 5.33313 15.3153 5.24616 14.5535 5.29291C13.3829 5.36476 11.9564 5.72814 11.8961 5.74361C11.8721 5.7498 11.8495 5.75874 11.8285 5.77009C11.4272 5.87563 9.99999 6.28198 8.55278 7.06822C7.56096 7.60693 6.76793 8.21268 6.19624 8.86932C5.46573 9.70815 5.09503 10.6302 5.09503 11.6093C5.09503 11.6258 5.09539 11.6419 5.09539 11.6584C5.05541 11.4938 5.01943 11.3212 4.99036 11.1414C4.85879 10.3345 4.88314 9.5452 5.06232 8.79574C5.28547 7.86099 5.75321 6.98227 6.45174 6.18435C7.61293 4.85837 9.04851 4.2674 10.048 4.00509C10.8286 3.80019 11.4741 3.75756 11.7823 3.75H12.2181C12.5263 3.75756 13.1717 3.80019 13.952 4.00509C14.7367 4.21102 15.7899 4.61943 16.7679 5.42699Z" fill="#1A76D1"/>
<path d="M9.03543 3.75C8.07631 4.11579 6.95583 4.74629 6.00398 5.83334C4.27874 7.80358 4.1897 9.86492 4.41903 11.2469C4.44338 11.3927 4.47136 11.5337 4.50226 11.6698C4.36887 11.4003 4.24276 11.1105 4.13373 10.8038C3.78628 9.82848 3.67398 8.87757 3.80009 7.97753C3.9571 6.85645 4.48845 5.80481 5.37923 4.85183C5.75794 4.44685 6.20715 4.07625 6.7156 3.75H9.03543Z" fill="#1A76D1"/>
<path d="M13.4323 16.9132C13.0082 17.3144 12.4063 17.7631 12.0094 17.7631C11.6126 17.7631 11.0089 17.3134 10.5848 16.9115C11.4018 16.5804 11.8822 16.5024 12.0094 16.5024C12.3307 16.5024 12.9798 16.732 13.4323 16.9132Z" fill="#1A76D1"/>
<path d="M9.32037 10.6886C9.32037 11.0362 9.02162 11.3188 8.65418 11.3188C8.28675 11.3188 7.98837 11.0362 7.98837 10.6886C7.98837 10.5814 8.01708 10.4775 8.07123 10.3847C8.25695 10.3479 8.45175 10.329 8.65418 10.329C8.85662 10.329 9.05215 10.3479 9.23787 10.3847C9.29166 10.4775 9.32037 10.5817 9.32037 10.6886Z" fill="#1A76D1"/>
<path d="M16.0302 10.6886C16.0302 11.0362 15.7314 11.3188 15.3644 11.3188C14.9973 11.3188 14.6985 11.0362 14.6985 10.6886C14.6985 10.5814 14.7269 10.4775 14.781 10.3847C14.9668 10.3479 15.1616 10.329 15.3644 10.329C15.5672 10.329 15.762 10.3479 15.9477 10.3847C16.0018 10.4775 16.0302 10.5814 16.0302 10.6886Z" fill="#1A76D1"/>
</svg>
