<svg width="24" height="24" viewBox="0 0 24 24" fill="none" xmlns="http://www.w3.org/2000/svg">
<path d="M9.07567 14.3699C9.03724 14.3699 9.00024 14.3554 8.97204 14.3293C8.52202 13.9141 8.16306 13.4103 7.91782 12.8496C7.67258 12.2889 7.54637 11.6835 7.54718 11.0717V9.7512C7.54721 9.54694 7.5612 9.34293 7.58906 9.14058C7.59109 9.12015 7.59723 9.10034 7.6071 9.08234C7.61698 9.06434 7.63038 9.04851 7.64653 9.0358C7.66267 9.02309 7.68121 9.01376 7.70104 9.00837C7.72088 9.00298 7.7416 9.00165 7.76196 9.00444C7.78232 9.00724 7.80191 9.0141 7.81956 9.02463C7.8372 9.03516 7.85254 9.04914 7.86465 9.06572C7.87676 9.08231 7.8854 9.10116 7.89005 9.12116C7.8947 9.14116 7.89526 9.16188 7.8917 9.1821C7.86592 9.37071 7.85295 9.56084 7.85288 9.7512V11.0717C7.85207 11.6414 7.96955 12.2052 8.19791 12.7273C8.42626 13.2494 8.76053 13.7186 9.17961 14.1052C9.20218 14.1261 9.21792 14.1532 9.22479 14.1832C9.23166 14.2131 9.22932 14.2444 9.2181 14.273C9.20687 14.3016 9.18728 14.3261 9.16187 14.3434C9.13646 14.3607 9.10642 14.3699 9.07567 14.3699Z" fill="#1A76D1"/>
<path d="M11.9798 15.5053C11.1789 15.506 10.3928 15.2896 9.70541 14.8792C9.67063 14.8583 9.64555 14.8246 9.63569 14.7853C9.62583 14.746 9.63199 14.7045 9.65283 14.6697C9.67367 14.635 9.70747 14.6099 9.74679 14.6001C9.78612 14.5902 9.82776 14.5964 9.86254 14.6172C10.4927 14.9925 11.2115 15.1936 11.9452 15.1998C12.6789 15.2059 13.4011 15.017 14.0375 14.6523C14.0549 14.6423 14.0741 14.6358 14.094 14.6332C14.1139 14.6306 14.1342 14.6319 14.1536 14.6371C14.173 14.6423 14.1911 14.6513 14.2071 14.6635C14.223 14.6757 14.2364 14.691 14.2464 14.7083C14.2564 14.7257 14.263 14.7449 14.2656 14.7648C14.2682 14.7847 14.2668 14.8049 14.2616 14.8243C14.2564 14.8437 14.2474 14.8618 14.2352 14.8777C14.223 14.8936 14.2077 14.907 14.1903 14.917C13.5177 15.3028 12.7555 15.5057 11.9798 15.5053Z" fill="#1A76D1"/>
<path d="M15.0013 14.2606C14.9711 14.2606 14.9415 14.2516 14.9164 14.2349C14.8912 14.2181 14.8717 14.1942 14.8601 14.1663C14.8486 14.1384 14.8455 14.1077 14.8515 14.078C14.8574 14.0484 14.872 14.0212 14.8934 13.9999C15.0982 13.7963 15.2813 13.572 15.4397 13.3306C15.8796 12.6591 16.1133 11.8738 16.1122 11.0714L16.1095 9.75121C16.1095 7.47453 14.2579 5.62253 11.9826 5.62253C11.3474 5.62034 10.7205 5.7656 10.1512 6.04684C9.58186 6.32808 9.08579 6.73761 8.7021 7.2431C8.68991 7.25904 8.67471 7.27243 8.65734 7.28249C8.63998 7.29256 8.6208 7.29911 8.6009 7.30178C8.581 7.30444 8.56077 7.30317 8.54137 7.29802C8.52196 7.29288 8.50376 7.28397 8.4878 7.2718C8.47184 7.25963 8.45844 7.24445 8.44836 7.22711C8.43828 7.20976 8.43172 7.19061 8.42905 7.17074C8.42638 7.15086 8.42766 7.13066 8.43281 7.11128C8.43796 7.0919 8.44688 7.07372 8.45907 7.05778C8.87093 6.51525 9.40332 6.07567 10.0143 5.77368C10.6253 5.47168 11.2981 5.31553 11.9798 5.31752C14.4254 5.31752 16.4124 7.30661 16.4124 9.75121L16.4152 11.0714C16.4158 11.6558 16.3005 12.2346 16.076 12.7743C15.8515 13.3141 15.5222 13.8041 15.1071 14.216C15.079 14.2441 15.041 14.2601 15.0013 14.2606Z" fill="#1A76D1"/>
<path d="M16.2018 9.20256H9.38137C9.34083 9.20256 9.30195 9.18647 9.27328 9.15784C9.24462 9.12922 9.22852 9.09039 9.22852 9.0499C9.22852 9.00942 9.24462 8.97059 9.27328 8.94196C9.30195 8.91333 9.34083 8.89725 9.38137 8.89725H16.2018C16.2424 8.89725 16.2812 8.91333 16.3099 8.94196C16.3386 8.97059 16.3547 9.00942 16.3547 9.0499C16.3547 9.09039 16.3386 9.12922 16.3099 9.15784C16.2812 9.18647 16.2424 9.20256 16.2018 9.20256Z" fill="#1A76D1"/>
<path d="M9.48866 14.2606C9.46091 14.2606 9.43367 14.2531 9.40986 14.2389C9.38606 14.2246 9.36659 14.2042 9.35354 14.1797C8.57371 12.716 8.54222 10.7184 8.59266 9.65808C8.59362 9.63803 8.59853 9.61837 8.6071 9.60022C8.61567 9.58206 8.62774 9.56577 8.64262 9.55228C8.65749 9.53878 8.67488 9.52835 8.69379 9.52157C8.71271 9.51478 8.73277 9.51179 8.75285 9.51275C8.77292 9.51371 8.7926 9.51861 8.81078 9.52717C8.82896 9.53573 8.84527 9.54779 8.85878 9.56264C8.87229 9.5775 8.88274 9.59487 8.88953 9.61375C8.89632 9.63264 8.89932 9.65268 8.89836 9.67273C8.78403 12.0703 9.30372 13.4357 9.62378 14.0362C9.63618 14.0595 9.64234 14.0855 9.64167 14.1118C9.64099 14.1382 9.63351 14.1639 9.61993 14.1865C9.60636 14.2091 9.58717 14.2278 9.56422 14.2408C9.54127 14.2537 9.51535 14.2606 9.48897 14.2606H9.48866Z" fill="#1A76D1"/>
<path d="M14.6535 13.8912C14.6325 13.8913 14.6116 13.8872 14.5923 13.879C14.5738 13.8711 14.5571 13.8597 14.5431 13.8454C14.529 13.8311 14.5179 13.8141 14.5104 13.7955C14.5029 13.7769 14.4992 13.757 14.4994 13.737C14.4996 13.7169 14.5037 13.6971 14.5116 13.6787C15.3318 11.7552 15.0243 9.09479 15.0212 9.06853C15.0163 9.02833 15.0277 8.98784 15.0527 8.95598C15.0777 8.92411 15.1144 8.90348 15.1546 8.89863C15.1949 8.89377 15.2354 8.90508 15.2673 8.93007C15.2992 8.95506 15.3199 8.99169 15.3248 9.03189C15.3382 9.14425 15.6445 11.7998 14.7929 13.7987C14.7811 13.826 14.7617 13.8492 14.737 13.8657C14.7122 13.8821 14.6832 13.891 14.6535 13.8912Z" fill="#1A76D1"/>
<path d="M10.492 11.0292C10.0151 11.0292 9.89372 10.7605 9.88058 10.7297L10.1643 10.6164C10.1636 10.6141 10.1627 10.6119 10.1615 10.6097C10.164 10.6143 10.2251 10.7239 10.4911 10.7239C10.7741 10.7239 10.8689 10.596 10.8695 10.5945C10.8904 10.5597 10.9242 10.5347 10.9636 10.5249C11.0029 10.515 11.0446 10.5212 11.0794 10.5421C11.1142 10.5629 11.1392 10.5967 11.1491 10.636C11.1589 10.6754 11.1527 10.7169 11.1318 10.7517C11.1156 10.7801 10.9527 11.0292 10.492 11.0292Z" fill="#1A76D1"/>
<path d="M13.4878 11.0292C13.0109 11.0292 12.8896 10.7605 12.8764 10.7297L13.1601 10.6164C13.1594 10.6141 13.1585 10.6119 13.1574 10.6097C13.1598 10.6143 13.2209 10.7239 13.4869 10.7239C13.77 10.7239 13.8647 10.596 13.8654 10.5945C13.8862 10.5597 13.9201 10.5347 13.9594 10.5249C13.9988 10.515 14.0404 10.5212 14.0752 10.5421C14.11 10.5629 14.1351 10.5967 14.1449 10.636C14.1547 10.6754 14.1485 10.7169 14.1276 10.7517C14.1114 10.7801 13.9485 11.0292 13.4878 11.0292Z" fill="#1A76D1"/>
<path d="M12.1253 19.5C11.0896 19.5 10.1056 19.3101 9.20131 18.9358C8.46432 18.6292 7.78184 18.2056 7.18034 17.6813C7.16518 17.6681 7.15277 17.6521 7.14381 17.6342C7.13485 17.6162 7.12951 17.5967 7.12811 17.5767C7.1267 17.5567 7.12925 17.5366 7.13562 17.5176C7.14199 17.4986 7.15204 17.481 7.16521 17.4659C7.17837 17.4508 7.1944 17.4384 7.21236 17.4294C7.23033 17.4205 7.24988 17.4151 7.26991 17.4137C7.28994 17.4123 7.31004 17.4149 7.32908 17.4212C7.34812 17.4276 7.36572 17.4376 7.38088 17.4508C7.95716 17.9534 8.61103 18.3596 9.31717 18.6537C10.1841 19.0127 11.1287 19.1947 12.1241 19.1947C12.1646 19.1947 12.2035 19.2108 12.2322 19.2394C12.2608 19.268 12.277 19.3069 12.277 19.3473C12.277 19.3878 12.2608 19.4267 12.2322 19.4553C12.2035 19.4839 12.1646 19.5 12.1241 19.5H12.1253Z" fill="#1A76D1"/>
<path d="M6.38552 16.8008C6.36291 16.8008 6.34057 16.7959 6.32012 16.7862C6.29966 16.7766 6.28159 16.7626 6.26721 16.7452C5.79613 16.174 5.57511 15.7423 5.56594 15.7242C5.55032 15.6934 5.54562 15.6582 5.55261 15.6244C5.55961 15.5906 5.57789 15.5601 5.60446 15.538L8.29216 13.297C8.3233 13.2711 8.36348 13.2586 8.40386 13.2622C8.44425 13.2658 8.48154 13.2853 8.50753 13.3164C8.53351 13.3475 8.54606 13.3877 8.54242 13.428C8.53878 13.4683 8.51925 13.5056 8.48811 13.5315L5.89854 15.6904C6.07704 15.9926 6.27966 16.2801 6.50443 16.5498C6.52985 16.581 6.54192 16.6209 6.53802 16.6609C6.53413 16.7009 6.51459 16.7378 6.48365 16.7635C6.45645 16.7873 6.42164 16.8005 6.38552 16.8008Z" fill="#1A76D1"/>
<path d="M17.6004 16.8811C17.5717 16.8813 17.5436 16.8735 17.5192 16.8585C17.4948 16.8435 17.4751 16.822 17.4623 16.7963C17.4496 16.7707 17.4443 16.742 17.4471 16.7136C17.4499 16.6851 17.4606 16.658 17.4781 16.6353C17.7021 16.3474 17.8987 16.0392 18.0654 15.7148L15.4801 13.5166C15.4492 13.4903 15.43 13.4528 15.4268 13.4124C15.4235 13.372 15.4365 13.332 15.4628 13.3012C15.4891 13.2703 15.5266 13.2512 15.567 13.2479C15.6075 13.2447 15.6476 13.2576 15.6785 13.2839L18.3527 15.5594C18.3776 15.5805 18.3951 15.609 18.4026 15.6408C18.4101 15.6725 18.4071 15.7059 18.3943 15.7358C18.3857 15.7554 18.1837 16.2198 17.7218 16.8221C17.7074 16.8406 17.689 16.8555 17.6679 16.8657C17.6469 16.8759 17.6238 16.8812 17.6004 16.8811Z" fill="#1A76D1"/>
<path d="M12.1253 19.5C12.0848 19.5 12.0459 19.4839 12.0172 19.4553C11.9886 19.4267 11.9725 19.3878 11.9725 19.3473C11.9725 19.3069 11.9886 19.268 12.0172 19.2394C12.0459 19.2108 12.0848 19.1947 12.1253 19.1947C13.8748 19.1947 15.3807 18.6497 16.6008 17.5747C16.6312 17.5479 16.671 17.5343 16.7115 17.5368C16.7519 17.5393 16.7897 17.5578 16.8166 17.5882C16.8434 17.6185 16.8571 17.6583 16.8546 17.6987C16.852 17.7391 16.8335 17.7769 16.8031 17.8037C15.5259 18.9294 13.9516 19.5 12.1253 19.5Z" fill="#1A76D1"/>
<path d="M8.50065 9.90476C8.44042 9.90479 8.38078 9.89297 8.32513 9.86997C8.26947 9.84697 8.2189 9.81325 8.1763 9.77073L5.47423 7.07242C5.43162 7.02989 5.39782 6.97939 5.37475 6.92381C5.35169 6.86823 5.33982 6.80865 5.33982 6.74848C5.33982 6.68832 5.35169 6.62874 5.37475 6.57316C5.39782 6.51758 5.43162 6.46708 5.47423 6.42455L6.42557 5.47474C6.51156 5.38888 6.62817 5.34065 6.74976 5.34065C6.87135 5.34065 6.98796 5.38888 7.07395 5.47474L9.77602 8.17336C9.86199 8.25924 9.91028 8.3757 9.91028 8.49714C9.91028 8.61857 9.86199 8.73504 9.77602 8.82092L8.82469 9.77073C8.78222 9.81334 8.73171 9.84712 8.67609 9.87012C8.62048 9.89313 8.56085 9.9049 8.50065 9.90476ZM6.74961 5.64571C6.70915 5.64572 6.67034 5.66175 6.64169 5.69029L5.69036 6.64041C5.67613 6.65459 5.66483 6.67143 5.65713 6.68998C5.64942 6.70852 5.64545 6.72841 5.64545 6.74848C5.64545 6.76856 5.64942 6.78845 5.65713 6.80699C5.66483 6.82554 5.67613 6.84238 5.69036 6.85656L8.39243 9.55366C8.4211 9.58228 8.45997 9.59835 8.5005 9.59835C8.54103 9.59835 8.5799 9.58228 8.60856 9.55366L9.5599 8.60384C9.58855 8.57522 9.60465 8.5364 9.60465 8.49592C9.60465 8.45544 9.58855 8.41662 9.5599 8.38799L6.85782 5.69059C6.84363 5.67637 6.82676 5.66508 6.80819 5.65738C6.78962 5.64968 6.76971 5.64571 6.74961 5.64571Z" fill="#1A76D1"/>
<path d="M4.65282 6.18886C4.62257 6.18885 4.59301 6.17988 4.56787 6.16309C4.54273 6.1463 4.52315 6.12243 4.51159 6.09452C4.50004 6.0666 4.49704 6.03589 4.50297 6.00627C4.5089 5.97665 4.52349 5.94946 4.54491 5.92812L5.92697 4.5466C5.94107 4.53202 5.95794 4.52039 5.97658 4.51239C5.99523 4.50439 6.01529 4.50018 6.03558 4.50001C6.05588 4.49983 6.07601 4.50369 6.09479 4.51137C6.11358 4.51904 6.13064 4.53038 6.14499 4.54471C6.15934 4.55904 6.17069 4.57609 6.17838 4.59485C6.18607 4.61361 6.18993 4.63371 6.18976 4.65398C6.18958 4.67425 6.18536 4.69428 6.17735 4.71291C6.16934 4.73153 6.1577 4.74837 6.1431 4.76246L4.76103 6.14398C4.74684 6.1582 4.72997 6.16948 4.7114 6.17719C4.69283 6.18489 4.67292 6.18885 4.65282 6.18886Z" fill="#1A76D1"/>
<path d="M6.74961 8.28266C6.71943 8.28259 6.68994 8.2736 6.66487 8.25682C6.6398 8.24004 6.62026 8.21623 6.60872 8.18837C6.59717 8.16052 6.59415 8.12988 6.60002 8.10031C6.60589 8.07075 6.62039 8.04357 6.6417 8.02223L8.02499 6.6404C8.05381 6.61259 8.09242 6.59721 8.1325 6.59756C8.17258 6.5979 8.21091 6.61396 8.23925 6.64226C8.26759 6.67056 8.28367 6.70885 8.28402 6.74888C8.28436 6.7889 8.26896 6.82746 8.24112 6.85625L6.85783 8.23808C6.84361 8.25225 6.82673 8.26348 6.80816 8.27112C6.78959 8.27877 6.7697 8.28269 6.74961 8.28266Z" fill="#1A76D1"/>
<path d="M9.98971 10.1368C9.96962 10.1368 9.94973 10.1329 9.93116 10.1253C9.91259 10.1176 9.89571 10.1064 9.88149 10.0922L9.08423 9.29598C9.05638 9.26719 9.04098 9.22863 9.04133 9.18861C9.04167 9.14858 9.05775 9.11029 9.08609 9.08199C9.11443 9.05369 9.15277 9.03763 9.19284 9.03728C9.23292 9.03694 9.27153 9.05232 9.30036 9.08013L10.0976 9.87637C10.1263 9.905 10.1424 9.94382 10.1424 9.9843C10.1424 10.0248 10.1263 10.0636 10.0976 10.0922C10.0835 10.1064 10.0667 10.1177 10.0482 10.1254C10.0296 10.133 10.0098 10.1369 9.98971 10.1368Z" fill="#1A76D1"/>
<path d="M7.44141 7.59206C7.4213 7.59206 7.40139 7.58809 7.38282 7.58039C7.36425 7.57269 7.34739 7.5614 7.33319 7.54718L5.23671 5.45307C5.20887 5.42428 5.19346 5.38572 5.19381 5.34569C5.19416 5.30567 5.21023 5.26738 5.23857 5.23908C5.26691 5.21077 5.30525 5.19472 5.34532 5.19437C5.3854 5.19402 5.42401 5.20941 5.45284 5.23722L7.54963 7.33133C7.57106 7.35268 7.58566 7.3799 7.59158 7.40955C7.5975 7.4392 7.59447 7.46994 7.58288 7.49786C7.57129 7.52579 7.55166 7.54965 7.52647 7.56642C7.50128 7.58319 7.47168 7.59212 7.44141 7.59206Z" fill="#1A76D1"/>
<path d="M17.6395 17.0337L16.8447 16.2234L16.2477 16.8056C16.0383 17.0102 15.7757 16.9195 15.6503 16.8087L15.6424 16.8011L14.4367 15.5682C13.9308 15.051 13.8788 14.5702 13.9244 14.2578C13.9534 14.0529 14.0327 13.8582 14.1552 13.6912C14.1886 13.6474 14.2305 13.6109 14.2785 13.5839C14.3265 13.5569 14.3795 13.5399 14.4343 13.534C14.5193 13.5276 14.6501 13.5492 14.7892 13.6915C15.0258 13.9336 17.8297 16.7913 17.8581 16.82L17.6395 17.0337ZM15.8561 16.5834C15.894 16.6139 15.9664 16.6542 16.034 16.5883L16.6307 16.0064C15.7922 15.1515 14.7134 14.0524 14.5706 13.9058C14.5272 13.8613 14.4865 13.8371 14.4581 13.8393C14.4359 13.8443 14.4158 13.8562 14.4009 13.8735L14.3945 13.882C14.3731 13.9086 13.8718 14.5537 14.6556 15.356L15.8561 16.5834Z" fill="#1A76D1"/>
<path d="M18.4447 19.4108C18.3232 19.4108 18.2067 19.3626 18.1207 19.2768L16.5653 17.7225C16.5227 17.68 16.4889 17.6295 16.4658 17.5739C16.4428 17.5183 16.4309 17.4587 16.4309 17.3986C16.4309 17.3384 16.4428 17.2788 16.4658 17.2232C16.4889 17.1676 16.5227 17.1171 16.5653 17.0746L17.0193 16.6215C17.0618 16.579 17.1124 16.5452 17.1681 16.5222C17.2237 16.4992 17.2834 16.4873 17.3436 16.4873C17.4038 16.4873 17.4635 16.4992 17.5192 16.5222C17.5748 16.5452 17.6254 16.579 17.668 16.6215L19.2243 18.1759C19.3102 18.2617 19.3585 18.3782 19.3585 18.4996C19.3585 18.6211 19.3102 18.7375 19.2243 18.8234L18.7703 19.2768C18.7276 19.3195 18.6768 19.3533 18.6209 19.3763C18.565 19.3993 18.5052 19.411 18.4447 19.4108ZM17.3424 16.7925C17.3223 16.7925 17.3024 16.7965 17.2838 16.8042C17.2652 16.8119 17.2484 16.8232 17.2342 16.8374L16.7793 17.2908C16.7506 17.3194 16.7345 17.3582 16.7345 17.3987C16.7345 17.4392 16.7506 17.478 16.7793 17.5066L18.3383 19.061C18.367 19.0896 18.4059 19.1057 18.4464 19.1057C18.4869 19.1057 18.5258 19.0896 18.5545 19.061L19.0084 18.6076C19.0371 18.5789 19.0532 18.5401 19.0532 18.4996C19.0532 18.4592 19.0371 18.4203 19.0084 18.3917L17.4518 16.8374C17.4375 16.823 17.4204 16.8117 17.4016 16.804C17.3828 16.7962 17.3627 16.7924 17.3424 16.7925Z" fill="#1A76D1"/>
<path d="M17.0761 12.6373H16.0367C15.9962 12.6373 15.9573 12.6212 15.9286 12.5926C15.9 12.5639 15.8839 12.5251 15.8839 12.4846C15.8839 12.4441 15.9 12.4053 15.9286 12.3767C15.9573 12.3481 15.9962 12.332 16.0367 12.332H17.0761C17.1166 12.332 17.1555 12.3481 17.1842 12.3767C17.2129 12.4053 17.229 12.4441 17.229 12.4846C17.229 12.5251 17.2129 12.5639 17.1842 12.5926C17.1555 12.6212 17.1166 12.6373 17.0761 12.6373Z" fill="#1A76D1"/>
<path d="M19.3472 12.6373H18.7C18.6594 12.6373 18.6206 12.6212 18.5919 12.5926C18.5632 12.5639 18.5471 12.5251 18.5471 12.4846C18.5471 12.4441 18.5632 12.4053 18.5919 12.3767C18.6206 12.3481 18.6594 12.332 18.7 12.332H19.1943V4.82139H12.1327V5.47017C12.1327 5.51066 12.1166 5.54949 12.0879 5.57811C12.0592 5.60674 12.0203 5.62283 11.9798 5.62283C11.9393 5.62283 11.9004 5.60674 11.8717 5.57811C11.8431 5.54949 11.827 5.51066 11.827 5.47017V4.66874C11.827 4.62825 11.8431 4.58942 11.8717 4.56079C11.9004 4.53217 11.9393 4.51608 11.9798 4.51608H19.3472C19.3877 4.51608 19.4266 4.53217 19.4552 4.56079C19.4839 4.58942 19.5 4.62825 19.5 4.66874V12.4846C19.5 12.5251 19.4839 12.5639 19.4552 12.5926C19.4266 12.6212 19.3877 12.6373 19.3472 12.6373Z" fill="#1A76D1"/>
<path d="M11.9796 16.9421C11.9391 16.9421 11.9003 16.926 11.8717 16.8974C11.843 16.8688 11.827 16.8299 11.827 16.7895V15.3545C11.827 15.314 11.843 15.2752 11.8717 15.2466C11.9003 15.2179 11.9391 15.2019 11.9796 15.2019C12.0201 15.2019 12.0589 15.2179 12.0876 15.2466C12.1162 15.2752 12.1323 15.314 12.1323 15.3545V16.7895C12.1323 16.8299 12.1162 16.8688 12.0876 16.8974C12.0589 16.926 12.0201 16.9421 11.9796 16.9421Z" fill="#1A76D1"/>
<path d="M5.42683 19.4457C5.36636 19.4458 5.30648 19.4339 5.25064 19.4108C5.19481 19.3876 5.14414 19.3536 5.10156 19.3107L4.64882 18.8573C4.60621 18.8148 4.57241 18.7643 4.54934 18.7087C4.52628 18.6531 4.51441 18.5936 4.51441 18.5334C4.51441 18.4732 4.52628 18.4136 4.54934 18.3581C4.57241 18.3025 4.60621 18.252 4.64882 18.2095L8.57124 14.2923C8.58791 14.2755 8.60834 14.2628 8.63086 14.2554L9.99274 13.802C10.0199 13.793 10.049 13.7918 10.0768 13.7985C10.1046 13.8052 10.13 13.8196 10.15 13.84C10.17 13.8604 10.1839 13.886 10.1901 13.9138C10.1963 13.9417 10.1945 13.9708 10.185 13.9977L9.70967 15.3362C9.70199 15.3576 9.68967 15.3771 9.67359 15.3933L5.75117 19.3107C5.70865 19.3534 5.65811 19.3873 5.60245 19.4104C5.5468 19.4336 5.48712 19.4456 5.42683 19.4457ZM8.76169 14.5335L4.86495 18.4253C4.85072 18.4395 4.83942 18.4563 4.83172 18.4749C4.82401 18.4934 4.82005 18.5133 4.82005 18.5334C4.82005 18.5535 4.82401 18.5734 4.83172 18.5919C4.83942 18.6104 4.85072 18.6273 4.86495 18.6415L5.31891 19.0949C5.34758 19.1235 5.38645 19.1395 5.42698 19.1395C5.46751 19.1395 5.50638 19.1235 5.53504 19.0949L9.43301 15.2019L9.79221 14.1907L8.76169 14.5335Z" fill="#1A76D1"/>
<path d="M9.56478 15.4379C9.52432 15.4379 9.48551 15.4218 9.45687 15.3933L8.57034 14.5079C8.5425 14.4791 8.52709 14.4406 8.52744 14.4005C8.52779 14.3605 8.54386 14.3222 8.5722 14.2939C8.60054 14.2656 8.63888 14.2496 8.67896 14.2492C8.71903 14.2489 8.75764 14.2642 8.78647 14.2921L9.673 15.1774C9.69432 15.1988 9.70883 15.226 9.71469 15.2556C9.72055 15.2852 9.7175 15.3159 9.70592 15.3437C9.69434 15.3716 9.67476 15.3954 9.64964 15.4122C9.62452 15.4289 9.59499 15.4379 9.56478 15.4379Z" fill="#1A76D1"/>
<path d="M8.09559 16.9061C8.05508 16.906 8.01627 16.8899 7.98768 16.8612L7.10115 15.9758C7.07331 15.947 7.0579 15.9085 7.05825 15.8684C7.0586 15.8284 7.07467 15.7901 7.10301 15.7618C7.13135 15.7335 7.16969 15.7175 7.20976 15.7171C7.24984 15.7168 7.28845 15.7322 7.31728 15.76L8.20381 16.6454C8.22524 16.6667 8.23984 16.6939 8.24576 16.7236C8.25168 16.7532 8.24865 16.784 8.23706 16.8119C8.22547 16.8398 8.20584 16.8637 8.18065 16.8805C8.15546 16.8972 8.12586 16.9062 8.09559 16.9061Z" fill="#1A76D1"/>
<path d="M18.6746 13.5837H17.085C17.0444 13.5837 17.0056 13.5677 16.9769 13.539C16.9482 13.5104 16.9321 13.4716 16.9321 13.4311V6.07316C16.9321 6.03267 16.9482 5.99384 16.9769 5.96521C17.0056 5.93658 17.0444 5.9205 17.085 5.9205H18.6746C18.7152 5.9205 18.754 5.93658 18.7827 5.96521C18.8114 5.99384 18.8275 6.03267 18.8275 6.07316V13.4311C18.8275 13.4716 18.8114 13.5104 18.7827 13.539C18.754 13.5677 18.7152 13.5837 18.6746 13.5837ZM17.2378 13.2784H18.5218V6.22581H17.2378V13.2784Z" fill="#1A76D1"/>
<path d="M7.15863 14.5607H5.62127C5.58073 14.5607 5.54186 14.5446 5.51319 14.516C5.48453 14.4874 5.46842 14.4486 5.46842 14.4081V9.52313C5.46842 9.48264 5.48453 9.44382 5.51319 9.41519C5.54186 9.38656 5.58073 9.37048 5.62127 9.37048H7.66945C7.70999 9.37048 7.74887 9.38656 7.77753 9.41519C7.8062 9.44382 7.8223 9.48264 7.8223 9.52313C7.8223 9.56362 7.8062 9.60244 7.77753 9.63107C7.74887 9.6597 7.70999 9.67578 7.66945 9.67578H5.77412V14.2554H7.15863C7.19917 14.2554 7.23805 14.2715 7.26671 14.3001C7.29538 14.3288 7.31148 14.3676 7.31148 14.4081C7.31148 14.4486 7.29538 14.4874 7.26671 14.516C7.23805 14.5446 7.19917 14.5607 7.15863 14.5607Z" fill="#1A76D1"/>
<path d="M16.2018 12.067C16.1613 12.068 16.122 12.0529 16.0926 12.0251C16.0632 11.9972 16.046 11.9588 16.045 11.9183C16.0439 11.8778 16.059 11.8385 16.0869 11.8092C16.1149 11.7798 16.1533 11.7627 16.1939 11.7617C16.6029 11.74 16.9233 11.4118 16.9233 11.0139C16.9233 10.9129 16.9024 10.8129 16.8619 10.7202C16.8214 10.6276 16.7622 10.5443 16.6879 10.4757L16.6842 10.4723C16.5864 10.3884 16.4718 10.3265 16.3479 10.2907C16.3288 10.2847 16.311 10.2749 16.2956 10.2621C16.2802 10.2492 16.2674 10.2334 16.2581 10.2156C16.2489 10.1978 16.2432 10.1784 16.2414 10.1584C16.2396 10.1384 16.2418 10.1182 16.2478 10.0991C16.2538 10.0799 16.2636 10.0622 16.2765 10.0468C16.2894 10.0314 16.3052 10.0187 16.323 10.0094C16.3408 10.0001 16.3603 9.99445 16.3803 9.99268C16.4003 9.99091 16.4205 9.99309 16.4396 9.9991C16.6098 10.0486 16.7666 10.1358 16.8982 10.2543C17.0027 10.3514 17.086 10.469 17.1428 10.5997C17.1997 10.7304 17.2289 10.8714 17.2287 11.0139C17.2287 11.5742 16.7811 12.0364 16.2095 12.0663L16.2018 12.067Z" fill="#1A76D1"/>
<path d="M7.76116 12.0624C7.75536 12.0628 7.74953 12.0628 7.74373 12.0624C7.48375 12.0356 7.2428 11.9139 7.06699 11.7208C6.89118 11.5276 6.79287 11.2765 6.79087 11.0155C6.79036 10.8731 6.81926 10.7322 6.87575 10.6015C6.93224 10.4708 7.01511 10.3531 7.11919 10.2559C7.25083 10.1374 7.40759 10.0501 7.57774 10.0006C7.59691 9.99462 7.61708 9.99243 7.63709 9.9942C7.6571 9.99597 7.67657 10.0017 7.69439 10.0109C7.7122 10.0202 7.72801 10.0329 7.74091 10.0483C7.7538 10.0637 7.76354 10.0815 7.76956 10.1006C7.77559 10.1198 7.77777 10.1399 7.776 10.1599C7.77423 10.1799 7.76853 10.1993 7.75923 10.2171C7.74994 10.2349 7.73722 10.2507 7.72182 10.2636C7.70641 10.2765 7.68862 10.2862 7.66945 10.2922C7.54549 10.3284 7.4308 10.3909 7.33318 10.4754L7.33012 10.4781C7.25583 10.5468 7.19657 10.63 7.15606 10.7227C7.11555 10.8153 7.09467 10.9153 7.09473 11.0164C7.09689 11.2024 7.16761 11.3811 7.29337 11.5183C7.41913 11.6555 7.59112 11.7416 7.77644 11.7601C7.81698 11.7624 7.85496 11.7806 7.88202 11.8109C7.90908 11.8411 7.923 11.8808 7.92073 11.9213C7.91846 11.9618 7.90018 11.9997 7.86991 12.0268C7.83964 12.0538 7.79986 12.0677 7.75932 12.0654L7.76116 12.0624Z" fill="#1A76D1"/>
<path d="M11.7423 14.5525H11.731C11.6772 14.5485 11.6237 14.5433 11.5714 14.5369C11.551 14.535 11.5313 14.529 11.5133 14.5193C11.4953 14.5096 11.4795 14.4964 11.4667 14.4805C11.4539 14.4646 11.4444 14.4462 11.4388 14.4266C11.4333 14.407 11.4317 14.3864 11.4342 14.3662C11.4367 14.3459 11.4433 14.3263 11.4535 14.3087C11.4637 14.291 11.4773 14.2755 11.4936 14.2632C11.5099 14.2509 11.5285 14.242 11.5484 14.237C11.5682 14.2319 11.5888 14.231 11.609 14.234C11.6561 14.2398 11.7044 14.2444 11.7533 14.2481C11.7938 14.2495 11.8321 14.267 11.8597 14.2967C11.8874 14.3263 11.9021 14.3657 11.9006 14.4062C11.8992 14.4467 11.8817 14.485 11.852 14.5126C11.8223 14.5402 11.7828 14.5548 11.7423 14.5534V14.5525ZM12.3537 14.5409C12.3131 14.5431 12.2734 14.5291 12.2432 14.502C12.213 14.4749 12.1948 14.4369 12.1926 14.3965C12.1904 14.356 12.2044 14.3163 12.2315 14.2861C12.2586 14.2559 12.2966 14.2378 12.3372 14.2356C12.3855 14.2304 12.4338 14.224 12.4811 14.2163C12.5206 14.2112 12.5604 14.2216 12.5923 14.2454C12.6242 14.2692 12.6455 14.3044 12.6518 14.3436C12.6581 14.3828 12.6488 14.4229 12.626 14.4554C12.6031 14.4879 12.5685 14.5102 12.5294 14.5177C12.4772 14.5262 12.4237 14.5332 12.3705 14.539L12.3537 14.5409ZM10.9997 14.3919C10.9807 14.3918 10.9618 14.3883 10.9441 14.3815C10.893 14.3614 10.8423 14.3394 10.7934 14.3162C10.7589 14.2974 10.733 14.2662 10.721 14.2289C10.709 14.1917 10.7117 14.1512 10.7287 14.1159C10.7457 14.0806 10.7757 14.0532 10.8123 14.0393C10.849 14.0255 10.8896 14.0262 10.9258 14.0414C10.9676 14.0615 11.0113 14.0805 11.0554 14.0976C11.0886 14.1105 11.1163 14.1346 11.1336 14.1657C11.1509 14.1969 11.1568 14.2331 11.1502 14.2681C11.1436 14.3031 11.1249 14.3347 11.0974 14.3574C11.07 14.3801 11.0354 14.3925 10.9997 14.3925V14.3919ZM13.0932 14.3586C13.0577 14.3587 13.0233 14.3465 12.9959 14.324C12.9684 14.3015 12.9497 14.2703 12.9428 14.2355C12.936 14.2007 12.9414 14.1647 12.9582 14.1335C12.9751 14.1023 13.0022 14.078 13.0351 14.0646C13.0794 14.0466 13.1231 14.027 13.1653 14.0063C13.1834 13.9975 13.203 13.9923 13.2231 13.9911C13.2431 13.9899 13.2632 13.9926 13.2822 13.9991C13.3012 14.0057 13.3188 14.0159 13.3338 14.0292C13.3489 14.0425 13.3612 14.0586 13.37 14.0767C13.3788 14.0947 13.3839 14.1143 13.3852 14.1343C13.3864 14.1544 13.3837 14.1744 13.3771 14.1934C13.3706 14.2124 13.3604 14.2299 13.347 14.245C13.3337 14.26 13.3176 14.2723 13.2995 14.2811C13.2512 14.3046 13.2014 14.3269 13.1509 14.3476C13.1321 14.3552 13.1119 14.3589 13.0916 14.3586H13.0932ZM10.3651 13.9779C10.3442 13.9779 10.3235 13.9735 10.3043 13.9652C10.2851 13.9568 10.2678 13.9446 10.2535 13.9293C10.2108 13.8851 10.1724 13.8368 10.1389 13.7852C10.1188 13.7508 10.113 13.7099 10.1228 13.6712C10.1325 13.6326 10.157 13.5992 10.1911 13.5784C10.2251 13.5575 10.2659 13.5508 10.3048 13.5596C10.3437 13.5684 10.3777 13.5921 10.3993 13.6256C10.4225 13.6595 10.4485 13.6915 10.477 13.7211C10.4973 13.7429 10.5108 13.7701 10.5158 13.7994C10.5209 13.8287 10.5172 13.8589 10.5054 13.8861C10.4935 13.9134 10.4739 13.9366 10.4489 13.9529C10.424 13.9692 10.3949 13.9779 10.3651 13.9779ZM13.7345 13.9516C13.7041 13.9516 13.6743 13.9426 13.6491 13.9256C13.6239 13.9086 13.6043 13.8845 13.5929 13.8563C13.5814 13.8281 13.5787 13.7972 13.585 13.7674C13.5912 13.7377 13.6063 13.7105 13.6281 13.6894C13.66 13.659 13.6898 13.6266 13.7174 13.5923C13.7298 13.5765 13.7451 13.5633 13.7626 13.5534C13.7801 13.5435 13.7993 13.5372 13.8192 13.5348C13.8392 13.5323 13.8594 13.5338 13.8787 13.5392C13.8981 13.5446 13.9162 13.5537 13.932 13.566C13.9478 13.5784 13.961 13.5937 13.9709 13.6112C13.9808 13.6286 13.9871 13.6478 13.9896 13.6677C13.992 13.6877 13.9905 13.7078 13.9851 13.7272C13.9798 13.7465 13.9706 13.7646 13.9583 13.7803C13.922 13.8256 13.8828 13.8684 13.8409 13.9086C13.812 13.9366 13.7732 13.952 13.733 13.9516H13.7345Z" fill="#1A76D1"/>
<path d="M10.5947 11.8407C10.5541 11.8423 10.5146 11.8277 10.4849 11.8002C10.4551 11.7727 10.4375 11.7345 10.4359 11.694C10.4343 11.6535 10.4489 11.6141 10.4764 11.5843C10.504 11.5546 10.5422 11.537 10.5828 11.5354C10.6276 11.5316 10.6722 11.5253 10.7164 11.5165C10.736 11.5125 10.7563 11.5124 10.776 11.5162C10.7957 11.52 10.8145 11.5277 10.8312 11.5387C10.848 11.5498 10.8624 11.564 10.8736 11.5806C10.8849 11.5973 10.8927 11.6159 10.8967 11.6356C10.9007 11.6552 10.9008 11.6755 10.897 11.6951C10.8932 11.7148 10.8855 11.7336 10.8745 11.7503C10.8634 11.767 10.8491 11.7814 10.8325 11.7926C10.8159 11.8038 10.7972 11.8117 10.7775 11.8157C10.7215 11.827 10.665 11.835 10.6081 11.8398L10.5947 11.8407ZM9.98665 11.8261C9.97566 11.8262 9.96469 11.825 9.95394 11.8227C9.89755 11.8105 9.842 11.7947 9.78764 11.7754C9.76875 11.7686 9.75139 11.7581 9.73655 11.7446C9.72171 11.7311 9.70969 11.7148 9.70116 11.6966C9.69263 11.6785 9.68776 11.6588 9.68684 11.6388C9.68591 11.6187 9.68895 11.5987 9.69578 11.5798C9.7026 11.561 9.71308 11.5436 9.72661 11.5288C9.74015 11.514 9.75647 11.502 9.77465 11.4935C9.79283 11.485 9.81252 11.4801 9.83258 11.4792C9.85264 11.4783 9.87269 11.4813 9.89158 11.4881C9.93316 11.5029 9.97563 11.515 10.0187 11.5244C10.0553 11.5325 10.0876 11.5538 10.1095 11.5841C10.1314 11.6144 10.1414 11.6516 10.1376 11.6888C10.1339 11.726 10.1166 11.7605 10.089 11.7858C10.0615 11.8111 10.0256 11.8254 9.98818 11.8261H9.98665ZM11.2969 11.5666C11.2654 11.5666 11.2347 11.557 11.2089 11.539C11.1831 11.5209 11.1635 11.4954 11.1528 11.4658C11.1421 11.4363 11.1408 11.4041 11.1491 11.3738C11.1574 11.3435 11.1748 11.3164 11.1991 11.2964C11.2327 11.2682 11.2642 11.2376 11.2932 11.2048C11.3065 11.1894 11.3227 11.1769 11.341 11.1679C11.3592 11.1589 11.379 11.1536 11.3993 11.1523C11.4196 11.151 11.4399 11.1538 11.4591 11.1605C11.4783 11.1672 11.496 11.1776 11.5111 11.1912C11.5262 11.2048 11.5384 11.2213 11.5471 11.2396C11.5557 11.258 11.5606 11.2779 11.5615 11.2982C11.5624 11.3185 11.5592 11.3387 11.5521 11.3577C11.545 11.3768 11.5342 11.3942 11.5203 11.409C11.4814 11.4529 11.4392 11.4937 11.3941 11.5312C11.3668 11.5539 11.3324 11.5664 11.2969 11.5666ZM9.37831 11.4048C9.35095 11.4047 9.32409 11.3974 9.30053 11.3835C9.27698 11.3696 9.2576 11.3496 9.24441 11.3257C9.21157 11.2683 9.18678 11.2066 9.17074 11.1425C9.16194 11.1029 9.16924 11.0615 9.19102 11.0273C9.21281 10.9931 9.2473 10.969 9.2869 10.9602C9.32651 10.9514 9.36799 10.9587 9.40221 10.9805C9.43644 11.0022 9.46061 11.0367 9.46941 11.0762C9.47943 11.1118 9.4938 11.1459 9.5122 11.1779C9.52501 11.2012 9.53152 11.2273 9.53111 11.2538C9.5307 11.2804 9.52338 11.3063 9.50986 11.3292C9.49635 11.352 9.47711 11.3709 9.45404 11.3841C9.43097 11.3972 9.40487 11.4041 9.37831 11.4041V11.4048Z" fill="#1A76D1"/>
<path d="M13.3649 11.8407H13.3524C13.2955 11.8359 13.239 11.8279 13.183 11.8166C13.1433 11.8085 13.1084 11.785 13.0861 11.7512C13.0637 11.7174 13.0557 11.6762 13.0638 11.6365C13.0719 11.5968 13.0955 11.562 13.1293 11.5396C13.1631 11.5173 13.2044 11.5093 13.2442 11.5174C13.2883 11.5262 13.3329 11.5325 13.3778 11.5363C13.4183 11.5379 13.4566 11.5555 13.4841 11.5853C13.5116 11.615 13.5262 11.6545 13.5247 11.6949C13.5231 11.7354 13.5055 11.7736 13.4757 11.8011C13.4459 11.8287 13.4064 11.8432 13.3658 11.8416L13.3649 11.8407ZM13.973 11.8261C13.9354 11.8258 13.8993 11.8117 13.8715 11.7865C13.8437 11.7614 13.8261 11.7268 13.8221 11.6896C13.8182 11.6523 13.8281 11.6148 13.85 11.5844C13.8719 11.5539 13.9042 11.5326 13.9409 11.5244C13.984 11.515 14.0265 11.5029 14.068 11.4881C14.1062 11.4743 14.1482 11.4763 14.185 11.4935C14.2217 11.5107 14.2501 11.5417 14.2638 11.5798C14.2776 11.6179 14.2757 11.6599 14.2585 11.6966C14.2412 11.7333 14.2101 11.7616 14.172 11.7754C14.1176 11.7947 14.0621 11.8105 14.0057 11.8227C13.9949 11.825 13.984 11.8262 13.973 11.8261ZM12.6627 11.5666C12.6273 11.5666 12.5929 11.5543 12.5655 11.5318C12.5204 11.4943 12.4782 11.4535 12.4393 11.4096C12.4131 11.3794 12.3998 11.3401 12.4023 11.3003C12.4048 11.2604 12.4228 11.223 12.4526 11.1963C12.4823 11.1696 12.5214 11.1555 12.5614 11.1572C12.6013 11.1589 12.639 11.1762 12.6664 11.2054C12.6955 11.2382 12.7269 11.2688 12.7606 11.297C12.7848 11.317 12.8022 11.3441 12.8105 11.3744C12.8188 11.4047 12.8175 11.4369 12.8068 11.4664C12.7961 11.496 12.7765 11.5215 12.7507 11.5396C12.7249 11.5576 12.6942 11.5672 12.6627 11.5672V11.5666ZM14.5813 11.4048C14.5547 11.4047 14.5286 11.3978 14.5056 11.3847C14.4825 11.3715 14.4633 11.3526 14.4497 11.3298C14.4362 11.3069 14.4289 11.281 14.4285 11.2545C14.4281 11.2279 14.4346 11.2018 14.4474 11.1785C14.4656 11.1464 14.4801 11.1123 14.4905 11.0769C14.4993 11.0375 14.5233 11.0032 14.5573 10.9814C14.5914 10.9597 14.6326 10.9523 14.6721 10.9608C14.6919 10.9651 14.7106 10.9732 14.7272 10.9848C14.7438 10.9963 14.7579 11.011 14.7688 11.0281C14.7797 11.0451 14.787 11.0641 14.7905 11.084C14.7939 11.1039 14.7934 11.1243 14.7889 11.144C14.7728 11.2082 14.748 11.2698 14.7152 11.3272C14.7018 11.3509 14.6823 11.3705 14.6588 11.3842C14.6353 11.3978 14.6085 11.4049 14.5813 11.4048Z" fill="#1A76D1"/>
<path d="M7.27204 6.72772C7.24177 6.72778 7.21217 6.71885 7.18698 6.70208C7.16179 6.68531 7.14216 6.66145 7.13057 6.63352C7.11898 6.6056 7.11595 6.57486 7.12187 6.54521C7.12779 6.51556 7.14239 6.48834 7.16383 6.46699L7.48817 6.14336C7.517 6.11555 7.55561 6.10017 7.59569 6.10052C7.63576 6.10086 7.6741 6.11692 7.70244 6.14522C7.73078 6.17352 7.74685 6.21181 7.7472 6.25184C7.74755 6.29186 7.73214 6.33042 7.7043 6.35921L7.37965 6.68376C7.35098 6.712 7.31231 6.7278 7.27204 6.72772Z" fill="#1A76D1"/>
<path d="M8.3371 7.79204C8.2966 7.79195 8.25779 7.77581 8.22919 7.74716C8.20054 7.71853 8.18444 7.67971 8.18444 7.63923C8.18444 7.59875 8.20054 7.55993 8.22919 7.5313L8.55354 7.20768C8.58237 7.17987 8.62098 7.16448 8.66105 7.16483C8.70113 7.16518 8.73947 7.18123 8.76781 7.20954C8.79615 7.23784 8.81222 7.27613 8.81257 7.31615C8.81292 7.35618 8.79751 7.39474 8.76967 7.42353L8.44532 7.74716C8.43113 7.76138 8.41426 7.77266 8.39569 7.78037C8.37712 7.78807 8.35721 7.79203 8.3371 7.79204Z" fill="#1A76D1"/>
<path d="M8.86993 8.32419C8.83969 8.32418 8.81013 8.31521 8.78499 8.29842C8.75985 8.28163 8.74026 8.25776 8.72871 8.22985C8.71716 8.20193 8.71415 8.17122 8.72008 8.1416C8.72601 8.11198 8.74061 8.08479 8.76202 8.06345L9.08606 7.73952C9.11489 7.71172 9.1535 7.69633 9.19358 7.69668C9.23365 7.69702 9.27199 7.71308 9.30033 7.74138C9.32867 7.76969 9.34475 7.80797 9.34509 7.848C9.34544 7.88802 9.33004 7.92658 9.30219 7.95538L8.97815 8.27931C8.96396 8.29353 8.94709 8.30481 8.92852 8.31252C8.90995 8.32022 8.89004 8.32418 8.86993 8.32419Z" fill="#1A76D1"/>
<path d="M17.6074 7.18875H17.1489C17.1083 7.18875 17.0695 7.17266 17.0408 7.14404C17.0121 7.11541 16.996 7.07658 16.996 7.03609C16.996 6.99561 17.0121 6.95678 17.0408 6.92815C17.0695 6.89952 17.1083 6.88344 17.1489 6.88344H17.6074C17.648 6.88344 17.6868 6.89952 17.7155 6.92815C17.7442 6.95678 17.7603 6.99561 17.7603 7.03609C17.7603 7.07658 17.7442 7.11541 17.7155 7.14404C17.6868 7.17266 17.648 7.18875 17.6074 7.18875Z" fill="#1A76D1"/>
<path d="M17.852 8.09764H17.1489C17.1083 8.09764 17.0695 8.08155 17.0408 8.05293C17.0121 8.0243 16.996 7.98547 16.996 7.94498C16.996 7.9045 17.0121 7.86567 17.0408 7.83704C17.0695 7.80841 17.1083 7.79233 17.1489 7.79233H17.852C17.8925 7.79233 17.9314 7.80841 17.9601 7.83704C17.9887 7.86567 18.0048 7.9045 18.0048 7.94498C18.0048 7.98547 17.9887 8.0243 17.9601 8.05293C17.9314 8.08155 17.8925 8.09764 17.852 8.09764Z" fill="#1A76D1"/>
<path d="M17.6074 9.00654H17.1489C17.1083 9.00654 17.0695 8.99046 17.0408 8.96183C17.0121 8.9332 16.996 8.89437 16.996 8.85389C16.996 8.8134 17.0121 8.77457 17.0408 8.74594C17.0695 8.71732 17.1083 8.70123 17.1489 8.70123H17.6074C17.648 8.70123 17.6868 8.71732 17.7155 8.74594C17.7442 8.77457 17.7603 8.8134 17.7603 8.85389C17.7603 8.89437 17.7442 8.9332 17.7155 8.96183C17.6868 8.99046 17.648 9.00654 17.6074 9.00654Z" fill="#1A76D1"/>
<path d="M17.852 9.91545H17.1489C17.1083 9.91545 17.0695 9.89937 17.0408 9.87074C17.0121 9.84211 16.996 9.80329 16.996 9.7628C16.996 9.72231 17.0121 9.68349 17.0408 9.65486C17.0695 9.62623 17.1083 9.61015 17.1489 9.61015H17.852C17.8925 9.61015 17.9314 9.62623 17.9601 9.65486C17.9887 9.68349 18.0048 9.72231 18.0048 9.7628C18.0048 9.80329 17.9887 9.84211 17.9601 9.87074C17.9314 9.89937 17.8925 9.91545 17.852 9.91545Z" fill="#1A76D1"/>
<path d="M17.6074 10.8244H17.1489C17.1083 10.8244 17.0695 10.8083 17.0408 10.7797C17.0121 10.751 16.996 10.7122 16.996 10.6717C16.996 10.6312 17.0121 10.5924 17.0408 10.5638C17.0695 10.5351 17.1083 10.5191 17.1489 10.5191H17.6074C17.648 10.5191 17.6868 10.5351 17.7155 10.5638C17.7442 10.5924 17.7603 10.6312 17.7603 10.6717C17.7603 10.7122 17.7442 10.751 17.7155 10.7797C17.6868 10.8083 17.648 10.8244 17.6074 10.8244Z" fill="#1A76D1"/>
<path d="M17.852 11.7333H17.1489C17.1083 11.7333 17.0695 11.7172 17.0408 11.6885C17.0121 11.6599 16.996 11.6211 16.996 11.5806C16.996 11.5401 17.0121 11.5013 17.0408 11.4727C17.0695 11.444 17.1083 11.4279 17.1489 11.4279H17.852C17.8925 11.4279 17.9314 11.444 17.9601 11.4727C17.9887 11.5013 18.0048 11.5401 18.0048 11.5806C18.0048 11.6211 17.9887 11.6599 17.9601 11.6885C17.9314 11.7172 17.8925 11.7333 17.852 11.7333Z" fill="#1A76D1"/>
<path d="M17.6074 12.6422H17.1489C17.1083 12.6422 17.0695 12.6261 17.0408 12.5974C17.0121 12.5688 16.996 12.53 16.996 12.4895C16.996 12.449 17.0121 12.4102 17.0408 12.3816C17.0695 12.3529 17.1083 12.3369 17.1489 12.3369H17.6074C17.648 12.3369 17.6868 12.3529 17.7155 12.3816C17.7442 12.4102 17.7603 12.449 17.7603 12.4895C17.7603 12.53 17.7442 12.5688 17.7155 12.5974C17.6868 12.6261 17.648 12.6422 17.6074 12.6422Z" fill="#1A76D1"/>
<path d="M16.366 7.19697C16.3353 7.19697 16.3054 7.18778 16.28 7.17057C16.2547 7.15337 16.2351 7.12895 16.2238 7.10049C16.2061 7.05622 16.1871 7.01165 16.167 6.96829C16.1578 6.95002 16.1524 6.93009 16.1511 6.90969C16.1498 6.88928 16.1526 6.86883 16.1593 6.84953C16.1661 6.83023 16.1767 6.81249 16.1904 6.79734C16.2042 6.7822 16.2208 6.76997 16.2394 6.76138C16.258 6.75279 16.2781 6.74802 16.2985 6.74734C16.319 6.74666 16.3394 6.75009 16.3585 6.75743C16.3776 6.76476 16.395 6.77586 16.4098 6.79006C16.4245 6.80425 16.4362 6.82126 16.4442 6.84006C16.4669 6.8883 16.4883 6.93807 16.5081 6.98783C16.5174 7.011 16.5208 7.03608 16.5181 7.06087C16.5154 7.08567 16.5066 7.10942 16.4926 7.13005C16.4786 7.15069 16.4597 7.16758 16.4376 7.17924C16.4155 7.19091 16.3909 7.19699 16.366 7.19697ZM15.9906 6.53506C15.9668 6.53506 15.9434 6.52954 15.9222 6.51894C15.901 6.50835 15.8825 6.49296 15.8683 6.474C15.8396 6.43614 15.809 6.39828 15.7766 6.36134C15.7505 6.33021 15.7378 6.28999 15.7414 6.24954C15.745 6.20909 15.7645 6.17171 15.7957 6.14564C15.8269 6.11957 15.8671 6.10693 15.9076 6.11051C15.9481 6.11409 15.9856 6.13359 16.0117 6.16472C16.0465 6.20594 16.0805 6.24807 16.1122 6.2899C16.1366 6.32229 16.147 6.363 16.1413 6.40308C16.1355 6.44316 16.1141 6.47932 16.0817 6.50361C16.0556 6.52375 16.0236 6.5348 15.9906 6.53506ZM15.4568 5.991C15.422 5.99101 15.3883 5.97916 15.3611 5.95742C15.3235 5.92689 15.2847 5.89636 15.2453 5.86888C15.2125 5.84499 15.1906 5.80909 15.1844 5.76906C15.1781 5.72904 15.188 5.68818 15.212 5.65547C15.2359 5.62275 15.2718 5.60087 15.3119 5.59463C15.352 5.58839 15.3929 5.5983 15.4256 5.62219C15.4687 5.65272 15.5112 5.6863 15.5525 5.71928C15.5772 5.73906 15.5951 5.76602 15.6038 5.79642C15.6125 5.82682 15.6116 5.85917 15.6011 5.88899C15.5906 5.91882 15.571 5.94465 15.5452 5.96293C15.5194 5.9812 15.4885 5.99101 15.4568 5.991ZM14.8106 5.58464C14.788 5.58457 14.7658 5.57946 14.7455 5.56968C14.6663 5.53212 14.618 5.51441 14.6174 5.51441C14.5793 5.50053 14.5483 5.47209 14.5311 5.43536C14.514 5.39863 14.5122 5.35662 14.5261 5.31856C14.54 5.2805 14.5685 5.24952 14.6053 5.23243C14.6421 5.21534 14.6841 5.21354 14.7222 5.22742C14.7247 5.22742 14.7834 5.24971 14.8751 5.29398C14.9064 5.30877 14.9318 5.33376 14.947 5.36483C14.9622 5.39591 14.9665 5.43123 14.959 5.46502C14.9515 5.4988 14.9327 5.52904 14.9057 5.55077C14.8788 5.5725 14.8452 5.58445 14.8106 5.58464Z" fill="#1A76D1"/>
<circle cx="12" cy="12" r="11.95" stroke="#1A76D1" stroke-width="0.1"/>
</svg>
