<svg width="24" height="24" viewBox="0 0 24 24" fill="none" xmlns="http://www.w3.org/2000/svg">
<path d="M8.30076 10.1752C8.30076 11.1754 7.25141 11.9988 5.97655 11.9988C4.7017 11.9988 3.65234 11.1754 3.65234 10.1752C3.65234 9.1749 4.7017 8.35156 5.97655 8.35156C7.27677 8.35156 8.30076 9.15577 8.30076 10.1752Z" fill="#1A76D1"/>
<path d="M9.07709 16.9228L6.87783 15.5304C6.4776 15.1972 5.97781 15.2363 5.67814 15.4124C5.62835 15.4323 5.60297 15.4714 5.55319 15.5105C5.12857 14.6481 4.70395 13.4907 4.70395 13.4907C4.50384 13.0396 4.02944 12.8826 3.6546 12.9416C3.32954 13.0005 2.9547 13.2556 3.00448 13.8239C3.07964 14.6281 3.67899 16.4908 4.32911 17.9614C4.55363 18.4515 5.47902 18.9218 6.30287 19.3538C6.75288 19.5698 7.22728 19.824 7.30245 19.942C7.47718 20.2361 7.42739 20.9813 7.42739 20.9813L7.85201 20.9614C7.85201 20.9614 7.95158 20.2361 7.67728 19.8049C7.55233 19.6088 7.17749 19.4128 6.52737 19.0796C5.80308 18.7074 4.87767 18.2363 4.70295 17.8641C4.05283 16.4135 3.47887 14.609 3.37831 13.8247C3.35293 13.5306 3.47788 13.3345 3.70337 13.2954C3.90348 13.2564 4.15338 13.3736 4.27833 13.6286C4.30371 13.6876 4.90306 15.3343 5.42824 16.1775C5.45362 16.2365 5.47802 16.2756 5.52781 16.3345V16.3545V16.3744L6.90222 17.6098C6.97738 17.6687 7.10233 17.6879 7.20189 17.6297C7.27706 17.5707 7.30146 17.4727 7.22727 17.3946L5.87825 16.1982C5.85287 16.1591 5.80308 16.1002 5.77868 16.0412C5.7289 15.9041 5.80406 15.7861 5.90363 15.7272C6.02857 15.649 6.30386 15.6092 6.55375 15.8252L8.75301 17.2368C8.75301 17.2368 9.7272 17.864 9.7272 18.8834V21.0012H10.1518V18.8244C10.2016 17.6672 9.12687 16.9618 9.07709 16.9228Z" fill="#1A76D1"/>
<path d="M20.3732 12.9416C19.9983 12.8826 19.5239 13.0397 19.3238 13.4709C19.3238 13.4908 18.8992 14.6473 18.4746 15.5096C18.4492 15.4705 18.3994 15.4315 18.3496 15.4116C18.0744 15.2354 17.5502 15.1956 17.15 15.5487L14.9761 16.9211C14.9263 16.9411 13.8516 17.6465 13.8516 18.8229V20.9406L14.2508 20.9414V18.8236C14.2508 17.8234 15.225 17.1961 15.225 17.177L17.4243 15.7845C17.6995 15.5494 17.9494 15.5885 18.0988 15.6666C18.1983 15.7447 18.2735 15.8627 18.1983 16.0197C18.173 16.0587 18.1486 16.1177 18.1232 16.1568L16.7985 17.3531C16.7234 17.4121 16.7234 17.5293 16.8239 17.5883C16.8991 17.6472 17.0484 17.6472 17.1236 17.5683L18.4726 16.3529V16.3329L18.498 16.313C18.498 16.2931 18.5234 16.274 18.5234 16.2541C18.5488 16.2341 18.5732 16.1951 18.5732 16.1759C19.0983 15.3327 19.6977 13.647 19.7475 13.588C19.8724 13.333 20.1223 13.2349 20.297 13.274C20.5215 13.313 20.6465 13.5091 20.6221 13.8032C20.5469 14.5875 19.9476 16.3911 19.2975 17.8427C19.1227 18.2348 18.2227 18.6859 17.473 19.0581C16.8229 19.3913 16.4481 19.5874 16.3231 19.7834C16.0478 20.2146 16.1484 20.9399 16.1484 20.9399H16.573C16.573 20.9399 16.5232 20.2146 16.698 19.9397C16.7731 19.8217 17.2729 19.5674 17.6975 19.3515C18.5224 18.9394 19.4722 18.4492 19.6713 17.959C20.3214 16.4885 20.9208 14.6458 20.9959 13.8216C21.0477 13.2747 20.6982 13.0006 20.3732 12.9416Z" fill="#1A76D1"/>
<path d="M18.7446 8.21502C18.2194 8.21502 16.9953 8.23493 16.396 8.33296C15.7966 8.431 15.0469 8.45091 14.6467 9.11725C14.4222 9.50939 14.3714 9.96051 13.9722 10.4308C13.7721 10.6069 13.4724 10.862 12.9726 10.9799C12.998 10.5288 13.0224 9.82341 13.0224 9.35237C13.0224 8.68605 13.5476 8.37202 14.0971 8.03886C14.6467 7.7057 15.1963 7.37253 15.0469 6.70542C14.8722 5.92114 14.3227 5.78405 13.7975 5.62703C13.3475 5.50909 12.8975 5.39191 12.5226 4.86267C11.8979 4.00028 12.4231 3.05898 12.4231 3.03906C12.4231 3.01915 12.4484 3.01915 12.4484 3H12.0238C11.8989 3.25505 11.5494 4.13737 12.1741 5.01972C12.6241 5.64699 13.1991 5.804 13.6735 5.9411C14.1733 6.07819 14.5227 6.17622 14.6477 6.76444C14.7473 7.21555 14.3978 7.45068 13.8482 7.78385C13.2987 8.11701 12.6241 8.52907 12.6241 9.37233C12.6241 9.84259 12.5988 10.5878 12.5744 11.0588H12.424C11.8745 11.0588 11.2243 10.7647 11.1746 10.4507C11.1746 10.4507 11.1746 8.31394 11.1492 7.5877C11.1238 6.56829 9.39994 6.54837 9.15004 7.48966L8.62487 10.9209C8.62487 10.9209 8.5253 12.4504 9.34916 13.0977C11.3229 14.6272 13.9722 13.9999 14.7474 13.666C15.6474 13.2738 15.947 12.5677 16.1472 12.0193C16.1472 12.0193 16.5972 10.3917 16.8968 10.2156C17.3468 9.9414 19.0209 9.74533 19.0209 9.74533C20.0693 9.5485 19.7695 8.19588 18.7446 8.21502Z" fill="#1A76D1"/>
<circle cx="12" cy="12" r="11.95" stroke="#1A76D1" stroke-width="0.1"/>
</svg>
