<svg width="24" height="24" viewBox="0 0 24 24" fill="none" xmlns="http://www.w3.org/2000/svg">
<path d="M4.94626 14.6593V9.25977H3V18.4809H3.0045V18.4828H4.95903V16.5025H19.049V18.4828H21V14.6593H4.94626Z" fill="#1A76D1"/>
<path d="M5.13012 7.65028C4.5143 7.06395 4.4912 6.08959 5.07587 5.47566C5.65903 4.86247 6.63524 4.83813 7.25081 5.42596C7.86562 6.01354 7.88721 6.9869 7.30329 7.59933C6.71686 8.21301 5.74267 8.2351 5.13012 7.65028Z" fill="#1A76D1"/>
<path d="M19.6205 11.2932H19.0642C19.4164 11.0565 19.5538 10.5927 19.3658 10.1975L17.3791 6.34399C17.2438 6.06065 16.9671 5.87073 16.6527 5.84803C16.3337 5.82508 16.0371 5.97338 15.8633 6.23543L14.5568 7.86784C14.1545 7.29667 13.4482 6.8208 12.3664 6.75718C11.2754 6.69356 9.49021 7.67626 9.08317 7.90899C9.09665 7.98444 9.10658 8.06131 9.10658 8.14054V9.43591H12.4405C13.1332 9.43591 13.6949 9.99787 13.6949 10.6897C13.6949 10.9106 13.6341 11.114 13.5334 11.2935H12.905C13.0864 11.1537 13.2049 10.9361 13.2046 10.6897C13.2046 10.268 12.8626 9.92526 12.4407 9.92526H8.61747V8.14007C8.61747 7.71837 8.27453 7.37637 7.85307 7.37637C7.43065 7.37637 7.08819 7.71837 7.08819 8.14007V10.6897C7.08819 10.9361 7.20715 11.1537 7.38856 11.2935H5.62891V13.9822H20.9809V12.5822C20.9821 11.841 20.4781 11.2914 19.6205 11.2932ZM14.5501 11.0295L16.4959 8.27559L17.8727 10.9219C17.9486 11.0825 18.0671 11.2076 18.2078 11.293H14.2687C14.3775 11.2287 14.4754 11.1419 14.5501 11.0295Z" fill="#1A76D1"/>
<circle cx="12" cy="12" r="11.95" stroke="#1A76D1" stroke-width="0.1"/>
</svg>
