<svg width="24" height="24" viewBox="0 0 24 24" fill="none" xmlns="http://www.w3.org/2000/svg">
<path d="M5.48614 14.9938C3.86332 14.9938 2.58169 14.119 2.297 12.8172C2.01495 11.5275 3.04927 10.237 4.14361 8.87071C4.6271 8.2898 5.07474 7.68641 5.4846 7.06316C5.89446 7.68641 6.3421 8.2898 6.82559 8.87071C7.89113 10.2 8.89753 11.4555 8.69418 12.7086C8.47743 14.0539 7.15754 14.9938 5.48614 14.9938ZM20.1893 15.0757C19.6943 18.1223 16.7157 20.25 12.9462 20.25C9.36512 20.25 6.51958 18.3532 5.79523 15.5115C6.58747 15.4666 7.34668 15.2154 7.97642 14.7898C8.69661 14.2989 9.16837 13.5781 9.28971 12.7833C9.49328 11.5314 8.73397 10.369 7.79748 9.16993C8.40598 8.31968 9.10351 7.44929 9.77972 6.60581C10.9095 5.19639 12.0737 3.74381 12.9462 2.25C13.8185 3.74381 14.983 5.19639 16.1118 6.60484C18.4443 9.51445 20.6466 12.2621 20.1893 15.0757ZM16.3792 13.4177C16.3792 13.3477 16.3476 13.2806 16.2913 13.2311C16.2351 13.1816 16.1588 13.1537 16.0793 13.1537H14.726V11.9628C14.726 11.8928 14.6944 11.8256 14.6382 11.7761C14.582 11.7266 14.5057 11.6987 14.4261 11.6986H12.0827C12.0032 11.6987 11.9269 11.7266 11.8707 11.7761C11.8144 11.8256 11.7829 11.8928 11.7829 11.9628V13.1543H10.4296C10.3902 13.1542 10.3511 13.161 10.3147 13.1741C10.2782 13.1873 10.2451 13.2067 10.2172 13.2312C10.1893 13.2556 10.1671 13.2847 10.1519 13.3167C10.1368 13.3487 10.1289 13.3831 10.1288 13.4177V15.4814C10.1288 15.5514 10.1604 15.6185 10.2166 15.668C10.2729 15.7175 10.3491 15.7454 10.4287 15.7454H11.782V16.9368C11.782 17.0069 11.8136 17.074 11.8698 17.1235C11.926 17.173 12.0023 17.2008 12.0818 17.2008H14.4253C14.5048 17.2008 14.5811 17.173 14.6373 17.1235C14.6935 17.074 14.7251 17.0069 14.7251 16.9368V15.7454H16.0784C16.1579 15.7454 16.2342 15.7175 16.2904 15.668C16.3467 15.6185 16.3783 15.5514 16.3783 15.4814L16.3792 13.4177ZM14.1261 13.4177V12.2268H12.3828V13.4177C12.3827 13.4878 12.3511 13.5549 12.2948 13.6044C12.2385 13.6539 12.1623 13.6817 12.0827 13.6817H10.7296V15.2177H12.0827C12.1623 15.2177 12.2385 15.2455 12.2948 15.2951C12.3511 15.3446 12.3827 15.4117 12.3828 15.4817V16.6732H14.1261V15.4814C14.1262 15.4114 14.1579 15.3443 14.2142 15.2949C14.2704 15.2455 14.3467 15.2177 14.4261 15.2177H15.7786V13.6823H14.4261C14.3867 13.6823 14.3476 13.6755 14.3112 13.6622C14.2748 13.6489 14.2417 13.6294 14.2138 13.6048C14.1859 13.5802 14.1638 13.5511 14.1488 13.519C14.1337 13.4869 14.126 13.4525 14.1261 13.4177Z" fill="#1A76D1"/>
<circle cx="12" cy="12" r="11.95" stroke="#1A76D1" stroke-width="0.1"/>
</svg>
