<svg width="24" height="24" viewBox="0 0 24 24" fill="none" xmlns="http://www.w3.org/2000/svg">
<path d="M8 10.75C8.0663 10.75 8.12989 10.7237 8.17678 10.6768C8.22366 10.6299 8.25 10.5663 8.25 10.5V10.2677C8.25029 10.0284 8.31917 9.79415 8.4485 9.59275C8.54084 9.71869 8.66149 9.82116 8.80071 9.8919C8.93994 9.96264 9.09384 9.99967 9.25 10C10.0095 10 10.5 9.41125 10.5 8.5C10.5 7.58875 10.0095 7 9.25 7C8.98478 7 8.73043 7.10536 8.54289 7.29289C8.35536 7.48043 8.25 7.73478 8.25 8C8.25019 8.17581 8.29722 8.3484 8.38625 8.5C8.29722 8.6516 8.25019 8.82419 8.25 9C8.25 9.01475 8.25375 9.0285 8.25425 9.04325C8.15731 9.13918 8.07197 9.24616 8 9.362C7.92802 9.2461 7.84259 9.1391 7.7455 9.04325C7.7455 9.0285 7.75 9.01475 7.75 9C7.74981 8.82419 7.70278 8.6516 7.61375 8.5C7.70278 8.3484 7.74981 8.17581 7.75 8C7.75 7.73478 7.64464 7.48043 7.45711 7.29289C7.26957 7.10536 7.01522 7 6.75 7C5.9905 7 5.5 7.58875 5.5 8.5C5.5 9.41125 5.9905 10 6.75 10C6.90623 9.99958 7.06017 9.96244 7.1994 9.89156C7.33862 9.82069 7.45924 9.71807 7.5515 9.592C7.68083 9.7934 7.74971 10.0277 7.75 10.267V10.5C7.75 10.5663 7.77634 10.6299 7.82322 10.6768C7.87011 10.7237 7.9337 10.75 8 10.75ZM9.25 7.5C9.927 7.5 10 8.2 10 8.5C10 8.8 9.927 9.5 9.25 9.5C9.1585 9.49969 9.06885 9.4742 8.99088 9.42631C8.91291 9.37841 8.84964 9.30998 8.808 9.2285C8.88004 9.17898 8.95704 9.13709 9.03775 9.1035L9.343 8.98125C9.37413 8.96952 9.4026 8.95169 9.42676 8.92881C9.45091 8.90593 9.47025 8.87846 9.48365 8.84801C9.49705 8.81756 9.50423 8.78474 9.50479 8.75148C9.50534 8.71822 9.49925 8.68518 9.48687 8.6543C9.47449 8.62342 9.45608 8.59532 9.4327 8.57165C9.40933 8.54798 9.38146 8.52921 9.35074 8.51645C9.32002 8.50368 9.28706 8.49718 9.25379 8.49732C9.22052 8.49746 9.18762 8.50423 9.157 8.51725L8.9115 8.61525C8.93622 8.5706 8.94649 8.51939 8.9409 8.46866C8.9353 8.41793 8.91411 8.37018 8.88025 8.332C8.79707 8.24137 8.75063 8.12301 8.75 8C8.75 7.86739 8.80268 7.74021 8.89645 7.64645C8.99021 7.55268 9.11739 7.5 9.25 7.5ZM6.75 9.5C6.073 9.5 6 8.8 6 8.5C6 8.2 6.073 7.5 6.75 7.5C6.88261 7.5 7.00979 7.55268 7.10355 7.64645C7.19732 7.74021 7.25 7.86739 7.25 8C7.24955 8.12327 7.2031 8.24193 7.11975 8.33275C7.08583 8.37096 7.06461 8.41875 7.05901 8.46953C7.05342 8.52031 7.06372 8.57157 7.0885 8.61625L6.843 8.518C6.7818 8.49493 6.714 8.49677 6.65413 8.52311C6.59427 8.54945 6.54711 8.5982 6.52277 8.65891C6.49844 8.71962 6.49886 8.78745 6.52395 8.84785C6.54905 8.90825 6.59681 8.95641 6.657 8.982L6.96225 9.10425C7.04296 9.13784 7.11996 9.17973 7.192 9.22925C7.15026 9.31059 7.08694 9.37887 7.00898 9.42663C6.93102 9.47438 6.84142 9.49977 6.75 9.5Z" fill="#1A76D1"/>
<path d="M17.5 7H15.5C15.4337 7 15.3701 7.02634 15.3232 7.07322C15.2763 7.12011 15.25 7.1837 15.25 7.25C15.25 7.3163 15.2763 7.37989 15.3232 7.42678C15.3701 7.47366 15.4337 7.5 15.5 7.5H17.5C17.5663 7.5 17.6299 7.47366 17.6768 7.42678C17.7237 7.37989 17.75 7.3163 17.75 7.25C17.75 7.1837 17.7237 7.12011 17.6768 7.07322C17.6299 7.02634 17.5663 7 17.5 7Z" fill="#1A76D1"/>
<path d="M15.5 8C15.4337 8 15.3701 8.02634 15.3232 8.07322C15.2763 8.12011 15.25 8.1837 15.25 8.25C15.25 8.3163 15.2763 8.37989 15.3232 8.42678C15.3701 8.47366 15.4337 8.5 15.5 8.5H16.5C16.5663 8.5 16.6299 8.47366 16.6768 8.42678C16.7237 8.37989 16.75 8.3163 16.75 8.25C16.75 8.1837 16.7237 8.12011 16.6768 8.07322C16.6299 8.02634 16.5663 8 16.5 8H15.5Z" fill="#1A76D1"/>
<path d="M17.5 8.5C17.6381 8.5 17.75 8.38807 17.75 8.25C17.75 8.11193 17.6381 8 17.5 8C17.3619 8 17.25 8.11193 17.25 8.25C17.25 8.38807 17.3619 8.5 17.5 8.5Z" fill="#1A76D1"/>
<path d="M17.25 15.5C17.3881 15.5 17.5 15.3881 17.5 15.25C17.5 15.1119 17.3881 15 17.25 15C17.1119 15 17 15.1119 17 15.25C17 15.3881 17.1119 15.5 17.25 15.5Z" fill="#1A76D1"/>
<path d="M16.25 15.5C16.3881 15.5 16.5 15.3881 16.5 15.25C16.5 15.1119 16.3881 15 16.25 15C16.1119 15 16 15.1119 16 15.25C16 15.3881 16.1119 15.5 16.25 15.5Z" fill="#1A76D1"/>
<path d="M19.25 12.25C19.3163 12.25 19.3799 12.2237 19.4268 12.1768C19.4737 12.1299 19.5 12.0663 19.5 12V10.75C19.5 10.5511 19.421 10.3603 19.2803 10.2197C19.1397 10.079 18.9489 10 18.75 10H17.625V9.5H18C18.1989 9.5 18.3897 9.42098 18.5303 9.28033C18.671 9.13968 18.75 8.94891 18.75 8.75V8.25C18.75 8.1837 18.7237 8.12011 18.6768 8.07322C18.6299 8.02634 18.5663 8 18.5 8C18.4337 8 18.3701 8.02634 18.3232 8.07322C18.2763 8.12011 18.25 8.1837 18.25 8.25V8.75C18.25 8.8163 18.2237 8.87989 18.1768 8.92678C18.1299 8.97366 18.0663 9 18 9H15C14.9337 9 14.8701 8.97366 14.8232 8.92678C14.7763 8.87989 14.75 8.8163 14.75 8.75V6.75C14.75 6.6837 14.7763 6.62011 14.8232 6.57322C14.8701 6.52634 14.9337 6.5 15 6.5H18C18.0663 6.5 18.1299 6.52634 18.1768 6.57322C18.2237 6.62011 18.25 6.6837 18.25 6.75V7.25C18.25 7.3163 18.2763 7.37989 18.3232 7.42678C18.3701 7.47366 18.4337 7.5 18.5 7.5C18.5663 7.5 18.6299 7.47366 18.6768 7.42678C18.7237 7.37989 18.75 7.3163 18.75 7.25V6.75C18.75 6.55109 18.671 6.36032 18.5303 6.21967C18.3897 6.07902 18.1989 6 18 6H15.75V5H16.5C16.6326 5 16.7598 5.05268 16.8536 5.14645C16.9473 5.24021 17 5.36739 17 5.5C17 5.5663 17.0263 5.62989 17.0732 5.67678C17.1201 5.72366 17.1837 5.75 17.25 5.75C17.3163 5.75 17.3799 5.72366 17.4268 5.67678C17.4737 5.62989 17.5 5.5663 17.5 5.5C17.5 5.23478 17.3946 4.98043 17.2071 4.79289C17.0196 4.60536 16.7652 4.5 16.5 4.5H14.25C13.9848 4.5 13.7304 4.60536 13.5429 4.79289C13.3554 4.98043 13.25 5.23478 13.25 5.5H12.75C12.6174 5.5 12.4902 5.55268 12.3964 5.64645C12.3027 5.74021 12.25 5.86739 12.25 6V8C12.25 8.13261 12.3027 8.25979 12.3964 8.35355C12.4902 8.44732 12.6174 8.5 12.75 8.5H13.25V9.25C13.25 9.3163 13.2237 9.37989 13.1768 9.42678C13.1299 9.47366 13.0663 9.5 13 9.5C12.8011 9.5 12.6103 9.57902 12.4697 9.71967C12.329 9.86032 12.25 10.0511 12.25 10.25V11.25C12.25 11.5152 12.3554 11.7696 12.5429 11.9571C12.7304 12.1446 12.9848 12.25 13.25 12.25H13.5V13H11.4688C11.1513 12.9991 10.8455 13.1197 10.6142 13.3372C10.3829 13.5546 10.2437 13.8523 10.225 14.1692L9.67875 14.41C9.61864 14.4365 9.5539 14.4509 9.48823 14.4523C9.42257 14.4538 9.35726 14.4423 9.29603 14.4185C9.23481 14.3947 9.17888 14.359 9.13143 14.3136C9.08398 14.2682 9.04595 14.2139 9.0195 14.1538C8.98004 14.0635 8.92306 13.9819 8.85187 13.9138C8.78067 13.8457 8.69668 13.7924 8.60475 13.757C8.57524 13.7467 8.54509 13.7384 8.5145 13.732C8.74826 13.5554 8.91087 13.3008 8.97272 13.0145C9.03457 12.7281 8.99155 12.4291 8.8515 12.1718C9.03875 12.1356 9.22271 12.0841 9.4015 12.0177L10.6265 12.7177C10.6668 12.7407 10.7127 12.7521 10.7591 12.7505C10.8055 12.7489 10.8505 12.7344 10.8891 12.7086C10.9277 12.6829 10.9584 12.6469 10.9777 12.6047C10.997 12.5625 11.0042 12.5158 10.9985 12.4698L10.8208 11.0462C11.3687 10.4385 11.6942 9.66282 11.7442 8.84607C11.7941 8.02931 11.5655 7.21976 11.0957 6.54975C11.0769 6.52285 11.0529 6.49992 11.0252 6.48227C10.9975 6.46463 10.9666 6.45261 10.9343 6.44691C10.8689 6.4354 10.8017 6.45032 10.7474 6.48837C10.693 6.52643 10.656 6.58452 10.6445 6.64985C10.633 6.71518 10.6479 6.78241 10.686 6.83675C11.1014 7.42869 11.298 8.14673 11.2418 8.86772C11.1857 9.58871 10.8805 10.2677 10.3785 10.7882C10.3527 10.8151 10.3332 10.8474 10.3215 10.8827C10.3098 10.918 10.3061 10.9556 10.3108 10.9925L10.4412 12.0358L9.54575 11.525C9.51258 11.5059 9.47544 11.4947 9.43723 11.4923C9.39903 11.49 9.36079 11.4964 9.3255 11.5113C9.05016 11.6245 8.75991 11.6973 8.46375 11.7275C8.28691 11.6021 8.08008 11.5257 7.8642 11.5061C7.64832 11.4864 7.43108 11.5241 7.2345 11.6155C6.794 11.485 6.38775 11.2588 6.04473 10.9532C5.70171 10.6475 5.43039 10.27 5.25013 9.84737C5.06987 9.42479 4.98511 8.96762 5.00191 8.50849C5.01871 8.04937 5.13665 7.59962 5.34731 7.19133C5.55797 6.78305 5.85616 6.4263 6.22059 6.14654C6.58503 5.86679 7.00672 5.67093 7.45558 5.57294C7.90444 5.47496 8.36939 5.47726 8.81726 5.57969C9.26512 5.68212 9.68486 5.88215 10.0465 6.1655C10.0723 6.18649 10.102 6.20214 10.1339 6.21151C10.1658 6.22089 10.1992 6.22381 10.2323 6.2201C10.2653 6.21639 10.2973 6.20613 10.3263 6.18992C10.3553 6.17371 10.3808 6.15187 10.4013 6.12569C10.4218 6.0995 10.4368 6.06949 10.4456 6.03742C10.4543 6.00535 10.4566 5.97185 10.4522 5.93889C10.4479 5.90594 10.437 5.87418 10.4202 5.84548C10.4034 5.81678 10.3811 5.79171 10.3545 5.77175C9.71958 5.27053 8.93391 4.99857 8.125 5C7.2836 4.99907 6.46815 5.29122 5.81877 5.82625C5.16939 6.36128 4.72663 7.10578 4.56659 7.93182C4.40654 8.75786 4.53919 9.61385 4.94175 10.3527C5.34431 11.0915 5.99164 11.6671 6.7725 11.9805C6.58908 12.2073 6.4926 12.492 6.50039 12.7836C6.50818 13.0751 6.61974 13.3544 6.815 13.571C6.60851 13.7892 6.49632 14.0799 6.50275 14.3802C6.41988 14.3451 6.33256 14.3215 6.24325 14.3103C6.11288 14.2952 5.98083 14.3062 5.85475 14.3426C5.72866 14.379 5.61106 14.4401 5.50875 14.5223L4.84375 15.0548C4.79303 15.0953 4.76011 15.1541 4.75194 15.2185C4.74377 15.283 4.76101 15.348 4.8 15.4L5.46 16.28C5.4797 16.3063 5.50438 16.3284 5.53263 16.3451C5.56088 16.3618 5.59214 16.3728 5.62464 16.3775C5.65715 16.3821 5.69024 16.3803 5.72205 16.3722C5.75385 16.364 5.78374 16.3497 5.81 16.33C5.83626 16.3103 5.85839 16.2856 5.87512 16.2574C5.89185 16.2291 5.90284 16.1979 5.90749 16.1654C5.91213 16.1329 5.91033 16.0998 5.90218 16.068C5.89403 16.0362 5.8797 16.0063 5.86 15.98L5.34525 15.2937L5.82025 14.9128C5.9238 14.8304 6.05578 14.7924 6.18727 14.8072C6.31876 14.8219 6.43904 14.8882 6.52175 14.9915L6.75225 15.2785C6.95676 15.7873 7.30891 16.2231 7.76335 16.5299C8.21779 16.8368 8.75368 17.0005 9.302 17H9.5V17.25C9.5 17.3163 9.52634 17.3799 9.57322 17.4268C9.62011 17.4737 9.6837 17.5 9.75 17.5C9.8163 17.5 9.87989 17.4737 9.92678 17.4268C9.97366 17.3799 10 17.3163 10 17.25V15.88C10.0967 15.8547 10.1913 15.8221 10.283 15.7825L10.9695 15.4803C11.0116 15.4614 11.0519 15.4388 11.0897 15.4125L14.8693 15.866C15.1121 15.8952 15.3358 16.0123 15.4981 16.1953C15.6604 16.3783 15.75 16.6144 15.75 16.859V18H8.5C8.15085 17.9992 7.80664 17.9175 7.49435 17.7613C7.18206 17.6052 6.91017 17.3788 6.7 17.1L6.46 16.78C6.42022 16.727 6.36099 16.6919 6.29536 16.6825C6.22972 16.6731 6.16304 16.6902 6.11 16.73C6.05696 16.7698 6.02189 16.829 6.01251 16.8946C6.00314 16.9603 6.02022 17.027 6.06 17.08L6.3 17.4C6.47581 17.6321 6.68756 17.8347 6.92725 18H4.75C4.6837 18 4.62011 18.0263 4.57322 18.0732C4.52634 18.1201 4.5 18.1837 4.5 18.25V19.25C4.5 19.3163 4.52634 19.3799 4.57322 19.4268C4.62011 19.4737 4.6837 19.5 4.75 19.5H19.25C19.3163 19.5 19.3799 19.4737 19.4268 19.4268C19.4737 19.3799 19.5 19.3163 19.5 19.25C19.5 19.1837 19.4737 19.1201 19.4268 19.0732C19.3799 19.0263 19.3163 19 19.25 19H5V18.5H19.25C19.3163 18.5 19.3799 18.4737 19.4268 18.4268C19.4737 18.3799 19.5 18.3163 19.5 18.25V13C19.5 12.9337 19.4737 12.8701 19.4268 12.8232C19.3799 12.7763 19.3163 12.75 19.25 12.75C19.1837 12.75 19.1201 12.7763 19.0732 12.8232C19.0263 12.8701 19 12.9337 19 13V13.5H18.25C18.1837 13.5 18.1201 13.5263 18.0732 13.5732C18.0263 13.6201 18 13.6837 18 13.75V16.25C18 16.3163 18.0263 16.3799 18.0732 16.4268C18.1201 16.4737 18.1837 16.5 18.25 16.5C18.3163 16.5 18.3799 16.4737 18.4268 16.4268C18.4737 16.3799 18.5 16.3163 18.5 16.25V16H19V18H18.5V17.5C18.5 17.2348 18.3946 16.9804 18.2071 16.7929C18.0196 16.6054 17.7652 16.5 17.5 16.5H16.2C16.1277 16.2047 15.9673 15.9384 15.7401 15.7365C15.5128 15.5347 15.2295 15.4067 14.9277 15.3698L14 15.2583V14.5H16.25C16.6477 14.4996 17.029 14.3414 17.3102 14.0602C17.5914 13.779 17.7496 13.3977 17.75 13V12.454C17.9168 12.395 18.0574 12.279 18.1469 12.1264C18.2364 11.9738 18.2691 11.7944 18.2392 11.6201C18.2093 11.4457 18.1187 11.2875 17.9834 11.1735C17.8481 11.0594 17.6769 10.9969 17.5 10.9969C17.3231 10.9969 17.1519 11.0594 17.0166 11.1735C16.8813 11.2875 16.7907 11.4457 16.7608 11.6201C16.7309 11.7944 16.7636 11.9738 16.8531 12.1264C16.9426 12.279 17.0832 12.395 17.25 12.454V13C17.25 13.2652 17.1446 13.5196 16.9571 13.7071C16.7696 13.8946 16.5152 14 16.25 14H14V13.5H14.5C14.7944 13.4992 15.0791 13.3945 15.3039 13.2043C15.5287 13.0141 15.6792 12.7507 15.7288 12.4605C15.8956 12.4058 16.0378 12.2941 16.1304 12.1449C16.2229 11.9957 16.2599 11.8187 16.2349 11.6449C16.2099 11.4712 16.1244 11.3118 15.9934 11.1948C15.8625 11.0779 15.6945 11.0108 15.5191 11.0055C15.3436 11.0001 15.1718 11.0568 15.034 11.1656C14.8962 11.2743 14.8011 11.4282 14.7655 11.6001C14.7299 11.772 14.7561 11.9509 14.8394 12.1055C14.9227 12.26 15.0578 12.3802 15.221 12.445C15.1783 12.6037 15.0845 12.744 14.9543 12.8443C14.824 12.9446 14.6644 12.9993 14.5 13H14V10.75C14 10.6837 14.0263 10.6201 14.0732 10.5732C14.1201 10.5263 14.1837 10.5 14.25 10.5H18.75C18.8163 10.5 18.8799 10.5263 18.9268 10.5732C18.9737 10.6201 19 10.6837 19 10.75V12C19 12.0663 19.0263 12.1299 19.0732 12.1768C19.1201 12.2237 19.1837 12.25 19.25 12.25ZM18.5 15.5V14H19V15.5H18.5ZM18 17.5V18H16.25V17H17.5C17.6326 17 17.7598 17.0527 17.8536 17.1464C17.9473 17.2402 18 17.3674 18 17.5ZM17.5 11.5C17.5494 11.5 17.5978 11.5147 17.6389 11.5421C17.68 11.5696 17.712 11.6086 17.731 11.6543C17.7499 11.7 17.7548 11.7503 17.7452 11.7988C17.7356 11.8473 17.7117 11.8918 17.6768 11.9268C17.6418 11.9617 17.5973 11.9856 17.5488 11.9952C17.5003 12.0048 17.45 11.9999 17.4043 11.981C17.3586 11.962 17.3196 11.93 17.2921 11.8889C17.2647 11.8478 17.25 11.7994 17.25 11.75C17.25 11.6837 17.2763 11.6201 17.3232 11.5732C17.3701 11.5263 17.4337 11.5 17.5 11.5ZM15.5 11.5C15.5494 11.5 15.5978 11.5147 15.6389 11.5421C15.68 11.5696 15.712 11.6086 15.731 11.6543C15.7499 11.7 15.7548 11.7503 15.7452 11.7988C15.7356 11.8473 15.7117 11.8918 15.6768 11.9268C15.6418 11.9617 15.5973 11.9856 15.5488 11.9952C15.5003 12.0048 15.45 11.9999 15.4043 11.981C15.3586 11.962 15.3196 11.93 15.2921 11.8889C15.2647 11.8478 15.25 11.7994 15.25 11.75C15.25 11.6837 15.2763 11.6201 15.3232 11.5732C15.3701 11.5263 15.4337 11.5 15.5 11.5ZM8.5 12.75C8.5 12.8983 8.45601 13.0433 8.3736 13.1667C8.29119 13.29 8.17406 13.3861 8.03701 13.4429C7.89997 13.4997 7.74917 13.5145 7.60368 13.4856C7.4582 13.4567 7.32456 13.3852 7.21967 13.2803C7.11478 13.1754 7.04335 13.0418 7.01441 12.8963C6.98547 12.7508 7.00032 12.6 7.05709 12.463C7.11386 12.3259 7.20999 12.2088 7.33332 12.1264C7.45666 12.044 7.60166 12 7.75 12C7.94891 12 8.13968 12.079 8.28033 12.2197C8.42098 12.3603 8.5 12.5511 8.5 12.75ZM9.5 16.5H9.302C8.82963 16.5005 8.36912 16.3521 7.9859 16.0759C7.60268 15.7997 7.31623 15.4098 7.16725 14.9615L7.03125 14.553C6.99238 14.4344 6.9891 14.307 7.0218 14.1866C7.05449 14.0661 7.12175 13.9579 7.21525 13.8752C7.37954 13.9553 7.55951 13.998 7.74225 14.0002C7.65756 14.1055 7.60376 14.2322 7.58686 14.3662C7.56995 14.5002 7.5906 14.6363 7.6465 14.7592C7.80339 15.1146 8.06022 15.4167 8.38571 15.6287C8.7112 15.8406 9.09131 15.9534 9.47975 15.9532C9.4865 15.9532 9.49325 15.9532 9.5 15.9532V16.5ZM10.9 14.8845C10.8881 14.9151 10.8702 14.9431 10.8475 14.9668C10.8248 14.9905 10.7976 15.0095 10.7675 15.0227L10.0815 15.325C9.71742 15.4853 9.30457 15.4944 8.93377 15.3504C8.56297 15.2063 8.26458 14.9208 8.10425 14.5568C8.09028 14.5266 8.08245 14.494 8.08124 14.4608C8.08003 14.4275 8.08545 14.3944 8.09718 14.3633C8.10892 14.3322 8.12674 14.3038 8.14959 14.2797C8.17245 14.2556 8.19989 14.2362 8.2303 14.2228C8.26072 14.2094 8.2935 14.2022 8.32672 14.2017C8.35995 14.2011 8.39296 14.2071 8.42382 14.2195C8.45468 14.2318 8.48278 14.2502 8.50646 14.2735C8.53014 14.2968 8.54894 14.3246 8.56175 14.3553C8.61467 14.4754 8.69074 14.584 8.78563 14.6748C8.88052 14.7656 8.99237 14.8368 9.11478 14.8844C9.23719 14.932 9.36777 14.955 9.49907 14.9521C9.63037 14.9492 9.75981 14.9204 9.88 14.8675L10.5665 14.565C10.6118 14.5451 10.6619 14.5391 10.7106 14.5477C10.7592 14.5564 10.8042 14.5792 10.8399 14.6134C10.8756 14.6476 10.9004 14.6916 10.9111 14.7398C10.9218 14.7881 10.9179 14.8384 10.9 14.8845ZM13.5 15.1982L11.4 14.9462C11.4319 14.7966 11.4166 14.6406 11.3562 14.5H13.5V15.1982ZM13.5 14H10.7645C10.8153 13.8538 10.9104 13.727 11.0367 13.6374C11.1629 13.5478 11.3139 13.4997 11.4688 13.5H13.5V14ZM14.25 5H15.25V6H15C14.9146 6.00083 14.8301 6.01639 14.75 6.046V6C14.75 5.86739 14.6973 5.74021 14.6036 5.64645C14.5098 5.55268 14.3826 5.5 14.25 5.5H13.75C13.75 5.36739 13.8027 5.24021 13.8964 5.14645C13.9902 5.05268 14.1174 5 14.25 5ZM14.25 6V6.5H12.75V6H14.25ZM12.75 7H14.25V8H12.75V7ZM13.5 10.75V11.75H13.25C13.1174 11.75 12.9902 11.6973 12.8964 11.6036C12.8027 11.5098 12.75 11.3826 12.75 11.25V10.25C12.75 10.1837 12.7763 10.1201 12.8232 10.0732C12.8701 10.0263 12.9337 10 13 10C13.1989 10 13.3897 9.92098 13.5303 9.78033C13.671 9.63968 13.75 9.44891 13.75 9.25V8.5H14.25V8.75C14.25 8.94891 14.329 9.13968 14.4697 9.28033C14.6103 9.42098 14.8011 9.5 15 9.5H15.375V10H14.25C14.0511 10 13.8603 10.079 13.7197 10.2197C13.579 10.3603 13.5 10.5511 13.5 10.75ZM15.875 10V9.5H17.125V10H15.875Z" fill="#1A76D1"/>
<circle cx="12" cy="12" r="11.95" stroke="#1A76D1" stroke-width="0.1"/>
</svg>
