<svg width="24" height="24" viewBox="0 0 24 24" fill="none" xmlns="http://www.w3.org/2000/svg">
<path d="M7.51902 14.3262H8.37468C8.32635 14.2832 8.28097 14.2404 8.23942 14.1986C7.87783 13.8358 7.69215 13.4737 7.64387 13.3713C7.58254 13.2366 7.56803 13.0853 7.60095 12.9412C7.634 12.7971 7.71043 12.6775 7.81637 12.6043C7.8842 12.5575 7.96094 12.5327 8.03833 12.5327C8.20168 12.5327 8.35317 12.6413 8.43374 12.816C8.43715 12.8228 8.44142 12.8313 8.44774 12.8433C8.46734 12.8798 8.48984 12.9182 8.51448 12.9567C8.57291 13.0488 8.67193 13.1878 8.81273 13.3287C8.90562 13.4208 9.00205 13.5009 9.10248 13.5694C8.98437 13.3211 8.8772 13.0833 8.78004 12.8758C8.58127 12.3496 8.09684 11.9844 7.74062 12.2088C7.38445 12.4331 7.09861 13.0845 7.36335 13.8885C7.41532 14.0437 7.46687 14.1884 7.51902 14.3262Z" fill="#1A76D1"/>
<path d="M11.3605 19.0921C11.4646 19.2766 11.6377 19.393 11.8266 19.3931C11.8552 19.3931 11.884 19.3904 11.9131 19.385C12.2234 19.3264 12.4365 18.9691 12.3891 18.5867L12.2416 17.398C12.1867 17.363 12.1324 17.3271 12.0791 17.2894C11.9503 17.1984 11.8274 17.099 11.7095 16.9932V18.2655C11.7095 18.6034 11.5735 18.9078 11.3605 19.0921Z" fill="#1A76D1"/>
<path d="M11.995 15.4111C11.9616 15.1422 11.8079 14.9303 11.6081 14.8509C11.6726 14.9952 11.7095 15.1608 11.7095 15.3368V16.5719C11.8593 16.7228 12.0199 16.8601 12.1901 16.9832L11.995 15.4111Z" fill="#1A76D1"/>
<path d="M5.42176 16.6174V18.2653C5.42176 18.7052 5.67846 19.0705 6.01717 19.148V19.5H7.18363V19.1638H9.85675V19.5H11.0232V19.148C11.3619 19.0705 11.6186 18.7051 11.6186 18.2653V16.9095C11.0873 16.4037 10.6771 15.7475 10.4144 14.9774C10.3118 14.9884 10.2103 14.9944 10.1105 14.9944H10.1096H10.104C9.40742 14.9944 8.87902 14.7281 8.50934 14.4381H7.24632L6.61086 10.5227C6.53202 10.0362 6.19208 9.70971 5.85195 9.79342L4.98957 10.0062C4.64935 10.09 4.43758 10.5526 4.5165 11.0392L5.42176 16.6174Z" fill="#1A76D1"/>
<path d="M8.18852 11.8957C8.72952 11.6957 9.0365 10.9929 8.87417 10.3262C8.71185 9.6594 8.14168 9.28107 7.60067 9.48116C7.05967 9.68124 6.75269 10.384 6.91502 11.0507C7.07734 11.7175 7.64751 12.0958 8.18852 11.8957Z" fill="#1A76D1"/>
<path d="M17.6668 16.9804C17.3468 17.2507 16.9822 17.4754 16.5907 17.6498H18.2393V16.3889C18.0718 16.6016 17.8808 16.7997 17.6668 16.9804Z" fill="#1A76D1"/>
<path d="M11.0664 14.8403C10.9423 14.879 10.8191 14.9104 10.6973 14.9346C10.9149 15.5376 11.2272 16.0568 11.6186 16.478V15.3367C11.6186 15.0482 11.5079 14.7922 11.3365 14.6278C11.3651 14.6089 11.3932 14.589 11.4208 14.5683C11.8705 14.2328 12.1764 13.6751 12.3782 13.0407C12.7086 12.0076 12.7777 10.7636 12.7779 9.88958C12.7779 9.44253 12.7597 9.09252 12.7482 8.91752H12.838C12.8903 8.91752 12.9328 8.86518 12.9328 8.80074C12.9328 8.75955 12.9153 8.72347 12.8891 8.70268C12.8744 8.69096 12.8569 8.68396 12.838 8.68396H12.8039V8.59066H13.2122C13.3126 8.59066 13.394 8.4903 13.394 8.36651V6.57335C13.394 6.44956 13.3126 6.3492 13.2122 6.3492H12.9039C12.9099 6.31373 12.9139 6.27602 12.9167 6.23713C12.9193 6.20306 12.9211 6.16826 12.9214 6.13206C12.9214 6.10729 12.9201 6.08348 12.9189 6.05961H13.5467V8.13828H13.485V8.36651C13.485 8.53126 13.3883 8.66844 13.2612 8.69702V15.7046C13.2083 15.8276 13.1457 15.9528 13.071 16.0675C12.8954 16.337 12.6629 16.5449 12.3556 16.545C12.3142 16.5453 12.2711 16.5414 12.2264 16.5334L12.2406 16.6478C12.2798 16.6536 12.3182 16.6568 12.3556 16.657C12.7807 16.6562 13.0724 16.3002 13.2612 15.9296V17.5273C13.4132 17.5769 13.5696 17.6177 13.7302 17.6498H15.4952C16.2454 17.5042 16.9519 17.1771 17.5126 16.7031C17.7547 16.4983 18.0159 16.228 18.2394 15.8849V12.5692H18.4644V10.7574H18.2394V8.52C18.3508 8.53373 18.4848 8.58203 18.5992 8.71719C18.7201 8.85997 18.8238 9.10479 18.8511 9.52467H18.7044C18.6542 9.52467 18.6134 9.57483 18.6134 9.63675V9.86089H18.4846C18.4344 9.86089 18.3937 9.91105 18.3937 9.97297V10.1036C18.3937 10.1656 18.4344 10.2157 18.4846 10.2157H18.6134V13.2977H18.4846C18.4344 13.2977 18.3937 13.3479 18.3937 13.4098V13.5406C18.3937 13.6024 18.4344 13.6527 18.4846 13.6527H18.6134V13.9328C18.6134 13.9947 18.6542 14.0449 18.7044 14.0449H18.7992H18.8902C18.8625 15.1998 18.3428 16.1368 17.564 16.7955C16.7641 17.4718 15.6917 17.8482 14.6156 17.8479C12.9659 17.8471 11.3162 16.9674 10.6039 14.9515C10.5723 14.9568 10.5409 14.9614 10.5095 14.9658C11.2332 17.0527 12.9321 17.9602 14.6129 17.9602C14.6138 17.9602 14.6147 17.9602 14.6156 17.9602C15.7088 17.96 16.797 17.5793 17.6155 16.8879C18.4122 16.2155 18.9537 15.2427 18.9812 14.045H19.0721H19.1893C19.2395 14.045 19.2803 13.9948 19.2803 13.9329V13.6527H19.4091C19.4593 13.6527 19.5 13.6025 19.5 13.5406V13.4098C19.5 13.3479 19.4593 13.2977 19.4091 13.2977H19.2803V10.2157H19.4091C19.4593 10.2157 19.5 10.1656 19.5 10.1036V9.97297C19.5 9.91105 19.4593 9.86089 19.4091 9.86089H19.2803V9.63675C19.2803 9.57483 19.2395 9.52467 19.1893 9.52467H18.9426C18.9149 9.08025 18.8038 8.80343 18.6621 8.63627C18.5259 8.47567 18.3667 8.42093 18.2394 8.40692V8.13828H13.8649V6.05972H14.6302C14.9188 6.05961 15.1529 5.77124 15.153 5.41524C15.153 5.36879 15.1225 5.33124 15.0848 5.33124C15.0472 5.33124 15.0167 5.36879 15.0167 5.41524C15.0162 5.67822 14.8435 5.8911 14.6302 5.89155H13.8649V4.69613C13.8649 4.58775 13.7935 4.5 13.7057 4.5C13.6178 4.5 13.5466 4.58775 13.5466 4.69613V5.89155H12.8987C12.8906 5.85065 12.8813 5.81148 12.8692 5.77679C12.8523 5.7286 12.8316 5.6864 12.8038 5.65256C12.7766 5.61916 12.7383 5.5926 12.6941 5.59271C12.6498 5.59254 12.6116 5.61916 12.5844 5.65256C12.5594 5.68433 12.5393 5.72378 12.5227 5.76827C12.4444 5.68114 12.395 5.55556 12.3947 5.4153C12.3947 5.36884 12.3642 5.3313 12.3266 5.3313C12.2889 5.3313 12.2584 5.36884 12.2584 5.4153C12.2584 5.63317 12.3463 5.82537 12.4806 5.94199C12.4722 6.00127 12.4675 6.06482 12.4668 6.13212C12.4669 6.16815 12.4684 6.20312 12.4709 6.23719C12.474 6.27641 12.479 6.31351 12.4852 6.34926H12.176C12.0756 6.34926 11.9942 6.44962 11.9942 6.5734V8.36657C11.9942 8.49035 12.0756 8.59072 12.176 8.59072H12.5842V8.68407H12.5501C12.5313 8.68407 12.5138 8.69108 12.499 8.70279C12.4729 8.72358 12.4555 8.75967 12.4555 8.80085C12.4555 8.86529 12.4979 8.91763 12.5501 8.91763H12.6572C12.6684 9.08641 12.6871 9.43698 12.6871 9.8897C12.6873 10.7562 12.6172 11.9902 12.2937 12.9997C12.0959 13.6138 11.8093 14.1414 11.3892 14.4615C11.3437 14.6421 11.2258 14.7907 11.0664 14.8403ZM14.7817 14.5594H13.8117V13.7647H14.7817V14.5594ZM13.7738 12.672C13.7738 12.3935 13.957 12.1677 14.183 12.1677C14.409 12.1677 14.5922 12.3935 14.5922 12.672C14.5922 12.9506 14.409 13.1763 14.183 13.1763C13.957 13.1763 13.7738 12.9506 13.7738 12.672ZM14.8302 12.927C14.7159 12.6867 14.7813 12.3777 14.9763 12.2369C15.1713 12.096 15.422 12.1767 15.5362 12.4171C15.6505 12.6573 15.5851 12.9663 15.3901 13.1071C15.1952 13.2479 14.9445 13.1674 14.8302 12.927ZM16.0547 14.5594H15.0847V13.7647H16.0547V14.5594ZM16.5089 12.9514C16.3837 13.1833 16.1297 13.2462 15.9415 13.0918C15.7534 12.9375 15.7024 12.6245 15.8276 12.3925C15.9529 12.1607 16.2069 12.0979 16.395 12.2522C16.5832 12.4065 16.6341 12.7195 16.5089 12.9514ZM17.7748 11.7194H13.7966V11.5233H17.7748V11.7194ZM17.7748 11.159H13.7966V10.9629H17.7748V11.159ZM17.6598 8.88323C17.7099 8.88323 17.7507 8.93355 17.7507 8.9953V10.3216C17.7507 10.3835 17.7099 10.4336 17.6598 10.4336H13.8407C13.7904 10.4336 13.7497 10.3835 13.7497 10.3216V8.9953C13.7497 8.93355 13.7904 8.88323 13.8407 8.88323H17.6598ZM12.6441 5.84336C12.6559 5.80918 12.6695 5.78475 12.6798 5.77248C12.6906 5.75987 12.694 5.76099 12.694 5.76082C12.694 5.76082 12.6972 5.75981 12.7082 5.77248C12.7243 5.78957 12.7425 5.83227 12.7572 5.89004C12.7159 5.88685 12.6763 5.87586 12.6395 5.85793C12.641 5.85306 12.6425 5.84796 12.6441 5.84336ZM12.6078 6.23713C12.6047 6.20356 12.6027 6.16854 12.6031 6.13206C12.603 6.09407 12.605 6.05753 12.6083 6.02285C12.6624 6.04621 12.7204 6.05961 12.7811 6.05961H12.7828C12.7843 6.08314 12.7852 6.10724 12.7849 6.13206C12.785 6.16848 12.7831 6.20362 12.7801 6.23713C12.7764 6.27781 12.7707 6.31552 12.7634 6.3492H12.625C12.6176 6.31552 12.6116 6.27781 12.6078 6.23713ZM12.1635 7.30182V6.84423C12.1635 6.78231 12.2042 6.73216 12.2544 6.73216H13.1335C13.1837 6.73216 13.2244 6.78231 13.2244 6.84423V7.30182C13.2244 7.36369 13.1837 7.41389 13.1335 7.41389H12.2544C12.2043 7.41389 12.1635 7.36369 12.1635 7.30182Z" fill="#1A76D1"/>
<path d="M14.6127 18.0722C14.4013 18.0722 14.1929 18.0576 13.9884 18.0301V18.7278H13.2611V19.4887H18.2393V18.7278H17.512V17.8273H16.1296C15.6446 17.9865 15.1309 18.072 14.6155 18.0721H14.6127V18.0722Z" fill="#1A76D1"/>
<path d="M14.183 12.9521C14.3083 12.9521 14.4104 12.8265 14.4104 12.672C14.4104 12.5336 14.3281 12.419 14.2209 12.3965V12.261H14.1527V12.3956C14.0418 12.4141 13.9557 12.5304 13.9557 12.672C13.9557 12.8265 14.0576 12.9521 14.183 12.9521Z" fill="#1A76D1"/>
<path d="M14.38 10.0788C14.5683 10.0788 14.721 9.89066 14.721 9.65854C14.721 9.42643 14.5683 9.23827 14.38 9.23827C14.1917 9.23827 14.039 9.42643 14.039 9.65854C14.039 9.89066 14.1917 10.0788 14.38 10.0788Z" fill="#1A76D1"/>
<path d="M17.3125 9.53706H14.9332V9.77981H17.3125V9.53706Z" fill="#1A76D1"/>
<path d="M8.75541 13.4156C8.61296 13.2732 8.50912 13.1302 8.44297 13.026C8.40983 12.9741 8.38623 12.9319 8.37177 12.9047C8.36459 12.8912 8.35968 12.8814 8.35709 12.8761C8.3564 12.8748 8.3559 12.8737 8.35554 12.8729C8.35527 12.8725 8.35509 12.872 8.35486 12.8715L8.35481 12.8715C8.25597 12.6573 8.03542 12.5816 7.86088 12.7022C7.68561 12.8232 7.62314 13.0964 7.72144 13.3124H7.72135C7.7369 13.3452 7.91189 13.7254 8.29703 14.1118C8.67893 14.4967 9.28385 14.8825 10.104 14.8825C10.1059 14.8825 10.1077 14.8825 10.1096 14.8825C10.3967 14.8826 10.7084 14.8363 11.0442 14.7317C11.2388 14.6711 11.3569 14.4272 11.3077 14.1873C11.2585 13.9472 11.0606 13.8018 10.8659 13.8625C10.5842 13.9501 10.3333 13.9859 10.1096 13.9859C9.47153 13.9842 9.0427 13.7004 8.75541 13.4156Z" fill="#1A76D1"/>
<path d="M15.3793 12.5304C15.3225 12.4109 15.2046 12.3633 15.1029 12.4108L15.0473 12.2938L14.9884 12.3364L15.0436 12.4525C14.9555 12.5377 14.929 12.6916 14.9871 12.8137C15.0505 12.947 15.1899 12.9919 15.2982 12.9138C15.4063 12.8355 15.4427 12.6636 15.3793 12.5304Z" fill="#1A76D1"/>
<path d="M16.3236 12.4685L16.3846 12.3557L16.3278 12.3092L16.2673 12.4212C16.1666 12.3608 16.0428 12.3988 15.979 12.5168C15.9096 12.6453 15.938 12.8195 16.0424 12.9052C16.1467 12.9908 16.2881 12.9558 16.3575 12.8272C16.4197 12.712 16.4028 12.5604 16.3236 12.4685Z" fill="#1A76D1"/>
<circle cx="12" cy="12" r="11.95" stroke="#1A76D1" stroke-width="0.1"/>
</svg>
