<svg width="24" height="24" viewBox="0 0 24 24" fill="none" xmlns="http://www.w3.org/2000/svg">
<path d="M13.5376 13.4917C13.2979 14.3927 13.1912 15.443 13.1682 16.5959C13.1419 17.8719 13.2207 19.2782 13.3406 20.7475C13.3505 20.8779 13.2404 20.9907 13.0943 20.9995C12.9482 21.0082 12.8218 20.9101 12.8103 20.7797C12.6904 19.306 12.6116 17.888 12.6379 16.5871C12.6641 15.3229 12.7873 14.1759 13.0697 13.2046C12.5738 12.8135 12.2192 12.2041 12.0008 11.3837C11.7825 12.2041 11.4278 12.8135 10.932 13.2046C11.2127 14.1759 11.3375 15.3229 11.3638 16.5871C11.39 17.888 11.3112 19.306 11.1914 20.7797C11.1815 20.9101 11.0535 21.0082 10.9073 20.9995C10.7612 20.9907 10.6512 20.8764 10.661 20.7475C10.7809 19.2782 10.8597 17.8719 10.8334 16.5959C10.8105 15.443 10.7021 14.3927 10.464 13.4917C9.47232 13.9459 8.09477 13.7335 6.30676 12.812C6.18034 12.7461 6.13765 12.6025 6.20989 12.4883C6.28377 12.3755 6.44468 12.3374 6.57275 12.4018C8.34927 13.3174 9.63158 13.4815 10.4542 12.9424C11.2981 12.3916 11.7151 11.1025 11.7365 9.13068V9.12775V9.12336V9.11896V9.11457V9.1131V9.11017V9.10871V9.10431V9.10139V9.09992V9.09699V9.09553V9.09406V9.0926V9.08967V9.0882V9.08527L11.7381 9.08088L11.7398 9.07648V9.07355L11.7414 9.06916V9.06769L11.743 9.0633L11.7447 9.0589V9.05744L11.7463 9.05597V9.05451L11.748 9.05158V9.05011L11.7496 9.04572V9.04425L11.7513 9.04132L11.7529 9.03986L11.7545 9.03693L11.7562 9.03546L11.7578 9.03253L11.7595 9.03107V9.0296L11.7611 9.02667V9.02521C11.7627 9.02228 11.7644 9.01935 11.7677 9.01642L11.771 9.01203V9.01056L11.7742 9.00617V9.0047L11.7775 9.00031L11.7792 8.99738L11.7808 8.99445L11.7825 8.99298L11.7841 8.99152L11.7857 8.99005L11.789 8.98712L11.7923 8.98419L11.7939 8.98273V8.98126L11.7972 8.97833L11.8005 8.9754L11.8038 8.97247L11.8054 8.97101L11.8071 8.96954L11.8104 8.96661L11.812 8.96515L11.8136 8.96368L11.8169 8.96075L11.8202 8.95782L11.8235 8.95489H11.8251L11.8268 8.95343L11.8301 8.9505L11.8333 8.94757L11.835 8.9461L11.8366 8.94464L11.8383 8.94317L11.8416 8.94171L11.8448 8.94024L11.8498 8.93731H11.8514L11.8563 8.93438H11.858L11.8629 8.93145C11.8662 8.92999 11.8695 8.92852 11.8728 8.9256H11.8744L11.8777 8.92413H11.8793L11.881 8.92267L11.8842 8.9212L11.8859 8.91974L11.8892 8.91827L11.8908 8.91681L11.8941 8.91534H11.8957L11.9007 8.91388H11.9023L11.9056 8.91241H11.9072L11.9089 8.91095H11.9105L11.9154 8.90948L11.9204 8.90802H11.922L11.9269 8.90655H11.9302L11.9351 8.90509L11.9401 8.90362L11.9434 8.90216H11.945H11.9483H11.9499H11.9532H11.9548H11.9581H11.9598H11.9631H11.968H11.9696H11.9729H11.9746H11.9795H11.9844H11.986H11.991H11.9926H11.9943H11.9992H12.0008H12.0025H12.0074H12.009H12.0123H12.0172H12.0189H12.0222H12.0238H12.0287H12.032H12.0337H12.0369H12.0386H12.0402H12.0419H12.0452H12.0468L12.0501 8.90362L12.055 8.90509L12.0599 8.90655H12.0632L12.0681 8.90802H12.0698L12.0747 8.90948L12.0796 8.91095H12.0813L12.0829 8.91241H12.0846L12.0878 8.91388H12.0895L12.0944 8.91534H12.0961L12.0993 8.91681L12.101 8.91827L12.1043 8.91974L12.1059 8.9212L12.1092 8.92267L12.1108 8.92413H12.1125L12.1158 8.9256H12.1174C12.1207 8.92706 12.124 8.92853 12.1272 8.93145L12.1322 8.93438H12.1338L12.1387 8.93731H12.1404L12.1453 8.94024L12.1486 8.94171H12.1502L12.1535 8.94317L12.1552 8.94464L12.1568 8.9461L12.1584 8.94757L12.1617 8.9505L12.165 8.95343L12.1667 8.95489H12.1683L12.1716 8.95782L12.1749 8.96075L12.1781 8.96368L12.1798 8.96515L12.1814 8.96661L12.1847 8.96954L12.1864 8.97101L12.188 8.97247L12.1946 8.97394L12.1978 8.97687L12.2011 8.9798V8.98126L12.2028 8.98273L12.2061 8.98566L12.2093 8.98859L12.211 8.99005L12.2126 8.99152L12.2143 8.99298L12.2159 8.99591L12.2176 8.99884L12.2208 9.00324V9.0047L12.2241 9.0091V9.01056L12.2274 9.01496C12.229 9.01789 12.2307 9.02081 12.234 9.02374V9.02521L12.2356 9.02814V9.0296L12.2373 9.03107L12.2389 9.034L12.2405 9.03546L12.2422 9.03839L12.2438 9.03986L12.2455 9.04279V9.04425L12.2471 9.04865V9.05011L12.2487 9.05304V9.05451V9.05597V9.05744L12.2504 9.06183L12.252 9.06623V9.06769L12.2537 9.07209V9.07502L12.2553 9.07941L12.257 9.08381V9.08674V9.0882V9.09113V9.0926V9.09406V9.09553V9.09846V9.09992V9.10285V9.10724V9.10871V9.11164V9.1131V9.1175V9.12189V9.12336V9.12775V9.13068C12.2799 11.1025 12.697 12.3916 13.5393 12.9424C14.3619 13.48 15.6458 13.3174 17.4207 12.4018C17.5471 12.3359 17.7097 12.3755 17.7835 12.4883C17.8574 12.6011 17.8131 12.7461 17.6867 12.812C15.9052 13.7349 14.5277 13.9459 13.5376 13.4917ZM10.9746 4.50887L12.0337 5.11827L12.5377 3L13.0861 6.22575L12.0731 5.72475L11.6478 7.87818L10.9746 4.50887ZM6.80261 7.29954L8.12269 7.35227L7.24099 5.18419L9.77442 7.82398L8.54301 7.87964L9.4953 10.0301L6.80261 7.29954ZM14.8495 5.62806L15.4455 6.71357L17.199 4.93809L15.7837 8.27078L15.1204 7.30979L13.4703 9.15852L14.8495 5.62806ZM5.3676 4.39753C5.43985 4.28473 5.60075 4.24372 5.72718 4.30817C5.85524 4.37263 5.89957 4.51619 5.82733 4.62899C4.31351 7.01681 3.53033 9.53061 3.52869 12.1777C3.52705 14.8307 4.31023 17.6243 5.93077 20.5673C5.9948 20.6845 5.94062 20.8251 5.80927 20.8823C5.67792 20.9394 5.5203 20.891 5.45462 20.7739C3.79796 17.7649 2.99836 14.9025 3 12.1777C3.00164 9.44564 3.80945 6.85567 5.3676 4.39753ZM18.1727 4.62899C18.1004 4.51619 18.1464 4.37116 18.2728 4.30817C18.3993 4.24372 18.5618 4.28473 18.6324 4.39753C20.1905 6.85713 20.9984 9.44711 21 12.1777C21.0016 14.9025 20.202 17.7649 18.5437 20.7753C18.4797 20.8925 18.3204 20.9409 18.1891 20.8837C18.0577 20.8266 18.0036 20.6845 18.0676 20.5688C19.6881 17.6257 20.4713 14.8321 20.4697 12.1792C20.4697 9.52914 19.6848 7.01681 18.1727 4.62899Z" fill="#1A76D1"/>
<circle cx="12" cy="12" r="11.95" stroke="#1A76D1" stroke-width="0.1"/>
</svg>
