<svg width="24" height="24" viewBox="0 0 24 24" fill="none" xmlns="http://www.w3.org/2000/svg">
<path fill-rule="evenodd" clip-rule="evenodd" d="M10.174 6.11691C9.33553 5.79607 8.27067 5.11808 8.51931 3.75H6.62921C6.59815 6.65281 7.9425 6.47827 9.62404 8.18351C14.4158 13.0433 4.74351 12.8242 5.17386 15.0327C5.05426 16.8393 3.08441 17.221 3.98499 20.2498L5.56014 19.6325C5.23177 17.9841 5.37381 17.6959 6.50078 17.2902C8.25304 19.2468 10.7466 19.2064 12.9915 18.2076C12.894 17.9438 12.8318 17.6636 12.8006 17.3793C11.6382 17.9397 10.4359 18.2034 9.41547 18.0046C7.75618 17.7408 5.16525 15.7147 7.28135 14.2247C9.13158 13.5345 10.2894 12.978 10.7508 12.5639C11.536 11.8778 12.2771 11.7438 12.9691 12.1743C13.8388 12.3325 14.4509 12.1662 14.8147 11.6787C15.813 10.8385 16.7224 10.8221 17.5477 11.6259C17.5345 12.2146 17.3525 12.8238 17.0464 13.4287C17.3435 13.4488 17.6364 13.4976 17.9113 13.5786C20.6273 7.53394 13.1688 3.15323 10.6134 6.259C10.5515 6.33215 10.4938 6.40934 10.4403 6.49037C10.285 6.71772 10.1566 6.98172 10.0588 7.28222C10.0187 7.39185 9.89471 7.45272 9.7747 7.42009C9.6595 7.38745 9.59298 7.27378 9.62845 7.16433C9.73944 6.82735 9.8857 6.53089 10.0588 6.27092C10.0943 6.2183 10.1343 6.1655 10.174 6.11691ZM16.7405 13.8309C18.6795 13.8309 20.25 15.2681 20.25 17.0384C20.25 18.8126 18.6795 20.25 16.7405 20.25C14.8061 20.25 13.2355 18.8126 13.2355 17.0384C13.2355 15.2681 14.8061 13.8309 16.7405 13.8309ZM16.2346 15.4874H17.2508V16.5757H18.4398V17.5012H17.2508V18.5935H16.2346V17.5012H15.0455V16.5757H16.2346V15.4874ZM15.6269 12.6047C15.8976 12.5479 16.1681 12.7063 16.2302 12.9538C16.2967 13.2015 16.1238 13.4492 15.8531 13.506C15.5778 13.5629 15.3074 13.4087 15.2451 13.161C15.1831 12.9091 15.3563 12.6616 15.6269 12.6047ZM8.94525 15.4306C9.42449 15.333 9.89912 15.6053 10.0099 16.0436C10.1163 16.4822 9.81918 16.9206 9.33994 17.0181C8.8607 17.1195 8.38167 16.8436 8.27528 16.4052C8.16429 15.9665 8.46602 15.5321 8.94525 15.4306ZM12.9426 14.7606C13.1732 14.7119 13.3996 14.7485 13.5904 14.8499C13.2355 15.2764 12.9781 15.7796 12.8627 16.3238C12.5744 16.2385 12.3436 16.0233 12.2727 15.7351C12.1619 15.2967 12.4634 14.858 12.9426 14.7606ZM11.2168 13.2827C11.4873 13.2261 11.758 13.3843 11.8201 13.6318C11.8822 13.8797 11.7135 14.1314 11.4384 14.1882C11.1679 14.2451 10.8973 14.0867 10.8352 13.839C10.773 13.5874 10.9417 13.3396 11.2168 13.2827Z" fill="#1A76D1"/>
<circle cx="12" cy="12" r="11.95" stroke="#1A76D1" stroke-width="0.1"/>
</svg>
