<svg width="24" height="24" viewBox="0 0 24 24" fill="none" xmlns="http://www.w3.org/2000/svg">
<path d="M4.47793 18.1664L3.75 17.9125C3.99641 16.6778 4.37824 14.7062 4.41774 14.3304C4.46289 13.9022 4.62841 12.8517 5.17201 12.314C5.44287 12.0451 5.7758 11.9381 6.13318 12.0078C6.4774 12.075 6.58085 11.9804 6.77083 11.8087C6.99654 11.6045 7.3069 11.3232 7.95207 11.3631C9.12391 11.4353 9.60168 12.1696 10.0625 12.8791L10.1152 12.9587C10.2995 13.24 10.7114 13.4317 11.0933 13.4143C11.2682 13.4068 11.588 13.3471 11.7629 13.0409C12.1617 12.3389 12.156 12.07 12.1485 11.622L12.1466 11.5722C12.1447 11.4701 12.1335 11.3183 12.1184 11.144C12.0676 10.4868 11.9886 9.49606 12.2294 8.65715C12.2407 8.61732 12.2482 8.58745 12.252 8.56505C12.2219 8.54015 12.1767 8.50779 12.1391 8.4829C11.919 8.32856 11.5485 8.07216 11.3924 7.39257C11.1629 6.39932 10.9936 5.84171 10.9936 5.83673L11.6914 5.46582C11.699 5.49071 11.872 6.06326 12.1128 7.10132C12.1748 7.37265 12.2915 7.46227 12.4908 7.60167C12.6357 7.70125 12.7974 7.81575 12.9084 8.0398C13.1003 8.43311 12.9761 8.86626 12.9347 9.00815C12.7579 9.6255 12.8256 10.4744 12.8689 11.037C12.884 11.2336 12.8971 11.4054 12.9009 11.5448V11.5946C12.9141 12.2368 12.8821 12.7247 12.3667 13.6358C12.0977 14.1088 11.6557 14.3826 11.1215 14.4075C10.5027 14.4374 9.8857 14.1212 9.54901 13.6084L9.49446 13.5263C9.0562 12.8542 8.76653 12.4086 7.91821 12.3563C7.52509 12.3314 7.38778 12.4559 7.19781 12.6276C6.95892 12.8442 6.66173 13.1131 6.02597 12.9911C5.8642 12.9612 5.7363 12.9986 5.62344 13.1081C5.36387 13.3645 5.21527 13.9794 5.1626 14.4673C5.10429 15.0249 4.54189 17.8478 4.47793 18.1664Z" fill="#1A76D1"/>
<path d="M12.3253 20.25C9.97035 20.25 8.27936 18.5348 7.76586 17.7532C7.42728 17.2379 7.38778 17.1582 7.30314 16.9541C7.26552 16.8645 7.21662 16.745 7.08307 16.4787C7.05485 16.4239 7.02852 16.3691 7.00219 16.3144C6.93071 16.17 6.84042 15.9907 6.76707 15.8638C6.56204 16.399 6.18961 17.8851 5.98835 18.7664L5.26794 18.4776C5.32813 18.2137 5.86797 15.8762 6.17456 15.229C6.32692 14.9054 6.51502 14.7386 6.73509 14.7361C6.73697 14.7361 6.74073 14.7361 6.74261 14.7361C7.11692 14.7361 7.34264 15.1917 7.63043 15.7692C7.65676 15.8215 7.6831 15.8737 7.70943 15.9285C7.85991 16.2297 7.92198 16.3766 7.96336 16.4762C8.01603 16.6056 8.03295 16.6429 8.33391 17.101C8.55022 17.4296 9.15777 18.1216 10.0606 18.6344C11.1572 19.2543 12.3046 19.4136 13.4746 19.1024C15.98 18.4403 17.9043 16.2123 18.8918 12.8293C19.6592 10.1981 19.5087 9.19734 19.4354 8.7169C19.4203 8.61235 19.4071 8.52522 19.4015 8.43063C19.3977 8.3659 19.3582 7.80829 19.1739 7.13617C18.9783 6.42173 18.6999 5.87159 18.35 5.49819C17.5092 4.60949 16.6252 4.70907 15.6885 4.81362C15.0565 4.88581 14.3229 6.18275 14.116 6.63083L13.9223 7.04904L13.6025 6.79762C12.8877 6.23503 12.5153 4.59207 12.4758 4.40786L13.2 4.13403C13.2902 4.54726 13.4915 5.19947 13.7323 5.61518C13.8282 5.44591 13.9486 5.24676 14.0859 5.04762C14.6088 4.28837 15.1279 3.87514 15.6245 3.82037C16.6196 3.70835 17.7462 3.5814 18.8203 4.71902C19.2811 5.20693 19.6385 5.90644 19.8811 6.79513C20.0956 7.57678 20.1426 8.2265 20.1501 8.35097V8.35346C20.152 8.38582 20.1614 8.45054 20.1727 8.52024C20.2592 9.09279 20.4379 10.2827 19.5915 13.1853C19.0761 14.9502 18.3312 16.4338 17.3757 17.5914C16.3318 18.8585 15.0678 19.6924 13.6213 20.0757C13.1699 20.1977 12.7372 20.25 12.3253 20.25Z" fill="#1A76D1"/>
<path d="M17.8553 14.2333C17.0936 14.2333 16.2659 13.9769 15.1881 13.4441C13.8997 12.8044 12.9874 13.011 12.4513 13.2973L12.1711 12.3737C12.8313 12.0227 13.9373 11.7589 15.4534 12.5106C17.0296 13.2923 17.9532 13.4217 18.9858 13.0035L19.2059 13.9569C18.7545 14.1412 18.3181 14.2333 17.8553 14.2333Z" fill="#1A76D1"/>
<path d="M13.6307 15.7642C13.2978 15.7642 13.0269 15.4058 13.0269 14.9651C13.0269 14.5245 13.2978 14.1661 13.6307 14.1661C13.9636 14.1661 14.2345 14.5245 14.2345 14.9651C14.2345 15.4058 13.9636 15.7642 13.6307 15.7642ZM13.6307 14.7685C13.5479 14.7685 13.4821 14.8556 13.4821 14.9651C13.4821 15.0747 13.5479 15.1618 13.6307 15.1618C13.7135 15.1618 13.7793 15.0747 13.7793 14.9651C13.7793 14.8556 13.7135 14.7685 13.6307 14.7685Z" fill="#1A76D1"/>
<path d="M10.3898 17.4146C10.0569 17.4146 9.78602 17.0562 9.78602 16.6156C9.78602 16.175 10.0569 15.8165 10.3898 15.8165C10.7227 15.8165 10.9936 16.175 10.9936 16.6156C10.9936 17.0562 10.7227 17.4146 10.3898 17.4146ZM10.3898 16.4189C10.307 16.4189 10.2412 16.506 10.2412 16.6156C10.2412 16.7251 10.307 16.8122 10.3898 16.8122C10.4726 16.8122 10.5384 16.7251 10.5384 16.6156C10.5384 16.506 10.4726 16.4189 10.3898 16.4189Z" fill="#1A76D1"/>
<path d="M13.1059 17.5565C13.1059 17.8602 12.9197 18.1067 12.6902 18.1067C12.4607 18.1067 12.2745 17.8602 12.2745 17.5565C12.2745 17.2528 12.4607 17.0064 12.6902 17.0064C12.9197 17.0064 13.1059 17.2528 13.1059 17.5565Z" fill="#1A76D1"/>
<path d="M8.85682 14.3677C8.85682 14.6714 8.6706 14.9178 8.44113 14.9178C8.21165 14.9178 8.02543 14.6714 8.02543 14.3677C8.02543 14.064 8.21165 13.8176 8.44113 13.8176C8.6706 13.8176 8.85682 14.064 8.85682 14.3677Z" fill="#1A76D1"/>
<path d="M16.0421 16.0604C16.0421 16.3641 15.8559 16.6106 15.6264 16.6106C15.3969 16.6106 15.2107 16.3641 15.2107 16.0604C15.2107 15.7567 15.3969 15.5103 15.6264 15.5103C15.8559 15.5103 16.0421 15.7567 16.0421 16.0604Z" fill="#1A76D1"/>
<circle cx="12" cy="12" r="11.95" stroke="#1A76D1" stroke-width="0.1"/>
</svg>
