<svg width="24" height="24" viewBox="0 0 24 24" fill="none" xmlns="http://www.w3.org/2000/svg">
<path d="M9.63732 9.6895C9.34934 9.6895 9.11563 9.88121 9.11563 10.1179C9.11563 10.3543 9.34934 10.5462 9.63732 10.5462C9.92531 10.5462 10.159 10.3543 10.159 10.1179C10.159 9.88121 9.92531 9.6895 9.63732 9.6895ZM8.33402 9.17577C8.22429 9.22884 8.18795 9.34462 8.25259 9.43452C8.29537 9.49421 8.3722 9.52745 8.45064 9.52745C8.4902 9.52745 8.53069 9.51914 8.56703 9.5012C9.6456 8.97877 10.364 9.20599 10.6966 9.38749C10.8022 9.44529 10.9445 9.42187 11.0156 9.33518C11.0862 9.24848 11.0575 9.131 10.9519 9.07321C10.6124 8.88717 9.67643 8.52491 8.33402 9.17577ZM15.1553 15.7439H14.2375V15.236C15.5494 14.53 16.696 13.3705 16.696 12.315V12.0502H16.8317C17.6414 12.0502 18.0187 11.4729 18.0187 10.2327C18.0187 9.82908 17.6193 9.50082 17.1273 9.50082H16.696V6.83392C16.696 5.52521 14.6334 4.5 11.9999 4.5C9.36636 4.5 7.30328 5.52521 7.30328 6.83392V9.50082H6.87245C6.38089 9.50082 5.98112 9.82908 5.98112 10.2327C5.98112 11.4727 6.35858 12.0502 7.16803 12.0502H7.30328V12.3154C7.30328 13.3705 8.44972 14.5302 9.76177 15.236V15.7439H8.84444C6.44898 15.7439 4.5 17.3442 4.5 19.3111C4.5 19.4156 4.60282 19.5 4.73002 19.5H19.27C19.3972 19.5 19.5 19.4156 19.5 19.3111C19.4995 17.3442 17.5508 15.7439 15.1553 15.7439ZM16.6958 10.4594H16.7857C16.8485 10.4594 16.8706 10.4631 16.8706 10.5368C16.8706 10.58 16.8639 10.6488 16.8639 10.6488C16.8541 10.7529 16.9525 10.8524 17.0935 10.8524C17.2127 10.8524 17.3132 10.7772 17.3226 10.6783C17.3226 10.6783 17.3307 10.5965 17.3307 10.5368C17.3307 10.2646 17.1119 10.0816 16.7857 10.0816H16.6958V9.87838H17.1271C17.3647 9.87838 17.5584 10.0372 17.5584 10.2325C17.5584 11.6723 17.03 11.6723 16.831 11.6723H16.6958V10.4594ZM7.30259 10.0816H7.21312C6.88694 10.0816 6.66773 10.2646 6.66773 10.5368C6.66773 10.5963 6.67624 10.6783 6.67624 10.6783C6.68567 10.7772 6.78642 10.8524 6.90535 10.8524C7.03968 10.8524 7.1448 10.7529 7.13491 10.6488C7.13491 10.6488 7.12778 10.58 7.12778 10.5368C7.12778 10.4622 7.15239 10.4594 7.21312 10.4594H7.30259V11.6723H7.16734C6.96883 11.6723 6.44047 11.6723 6.44047 10.2325C6.44047 10.0372 6.63415 9.87838 6.87176 9.87838H7.30259V10.0816ZM9.76154 19.1223H7.31249C7.35067 18.7715 7.49397 18.4349 7.73527 18.1407C7.80634 18.054 7.77805 17.9367 7.67293 17.8783C7.56735 17.8198 7.42451 17.8432 7.35343 17.9297C7.06107 18.2871 6.88924 18.6958 6.85014 19.1221H4.96672C5.08633 17.4507 6.77952 16.1212 8.84375 16.1212H9.76154V19.1223ZM11.0108 5.79624H11.6546V5.26796H12.3447V5.79624H12.9885V6.36286H12.3447V6.89115H11.6546V6.36286H11.0108V5.79624ZM7.76264 11.8631C7.76264 11.8623 7.7631 11.8619 7.7631 11.8612V9.6895C7.7631 9.68894 7.76264 9.68837 7.76264 9.68762V9.59186C7.76264 8.5132 9.66355 7.63569 11.9992 7.63569C14.3353 7.63569 16.2358 8.5132 16.2358 9.59186V12.0404L12.8047 10.9623V9.7626C12.8047 9.65834 12.7019 9.57372 12.5747 9.57372C12.4475 9.57372 12.3447 9.65834 12.3447 9.7626V10.8178L12.0818 10.7351C12.0289 10.7185 11.9704 10.7185 11.9173 10.7351L7.76264 12.0408V11.8631ZM7.76931 12.4425L11.9997 11.1138L16.2295 12.4431C16.0853 13.871 13.5866 15.5204 11.9992 15.5204C10.4125 15.5202 7.91353 13.8706 7.76931 12.4425ZM13.7775 15.9594C13.7775 16.7643 12.98 17.4192 11.9997 17.4192C11.0193 17.4192 10.2218 16.7642 10.2218 15.9594V15.4617C10.8351 15.734 11.4591 15.8982 11.9997 15.8982C12.5402 15.8982 13.164 15.7344 13.7775 15.4617V15.9594ZM17.1496 19.1223C17.1101 18.6956 16.938 18.2867 16.6457 17.9299C16.5746 17.8434 16.4317 17.8205 16.3261 17.8787C16.221 17.9371 16.1932 18.0544 16.2638 18.1411C16.5056 18.4355 16.6489 18.7715 16.6871 19.1226H14.2378V16.1216H15.1556C17.22 16.1216 18.9137 17.4511 19.0326 19.1223H17.1496ZM13.302 9.38749C13.6344 9.2058 14.3523 8.97877 15.4311 9.50101C15.4675 9.51876 15.508 9.52726 15.548 9.52726C15.6267 9.52726 15.7035 9.49402 15.746 9.43433C15.8102 9.34443 15.7739 9.22865 15.6646 9.17558C14.3222 8.52509 13.3865 8.88717 13.0467 9.07302C12.9411 9.13081 12.9124 9.2481 12.983 9.33499C13.0532 9.42168 13.1955 9.44491 13.302 9.38749ZM14.3611 9.6895C14.0731 9.6895 13.8394 9.88121 13.8394 10.1179C13.8394 10.3543 14.0731 10.5462 14.3611 10.5462C14.6495 10.5462 14.8828 10.3543 14.8828 10.1179C14.8825 9.88121 14.6495 9.6895 14.3611 9.6895Z" fill="#1A76D1"/>
<circle cx="12" cy="12" r="11.95" stroke="#1A76D1" stroke-width="0.1"/>
</svg>
