<svg width="24" height="24" viewBox="0 0 24 24" fill="none" xmlns="http://www.w3.org/2000/svg">
<path d="M17.6029 11.4954C18.2104 10.7386 18.404 10.5639 18.6757 10.1133L20.735 10.1125C20.8809 10.1125 21 9.97834 21 9.81212C21 9.64675 20.8816 9.51175 20.735 9.51175H18.981C19.3183 8.71525 19.4448 7.81748 19.3391 6.93161C19.319 6.76708 19.1857 6.65232 19.0413 6.67511C18.8961 6.69789 18.7949 6.84893 18.815 7.01261C18.9192 7.87915 18.7666 8.76002 18.3847 9.51175H15.8513L14.0765 6.351C13.9558 6.13669 13.6685 6.17887 13.6007 6.42188L12.2175 11.3873L10.6519 7.58526C10.5611 7.36505 10.2886 7.35239 10.1822 7.56332L9.19947 9.51239H5.61554C4.81076 7.93035 5.07207 5.91294 6.26322 4.65733C7.68143 3.16134 9.88431 3.2761 11.1826 4.85814L11.8049 5.61667C11.9099 5.74492 12.0886 5.74408 12.1928 5.61667L12.8159 4.85814C14.2304 3.13518 16.6709 3.18076 18.0294 5.0058C18.1239 5.13236 18.2907 5.14839 18.4023 5.04123C18.514 4.93408 18.5281 4.74507 18.4336 4.61852C16.8776 2.52853 14.0666 2.45267 12.4272 4.44892L11.9983 4.97121L11.571 4.44977C10.0746 2.62725 7.5375 2.49478 5.90267 4.21774C4.60432 5.5863 4.26559 7.7405 5.01824 9.51236H3.26503C3.11911 9.51236 3 9.64652 3 9.81274C3 9.97811 3.11837 10.1131 3.26503 10.1131H5.32428C5.62804 10.616 5.52081 10.4025 9.66083 15.471C10.4008 16.3722 11.4788 16.7814 12.5426 16.573C12.594 17.329 12.8017 18.0597 13.1516 18.7051C13.2283 18.8461 13.3913 18.8908 13.5157 18.8039C13.64 18.717 13.6795 18.5322 13.6028 18.3913C13.2469 17.7348 13.0593 16.9771 13.0586 16.1999C13.0586 13.8837 14.721 11.9998 16.7645 11.9998C18.8266 11.9998 20.4704 13.9168 20.4704 16.1999C20.4704 18.5161 18.808 20.4001 16.7645 20.4001C16.157 20.4001 15.5547 20.2296 15.0224 19.9082C14.8936 19.8297 14.7328 19.8854 14.6643 20.0314C14.5958 20.1773 14.6442 20.3596 14.773 20.4372C15.3812 20.8051 16.0699 21 16.7644 21C19.0998 21 20.9998 18.8467 20.9998 16.1998C20.9998 13.8804 19.5458 11.9364 17.6028 11.4951L17.6029 11.4954ZM12.5346 15.9647C11.6248 16.1756 10.6875 15.8398 10.0488 15.0627C5.84106 9.9344 6.09187 10.2474 5.98991 10.1124H9.35276C9.44805 10.1124 9.53515 10.055 9.58279 9.96135L10.3883 8.36413L12.0254 12.339C12.1266 12.5854 12.4453 12.5634 12.5175 12.3027L13.9349 7.21652L15.4827 9.974C15.5311 10.0609 15.6152 10.1132 15.706 10.1132H18.0102C17.9119 10.2432 17.9514 10.1883 16.953 11.4059C14.6192 11.2877 12.6478 13.3407 12.5346 15.9647Z" fill="#1A76D1"/>
<path d="M18.3506 16.1999C18.3506 16.3653 18.4689 16.5003 18.6156 16.5003H19.6742C19.8201 16.5003 19.9392 16.3661 19.9392 16.1999C19.9392 14.2163 18.5143 12.5996 16.7626 12.5996C15.0123 12.5996 13.5859 14.2137 13.5859 16.1999C13.5859 16.3653 13.7043 16.5003 13.851 16.5003H14.9096C15.0555 16.5003 15.1746 16.3661 15.1746 16.1999C15.1746 15.2077 15.8871 14.4002 16.7626 14.4002C17.6381 14.4002 18.3506 15.2077 18.3506 16.1999ZM15.4649 14.3057L15.0882 13.8787C15.4805 13.5151 15.9659 13.2755 16.4975 13.2156V13.8197C16.1119 13.8745 15.7582 14.0475 15.4649 14.3057ZM17.0276 13.2156C17.5591 13.2755 18.0445 13.5151 18.4368 13.8787L18.0601 14.3057C17.7675 14.0475 17.4132 13.8745 17.0275 13.8197L17.0276 13.2156ZM18.8634 15.9005C18.815 15.4626 18.6624 15.0618 18.4346 14.7302L18.8113 14.3032C19.1322 14.7479 19.3436 15.298 19.3972 15.9004L18.8634 15.9005ZM14.6616 15.9005H14.1286C14.1814 15.298 14.3929 14.7479 14.7145 14.3032L15.0912 14.7302C14.8626 15.0618 14.71 15.4625 14.6616 15.9005Z" fill="#1A76D1"/>
<path d="M16.7664 15C16.6205 15 16.5014 15.1342 16.5014 15.3004V17.1381C16.045 17.2714 15.707 17.7422 15.707 18.2999C15.707 18.9614 16.182 19.4997 16.7657 19.4997C17.3493 19.4997 17.8243 18.9614 17.8243 18.2999C17.8243 17.7422 17.4863 17.2714 17.0299 17.1381V15.3004C17.0314 15.1342 16.9123 15 16.7664 15ZM17.2957 18.2999C17.2957 18.6306 17.0582 18.8998 16.7664 18.8998C16.4746 18.8998 16.2371 18.6306 16.2371 18.2999C16.2371 17.9691 16.4746 17.7 16.7664 17.7C17.0582 17.7 17.2957 17.9691 17.2957 18.2999Z" fill="#1A76D1"/>
<path d="M19.0879 5.80973C19.0879 6.20968 18.5586 6.20968 18.5586 5.80973C18.5586 5.40978 19.0879 5.40978 19.0879 5.80973Z" fill="#1A76D1"/>
<path d="M14.284 19.4992C14.284 19.8991 13.7539 19.8991 13.7539 19.4992C13.7539 19.0992 14.284 19.0992 14.284 19.4992Z" fill="#1A76D1"/>
<circle cx="12" cy="12" r="11.95" stroke="#1A76D1" stroke-width="0.1"/>
</svg>
