<svg width="24" height="24" viewBox="0 0 24 24" fill="none" xmlns="http://www.w3.org/2000/svg">
<path opacity="0.15" d="M11.1914 20.9978C15.7154 20.9978 19.3828 16.9689 19.3828 11.9989C19.3828 7.02895 15.7154 3 11.1914 3C6.66742 3 3 7.02895 3 11.9989C3 16.9689 6.66742 20.9978 11.1914 20.9978Z" fill="#1A76D1"/>
<path opacity="0.5" d="M13.7283 20.9994C13.974 20.9994 14.1379 20.8194 14.2198 20.5494L14.7112 18.5697C14.8751 18.0297 14.7112 17.4898 14.4655 17.0399L14.3836 16.8599C14.2198 16.6799 14.2198 16.4099 14.3836 16.23C15.6123 13.8902 16.2676 11.2806 16.1857 8.58088C16.1857 8.4009 16.1038 8.22093 15.94 8.22093C14.957 7.86097 13.8921 7.68099 12.8272 7.77098C11.7623 7.77098 10.7794 7.86097 9.71449 8.22093C9.55066 8.31091 9.46875 8.4009 9.46875 8.58088C9.46875 11.2806 10.1241 13.8902 11.2709 16.23C11.3528 16.4099 11.3528 16.6799 11.2709 16.8599L11.1889 17.0399C10.8613 17.4898 10.7794 18.0297 10.9432 18.5697L11.4347 20.5494C11.5166 20.8194 11.6804 20.9994 11.9262 20.9994H13.7283Z" fill="#1A76D1"/>
<path opacity="0.75" d="M20.938 7.76947C20.7742 7.13954 20.2008 6.6896 19.6274 6.59961C19.5455 6.59961 19.4636 6.59961 19.4636 6.59961C18.5625 6.77959 17.6614 7.13954 16.9242 7.67948C15.6136 8.39939 14.1391 9.29928 12.8285 9.29928C11.5179 9.29928 10.0434 8.39939 8.73282 7.67948C7.99559 7.13954 7.09454 6.77959 6.19348 6.59961C6.19348 6.59961 6.11157 6.59961 6.02965 6.59961C5.45626 6.6896 4.88286 7.13954 4.71903 7.76947C4.5552 8.39939 4.71903 9.11931 5.1286 9.56925L6.11157 10.5591C6.11157 10.7391 6.19348 10.7391 6.2754 10.7391C6.35731 10.7391 6.43922 10.7391 6.43922 10.6491C6.52114 10.5591 6.52114 10.3792 6.43922 10.1992L5.45626 9.2093C5.21051 8.84934 5.04669 8.39939 5.21051 7.94945C5.29243 7.4995 5.702 7.22953 6.11157 7.13954C6.19348 7.13954 6.19348 7.13954 6.2754 7.13954C7.09454 7.31952 7.83176 7.67948 8.56899 8.12943C9.2243 8.57937 9.87961 8.93933 10.6168 9.29928C11.0264 9.47926 11.2722 9.92921 11.2722 10.3792V11.549C11.2722 11.999 11.436 12.4489 11.7636 12.8089C11.9275 12.9888 12.0913 13.3488 12.0913 13.6188V14.7886C12.0913 15.0586 12.1732 15.3286 12.4189 15.5085C12.5828 15.5985 12.5828 15.7785 12.5828 15.9585V17.7583C12.5828 17.9382 12.5009 18.1182 12.337 18.2082C12.1732 18.3882 12.0094 18.6582 12.0094 18.9281V20.9979H13.5657V18.9281C13.5657 18.6582 13.4838 18.3882 13.2381 18.2082C13.0743 18.1182 12.9923 17.9382 12.9923 17.7583V15.9585C12.9923 15.7785 13.0743 15.5985 13.1562 15.5085C13.32 15.3286 13.4838 15.0586 13.4838 14.7886V13.6188C13.4838 13.3488 13.5657 12.9888 13.8115 12.8089C14.1391 12.4489 14.303 11.999 14.303 11.549V10.3792C14.303 9.92921 14.5487 9.47926 14.9583 9.29928C15.6955 8.93933 16.3508 8.57937 17.0881 8.21941C17.7434 7.76947 18.5625 7.40951 19.3816 7.22953C19.4636 7.22953 19.4636 7.22953 19.5455 7.22953C19.955 7.22953 20.2827 7.58949 20.4465 8.03944C20.6104 8.48938 20.4465 8.93933 20.2008 9.29928L19.2997 10.1992C19.2178 10.2892 19.2178 10.4691 19.2997 10.6491C19.3816 10.7391 19.5455 10.7391 19.6274 10.6491L20.5284 9.65924C20.938 9.11931 21.1018 8.39939 20.938 7.76947Z" fill="#1A76D1"/>
<path opacity="0.75" d="M8.31206 11.9768C8.63347 11.4357 8.40268 10.6449 7.79657 10.2103C7.19046 9.77575 6.43855 9.86209 6.11713 10.4031C5.79571 10.9442 6.02651 11.7351 6.63262 12.1696C7.23873 12.6042 7.99064 12.5179 8.31206 11.9768Z" fill="#1A76D1"/>
<path d="M7.09424 10.5593C7.33995 10.3794 7.66757 10.2894 7.99519 10.2894C7.91329 10.1994 7.83138 10.1994 7.83138 10.1094C7.25805 9.65938 6.5209 9.74938 6.02947 10.3794C5.86566 10.8293 5.86566 11.3693 6.19328 11.8193C6.35709 11.2793 6.68471 10.8293 7.09424 10.5593Z" fill="#1A76D1"/>
<path opacity="0.75" d="M19.0778 12.1491C19.684 11.7145 19.9147 10.9236 19.5933 10.3826C19.2719 9.84153 18.52 9.75519 17.9139 10.1897C17.3078 10.6243 17.077 11.4152 17.3984 11.9562C17.7198 12.4973 18.4717 12.5836 19.0778 12.1491Z" fill="#1A76D1"/>
<path d="M18.5572 10.5604C18.3115 10.3804 17.9839 10.2904 17.6562 10.2904C17.7382 10.2004 17.8201 10.2004 17.8201 10.1104C18.3115 9.6604 19.1305 9.75039 19.5401 10.2904C19.7858 10.7404 19.7039 11.3703 19.3763 11.7303C19.2943 11.2803 18.9667 10.8303 18.5572 10.5604Z" fill="#1A76D1"/>
<path d="M13.3144 15.7975C13.4782 15.6175 13.5601 15.3475 13.5601 15.0775V14.2676C13.5601 14.7176 13.2325 15.0775 12.823 15.0775C12.4134 15.0775 12.0858 14.7176 12.0858 14.2676V15.0775C12.0858 15.3475 12.1677 15.6175 12.4134 15.7975C12.4953 15.8875 12.5772 16.0675 12.5772 16.2475V17.9574C12.5772 18.1374 12.4953 18.3174 12.3315 18.4074C12.1677 18.5874 12.0039 18.8574 12.0039 19.0374V19.8473C12.0039 19.3974 12.3315 19.0374 12.7411 19.0374C13.1506 19.0374 13.4782 19.3974 13.4782 19.8473V19.0374C13.4782 18.7674 13.3963 18.4974 13.1506 18.4074C12.9868 18.3174 12.9049 18.1374 12.9049 17.9574V16.2475C13.0687 16.0675 13.1506 15.8875 13.3144 15.7975Z" fill="#1A76D1"/>
<path d="M12.8291 9.77014C12.1739 9.77014 11.6006 9.59015 10.9453 9.41016C11.9282 10.0401 12.2558 10.6701 12.8291 10.6701C13.4025 10.6701 13.6482 10.0401 14.7129 9.41016C14.0577 9.59015 13.4844 9.77014 12.8291 9.77014Z" fill="#1A76D1"/>
<circle cx="12" cy="12" r="11.95" stroke="#1A76D1" stroke-width="0.1"/>
</svg>
