<svg width="24" height="24" viewBox="0 0 24 24" fill="none" xmlns="http://www.w3.org/2000/svg">
<path d="M12.1255 4.30282C12.1638 4.35185 12.2205 4.38526 12.2839 4.3963C12.2922 4.39816 12.3 4.40076 12.3086 4.4019C12.3194 4.40505 12.3304 4.40755 12.3416 4.40938C12.3957 4.40942 12.4485 4.39365 12.4927 4.36423C12.674 4.24437 12.8633 4.13576 13.0594 4.03909C13.0598 4.03884 13.0601 4.03844 13.0605 4.03826C13.0616 4.03769 13.0626 4.03704 13.0637 4.03655C13.0948 4.02168 13.1224 4.00113 13.1451 3.97608C13.1677 3.95103 13.1849 3.92199 13.1956 3.89063C13.2063 3.85926 13.2104 3.8262 13.2075 3.79336C13.2046 3.76051 13.1949 3.72852 13.1789 3.69925C13.1629 3.66998 13.1409 3.644 13.1142 3.62282C13.0875 3.60163 13.0566 3.58566 13.0234 3.57582C12.9901 3.56599 12.9552 3.56248 12.9205 3.56551C12.8858 3.56854 12.8521 3.57804 12.8213 3.59346C12.6044 3.69989 12.3951 3.81958 12.1947 3.95175C12.1937 3.9524 12.1933 3.95354 12.1923 3.95425C12.1916 3.95473 12.1909 3.95508 12.1902 3.95555C12.1575 3.97789 12.1309 4.00718 12.1124 4.04106C12.111 4.04355 12.1106 4.04601 12.1093 4.04854C12.092 4.0816 12.0828 4.11794 12.0825 4.15484C12.0825 4.15549 12.082 4.15598 12.082 4.15655C12.082 4.1576 12.0825 4.15866 12.0825 4.15972C12.0807 4.21049 12.0957 4.26054 12.1255 4.30282Z" fill="#1A76D1"/>
<path d="M17.4464 3.86746C17.4555 3.88003 17.4658 3.89172 17.4773 3.90239C17.4947 3.91863 17.5144 3.93246 17.5359 3.94348C17.5396 3.94527 17.5418 3.94852 17.5456 3.95022C17.5563 3.95493 17.5667 3.96062 17.5774 3.96549C17.7681 4.05114 17.953 4.14804 18.1308 4.25564C18.1376 4.2597 18.1453 4.26003 18.1522 4.26352C18.1697 4.27218 18.1882 4.27899 18.2073 4.28382C18.2247 4.28795 18.2425 4.29029 18.2604 4.29081C18.2632 4.29097 18.2659 4.29194 18.2687 4.29194C18.2708 4.29194 18.2726 4.29056 18.2747 4.29048C18.3183 4.29113 18.3613 4.28137 18.3998 4.26211C18.4384 4.24286 18.4711 4.21472 18.4951 4.1803C18.5329 4.12464 18.5458 4.05707 18.5309 3.99244C18.516 3.92781 18.4746 3.87142 18.4158 3.83565C18.4147 3.83492 18.4134 3.83436 18.4123 3.83362C18.4117 3.8333 18.4114 3.83265 18.4108 3.83232C18.3114 3.77223 18.2094 3.7153 18.1061 3.66122C18.1044 3.66033 18.1028 3.65927 18.101 3.65838C17.9919 3.60137 17.8813 3.54793 17.7691 3.49807C17.7377 3.4842 17.7038 3.47631 17.6692 3.47485C17.6346 3.4734 17.6 3.47841 17.5674 3.48961C17.5349 3.5008 17.505 3.51795 17.4794 3.54008C17.4539 3.56221 17.4332 3.58889 17.4186 3.61858C17.4015 3.6591 17.3952 3.70292 17.4 3.74628C17.4049 3.78964 17.4208 3.83121 17.4464 3.86746Z" fill="#1A76D1"/>
<path d="M10.8905 10.5053C10.8898 10.5042 10.8891 10.5031 10.8885 10.502C10.8726 10.4729 10.8508 10.4471 10.8243 10.4259C10.7978 10.4048 10.7672 10.3888 10.7342 10.3789C10.7012 10.369 10.6665 10.3653 10.632 10.3681C10.5974 10.3709 10.5639 10.3801 10.5331 10.3952C10.513 10.4084 10.495 10.4243 10.4799 10.4425C10.4694 10.4505 10.4596 10.4592 10.4506 10.4686C10.4363 10.4866 10.4249 10.5064 10.4166 10.5275C10.41 10.5434 10.4052 10.5599 10.4023 10.5768C10.3972 10.5898 10.3933 10.6032 10.3906 10.6168C10.3906 10.6228 10.3947 10.6286 10.3952 10.6346C10.3977 10.6549 10.4028 10.6747 10.4105 10.6938C10.4126 10.7065 10.4158 10.7191 10.4202 10.7314C10.5326 10.9365 10.659 11.1346 10.7985 11.3243C10.7988 11.3247 10.7992 11.3248 10.7995 11.3252C10.8003 11.3264 10.8011 11.3276 10.802 11.3288C10.8067 11.3352 10.8145 11.3376 10.8197 11.3434C10.8378 11.3642 10.8594 11.3819 10.8836 11.3961C10.9033 11.4064 10.9245 11.4141 10.9464 11.4191C10.9578 11.4225 10.9695 11.4251 10.9813 11.4269C10.9934 11.4306 11.0058 11.4334 11.0184 11.4354C11.0666 11.4353 11.1139 11.4228 11.1552 11.3992C11.1964 11.3755 11.23 11.3416 11.2522 11.3011C11.2745 11.2607 11.2846 11.2152 11.2815 11.1697C11.2784 11.1242 11.2622 11.0804 11.2346 11.043C11.1079 10.8715 10.9934 10.6923 10.8916 10.5067C10.8913 10.5061 10.8907 10.5058 10.8905 10.5053Z" fill="#1A76D1"/>
<path d="M10.346 6.28486C10.3711 6.32694 10.4089 6.36096 10.4546 6.38257C10.4896 6.39825 10.5277 6.40634 10.5664 6.40627C10.6165 6.40631 10.6657 6.39283 10.708 6.3674C10.7503 6.34197 10.7841 6.30565 10.8054 6.2627C10.8994 6.07315 11.0064 5.88966 11.1259 5.71341C11.1263 5.71284 11.1263 5.71219 11.1266 5.71162C11.1273 5.71057 11.1279 5.70951 11.1286 5.70846C11.1664 5.65272 11.1792 5.58507 11.1642 5.52041C11.1492 5.45575 11.1077 5.39936 11.0488 5.36365C10.9899 5.32794 10.9184 5.31584 10.85 5.33C10.7817 5.34416 10.7221 5.38343 10.6843 5.43917C10.5526 5.63382 10.4343 5.83629 10.33 6.04531C10.3296 6.04612 10.3298 6.0471 10.3294 6.04791C10.3289 6.04897 10.3283 6.04994 10.3278 6.05092C10.3102 6.08765 10.3024 6.12794 10.3053 6.16819C10.3081 6.20844 10.3214 6.24741 10.344 6.28162C10.3446 6.28267 10.3453 6.28381 10.346 6.28486Z" fill="#1A76D1"/>
<path d="M20.3464 10.211C20.315 10.1971 20.2811 10.1892 20.2465 10.1878C20.2119 10.1863 20.1774 10.1913 20.1448 10.2024C20.1123 10.2136 20.0824 10.2307 20.0568 10.2528C20.0312 10.2749 20.0105 10.3015 19.9958 10.3312C19.9719 10.3797 19.9444 10.4271 19.9186 10.4751C19.8927 10.5232 19.8681 10.5718 19.8406 10.6191C19.8212 10.6522 19.7994 10.6841 19.7792 10.7169C19.7425 10.7763 19.7065 10.8362 19.6674 10.8936C19.66 10.9074 19.654 10.9219 19.6496 10.9368C19.6481 10.9409 19.6457 10.9447 19.6445 10.9489C19.6245 11.001 19.6237 11.0579 19.6422 11.1105C19.6606 11.163 19.6973 11.2081 19.7462 11.2385C19.7888 11.2644 19.8383 11.2781 19.8889 11.2782C19.9451 11.2761 19.9991 11.2568 20.0427 11.2231C20.0522 11.2159 20.0612 11.2081 20.0696 11.1997C20.0847 11.1893 20.0985 11.1772 20.1107 11.1638C20.1133 11.16 20.1156 11.1559 20.1182 11.1521C20.1188 11.1512 20.1199 11.1507 20.1205 11.1498C20.157 11.0957 20.19 11.0395 20.2244 10.9841C20.2504 10.9425 20.2778 10.902 20.3025 10.8596C20.3364 10.8017 20.3666 10.7424 20.398 10.6836C20.4205 10.6416 20.4449 10.6005 20.4661 10.558C20.4664 10.5573 20.4663 10.5567 20.4666 10.556C20.4689 10.5515 20.4716 10.5471 20.4738 10.5426C20.4885 10.513 20.4968 10.4808 20.4984 10.4481C20.4999 10.4154 20.4946 10.3827 20.4828 10.3519C20.4709 10.3211 20.4528 10.2928 20.4294 10.2686C20.406 10.2444 20.3778 10.2249 20.3464 10.211Z" fill="#1A76D1"/>
<path d="M20.9977 8.26619C20.9967 8.14511 20.9917 8.02199 20.9812 7.89548C20.9802 7.88232 20.9807 7.86981 20.9795 7.85658L20.9776 7.83643C20.9744 7.80442 20.9645 7.77335 20.9483 7.74506C20.9322 7.71676 20.9102 7.69183 20.8836 7.67174C20.8571 7.65165 20.8266 7.63681 20.7938 7.6281C20.7611 7.6194 20.7269 7.617 20.6932 7.62106C20.6228 7.62932 20.5585 7.66313 20.5139 7.71537C20.4693 7.76761 20.4479 7.83418 20.4542 7.90106V7.90114V7.90138C20.4649 8.0223 20.469 8.14265 20.4701 8.26235C20.4709 8.33844 20.4705 8.41437 20.4675 8.48965C20.467 8.50265 20.4672 8.51564 20.4665 8.52863C20.4648 8.56137 20.47 8.5941 20.4817 8.62495C20.4934 8.6558 20.5114 8.68416 20.5347 8.70842C20.558 8.73268 20.5861 8.75235 20.6175 8.76631C20.6488 8.78028 20.6827 8.78826 20.7173 8.7898C20.7216 8.79012 20.7259 8.79012 20.73 8.79012C20.7978 8.7901 20.8629 8.76543 20.9119 8.72122C20.9609 8.67701 20.99 8.61665 20.9932 8.55267C20.9935 8.54739 20.9934 8.54211 20.9936 8.53675C20.9936 8.53643 20.9939 8.53611 20.9939 8.5357C20.9943 8.52782 20.9939 8.51986 20.9942 8.51207C20.9971 8.4432 20.9994 8.37442 20.9994 8.30548C20.9994 8.29258 20.9978 8.27918 20.9977 8.26619Z" fill="#1A76D1"/>
<path d="M9.81612 8.73231C9.81629 8.73588 9.81732 8.7505 9.81766 8.75439C9.81796 8.75748 9.81986 8.75992 9.8203 8.763L9.82092 8.76974L9.82224 8.7695C9.83156 8.8273 9.86259 8.87999 9.90965 8.91791C9.9567 8.95582 10.0166 8.97642 10.0784 8.97593C10.0865 8.97593 10.0946 8.9756 10.1028 8.97495C10.1728 8.9679 10.2371 8.93517 10.2818 8.88379C10.3266 8.83242 10.3483 8.76649 10.3423 8.70015C10.3313 8.57574 10.3268 8.45206 10.3259 8.32903C10.3253 8.24945 10.3256 8.17002 10.3292 8.09117C10.3293 8.08841 10.3293 8.08573 10.3294 8.08297L10.3293 8.08256C10.3294 8.08085 10.3293 8.07915 10.3294 8.07752C10.3324 8.04453 10.3281 8.01131 10.3169 7.97995C10.3056 7.94859 10.2877 7.91976 10.2641 7.89527C10.2405 7.87079 10.2119 7.85117 10.1799 7.83764C10.148 7.82412 10.1134 7.81698 10.0784 7.81668C10.0438 7.81514 10.0093 7.82006 9.97669 7.83116C9.94412 7.84225 9.91417 7.85932 9.88857 7.88137C9.86297 7.90342 9.8422 7.93003 9.82747 7.95967C9.81274 7.98931 9.80433 8.02141 9.80271 8.05413C9.79859 8.13438 9.79688 8.21476 9.79688 8.29548C9.79688 8.419 9.80235 8.54552 9.81413 8.68698C9.8153 8.70178 9.81481 8.71777 9.81612 8.73231Z" fill="#1A76D1"/>
<path d="M18.3114 12.2346C18.1303 12.3546 17.941 12.4634 17.7449 12.5602C17.7445 12.5604 17.7443 12.5609 17.7439 12.5611C17.7396 12.5632 17.7356 12.5656 17.7314 12.5678C17.7002 12.5826 17.6724 12.6031 17.6496 12.6281C17.6269 12.6532 17.6096 12.6823 17.5988 12.7137C17.588 12.7451 17.584 12.7782 17.5868 12.8111C17.5897 12.844 17.5994 12.8761 17.6154 12.9054C17.6315 12.9347 17.6535 12.9607 17.6803 12.9819C17.707 13.0032 17.738 13.0191 17.7713 13.0289C17.8047 13.0387 17.8397 13.0422 17.8745 13.0391C17.9092 13.036 17.943 13.0264 17.9738 13.0108C18.1906 12.9044 18.4 12.7848 18.6005 12.6529C18.6019 12.652 18.6025 12.6506 18.6038 12.6496C18.6072 12.6474 18.6109 12.6454 18.6143 12.6432C18.6715 12.6052 18.7104 12.5472 18.7225 12.4821C18.7346 12.4169 18.7188 12.3499 18.6787 12.2957C18.6385 12.2416 18.5773 12.2047 18.5084 12.1932C18.4396 12.1818 18.3687 12.1966 18.3114 12.2346Z" fill="#1A76D1"/>
<path d="M19.7801 5.88023C19.8223 5.94861 19.8646 6.01706 19.9031 6.08707C19.925 6.12475 19.9571 6.15623 19.9961 6.17826C19.9998 6.18045 20.0032 6.18192 20.007 6.18386C20.0446 6.20554 20.0874 6.2178 20.1314 6.21948C20.1754 6.22115 20.2192 6.21219 20.2585 6.19345C20.3205 6.16292 20.3672 6.11033 20.3883 6.04726C20.4093 5.98418 20.403 5.91577 20.3708 5.85708C20.3703 5.85619 20.3697 5.85529 20.3692 5.8544C20.3688 5.85375 20.3689 5.85293 20.3686 5.85229C20.2555 5.64748 20.1286 5.44979 19.9886 5.26044C19.9485 5.20633 19.8872 5.16952 19.8184 5.15807C19.7495 5.14662 19.6787 5.16148 19.6214 5.19938C19.5878 5.22224 19.5605 5.25241 19.5417 5.28734C19.523 5.32227 19.5134 5.36095 19.5137 5.40012C19.5136 5.4028 19.5117 5.40524 19.5117 5.408C19.5117 5.41311 19.5138 5.41807 19.5141 5.42318C19.515 5.43947 19.5176 5.45563 19.5218 5.47142C19.5284 5.49382 19.5383 5.51523 19.5512 5.535C19.5537 5.53882 19.554 5.5432 19.5567 5.54694C19.5604 5.55189 19.5636 5.55725 19.5672 5.56221C19.6273 5.64382 19.6851 5.72738 19.7399 5.81281C19.754 5.83492 19.7663 5.85798 19.7801 5.88023Z" fill="#1A76D1"/>
<path d="M14.9751 3.51583L14.9755 3.51575V3.51591C14.98 3.51559 14.9844 3.51559 14.9889 3.51526C15.1115 3.50584 15.2334 3.50186 15.3548 3.50081C15.4445 3.5 15.5339 3.50007 15.6225 3.50357H15.6228C15.6244 3.50357 15.6259 3.50357 15.6275 3.50365C15.6364 3.5028 15.6452 3.5015 15.654 3.49975C15.7133 3.49896 15.7702 3.47787 15.8144 3.44039C15.8407 3.41841 15.8622 3.39163 15.8774 3.36165C15.8926 3.33167 15.9012 3.29909 15.9029 3.26587C15.9052 3.23299 15.9005 3.20001 15.889 3.16891C15.8774 3.13781 15.8594 3.10923 15.8359 3.08489C15.8125 3.06055 15.784 3.04096 15.7523 3.02729C15.7206 3.01362 15.6863 3.00616 15.6515 3.00536C15.5684 3.00178 15.4857 3 15.4023 3C15.3874 3 15.3732 3.00154 15.3584 3.0017C15.2419 3.0026 15.123 3.00725 15.0019 3.01567C14.9821 3.01697 14.9607 3.0165 14.9411 3.01803C14.9374 3.01819 14.9219 3.01916 14.9178 3.01949C14.8531 3.0252 14.7931 3.05377 14.7497 3.0995C14.7063 3.14523 14.6827 3.20475 14.6836 3.2662C14.6836 3.27383 14.684 3.28146 14.6846 3.28926C14.6921 3.35548 14.7267 3.41629 14.781 3.45865C14.8353 3.501 14.905 3.52153 14.9751 3.51583Z" fill="#1A76D1"/>
<path d="M15.8187 13.085C15.6865 13.0955 15.555 13.0998 15.4242 13.1006C15.3526 13.101 15.2812 13.1003 15.2101 13.0979C15.1919 13.0973 15.1735 13.0975 15.1553 13.0967C15.145 13.0975 15.1348 13.099 15.1246 13.1011C15.0666 13.1018 15.0108 13.1226 14.9679 13.1596C14.9415 13.1816 14.9201 13.2083 14.9048 13.2383C14.8896 13.2683 14.8809 13.3008 14.8792 13.334C14.8789 13.3381 14.8789 13.3421 14.8789 13.346C14.8789 13.4101 14.905 13.4717 14.9517 13.518C14.9985 13.5644 15.0623 13.5919 15.1299 13.595C15.1313 13.5951 15.1326 13.595 15.134 13.5951C15.1347 13.5951 15.1353 13.5956 15.1361 13.5956C15.2209 13.5995 15.3059 13.6011 15.3912 13.6011C15.527 13.6011 15.6653 13.5959 15.8225 13.5837C15.8371 13.5827 15.851 13.5831 15.8657 13.582L15.887 13.5802C15.9208 13.5772 15.9537 13.5678 15.9836 13.5525C16.0135 13.5372 16.0398 13.5164 16.0611 13.4913C16.0823 13.4662 16.098 13.4373 16.1072 13.4063C16.1164 13.3754 16.1189 13.343 16.1146 13.3111C16.1059 13.2445 16.0702 13.1836 16.0149 13.1415C15.9597 13.0993 15.8893 13.079 15.8187 13.085Z" fill="#1A76D1"/>
<path d="M15.398 4.96094C14.6997 4.96094 14.0171 5.15684 13.4364 5.52389C12.8558 5.89093 12.4032 6.41262 12.136 7.02298C11.8687 7.63335 11.7988 8.30499 11.935 8.95296C12.0712 9.60093 12.4075 10.1961 12.9013 10.6633C13.3951 11.1305 14.0242 11.4486 14.7091 11.5775C15.394 11.7064 16.1039 11.6403 16.7491 11.3875C17.3943 11.1347 17.9458 10.7066 18.3338 10.1573C18.7217 9.60797 18.9289 8.96216 18.9289 8.3015C18.9279 7.41584 18.5556 6.56673 17.8936 5.94047C17.2317 5.3142 16.3342 4.96193 15.398 4.96094ZM15.398 11.1428C14.804 11.1428 14.2233 10.9761 13.7294 10.6639C13.2355 10.3517 12.8505 9.9079 12.6232 9.38868C12.3959 8.86946 12.3364 8.29813 12.4523 7.74693C12.5682 7.19574 12.8543 6.68944 13.2743 6.29206C13.6944 5.89468 14.2296 5.62407 14.8122 5.51445C15.3948 5.40483 15.9987 5.46113 16.5475 5.67622C17.0963 5.89131 17.5654 6.25553 17.8954 6.72283C18.2254 7.19013 18.4015 7.73951 18.4015 8.30151C18.4006 9.05482 18.0838 9.77703 17.5208 10.3097C16.9577 10.8423 16.1943 11.142 15.398 11.1428Z" fill="#1A76D1"/>
<path d="M15.3979 6.62305C15.0473 6.62305 14.7045 6.72141 14.4129 6.90571C14.1214 7.09 13.8942 7.35194 13.76 7.65842C13.6258 7.96489 13.5907 8.30212 13.6591 8.62748C13.7274 8.95283 13.8963 9.25169 14.1442 9.48627C14.3921 9.72084 14.708 9.8806 15.0519 9.94534C15.3958 10.0101 15.7523 9.97688 16.0762 9.84995C16.4002 9.72303 16.6771 9.50807 16.8719 9.23227C17.0668 8.95647 17.1708 8.6322 17.1708 8.30047C17.1703 7.85578 16.9833 7.42944 16.6509 7.11498C16.3186 6.80052 15.8679 6.6236 15.3979 6.62305ZM15.3979 9.47864C15.1516 9.47864 14.9107 9.40953 14.7059 9.28005C14.5011 9.15056 14.3414 8.96652 14.2472 8.7512C14.1529 8.53588 14.1283 8.29895 14.1763 8.07037C14.2244 7.84179 14.343 7.63184 14.5173 7.46705C14.6915 7.30227 14.9134 7.19005 15.155 7.14461C15.3966 7.09916 15.6471 7.12252 15.8747 7.21173C16.1022 7.30094 16.2968 7.452 16.4336 7.64579C16.5704 7.83959 16.6434 8.06743 16.6434 8.30049C16.643 8.61286 16.5116 8.91233 16.2781 9.1332C16.0446 9.35407 15.7281 9.47831 15.3979 9.47864Z" fill="#1A76D1"/>
<path d="M12.6127 11.6512L10.6607 12.3516C10.2629 12.4928 9.92462 12.7528 9.69704 13.0923C9.46945 13.4318 9.365 13.8321 9.39949 14.2328L8.09523 15.4667C7.90444 15.6486 7.7797 15.8831 7.73902 16.1365C7.69833 16.3898 7.74382 16.6489 7.8689 16.8762C7.6389 17.0324 7.42353 17.207 7.22518 17.3981C6.66672 17.9263 6.46843 18.2982 6.29195 18.6292C6.11324 18.9651 5.9589 19.2552 5.46225 19.7249C4.98947 20.1725 4.67702 20.3323 4.34635 20.5019L4.29022 20.5305C4.22875 20.562 4.18306 20.6154 4.1632 20.6789C4.14334 20.7423 4.15093 20.8106 4.18431 20.8688C4.21769 20.9269 4.27412 20.9702 4.34118 20.989C4.40825 21.0077 4.48046 21.0006 4.54193 20.969L4.59738 20.9404C5.05809 20.7204 5.4765 20.4287 5.83515 20.0776C6.3919 19.5511 6.58057 19.1964 6.76443 18.8508C6.93679 18.5276 7.09954 18.2225 7.59826 17.7509C7.78418 17.5713 7.98713 17.4083 8.20455 17.2639C8.44852 17.4521 8.7578 17.5476 9.07215 17.5319C9.38651 17.5162 9.68342 17.3903 9.90506 17.1789L11.2145 15.94C11.2616 15.9431 11.3077 15.9529 11.3552 15.9529C11.495 15.9529 11.6344 15.939 11.7712 15.9114C12.0927 15.8467 12.3918 15.7065 12.6411 15.5038C12.8904 15.3011 13.0818 15.0424 13.1978 14.7514L13.9382 12.9047C14.0084 12.7296 14.0237 12.539 13.9821 12.3559C13.9405 12.1728 13.8439 12.0049 13.7039 11.8725C13.5639 11.7401 13.3864 11.6487 13.1928 11.6095C12.9992 11.5702 12.7978 11.5847 12.6127 11.6512ZM9.53216 16.8261C9.38885 16.9556 9.19831 17.0278 9.00014 17.0278C8.80198 17.0278 8.61143 16.9556 8.46812 16.8261C8.32729 16.6925 8.2482 16.5115 8.2482 16.3228C8.2482 16.1341 8.32729 15.9531 8.46812 15.8194L9.54199 14.8035C9.64049 15.0293 9.78504 15.2345 9.96739 15.4074C10.1497 15.5803 10.3663 15.7175 10.6047 15.8112L9.53216 16.8261ZM13.4452 12.728L12.7047 14.5747C12.6194 14.7874 12.4792 14.9764 12.2968 15.1247C12.1145 15.2729 11.8958 15.3756 11.6607 15.4233C11.4256 15.4711 11.1816 15.4623 10.951 15.3979C10.7204 15.3335 10.5105 15.2155 10.3405 15.0547C10.1705 14.8938 10.0458 14.6953 9.9777 14.4771C9.90963 14.259 9.90041 14.0281 9.95086 13.8057C10.0013 13.5833 10.1098 13.3764 10.2665 13.2039C10.4232 13.0313 10.6231 12.8987 10.8479 12.818L12.7998 12.1177C12.8581 12.0964 12.92 12.0854 12.9825 12.0852C13.0631 12.0864 13.1421 12.106 13.213 12.1422C13.284 12.1783 13.3446 12.2301 13.39 12.2931C13.4353 12.3561 13.464 12.4285 13.4736 12.5042C13.4832 12.5799 13.4735 12.6567 13.4452 12.728Z" fill="#1A76D1"/>
<path d="M4.91078 15.7214C5.04253 15.4531 5.22624 15.2105 5.45242 15.0062C5.55909 14.9052 5.674 14.8124 5.7961 14.7286C5.97722 14.8463 6.1962 14.9003 6.41503 14.8813C6.63385 14.8622 6.83871 14.7712 6.99405 14.6242L7.84038 13.8233C7.86094 13.8242 7.88088 13.829 7.90152 13.829C8.00111 13.8289 8.10042 13.819 8.19783 13.7994C8.42702 13.7534 8.64028 13.6535 8.81798 13.5091C8.99567 13.3646 9.13209 13.1802 9.21466 12.9727L9.70961 11.7384C9.76252 11.6064 9.77402 11.4628 9.74271 11.3248C9.71141 11.1869 9.63863 11.0604 9.53314 10.9606C9.42765 10.8608 9.29394 10.792 9.14808 10.7624C9.00222 10.7328 8.85043 10.7437 8.71097 10.7938L7.40644 11.2618C7.12966 11.3611 6.8932 11.5407 6.73096 11.7749C6.56873 12.0091 6.48906 12.2859 6.50336 12.5656L5.66086 13.3629C5.52831 13.4888 5.43852 13.6493 5.403 13.8238C5.36748 13.9983 5.38784 14.1788 5.46148 14.3423C5.32633 14.4371 5.19868 14.541 5.07956 14.6534C4.81315 14.8958 4.596 15.1824 4.43887 15.4989C4.30863 15.7656 4.12611 16.0064 3.90101 16.2087C3.69153 16.4151 3.44612 16.586 3.17548 16.7138L3.13788 16.733C3.07641 16.7645 3.03072 16.8179 3.01086 16.8814C2.991 16.9448 2.99859 17.0131 3.03196 17.0713C3.06533 17.1294 3.12176 17.1727 3.18882 17.1914C3.25589 17.2102 3.32809 17.2031 3.38956 17.1715L3.42648 17.1526C3.74196 17.0018 4.02845 16.802 4.27404 16.5615C4.53941 16.3211 4.75531 16.0363 4.91078 15.7214ZM7.04848 12.3286C7.0779 12.1929 7.14339 12.0666 7.23876 11.9616C7.33413 11.8566 7.45624 11.7763 7.59355 11.7283L8.89811 11.2602C8.94243 11.2435 8.99102 11.2396 9.03769 11.2491C9.08435 11.2585 9.12697 11.281 9.16009 11.3135C9.19422 11.345 9.21777 11.3854 9.22782 11.4295C9.23786 11.4737 9.23395 11.5196 9.21657 11.5617L8.72163 12.796C8.67002 12.9254 8.58487 13.0404 8.47399 13.1305C8.36312 13.2206 8.23008 13.2828 8.08712 13.3115C7.94429 13.3405 7.79608 13.3351 7.656 13.296C7.51593 13.2568 7.38844 13.1851 7.28517 13.0874C7.18191 12.9896 7.10615 12.869 7.06481 12.7365C7.02346 12.6039 7.01785 12.4637 7.04848 12.3286ZM6.0337 13.7156L6.66458 13.1187C6.7932 13.3584 7.00032 13.5524 7.25501 13.6716L6.62119 14.2714C6.54328 14.3451 6.43762 14.3865 6.32745 14.3865C6.21728 14.3865 6.11162 14.3451 6.03372 14.2714C5.95581 14.1977 5.91205 14.0977 5.91205 13.9935C5.91205 13.8893 5.9558 13.7893 6.0337 13.7156Z" fill="#1A76D1"/>
<circle cx="12" cy="12" r="11.95" stroke="#1A76D1" stroke-width="0.1"/>
</svg>
