<svg width="24" height="24" viewBox="0 0 24 24" fill="none" xmlns="http://www.w3.org/2000/svg">
<path d="M17.125 6.375C17.125 6.237 17.237 6.125 17.375 6.125H19.25C19.3879 6.125 19.5 6.01288 19.5 5.875V4.5H19.1006L17.4928 6.04625C17.4444 6.09287 17.3819 6.11613 17.3195 6.11613C17.2555 6.11613 17.1915 6.09162 17.1427 6.04287L16.7893 5.68937L16.524 5.95462L16.7008 6.13137C16.7984 6.229 16.7984 6.38725 16.7008 6.48488C16.652 6.53375 16.588 6.55813 16.524 6.55813C16.46 6.55813 16.396 6.53375 16.3472 6.48488L16.1705 6.30813L13.459 9.0195C13.5827 9.08675 13.7245 9.125 13.875 9.125C14.013 9.125 14.125 9.237 14.125 9.375C14.125 9.513 14.013 9.625 13.875 9.625C13.1169 9.625 12.5 9.00813 12.5 8.25C12.5 8.112 12.612 8 12.75 8C12.888 8 13 8.112 13 8.25C13 8.4005 13.0383 8.54225 13.1055 8.666L15.817 5.9545L15.6403 5.77775C15.5426 5.68013 15.5426 5.52187 15.6403 5.42425C15.7378 5.32662 15.8962 5.32662 15.9937 5.42425L16.1705 5.601L16.4358 5.33575L16.0822 4.98225C16.0337 4.93375 16.0072 4.86763 16.0091 4.799C16.011 4.73038 16.0408 4.66575 16.0916 4.61975L16.2244 4.5H4.5V5.875C4.5 6.01288 4.61212 6.125 4.75 6.125H14.3594C14.4974 6.125 14.6094 6.237 14.6094 6.375C14.6094 6.513 14.4974 6.625 14.3594 6.625H6.881C6.90988 7.48675 7.08087 8.18838 7.24837 8.867C7.4335 9.61725 7.625 10.3931 7.625 11.375C7.625 11.642 7.59912 11.9029 7.54612 12.1725C7.52987 12.2547 7.4575 12.4824 7.36788 12.75H9.21375C9.17287 12.6121 9.09825 12.4859 8.99375 12.3814C8.89613 12.2838 8.89613 12.1255 8.99375 12.0278C9.09138 11.9301 9.24962 11.9301 9.34737 12.0278C9.607 12.2874 9.75 12.6328 9.75 13C9.75 13.3672 9.607 13.7126 9.34725 13.9722C9.29837 14.021 9.2345 14.0454 9.1705 14.0454C9.1065 14.0454 9.0425 14.021 8.99363 13.9721C8.896 13.8745 8.896 13.7162 8.99363 13.6185C9.09813 13.514 9.17275 13.3876 9.21362 13.2499H7.19725C7.08775 13.5663 6.98537 13.855 6.94712 13.9628C6.59825 14.8319 6.17325 15.8925 6.1295 17.3749H14.5C14.638 17.3749 14.75 17.4869 14.75 17.6249C14.75 17.7629 14.638 17.8749 14.5 17.8749H4.75C4.61212 17.8749 4.5 17.987 4.5 18.1249V19.4999H15.9809L15.7544 19.2159C15.712 19.1626 15.693 19.0945 15.702 19.0271C15.7109 18.9596 15.747 18.8989 15.8018 18.8585L16.2046 18.5624L15.9826 18.2603L15.7811 18.4083C15.7365 18.441 15.6846 18.4568 15.6333 18.4568C15.5564 18.4568 15.4806 18.4215 15.4316 18.3549C15.3499 18.2436 15.3739 18.0871 15.485 18.0054L15.6865 17.8573L13.4157 14.767C13.3306 14.8793 13.2714 15.0136 13.2487 15.1625C13.23 15.2864 13.1235 15.375 13.0021 15.375C12.9895 15.375 12.9769 15.374 12.964 15.3721C12.8275 15.3512 12.7338 15.2236 12.7546 15.0872C12.8693 14.3377 13.5719 13.8209 14.3216 13.9359C14.4581 13.9567 14.5519 14.0844 14.531 14.2207C14.5101 14.3572 14.383 14.451 14.2461 14.4301C14.0973 14.4073 13.9514 14.4236 13.8189 14.4712L16.0896 17.5615L16.291 17.4135C16.4024 17.3319 16.5588 17.3558 16.6405 17.4669C16.7223 17.5781 16.6982 17.7346 16.5871 17.8164L16.3856 17.9644L16.6076 18.2665L17.0105 17.9704C17.1197 17.8899 17.2735 17.9116 17.3565 18.0193L18.498 19.5H19.5V18.125C19.5 17.9871 19.3879 17.875 19.25 17.875H17.75C17.612 17.875 17.5 17.763 17.5 17.625C17.5 17.487 17.612 17.375 17.75 17.375H17.8706C17.8267 15.8896 17.3991 14.824 17.0189 13.8787C16.6878 13.0555 16.375 12.278 16.375 11.375C16.375 10.3931 16.5665 9.61725 16.7517 8.867C16.9352 8.12338 17.125 7.3545 17.125 6.375ZM12.125 12.75C11.9077 12.75 11.75 12.5398 11.75 12.25C11.75 11.9602 11.9077 11.75 12.125 11.75C12.3423 11.75 12.5 11.9602 12.5 12.25C12.5 12.5398 12.3423 12.75 12.125 12.75ZM13.125 12.5C12.987 12.5 12.875 12.388 12.875 12.25C12.875 11.7675 12.5386 11.375 12.125 11.375C11.987 11.375 11.875 11.263 11.875 11.125C11.875 10.987 11.987 10.875 12.125 10.875C12.8142 10.875 13.375 11.4919 13.375 12.25C13.375 12.388 13.263 12.5 13.125 12.5Z" fill="#1A76D1"/>
<path d="M18.3794 4.5H16.9711L16.6219 4.81487L17.3229 5.51588L18.3794 4.5Z" fill="#1A76D1"/>
<path d="M5.125 13.25H5.5V13.3125C5.5 13.416 5.584 13.5 5.6875 13.5C5.791 13.5 5.875 13.416 5.875 13.3125V13.25H6.75L6.875 12.75H5.875V12.6875C5.875 12.584 5.791 12.5 5.6875 12.5C5.584 12.5 5.5 12.584 5.5 12.6875V12.75H5.125V12.5H4.5V13.5H5.125V13.25Z" fill="#1A76D1"/>
<path d="M16.3075 19.1076L16.6204 19.5H17.8666L17.1097 18.518L16.3075 19.1076Z" fill="#1A76D1"/>
<circle cx="12" cy="12" r="11.95" stroke="#1A76D1" stroke-width="0.1"/>
</svg>
