<svg width="24" height="24" viewBox="0 0 24 24" fill="none" xmlns="http://www.w3.org/2000/svg">
<path d="M9.79779 5.90486C9.79779 5.58471 9.53732 5.32422 9.21719 5.32422H2.8306C2.51047 5.32422 2.25 5.58471 2.25 5.90486V6.48551C2.25 6.80566 2.51047 7.06615 2.8306 7.06615H5.153V7.6468H4.5724C4.25227 7.6468 3.9918 7.90729 3.9918 8.22744V8.80809H3.4112C3.09107 8.80809 2.8306 9.06858 2.8306 9.38873V9.96938C2.8306 10.2895 3.09107 10.55 3.4112 10.55H3.9918V15.0933C3.9918 15.2247 4.03698 15.3534 4.11902 15.456L5.12948 16.7193C5.13689 16.7285 5.14512 16.7368 5.153 16.7455V17.5178C5.153 17.8379 5.41347 18.0984 5.7336 18.0984V20.421H6.3142V18.0984C6.63432 18.0984 6.8948 17.8379 6.8948 17.5178V16.7455C6.90267 16.7368 6.91094 16.7285 6.91835 16.7192L7.92881 15.456C8.01082 15.3535 8.05599 15.2247 8.05599 15.0934V10.55H8.63659C8.95672 10.55 9.21719 10.2895 9.21719 9.96938V9.38873C9.21719 9.06858 8.95672 8.80809 8.63659 8.80809H8.05599V8.22744C8.05599 7.90729 7.79552 7.6468 7.47539 7.6468H6.8948V7.06615H9.21719C9.53732 7.06615 9.79779 6.80566 9.79779 6.48551V5.90486ZM5.7336 17.5178V16.9371H6.3142V17.5178H5.7336ZM6.46497 16.3565L5.58279 16.3565L4.65386 15.1952H7.39393L6.46497 16.3565ZM7.47539 11.1307H6.3142V11.7113H7.47539V12.292H5.7336V12.8726H7.47539V13.4533H6.3142V14.0339H7.47539V14.6145H4.5724V10.55H7.47539V11.1307ZM8.63696 9.96938C8.63696 9.96938 8.63685 9.96938 8.63659 9.96938H3.4112V9.38873H8.63659L8.63696 9.96938ZM7.47539 8.80809H4.5724V8.22744H7.47539V8.80809ZM6.3142 7.6468H5.7336V7.06615H6.3142V7.6468ZM9.21719 6.48551H2.8306V5.90486H9.21719L9.21756 6.48551C9.21756 6.48551 9.21745 6.48551 9.21719 6.48551Z" fill="#1A76D1"/>
<path d="M19.8659 11.7844L18.3792 10.2975L18.5098 10.0363V9.69121C18.5098 9.24974 18.3897 8.81629 18.1626 8.43771L17.9699 8.11639C17.7533 7.75552 17.6389 7.34232 17.6389 6.92146V5.90323C17.6389 4.30239 16.3366 3 14.7359 3C13.1352 3 11.8329 4.30239 11.8329 5.90323V7.32352C11.8329 7.51328 11.8095 7.70275 11.7636 7.88678L11.6153 8.47973C11.5671 8.67276 11.5426 8.87159 11.5426 9.07064V9.17081C11.5426 9.48729 11.6058 9.804 11.7259 10.097C11.6239 10.2482 11.5349 10.4102 11.4612 10.5821C11.3834 10.5603 11.3016 10.5484 11.217 10.5484C10.975 10.5484 10.7475 10.6427 10.5763 10.8138L10.0662 11.324C9.89502 11.4952 9.80078 11.7227 9.80078 11.9648C9.80078 12.4644 10.2073 12.871 10.7069 12.871C10.7371 12.871 10.7671 12.8695 10.7968 12.8666C10.7334 12.9651 10.6724 13.0652 10.6146 13.1674C10.0822 14.1078 9.80078 15.1761 9.80078 16.2567V21H17.9292V14.0323H18.9349C19.6609 14.0323 20.2516 13.4416 20.2516 12.7155C20.2516 12.3637 20.1146 12.0331 19.8659 11.7844ZM17.6647 8.73641C17.8377 9.02477 17.9292 9.35494 17.9292 9.69121V9.85049C17.2913 9.24379 16.4788 8.88284 15.6068 8.81734V8.71003C16.034 8.49933 16.3395 8.10612 16.4409 7.64516H16.768C16.8975 7.64516 17.0204 7.61653 17.131 7.56554C17.1989 7.86367 17.3133 8.15065 17.472 8.41506L17.6647 8.73641ZM15.2247 8.24069L15.0262 8.30684V9.02826L14.8964 9.28788C14.8658 9.34906 14.8043 9.3871 14.7359 9.3871C14.6675 9.3871 14.606 9.34906 14.5754 9.28795L14.4456 9.02829V8.30688L14.247 8.24072C13.8449 8.10667 13.5747 7.73171 13.5747 7.30773V6.06624C13.5747 5.93277 13.6651 5.81696 13.7945 5.78456L14.2209 5.67801C14.5219 5.82411 14.8562 5.90323 15.202 5.90323H15.6068C15.7668 5.90323 15.8971 6.03347 15.8971 6.19355V7.30773C15.8971 7.73171 15.6269 8.10667 15.2247 8.24069ZM12.1205 11.3884C12.1078 11.214 12.0457 11.0532 11.948 10.9199L11.9942 10.8122C12.2202 10.2848 12.6235 9.87146 13.1169 9.62865C12.8536 10.0149 12.7055 10.4775 12.7038 10.9672C12.501 11.0963 12.3065 11.2373 12.1205 11.3884ZM12.1232 9.17081V9.07064C12.1232 8.91902 12.1418 8.76758 12.1786 8.62057L12.3268 8.02762C12.3626 7.88417 12.3875 7.73803 12.4011 7.59083C12.4954 7.62593 12.5974 7.64516 12.7038 7.64516H13.0309C13.1323 8.10608 13.4377 8.49933 13.865 8.71003V8.82119C13.2239 8.88458 12.6314 9.15593 12.1698 9.581C12.1393 9.44647 12.1232 9.30864 12.1232 9.17081ZM12.9941 7.06452H12.7038C12.5437 7.06452 12.4135 6.93427 12.4135 6.77419C12.4135 6.61412 12.5437 6.48387 12.7038 6.48387H12.9941V7.06452ZM16.4777 6.48387H16.768C16.928 6.48387 17.0583 6.61412 17.0583 6.77419C17.0583 6.93427 16.928 7.06452 16.768 7.06452H16.4777V6.48387ZM14.7359 3.58065C16.0165 3.58065 17.0583 4.62254 17.0583 5.90323V5.95316C16.9674 5.92094 16.8698 5.90323 16.768 5.90323H16.4277C16.3079 5.56533 15.9852 5.32258 15.6068 5.32258H15.202C14.6439 5.32258 14.1258 5.04529 13.8162 4.58088L13.3331 4.90296C13.4136 5.02362 13.5046 5.13481 13.6043 5.23588C13.2952 5.33274 13.069 5.59087 13.0099 5.90319H12.7038C12.602 5.90319 12.5043 5.9209 12.4135 5.95312V5.90323C12.4135 4.62254 13.4553 3.58065 14.7359 3.58065ZM10.3814 11.9648C10.3814 11.8778 10.4153 11.7961 10.4767 11.7346L10.9869 11.2244C11.0484 11.1629 11.1301 11.129 11.2171 11.129C11.3966 11.129 11.5426 11.275 11.5426 11.4546C11.5426 11.5415 11.5087 11.6232 11.4473 11.6847L10.9371 12.195C10.8756 12.2564 10.7939 12.2903 10.7069 12.2903C10.5274 12.2903 10.3814 12.1443 10.3814 11.9648ZM17.3486 20.4194H10.3814V16.2567C10.3814 14.2697 11.4397 12.4003 13.1434 11.378L13.2844 11.2934V10.9758C13.2844 10.384 13.5664 9.84374 14.0359 9.50707L14.0561 9.54764C14.1857 9.80676 14.4462 9.96774 14.7359 9.96774C15.0256 9.96774 15.286 9.80676 15.4156 9.54757L15.4933 9.39232C15.5357 9.39461 15.5781 9.39726 15.6202 9.40118C15.6994 10.2941 16.1247 11.1259 16.8102 11.7135L17.2326 12.0757L15.8295 12.2316C15.7606 12.2392 15.6947 12.2553 15.6316 12.2773C15.4158 12.0916 15.1779 11.9483 14.9212 11.8516C14.3162 11.6239 13.6694 11.6685 13.0503 11.9807C12.172 12.4237 11.4809 13.338 11.1541 14.4892C10.8832 15.4434 10.8984 16.4444 11.1967 17.3076C11.5045 18.1984 12.0771 18.8407 12.8088 19.1162C13.0627 19.2118 13.3239 19.2593 13.5874 19.2593C13.9517 19.2593 14.3204 19.1682 14.6797 18.9871C15.558 18.5441 16.2491 17.6299 16.5759 16.4787C16.8088 15.658 16.8296 14.8042 16.6416 14.0323H17.3486V20.4194ZM16.0413 14.0323C16.2441 14.7416 16.2371 15.5456 16.0173 16.3201C15.7389 17.3008 15.1411 18.104 14.4182 18.4686C13.9481 18.7057 13.4623 18.7417 13.0133 18.5727C11.8104 18.1198 11.2269 16.359 11.7127 14.6477C11.991 13.6669 12.5888 12.8637 13.3117 12.4991C13.7818 12.262 14.2676 12.226 14.7165 12.3951C14.8756 12.455 15.0258 12.5395 15.166 12.6465C15.0914 12.7645 15.0433 12.9005 15.03 13.0462C14.8961 12.9368 14.7253 12.871 14.5393 12.871C14.4399 12.871 14.3427 12.8897 14.2507 12.9266L13.9643 13.0411C13.3975 13.2678 12.9641 13.7478 12.789 14.3256C12.4169 14.3562 12.1232 14.6683 12.123 15.0483V15.0612C12.123 15.2522 12.1975 15.4315 12.3329 15.566C12.468 15.7002 12.648 15.7741 12.8399 15.7741H12.862C12.9097 15.7741 12.9412 15.7985 12.9557 15.813C12.9701 15.8274 12.9944 15.8589 12.9944 15.9067L12.9944 15.9301C12.6475 16.1313 12.4135 16.5065 12.4135 16.9355C12.4135 17.5758 12.9344 18.0968 13.5747 18.0968C14.215 18.0968 14.7359 17.5758 14.7359 16.9355C14.7359 16.8461 14.7254 16.7593 14.7062 16.6756C15.0873 16.3826 15.3165 15.9274 15.3165 15.4368V15.4309C15.3165 15.046 15.1784 14.6824 14.9258 14.3966C15.1331 14.253 15.2699 14.0315 15.3064 13.7821C15.4685 13.9369 15.6879 14.0323 15.9292 14.0323H16.0413ZM14.4479 14.7355C14.6336 14.9212 14.7359 15.1682 14.7359 15.4309V15.4368C14.7359 15.7107 14.6224 15.9671 14.4293 16.1502C14.2169 15.9192 13.9124 15.7742 13.5747 15.7742C13.5706 15.7742 13.5666 15.7744 13.5626 15.7745C13.5365 15.6345 13.4693 15.5056 13.3664 15.4027C13.2317 15.2678 13.0526 15.1935 12.862 15.1935H12.84C12.8025 15.1935 12.7678 15.1795 12.7422 15.1541C12.7278 15.1399 12.7037 15.1088 12.7037 15.0613V15.0485C12.7037 14.9684 12.7689 14.9032 12.849 14.9032H12.9256C13.2153 14.9032 13.4758 15.0642 13.6053 15.3234L14.1247 15.0637C13.9663 14.747 13.697 14.5136 13.3766 14.4C13.5169 14.0313 13.8081 13.7291 14.1801 13.5802L14.4665 13.4657C14.4897 13.4563 14.5143 13.4516 14.5394 13.4516C14.6478 13.4516 14.7359 13.5398 14.7359 13.6482C14.7359 13.7744 14.6658 13.8879 14.5529 13.9444L13.9556 14.243L14.4479 14.7355ZM13.5747 16.3548C13.8948 16.3548 14.1553 16.6153 14.1553 16.9355C14.1553 17.2556 13.8948 17.5161 13.5747 17.5161C13.2545 17.5161 12.9941 17.2556 12.9941 16.9355C12.9941 16.6153 13.2545 16.3548 13.5747 16.3548ZM18.9349 13.4516H15.9292C15.7515 13.4516 15.6068 13.307 15.6068 13.1291C15.6068 12.9646 15.7301 12.8268 15.8936 12.8086L18.6257 12.505L17.188 11.2726C16.6604 10.8203 16.3182 10.194 16.218 9.51458C16.7309 9.66363 17.2009 9.94031 17.5891 10.3285L19.4554 12.195C19.5944 12.3341 19.671 12.5189 19.671 12.7155C19.671 13.1214 19.3408 13.4516 18.9349 13.4516Z" fill="#1A76D1"/>
<path d="M15.0255 7.23542C14.9479 7.31301 14.8448 7.35568 14.7352 7.35568C14.6255 7.35568 14.5224 7.31297 14.4448 7.23542L14.3598 7.15039L13.9492 7.56098L14.0342 7.64601C14.2215 7.83323 14.4704 7.93633 14.7352 7.93633C14.9999 7.93633 15.2488 7.83323 15.4361 7.64601L15.5211 7.56098L15.1105 7.15039L15.0255 7.23542Z" fill="#1A76D1"/>
<circle cx="12" cy="12" r="11.95" stroke="#1A76D1" stroke-width="0.1"/>
</svg>
