<svg width="24" height="24" viewBox="0 0 24 24" fill="none" xmlns="http://www.w3.org/2000/svg">
<path d="M17.6263 12.5346C17.5359 12.5074 17.4505 12.488 17.3622 12.4681C16.4295 12.2678 15.6415 11.7987 15.146 11.1476C14.9753 10.9214 14.8095 10.6673 14.6429 10.3783C13.9493 10.777 13.1523 10.9874 12.3181 10.9874C11.5207 10.9874 10.7537 10.7938 10.0808 10.4264C9.92776 10.691 9.76906 10.9328 9.60719 11.1469C9.11134 11.799 8.3221 12.2683 7.38458 12.4687C7.29932 12.4884 7.21529 12.5079 7.13444 12.5323C5.58015 12.9561 4.5 14.3055 4.5 15.8161V19.5H6.96498V15.907C6.96498 15.776 7.08343 15.6701 7.22977 15.6701C7.37611 15.6701 7.49455 15.776 7.49455 15.907V19.5H17.2574V15.907C17.2574 15.776 17.376 15.6701 17.5222 15.6701C17.6683 15.6701 17.787 15.776 17.787 15.907V19.5H20.25V15.8161C20.2498 14.3049 19.1711 12.9555 17.6263 12.5346ZM16.8791 15.1846C16.8791 15.4284 16.6572 15.6269 16.3847 15.6269H16.2662C16.2159 15.6269 16.1469 15.6366 16.0964 15.647C16.0932 15.7271 16.0856 15.8815 16.0766 15.9689L16.0577 16.153C16.0576 16.1657 16.0563 16.1762 16.0528 16.1894C15.9914 16.5711 15.8637 17.3301 15.2704 17.8668C14.8771 18.2239 14.4468 18.3504 14.0397 18.4491C13.6904 18.5339 13.4369 18.5736 12.9548 18.6186C12.9414 18.6198 12.7717 18.635 12.4837 18.6351C12.2033 18.6351 11.8107 18.6206 11.3405 18.5649C11.213 18.5497 10.9475 18.5184 10.7347 18.33C10.4805 18.1062 10.4676 17.8117 10.4676 17.7548C10.4676 17.5583 10.5511 17.4141 10.5784 17.3668C10.9145 16.7769 11.2035 16.2699 11.3106 15.8466C11.3528 15.6799 11.3493 15.5998 11.3454 15.515C11.3403 15.4055 11.3347 15.2815 11.4196 15.0566C11.5784 14.6318 11.8483 14.3009 12.221 14.0736C12.2826 14.0361 12.437 13.9508 12.6528 13.8776H12.5996C12.3271 13.8776 12.1052 13.6793 12.1052 13.4353V13.178C12.1052 12.9341 12.3269 12.7358 12.5996 12.7358H13.0298V12.6146C13.0298 12.3708 13.2515 12.1724 13.5241 12.1724H13.8115C14.0842 12.1724 14.3061 12.3708 14.3061 12.6146V13.7521C14.4581 13.7522 14.6277 13.7526 14.8233 13.7532V12.8751C14.8233 12.6312 15.0452 12.4327 15.3177 12.4327H15.6041C15.8766 12.4327 16.0985 12.6311 16.0985 12.8751V14.4863H16.385C16.6576 14.4863 16.8795 14.6849 16.8795 14.9287V15.1846H16.8791Z" fill="#1A76D1"/>
<path d="M14.7755 16.889H14.1779C13.9054 16.889 13.6835 16.6906 13.6835 16.4466V16.1895C13.6835 15.9457 13.9054 15.7471 14.1779 15.7471H14.6554C14.7022 15.7471 14.7652 15.7388 14.8143 15.7293C14.8189 15.6963 14.8229 15.6554 14.8229 15.6149V15.4275C14.8229 15.3932 14.8259 15.3594 14.83 15.3259C14.8305 15.3175 14.8309 15.307 14.8314 15.3002C14.8325 15.2849 14.8351 15.2695 14.8395 15.2547L14.8549 15.2024C14.9232 14.9428 15.1193 14.718 15.3915 14.5915L15.4876 14.5465C15.513 14.5347 15.5403 14.5266 15.5686 14.5225V12.9062H15.3525V13.9906C15.3525 14.0536 15.3244 14.1141 15.2747 14.1585C15.2249 14.2028 15.1527 14.2324 15.0867 14.2275C14.7785 14.2262 14.523 14.2256 14.3059 14.2254V14.3856C14.3059 14.5165 14.1873 14.6225 14.0411 14.6225C13.895 14.6225 13.7763 14.5165 13.7763 14.3856V12.6457H13.5594V12.7669C13.5594 13.0107 13.3375 13.2093 13.0649 13.2093H12.6347V13.4035H13.0649C13.313 13.4035 13.5174 13.5577 13.5521 13.7571C13.6759 13.7766 13.7702 13.8723 13.7709 13.9887C13.7716 14.1196 13.6536 14.2261 13.5075 14.2268L13.3765 14.2278C13.3589 14.2278 13.3373 14.2281 13.3085 14.2295C12.8925 14.2485 12.5783 14.4288 12.5197 14.4649C12.1048 14.7177 11.9668 15.0865 11.9214 15.2076C11.8678 15.3499 11.8702 15.4047 11.8743 15.4955C11.8789 15.5969 11.8849 15.7231 11.827 15.9513C11.7052 16.4324 11.4023 16.9639 11.0517 17.579C11.0331 17.6112 10.997 17.6738 10.997 17.7548C10.997 17.7561 10.9993 17.8984 11.1066 17.9927C11.1867 18.0636 11.2958 18.0816 11.41 18.0952C12.3024 18.201 12.8939 18.1478 12.8997 18.1474C13.355 18.1048 13.5797 18.0701 13.9013 17.9919C14.3234 17.8895 14.621 17.7817 14.8937 17.534C15.1211 17.3282 15.2621 17.0749 15.355 16.8285C15.3165 16.8389 15.2888 16.8446 15.281 16.8459C15.1412 16.8699 14.919 16.889 14.7755 16.889Z" fill="#1A76D1"/>
<path d="M10.1311 9.88992C10.7719 10.2979 11.5285 10.5136 12.3182 10.5136C13.1428 10.5136 13.9262 10.2805 14.5845 9.83922C15.5333 9.20337 16.0997 8.19068 16.0997 7.13046C16.0997 5.2665 14.4035 3.75 12.3182 3.75C10.2349 3.75 8.5401 5.2665 8.5401 7.13046C8.53992 8.22196 9.13481 9.25343 10.1311 9.88992Z" fill="#1A76D1"/>
<path d="M15.7276 14.9799C15.6962 14.9881 15.6655 14.9982 15.6364 15.0118C15.5003 15.075 15.4032 15.186 15.3686 15.3169C15.3599 15.3464 15.3582 15.3731 15.3564 15.4005C15.3539 15.4644 15.3525 15.5467 15.3525 15.6148V15.8022C15.3525 16.033 15.1428 16.2208 14.8849 16.2208C14.8597 16.2208 14.8358 16.2167 14.8125 16.2107C14.735 16.2194 14.6725 16.2208 14.6554 16.2208H14.213V16.415H14.7755C14.8847 16.415 15.0736 16.3988 15.1799 16.3803C15.1799 16.3803 15.2914 16.3577 15.377 16.2885C15.4397 16.2386 15.4609 16.2097 15.4611 16.2094C15.4888 16.1582 15.516 16.1086 15.5336 16.0763L15.5495 15.9246C15.5592 15.8311 15.568 15.6216 15.5686 15.5941C15.5686 15.5723 15.5686 15.5218 15.6367 15.3843C15.7486 15.1593 16.2138 15.1528 16.2662 15.1528H16.3495V14.9595H15.8764C15.8503 14.963 15.7931 14.9707 15.7276 14.9799Z" fill="#1A76D1"/>
<circle cx="12" cy="12" r="11.95" stroke="#1A76D1" stroke-width="0.1"/>
</svg>
