<svg width="24" height="24" viewBox="0 0 24 24" fill="none" xmlns="http://www.w3.org/2000/svg">
<path d="M13.8832 12.9609H3.31641V14.6323H5.50487C5.54398 14.6323 5.58149 14.6478 5.60915 14.6755C5.63681 14.7031 5.65234 14.7406 5.65234 14.7797C5.65234 14.8189 5.63681 14.8564 5.60915 14.884C5.58149 14.9117 5.54398 14.9272 5.50487 14.9272H4.15207V19.6954H19.8823V14.9272H8.98125C8.94214 14.9272 8.90463 14.9117 8.87697 14.884C8.84932 14.8564 8.83378 14.8189 8.83378 14.7797C8.83378 14.7406 8.84932 14.7031 8.87697 14.6755C8.90463 14.6478 8.94214 14.6323 8.98125 14.6323H20.718V12.9609H13.8832ZM7.29812 14.9272H6.68071C6.64159 14.9272 6.60408 14.9117 6.57643 14.884C6.54877 14.8564 6.53323 14.8189 6.53323 14.7797C6.53323 14.7406 6.54877 14.7031 6.57643 14.6755C6.60408 14.6478 6.64159 14.6323 6.68071 14.6323H7.29812C7.33723 14.6323 7.37474 14.6478 7.40239 14.6755C7.43005 14.7031 7.44559 14.7406 7.44559 14.7797C7.44559 14.8189 7.43005 14.8564 7.40239 14.884C7.37474 14.9117 7.33723 14.9272 7.29812 14.9272Z" fill="#1A76D1"/>
<path d="M3.40871 8.29019C3.39067 8.28213 3.37121 8.27777 3.35146 8.27737C3.33171 8.27698 3.31208 8.28056 3.29374 8.28789C3.2754 8.29523 3.25873 8.30617 3.2447 8.32008C3.23067 8.33398 3.21958 8.35056 3.21208 8.36884L3.01545 8.82305C3.00647 8.8411 3.00128 8.8608 3.00021 8.88093C2.99914 8.90106 3.0022 8.9212 3.00922 8.9401C3.01624 8.959 3.02706 8.97626 3.04101 8.99081C3.05496 9.00536 3.07175 9.0169 3.09033 9.02471C3.10892 9.03253 3.12891 9.03644 3.14907 9.03623C3.16923 9.03601 3.18913 9.03166 3.20754 9.02345C3.22595 9.01523 3.24248 9.00334 3.25612 8.98848C3.26975 8.97363 3.28019 8.95614 3.2868 8.93709L3.32219 8.88007L3.48932 8.48682C3.49706 8.46863 3.5011 8.44908 3.50123 8.42932C3.50135 8.40955 3.49756 8.38996 3.49006 8.37167C3.48256 8.35339 3.47151 8.33677 3.45755 8.32278C3.44358 8.30879 3.42698 8.29771 3.40871 8.29019Z" fill="#1A76D1"/>
<path d="M3.67522 7.81673C3.70422 7.81666 3.73256 7.80805 3.7567 7.79196C3.78083 7.77587 3.79968 7.75303 3.8109 7.72628L4.12747 6.96533C4.13553 6.9473 4.13989 6.92783 4.14028 6.90808C4.14067 6.88833 4.1371 6.86871 4.12976 6.85037C4.12243 6.83203 4.11148 6.81535 4.09758 6.80132C4.08367 6.78729 4.06709 6.7762 4.04881 6.7687C4.03078 6.76064 4.01131 6.75628 3.99157 6.75589C3.97182 6.75549 3.95219 6.75907 3.93385 6.76641C3.91551 6.77374 3.89883 6.78469 3.88481 6.79859C3.87078 6.8125 3.85968 6.82908 3.85219 6.84735L3.53955 7.61224C3.53176 7.63031 3.52762 7.64974 3.52736 7.66941C3.5271 7.68909 3.53072 7.70862 3.53803 7.72689C3.54534 7.74516 3.55618 7.7618 3.56994 7.77587C3.5837 7.78994 3.6001 7.80115 3.6182 7.80886C3.63667 7.81448 3.65592 7.81713 3.67522 7.81673Z" fill="#1A76D1"/>
<path d="M4.31197 6.29134C4.34097 6.29127 4.36931 6.28266 4.39344 6.26657C4.41757 6.25048 4.43643 6.22764 4.44764 6.20089L4.76421 5.43994C4.77227 5.42191 4.77663 5.40244 4.77703 5.38269C4.77742 5.36294 4.77384 5.34332 4.76651 5.32498C4.75917 5.30664 4.74823 5.28996 4.73432 5.27593C4.72042 5.2619 4.70383 5.25081 4.68556 5.24331C4.66753 5.23525 4.64806 5.23089 4.62831 5.2305C4.60856 5.2301 4.58894 5.23368 4.5706 5.24102C4.55226 5.24835 4.53558 5.2593 4.52155 5.2732C4.50752 5.28711 4.49643 5.30369 4.48893 5.32196L4.17236 6.08291C4.16457 6.10098 4.16043 6.12041 4.16017 6.14009C4.15991 6.15976 4.16354 6.17929 4.17084 6.19756C4.17815 6.21583 4.189 6.23248 4.20275 6.24655C4.21651 6.26062 4.23291 6.27183 4.25101 6.27954C4.27051 6.28692 4.29113 6.29091 4.31197 6.29134Z" fill="#1A76D1"/>
<path d="M5.07758 4.678L5.16803 4.46368H5.13067C5.08519 4.46353 5.04037 4.45279 4.99975 4.43231C4.95914 4.41183 4.92385 4.38218 4.89669 4.3457L4.80427 4.56396C4.7892 4.60075 4.7892 4.642 4.80429 4.67879C4.81937 4.71558 4.84832 4.74497 4.88489 4.76059C4.90325 4.76687 4.9225 4.77019 4.94191 4.77042C4.97114 4.77019 4.99964 4.76129 5.02379 4.74483C5.04795 4.72838 5.06667 4.70512 5.07758 4.678Z" fill="#1A76D1"/>
<path d="M9.05689 4.46369H9.01953L9.10998 4.67802C9.12119 4.70476 9.14005 4.72761 9.16418 4.7437C9.18831 4.75979 9.21665 4.7684 9.24565 4.76847C9.26506 4.76824 9.28431 4.76492 9.30267 4.75863C9.33924 4.74301 9.36819 4.71363 9.38328 4.67684C9.39836 4.64005 9.39837 4.5988 9.38329 4.56201L9.29088 4.34375C9.26392 4.38059 9.22872 4.41062 9.18809 4.43145C9.14747 4.45227 9.10254 4.46331 9.05689 4.46369Z" fill="#1A76D1"/>
<path d="M10.0745 6.9653L10.3911 7.72625C10.4023 7.753 10.4212 7.77585 10.4453 7.79194C10.4694 7.80802 10.4978 7.81664 10.5268 7.8167C10.5457 7.81968 10.5649 7.81968 10.5838 7.8167C10.6019 7.80899 10.6183 7.79778 10.632 7.78371C10.6458 7.76964 10.6566 7.753 10.664 7.73473C10.6713 7.71646 10.6749 7.69692 10.6746 7.67725C10.6744 7.65757 10.6702 7.63814 10.6624 7.62007L10.3459 6.85126C10.3384 6.83299 10.3273 6.81641 10.3132 6.8025C10.2992 6.78859 10.2825 6.77765 10.2642 6.77031C10.2459 6.76298 10.2262 6.7594 10.2065 6.7598C10.1867 6.76019 10.1673 6.76455 10.1492 6.77261C10.114 6.78853 10.0864 6.81764 10.0725 6.85368C10.0585 6.88972 10.0592 6.9298 10.0745 6.9653Z" fill="#1A76D1"/>
<path d="M9.43904 5.44377L9.75561 6.20472C9.76683 6.23146 9.78568 6.25431 9.80981 6.2704C9.83394 6.28649 9.86228 6.2951 9.89128 6.29517C9.91017 6.29815 9.92942 6.29815 9.94831 6.29517C9.96641 6.28745 9.98281 6.27624 9.99657 6.26217C10.0103 6.2481 10.0212 6.23146 10.0285 6.21319C10.0358 6.19492 10.0394 6.17539 10.0391 6.15571C10.0389 6.13604 10.0347 6.11661 10.027 6.09854L9.71039 5.33759C9.70289 5.31931 9.6918 5.30273 9.67777 5.28883C9.66374 5.27492 9.64706 5.26398 9.62872 5.25664C9.61038 5.24931 9.59076 5.24573 9.57101 5.24612C9.55126 5.24652 9.53179 5.25088 9.51376 5.25894C9.48043 5.27481 9.45427 5.30259 9.44044 5.33681C9.4266 5.37103 9.4261 5.4092 9.43904 5.44377Z" fill="#1A76D1"/>
<path d="M10.7064 8.48872L10.8735 8.88197L10.8971 8.93899C10.9083 8.96574 10.9272 8.98859 10.9513 9.00467C10.9755 9.02076 11.0038 9.02938 11.0328 9.02944C11.0561 9.02891 11.079 9.02286 11.0995 9.0118C11.12 9.00073 11.1376 8.98495 11.1508 8.96576C11.1641 8.94657 11.1726 8.92452 11.1756 8.90141C11.1787 8.8783 11.1763 8.85479 11.1685 8.83281L10.9718 8.3786C10.9643 8.36033 10.9533 8.34375 10.9392 8.32984C10.9252 8.31594 10.9085 8.30499 10.8902 8.29766C10.8718 8.29032 10.8522 8.28674 10.8325 8.28714C10.8127 8.28753 10.7933 8.29189 10.7752 8.29995C10.7423 8.31724 10.7171 8.34614 10.7044 8.38104C10.6916 8.41594 10.6924 8.45433 10.7064 8.48872Z" fill="#1A76D1"/>
<path d="M13.2368 8.29019C13.2188 8.28213 13.1993 8.27777 13.1796 8.27737C13.1598 8.27698 13.1402 8.28056 13.1219 8.28789C13.1035 8.29523 13.0869 8.30617 13.0728 8.32008C13.0588 8.33398 13.0477 8.35056 13.0402 8.36884L12.8436 8.82305C12.8346 8.8411 12.8294 8.8608 12.8283 8.88093C12.8273 8.90106 12.8303 8.9212 12.8373 8.9401C12.8444 8.959 12.8552 8.97626 12.8691 8.99081C12.8831 9.00536 12.8999 9.0169 12.9185 9.02471C12.937 9.03253 12.957 9.03644 12.9772 9.03623C12.9974 9.03601 13.0173 9.03166 13.0357 9.02345C13.0541 9.01523 13.0706 9.00334 13.0842 8.98848C13.0979 8.97363 13.1083 8.95614 13.1149 8.93709L13.1385 8.88007L13.3057 8.48682C13.322 8.45153 13.324 8.41125 13.3112 8.37453C13.2983 8.33782 13.2716 8.30756 13.2368 8.29019Z" fill="#1A76D1"/>
<path d="M14.1401 6.29134C14.1691 6.29127 14.1974 6.28266 14.2216 6.26657C14.2457 6.25048 14.2646 6.22764 14.2758 6.20089L14.5923 5.43994C14.6004 5.42191 14.6048 5.40244 14.6052 5.38269C14.6055 5.36294 14.602 5.34332 14.5946 5.32498C14.5873 5.30664 14.5764 5.28996 14.5624 5.27593C14.5485 5.2619 14.532 5.25081 14.5137 5.24331C14.4957 5.23525 14.4762 5.23089 14.4564 5.2305C14.4367 5.2301 14.4171 5.23368 14.3987 5.24102C14.3804 5.24835 14.3637 5.2593 14.3497 5.2732C14.3356 5.28711 14.3246 5.30369 14.3171 5.32196L14.0005 6.08291C13.9927 6.10098 13.9886 6.12041 13.9883 6.14009C13.988 6.15976 13.9917 6.17929 13.999 6.19756C14.0063 6.21583 14.0171 6.23248 14.0309 6.24655C14.0446 6.26062 14.061 6.27183 14.0791 6.27954C14.0986 6.28692 14.1193 6.29091 14.1401 6.29134Z" fill="#1A76D1"/>
<path d="M13.5034 7.81673C13.5324 7.81666 13.5607 7.80805 13.5848 7.79196C13.609 7.77587 13.6278 7.75303 13.639 7.72628L13.9556 6.96533C13.9637 6.9473 13.968 6.92783 13.9684 6.90808C13.9688 6.88833 13.9652 6.86871 13.9579 6.85037C13.9506 6.83203 13.9396 6.81535 13.9257 6.80132C13.9118 6.78729 13.8952 6.7762 13.877 6.7687C13.8589 6.76064 13.8395 6.75628 13.8197 6.75589C13.8 6.75549 13.7803 6.75907 13.762 6.76641C13.7437 6.77374 13.727 6.78469 13.713 6.79859C13.6989 6.8125 13.6878 6.82908 13.6803 6.84735L13.3638 7.6083C13.356 7.62637 13.3518 7.6458 13.3516 7.66548C13.3513 7.68515 13.3549 7.70469 13.3623 7.72295C13.3696 7.74122 13.3804 7.75787 13.3942 7.77194C13.4079 7.786 13.4243 7.79722 13.4424 7.80493C13.4619 7.81231 13.4825 7.8163 13.5034 7.81673Z" fill="#1A76D1"/>
<path d="M14.9135 4.678L15.004 4.46368H14.9666C14.9211 4.46353 14.8763 4.45279 14.8357 4.43231C14.7951 4.41183 14.7598 4.38218 14.7326 4.3457L14.6402 4.56396C14.6251 4.60075 14.6251 4.642 14.6402 4.67879C14.6553 4.71558 14.6843 4.74497 14.7208 4.76059C14.7392 4.76687 14.7584 4.77019 14.7778 4.77042C14.8071 4.77019 14.8356 4.76129 14.8597 4.74483C14.8839 4.72838 14.9026 4.70512 14.9135 4.678Z" fill="#1A76D1"/>
<path d="M18.8889 4.46369H18.8516L18.942 4.67802C18.9532 4.70476 18.9721 4.72761 18.9962 4.7437C19.0203 4.75979 19.0487 4.7684 19.0777 4.76847C19.0971 4.76824 19.1163 4.76492 19.1347 4.75863C19.1713 4.74301 19.2002 4.71363 19.2153 4.67684C19.2304 4.64005 19.2304 4.5988 19.2153 4.56201L19.1229 4.34375C19.0959 4.38059 19.0608 4.41062 19.0201 4.43145C18.9795 4.45227 18.9346 4.46331 18.8889 4.46369Z" fill="#1A76D1"/>
<path d="M19.9026 6.9653L20.2192 7.72625C20.2304 7.753 20.2493 7.77585 20.2734 7.79194C20.2975 7.80802 20.3259 7.81664 20.3549 7.8167C20.3738 7.81968 20.393 7.81968 20.4119 7.8167C20.43 7.80899 20.4464 7.79778 20.4602 7.78371C20.4739 7.76964 20.4848 7.753 20.4921 7.73473C20.4994 7.71646 20.503 7.69692 20.5028 7.67725C20.5025 7.65757 20.4983 7.63814 20.4906 7.62007L20.174 6.85126C20.1665 6.83299 20.1554 6.81641 20.1414 6.8025C20.1273 6.78859 20.1107 6.77765 20.0923 6.77031C20.074 6.76298 20.0544 6.7594 20.0346 6.7598C20.0149 6.76019 19.9954 6.76455 19.9774 6.77261C19.9421 6.78853 19.9146 6.81764 19.9006 6.85368C19.8866 6.88972 19.8874 6.9298 19.9026 6.9653Z" fill="#1A76D1"/>
<path d="M19.2672 5.44377L19.5837 6.20472C19.595 6.23146 19.6138 6.25431 19.6379 6.2704C19.6621 6.28649 19.6904 6.2951 19.7194 6.29517C19.7383 6.29815 19.7575 6.29815 19.7764 6.29517C19.7945 6.28745 19.8109 6.27624 19.8247 6.26217C19.8384 6.2481 19.8493 6.23146 19.8566 6.21319C19.8639 6.19492 19.8675 6.17539 19.8673 6.15571C19.867 6.13604 19.8629 6.11661 19.8551 6.09854L19.5385 5.33759C19.531 5.31931 19.5199 5.30273 19.5059 5.28883C19.4919 5.27492 19.4752 5.26398 19.4568 5.25664C19.4385 5.24931 19.4189 5.24573 19.3991 5.24612C19.3794 5.24652 19.3599 5.25088 19.3419 5.25894C19.3086 5.27481 19.2824 5.30259 19.2686 5.33681C19.2547 5.37103 19.2542 5.4092 19.2672 5.44377Z" fill="#1A76D1"/>
<path d="M20.8087 8.36884C20.8012 8.35056 20.7901 8.33398 20.7761 8.32008C20.762 8.30617 20.7454 8.29523 20.727 8.28789C20.7087 8.28056 20.6891 8.27698 20.6693 8.27737C20.6496 8.27777 20.6301 8.28213 20.6121 8.29019C20.5938 8.29771 20.5772 8.30879 20.5632 8.32278C20.5493 8.33677 20.5382 8.35339 20.5307 8.37167C20.5232 8.38996 20.5194 8.40955 20.5195 8.42932C20.5197 8.44908 20.5237 8.46863 20.5314 8.48682L20.6986 8.88007L20.7222 8.93709C20.7334 8.96384 20.7522 8.98669 20.7764 9.00277C20.8005 9.01886 20.8288 9.02748 20.8578 9.02754C20.8811 9.02701 20.904 9.02096 20.9245 9.00989C20.945 8.99882 20.9626 8.98305 20.9759 8.96386C20.9891 8.94467 20.9976 8.92262 21.0007 8.89951C21.0037 8.8764 21.0013 8.85289 20.9935 8.83091L20.8087 8.36884Z" fill="#1A76D1"/>
<path d="M5.62802 12.6662C6.36103 12.6662 6.95526 12.072 6.95526 11.339C6.95526 10.6059 6.36103 10.0117 5.62802 10.0117C4.89501 10.0117 4.30078 10.6059 4.30078 11.339C4.30078 12.072 4.89501 12.6662 5.62802 12.6662Z" fill="#1A76D1"/>
<path d="M9.33562 12.6658H13.8187C13.8548 12.6361 13.8846 12.5994 13.9062 12.5579C13.9278 12.5165 13.9408 12.4711 13.9445 12.4244C13.9481 12.3778 13.9424 12.331 13.9275 12.2866C13.9127 12.2423 13.8891 12.2014 13.8581 12.1664C13.8266 12.131 13.5612 11.9383 11.4474 11.6905C11.4281 11.6886 11.4093 11.6828 11.3923 11.6735C11.3752 11.6642 11.3602 11.6515 11.3481 11.6363C11.336 11.6211 11.3271 11.6036 11.3218 11.5849C11.3166 11.5662 11.3152 11.5466 11.3176 11.5273C11.3226 11.4887 11.3424 11.4535 11.3729 11.4293C11.4033 11.405 11.4421 11.3937 11.4808 11.3976C13.8404 11.6748 14.0173 11.8931 14.0901 11.9874C14.1463 12.0526 14.1884 12.1287 14.2138 12.2109C14.2392 12.2931 14.2473 12.3797 14.2375 12.4652C14.2283 12.534 14.207 12.6005 14.1746 12.6619H19.2083C19.3447 12.6718 19.4794 12.6271 19.5828 12.5377C19.6863 12.4483 19.7499 12.3214 19.7598 12.1851C19.7697 12.0487 19.7251 11.914 19.6357 11.8105C19.5462 11.7071 19.4194 11.6434 19.283 11.6335C18.0659 11.4369 15.8558 11.0771 14.7606 10.6995C13.8993 10.4066 12.0864 10.2964 10.6314 10.2964C9.95727 10.2753 9.28262 10.3161 8.61596 10.4184C8.17945 10.5383 8.05754 11.313 8.02608 11.7653C8.01689 11.88 8.03173 11.9954 8.06965 12.1041C8.10757 12.2127 8.16773 12.3123 8.2463 12.3964C8.32309 12.4799 8.41643 12.5464 8.52036 12.5918C8.6243 12.6371 8.73655 12.6603 8.84995 12.6599L9.33562 12.6658ZM9.34742 11.1911C9.34742 11.1911 9.82129 11.2265 10.4662 11.2894C10.5053 11.2912 10.5421 11.3085 10.5685 11.3375C10.5949 11.3664 10.6086 11.4047 10.6068 11.4438C10.605 11.4829 10.5877 11.5197 10.5588 11.546C10.5298 11.5724 10.4916 11.5862 10.4525 11.5844H10.4348C9.79376 11.5214 9.32186 11.486 9.32186 11.486C9.30247 11.4846 9.28357 11.4792 9.26624 11.4704C9.24891 11.4616 9.2335 11.4494 9.22089 11.4346C9.20828 11.4198 9.19872 11.4027 9.19276 11.3842C9.18681 11.3657 9.18457 11.3462 9.18618 11.3268C9.19017 11.2876 9.20923 11.2516 9.23933 11.2263C9.26942 11.201 9.30819 11.1883 9.34742 11.1911Z" fill="#1A76D1"/>
<path d="M7.09548 5.34376C7.35466 5.3425 7.60621 5.25594 7.81128 5.09743C8.01634 4.93892 8.1635 4.7173 8.23002 4.4668H5.96094C6.02746 4.7173 6.17462 4.93892 6.37968 5.09743C6.58475 5.25594 6.8363 5.3425 7.09548 5.34376Z" fill="#1A76D1"/>
<path d="M6.91426 4.1629H9.06537C9.06537 4.1629 9.06537 2 7.09909 2C5.13281 2 5.13281 4.1629 5.13281 4.1629H6.91426Z" fill="#1A76D1"/>
<path d="M15.793 4.4668C15.8633 4.71345 16.0121 4.93046 16.2168 5.08496C16.4215 5.23946 16.671 5.32305 16.9275 5.32305C17.184 5.32305 17.4335 5.23946 17.6382 5.08496C17.8429 4.93046 17.9917 4.71345 18.0621 4.4668H15.793Z" fill="#1A76D1"/>
<path d="M18.8935 4.1629C18.8935 4.1629 18.8935 2 16.9272 2C14.9609 2 14.9609 4.1629 14.9609 4.1629H18.8935Z" fill="#1A76D1"/>
<circle cx="12" cy="12" r="11.95" stroke="#1A76D1" stroke-width="0.1"/>
</svg>
