<svg width="24" height="24" viewBox="0 0 24 24" fill="none" xmlns="http://www.w3.org/2000/svg">
<path d="M4.39825 14.1255C5.16877 14.1224 5.79434 13.2411 5.79794 12.1529C5.79434 11.0616 5.1684 10.1798 4.39825 10.1777C3.62413 10.1793 2.99856 11.0616 3 12.1529C2.99856 13.2411 3.62377 14.123 4.39825 14.1255Z" fill="#1A76D1"/>
<path d="M7.58856 10.3469C6.77514 11.0951 6.48813 11.7457 6.43369 11.8829C5.99417 12.7683 6.34283 14.1961 7.4858 14.193H7.50671H7.50743H12.7976C13.8374 14.1956 13.8352 12.3185 12.7976 12.3089H8.45498V11.7106H12.7976C13.5883 11.7182 14.0004 12.4944 14.0004 13.2568C14.0004 13.5963 13.9171 13.916 13.77 14.1773L20.2262 14.159C20.6513 14.16 20.9963 13.6116 20.9978 12.9335C20.9978 12.256 20.5236 11.7721 20.228 11.7055L11.0582 9.57994C11.0582 9.58045 8.89378 9.14638 7.58856 10.3469Z" fill="#1A76D1"/>
<path d="M7.40667 20.9998C8.39461 20.9998 8.54929 19.4277 8.54929 19.4277L6.25 19.4354C6.25 19.4354 6.47823 20.9998 7.40667 20.9998Z" fill="#1A76D1"/>
<path d="M9.29904 16.9543C9.40288 16.8461 9.42631 16.6397 9.35024 16.4939C9.27272 16.3449 9.12669 16.3139 9.02285 16.4207C8.91757 16.5279 8.89449 16.7353 8.97057 16.8827C9.04773 17.0301 9.19411 17.0626 9.29904 16.9543Z" fill="#1A76D1"/>
<path d="M8.9976 17.9487C9.10253 17.842 9.1256 17.6346 9.0488 17.4857C8.97201 17.3398 8.82598 17.3073 8.72142 17.4161C8.61649 17.5228 8.59378 17.7297 8.67022 17.876C8.7463 18.025 8.8934 18.057 8.9976 17.9487Z" fill="#1A76D1"/>
<path d="M8.57581 18.9611C8.68001 18.8533 8.70417 18.6465 8.62737 18.4991C8.55057 18.3517 8.4031 18.3191 8.29962 18.4269C8.1947 18.5331 8.17198 18.742 8.24806 18.8894C8.32486 19.0363 8.47125 19.0693 8.57581 18.9611Z" fill="#1A76D1"/>
<path d="M8.14108 16.8882C8.05779 16.75 8.07077 16.5431 8.16704 16.4252C8.26728 16.3078 8.4133 16.3261 8.49623 16.4638C8.57808 16.6016 8.56726 16.8095 8.46883 16.9279C8.3704 17.0423 8.22401 17.0255 8.14108 16.8882Z" fill="#1A76D1"/>
<path d="M7.31222 16.8928C7.22316 16.7642 7.22388 16.5569 7.31546 16.4308C7.40741 16.3042 7.55452 16.3078 7.64465 16.4364C7.73335 16.5645 7.73191 16.7708 7.64069 16.8989C7.54983 17.024 7.40164 17.0229 7.31222 16.8928Z" fill="#1A76D1"/>
<path d="M6.60756 16.9779C6.736 16.9779 6.84012 16.8312 6.84012 16.6501C6.84012 16.469 6.736 16.3223 6.60756 16.3223C6.47912 16.3223 6.375 16.469 6.375 16.6501C6.375 16.8312 6.47912 16.9779 6.60756 16.9779Z" fill="#1A76D1"/>
<path d="M5.5966 16.9018C5.49312 16.7905 5.47329 16.5842 5.55225 16.4378C5.6305 16.2929 5.7776 16.266 5.88144 16.3768C5.98384 16.4876 6.00295 16.695 5.92543 16.8398C5.84647 16.9862 5.69936 17.0126 5.5966 16.9018Z" fill="#1A76D1"/>
<path d="M7.96941 17.885C7.88576 17.7473 7.89874 17.5404 7.99609 17.423C8.09597 17.3066 8.24163 17.3234 8.32528 17.4616C8.40785 17.5999 8.39559 17.8073 8.29716 17.9226C8.19909 18.0416 8.05306 18.0238 7.96941 17.885Z" fill="#1A76D1"/>
<path d="M7.47048 17.9906C7.59872 17.9906 7.70268 17.844 7.70268 17.6633C7.70268 17.4825 7.59872 17.3359 7.47048 17.3359C7.34224 17.3359 7.23828 17.4825 7.23828 17.6633C7.23828 17.844 7.34224 17.9906 7.47048 17.9906Z" fill="#1A76D1"/>
<path d="M6.75245 17.9809C6.88109 17.9809 6.98537 17.8339 6.98537 17.6526C6.98537 17.4712 6.88109 17.3242 6.75245 17.3242C6.62381 17.3242 6.51953 17.4712 6.51953 17.6526C6.51953 17.8339 6.62381 17.9809 6.75245 17.9809Z" fill="#1A76D1"/>
<path d="M6.01597 17.9743C6.14561 17.9743 6.2507 17.8261 6.2507 17.6434C6.2507 17.4606 6.14561 17.3125 6.01597 17.3125C5.88634 17.3125 5.78125 17.4606 5.78125 17.6434C5.78125 17.8261 5.88634 17.9743 6.01597 17.9743Z" fill="#1A76D1"/>
<path d="M7.55564 18.8971C7.47199 18.7589 7.48389 18.552 7.58304 18.4351C7.68003 18.3177 7.82714 18.3355 7.91007 18.4742C7.993 18.612 7.98038 18.8183 7.88267 18.9363C7.78424 19.0537 7.63929 19.0359 7.55564 18.8971Z" fill="#1A76D1"/>
<path d="M6.84779 18.9042C6.75765 18.7746 6.75945 18.5672 6.85103 18.4406C6.94333 18.3141 7.08972 18.3171 7.17878 18.4472C7.26892 18.5753 7.2682 18.7822 7.17626 18.9093C7.08431 19.0363 6.93757 19.0323 6.84779 18.9042Z" fill="#1A76D1"/>
<path d="M6.30468 18.9908C6.43411 18.9908 6.53904 18.8429 6.53904 18.6605C6.53904 18.478 6.43411 18.3301 6.30468 18.3301C6.17524 18.3301 6.07031 18.478 6.07031 18.6605C6.07031 18.8429 6.17524 18.9908 6.30468 18.9908Z" fill="#1A76D1"/>
<path d="M12.1606 20.9998C13.1489 20.9998 13.3028 19.4277 13.3028 19.4277L11.0039 19.4354C11.0039 19.4354 11.2321 20.9998 12.1606 20.9998Z" fill="#1A76D1"/>
<path d="M14.0522 16.9543C14.1556 16.8461 14.1798 16.6397 14.1041 16.4939C14.0258 16.3449 13.8802 16.3139 13.7763 16.4207C13.6714 16.5279 13.6487 16.7353 13.7241 16.8827C13.8016 17.0301 13.948 17.0626 14.0522 16.9543Z" fill="#1A76D1"/>
<path d="M13.7513 17.9487C13.8558 17.842 13.8793 17.6346 13.8028 17.4857C13.7257 17.3398 13.58 17.3073 13.4751 17.4161C13.3705 17.5228 13.3478 17.7297 13.4239 17.876C13.5007 18.025 13.6478 18.057 13.7513 17.9487Z" fill="#1A76D1"/>
<path d="M13.3305 18.9611C13.4339 18.8533 13.4581 18.6465 13.3813 18.4991C13.3045 18.3517 13.1574 18.3191 13.0539 18.4269C12.949 18.5331 12.9256 18.742 13.002 18.8894C13.0784 19.0363 13.2259 19.0693 13.3305 18.9611Z" fill="#1A76D1"/>
<path d="M12.8952 16.8882C12.8116 16.75 12.8249 16.5431 12.9204 16.4252C13.021 16.3078 13.1671 16.3261 13.2496 16.4638C13.3322 16.6016 13.3207 16.8095 13.2229 16.9279C13.1245 17.0423 12.9778 17.0255 12.8952 16.8882Z" fill="#1A76D1"/>
<path d="M12.0659 16.8928C11.9772 16.7642 11.9779 16.5569 12.0691 16.4308C12.1614 16.3042 12.3078 16.3078 12.3983 16.4364C12.487 16.5645 12.4855 16.7708 12.3943 16.8989C12.3038 17.024 12.1556 17.0229 12.0659 16.8928Z" fill="#1A76D1"/>
<path d="M11.3615 16.9779C11.4899 16.9779 11.594 16.8312 11.594 16.6501C11.594 16.469 11.4899 16.3223 11.3615 16.3223C11.233 16.3223 11.1289 16.469 11.1289 16.6501C11.1289 16.8312 11.233 16.9779 11.3615 16.9779Z" fill="#1A76D1"/>
<path d="M10.3504 16.9018C10.2473 16.7905 10.2271 16.5842 10.3061 16.4378C10.3843 16.2929 10.5314 16.266 10.6352 16.3768C10.7376 16.4876 10.7568 16.695 10.6796 16.8398C10.6003 16.9862 10.4532 17.0126 10.3504 16.9018Z" fill="#1A76D1"/>
<path d="M12.7237 17.885C12.6397 17.7473 12.6523 17.5404 12.7501 17.423C12.8492 17.3066 12.9952 17.3234 13.0785 17.4616C13.1615 17.5999 13.1488 17.8073 13.0511 17.9226C12.9527 18.0416 12.807 18.0238 12.7237 17.885Z" fill="#1A76D1"/>
<path d="M12.2244 17.9906C12.3526 17.9906 12.4566 17.844 12.4566 17.6633C12.4566 17.4825 12.3526 17.3359 12.2244 17.3359C12.0961 17.3359 11.9922 17.4825 11.9922 17.6633C11.9922 17.844 12.0961 17.9906 12.2244 17.9906Z" fill="#1A76D1"/>
<path d="M11.5064 17.9809C11.635 17.9809 11.7393 17.8339 11.7393 17.6526C11.7393 17.4712 11.635 17.3242 11.5064 17.3242C11.3777 17.3242 11.2734 17.4712 11.2734 17.6526C11.2734 17.8339 11.3777 17.9809 11.5064 17.9809Z" fill="#1A76D1"/>
<path d="M10.766 17.9743C10.8956 17.9743 11.0007 17.8261 11.0007 17.6434C11.0007 17.4606 10.8956 17.3125 10.766 17.3125C10.6363 17.3125 10.5312 17.4606 10.5312 17.6434C10.5312 17.8261 10.6363 17.9743 10.766 17.9743Z" fill="#1A76D1"/>
<path d="M12.3089 18.8971C12.226 18.7589 12.2379 18.552 12.3371 18.4351C12.4344 18.3177 12.5815 18.3355 12.6637 18.4742C12.747 18.612 12.7344 18.8183 12.6367 18.9363C12.5379 19.0537 12.393 19.0359 12.3089 18.8971Z" fill="#1A76D1"/>
<path d="M11.6016 18.9042C11.5114 18.7746 11.5136 18.5672 11.6048 18.4406C11.6971 18.3141 11.8439 18.3171 11.9326 18.4472C12.0227 18.5753 12.022 18.7822 11.93 18.9093C11.8384 19.0358 11.6913 19.0323 11.6016 18.9042Z" fill="#1A76D1"/>
<path d="M11.0547 18.9908C11.1841 18.9908 11.289 18.8429 11.289 18.6605C11.289 18.478 11.1841 18.3301 11.0547 18.3301C10.9252 18.3301 10.8203 18.478 10.8203 18.6605C10.8203 18.8429 10.9252 18.9908 11.0547 18.9908Z" fill="#1A76D1"/>
<path d="M16.9109 20.9998C17.8985 20.9998 18.0532 19.4277 18.0532 19.4277L15.7539 19.4354C15.7539 19.4354 15.9825 20.9998 16.9109 20.9998Z" fill="#1A76D1"/>
<path d="M18.8026 16.9543C18.9061 16.8461 18.9299 16.6397 18.8538 16.4939C18.7759 16.3449 18.6303 16.3139 18.5261 16.4207C18.4219 16.5279 18.3984 16.7353 18.4741 16.8827C18.5513 17.0301 18.6977 17.0626 18.8026 16.9543Z" fill="#1A76D1"/>
<path d="M18.5052 17.9487C18.6104 17.842 18.6328 17.6346 18.5567 17.4857C18.4792 17.3398 18.3335 17.3073 18.229 17.4161C18.1244 17.5228 18.1017 17.7297 18.1778 17.876C18.2542 18.025 18.4013 18.057 18.5052 17.9487Z" fill="#1A76D1"/>
<path d="M18.0876 18.9611C18.1918 18.8533 18.2152 18.6465 18.1391 18.4991C18.0616 18.3517 17.9145 18.3191 17.8118 18.4269C17.7065 18.5331 17.6838 18.742 17.7595 18.8894C17.8366 19.0363 17.983 19.0693 18.0876 18.9611Z" fill="#1A76D1"/>
<path d="M17.6493 16.8882C17.5653 16.75 17.5787 16.5431 17.6749 16.4252C17.7748 16.3078 17.9208 16.3261 18.0034 16.4638C18.086 16.6016 18.0744 16.8095 17.9767 16.9279C17.8783 17.0423 17.7319 17.0255 17.6493 16.8882Z" fill="#1A76D1"/>
<path d="M16.8234 16.8928C16.7351 16.7642 16.7358 16.5569 16.8266 16.4308C16.9193 16.3042 17.0657 16.3078 17.1558 16.4364C17.2445 16.5645 17.2431 16.7708 17.1519 16.8989C17.061 17.024 16.9132 17.0229 16.8234 16.8928Z" fill="#1A76D1"/>
<path d="M16.1154 16.9779C16.2438 16.9779 16.3479 16.8312 16.3479 16.6501C16.3479 16.469 16.2438 16.3223 16.1154 16.3223C15.9869 16.3223 15.8828 16.469 15.8828 16.6501C15.8828 16.8312 15.9869 16.9779 16.1154 16.9779Z" fill="#1A76D1"/>
<path d="M15.1046 16.9018C15.0011 16.7905 14.9809 16.5842 15.0602 16.4378C15.1385 16.2929 15.2856 16.266 15.3887 16.3768C15.4922 16.4876 15.5113 16.695 15.433 16.8398C15.3544 16.9862 15.2073 17.0126 15.1046 16.9018Z" fill="#1A76D1"/>
<path d="M17.4774 17.885C17.3937 17.7473 17.4063 17.5404 17.5037 17.423C17.6028 17.3066 17.7492 17.3234 17.8329 17.4616C17.9155 17.5999 17.9028 17.8073 17.8051 17.9226C17.7067 18.0416 17.5607 18.0238 17.4774 17.885Z" fill="#1A76D1"/>
<path d="M16.8152 17.8906C16.7269 17.762 16.7283 17.5551 16.8192 17.4291C16.9108 17.303 17.0579 17.3051 17.1477 17.4342C17.2378 17.5643 17.2349 17.7707 17.1444 17.8967C17.0528 18.0228 16.9057 18.0207 16.8152 17.8906Z" fill="#1A76D1"/>
<path d="M16.1069 17.8989C16.0092 17.7789 16.0006 17.5706 16.086 17.4359C16.1711 17.2991 16.3186 17.2864 16.4145 17.4064C16.51 17.5268 16.5187 17.7342 16.4347 17.8694C16.3489 18.0051 16.2018 18.0194 16.1069 17.8989Z" fill="#1A76D1"/>
<path d="M15.5199 17.9743C15.6495 17.9743 15.7546 17.8261 15.7546 17.6434C15.7546 17.4606 15.6495 17.3125 15.5199 17.3125C15.3902 17.3125 15.2852 17.4606 15.2852 17.6434C15.2852 17.8261 15.3902 17.9743 15.5199 17.9743Z" fill="#1A76D1"/>
<path d="M17.0635 18.8971C16.9798 18.7589 16.9917 18.552 17.0909 18.4351C17.1882 18.3177 17.3353 18.3355 17.4179 18.4742C17.5008 18.612 17.4882 18.8183 17.3905 18.9363C17.292 19.0537 17.1471 19.0359 17.0635 18.8971Z" fill="#1A76D1"/>
<path d="M16.355 18.9042C16.2656 18.7746 16.2674 18.5672 16.3586 18.4406C16.4513 18.3141 16.5977 18.3171 16.6864 18.4472C16.7761 18.5753 16.7754 18.7822 16.6835 18.9093C16.5926 19.0358 16.4452 19.0323 16.355 18.9042Z" fill="#1A76D1"/>
<path d="M15.6707 18.9237C15.5672 18.8124 15.5477 18.6045 15.6263 18.4607C15.7049 18.3143 15.8513 18.2874 15.9555 18.3982C16.0575 18.5085 16.077 18.7169 15.9991 18.8612C15.9209 19.0066 15.7734 19.034 15.6707 18.9237Z" fill="#1A76D1"/>
<path d="M7.40667 3C8.39461 3 8.54929 4.57107 8.54929 4.57107L6.25 4.56396C6.25 4.56396 6.47823 3 7.40667 3Z" fill="#1A76D1"/>
<path d="M9.29904 7.04154C9.40288 7.14879 9.42631 7.35565 9.35024 7.50204C9.27272 7.64994 9.12669 7.68196 9.02285 7.57472C8.91757 7.46798 8.89449 7.2601 8.97057 7.1127C9.04773 6.96479 9.19411 6.93175 9.29904 7.04154Z" fill="#1A76D1"/>
<path d="M8.85936 6.64513C8.9888 6.64513 9.09373 6.49722 9.09373 6.31475C9.09373 6.13229 8.9888 5.98438 8.85936 5.98438C8.72993 5.98438 8.625 6.13229 8.625 6.31475C8.625 6.49722 8.72993 6.64513 8.85936 6.64513Z" fill="#1A76D1"/>
<path d="M8.43785 5.63833C8.56748 5.63833 8.67257 5.49019 8.67257 5.30745C8.67257 5.12471 8.56748 4.97656 8.43785 4.97656C8.30821 4.97656 8.20312 5.12471 8.20312 5.30745C8.20312 5.49019 8.30821 5.63833 8.43785 5.63833Z" fill="#1A76D1"/>
<path d="M8.14108 7.10813C8.05779 7.24638 8.07077 7.45325 8.16704 7.57117C8.26728 7.68858 8.4133 7.67079 8.49623 7.53254C8.57808 7.39429 8.56726 7.1864 8.46883 7.06848C8.3704 6.95311 8.22401 6.97039 8.14108 7.10813Z" fill="#1A76D1"/>
<path d="M7.31222 7.1065C7.22316 7.2356 7.22388 7.44247 7.31546 7.56852C7.40741 7.69559 7.55452 7.69254 7.64465 7.56344C7.73335 7.43485 7.73191 7.22798 7.64069 7.10091C7.54983 6.97486 7.40164 6.97689 7.31222 7.1065Z" fill="#1A76D1"/>
<path d="M6.60756 7.67716C6.736 7.67716 6.84012 7.53038 6.84012 7.34932C6.84012 7.16826 6.736 7.02148 6.60756 7.02148C6.47912 7.02148 6.375 7.16826 6.375 7.34932C6.375 7.53038 6.47912 7.67716 6.60756 7.67716Z" fill="#1A76D1"/>
<path d="M5.73827 7.6881C5.8677 7.6881 5.97263 7.54018 5.97263 7.35772C5.97263 7.17526 5.8677 7.02734 5.73827 7.02734C5.60883 7.02734 5.50391 7.17526 5.50391 7.35772C5.50391 7.54018 5.60883 7.6881 5.73827 7.6881Z" fill="#1A76D1"/>
<path d="M7.96941 6.11423C7.88576 6.25248 7.89874 6.45884 7.99609 6.57625C8.09597 6.69315 8.24163 6.67638 8.32528 6.53762C8.40785 6.39937 8.39559 6.19301 8.29716 6.07661C8.19909 5.95819 8.05306 5.97598 7.96941 6.11423Z" fill="#1A76D1"/>
<path d="M7.47048 6.66247C7.59872 6.66247 7.70268 6.51592 7.70268 6.33514C7.70268 6.15436 7.59872 6.00781 7.47048 6.00781C7.34224 6.00781 7.23828 6.15436 7.23828 6.33514C7.23828 6.51592 7.34224 6.66247 7.47048 6.66247Z" fill="#1A76D1"/>
<path d="M6.59844 6.1016C6.50145 6.22155 6.49316 6.42995 6.57753 6.56413C6.66298 6.70086 6.81045 6.71407 6.906 6.59463C7.00226 6.47366 7.01092 6.26628 6.92655 6.13057C6.84109 5.99537 6.69399 5.98114 6.59844 6.1016Z" fill="#1A76D1"/>
<path d="M6.01597 6.68912C6.14561 6.68912 6.2507 6.54097 6.2507 6.35823C6.2507 6.17549 6.14561 6.02734 6.01597 6.02734C5.88634 6.02734 5.78125 6.17549 5.78125 6.35823C5.78125 6.54097 5.88634 6.68912 6.01597 6.68912Z" fill="#1A76D1"/>
<path d="M7.55564 5.10314C7.47199 5.24089 7.48389 5.44725 7.58304 5.56516C7.68003 5.68207 7.82714 5.66428 7.91007 5.52603C7.993 5.38778 7.98038 5.18142 7.88267 5.06401C7.78424 4.9466 7.63929 4.96439 7.55564 5.10314Z" fill="#1A76D1"/>
<path d="M6.84779 5.09454C6.75765 5.22313 6.75945 5.4305 6.85103 5.55808C6.94333 5.68413 7.08972 5.68108 7.17878 5.55147C7.26892 5.42339 7.2682 5.21601 7.17626 5.08945C7.08467 4.96238 6.93757 4.96594 6.84779 5.09454Z" fill="#1A76D1"/>
<path d="M6.30468 5.66857C6.43411 5.66857 6.53904 5.52065 6.53904 5.33819C6.53904 5.15573 6.43411 5.00781 6.30468 5.00781C6.17524 5.00781 6.07031 5.15573 6.07031 5.33819C6.07031 5.52065 6.17524 5.66857 6.30468 5.66857Z" fill="#1A76D1"/>
<path d="M12.1606 3C13.1489 3 13.3028 4.57107 13.3028 4.57107L11.0039 4.56396C11.0039 4.56396 11.2321 3 12.1606 3Z" fill="#1A76D1"/>
<path d="M14.0522 7.04154C14.1556 7.14879 14.1798 7.35565 14.1041 7.50204C14.0258 7.64994 13.8802 7.68196 13.7763 7.57472C13.6714 7.46798 13.6487 7.2601 13.7241 7.1127C13.8016 6.96479 13.948 6.93175 14.0522 7.04154Z" fill="#1A76D1"/>
<path d="M13.6133 6.64513C13.7427 6.64513 13.8476 6.49722 13.8476 6.31475C13.8476 6.13229 13.7427 5.98438 13.6133 5.98438C13.4838 5.98438 13.3789 6.13229 13.3789 6.31475C13.3789 6.49722 13.4838 6.64513 13.6133 6.64513Z" fill="#1A76D1"/>
<path d="M13.1918 5.63833C13.3214 5.63833 13.4265 5.49019 13.4265 5.30745C13.4265 5.12471 13.3214 4.97656 13.1918 4.97656C13.0621 4.97656 12.957 5.12471 12.957 5.30745C12.957 5.49019 13.0621 5.63833 13.1918 5.63833Z" fill="#1A76D1"/>
<path d="M12.8952 7.10813C12.8116 7.24638 12.8249 7.45325 12.9204 7.57117C13.021 7.68858 13.1671 7.67079 13.2496 7.53254C13.3322 7.39429 13.3207 7.1864 13.2229 7.06848C13.1245 6.95311 12.9778 6.97039 12.8952 7.10813Z" fill="#1A76D1"/>
<path d="M12.0659 7.1065C11.9772 7.2356 11.9779 7.44247 12.0691 7.56852C12.1614 7.69559 12.3078 7.69254 12.3983 7.56344C12.487 7.43485 12.4855 7.22798 12.3943 7.10091C12.3038 6.97486 12.1556 6.97689 12.0659 7.1065Z" fill="#1A76D1"/>
<path d="M11.3615 7.67716C11.4899 7.67716 11.594 7.53038 11.594 7.34932C11.594 7.16826 11.4899 7.02148 11.3615 7.02148C11.233 7.02148 11.1289 7.16826 11.1289 7.34932C11.1289 7.53038 11.233 7.67716 11.3615 7.67716Z" fill="#1A76D1"/>
<path d="M10.4922 7.6881C10.6216 7.6881 10.7265 7.54018 10.7265 7.35772C10.7265 7.17526 10.6216 7.02734 10.4922 7.02734C10.3627 7.02734 10.2578 7.17526 10.2578 7.35772C10.2578 7.54018 10.3627 7.6881 10.4922 7.6881Z" fill="#1A76D1"/>
<path d="M12.7237 6.11423C12.6397 6.25248 12.6523 6.45884 12.7501 6.57625C12.8492 6.69315 12.9952 6.67638 13.0785 6.53762C13.1615 6.39937 13.1488 6.19301 13.0511 6.07661C12.9527 5.95819 12.807 5.97598 12.7237 6.11423Z" fill="#1A76D1"/>
<path d="M12.2244 6.66247C12.3526 6.66247 12.4566 6.51592 12.4566 6.33514C12.4566 6.15436 12.3526 6.00781 12.2244 6.00781C12.0961 6.00781 11.9922 6.15436 11.9922 6.33514C11.9922 6.51592 12.0961 6.66247 12.2244 6.66247Z" fill="#1A76D1"/>
<path d="M11.3522 6.1016C11.2555 6.22155 11.2469 6.42995 11.3316 6.56413C11.4174 6.70086 11.5645 6.71407 11.6597 6.59463C11.756 6.47366 11.7646 6.26628 11.6803 6.13057C11.5948 5.99537 11.4477 5.98114 11.3522 6.1016Z" fill="#1A76D1"/>
<path d="M10.766 6.68912C10.8956 6.68912 11.0007 6.54097 11.0007 6.35823C11.0007 6.17549 10.8956 6.02734 10.766 6.02734C10.6363 6.02734 10.5312 6.17549 10.5312 6.35823C10.5312 6.54097 10.6363 6.68912 10.766 6.68912Z" fill="#1A76D1"/>
<path d="M12.3089 5.10314C12.226 5.24089 12.2379 5.44725 12.3371 5.56516C12.4344 5.68207 12.5815 5.66428 12.6637 5.52603C12.747 5.38829 12.7344 5.18142 12.6367 5.06401C12.5379 4.9466 12.393 4.96439 12.3089 5.10314Z" fill="#1A76D1"/>
<path d="M11.6016 5.09454C11.5114 5.22313 11.5136 5.4305 11.6048 5.55808C11.6971 5.68413 11.8439 5.68108 11.9326 5.55147C12.0227 5.42339 12.022 5.21601 11.93 5.08945C11.8384 4.96238 11.6913 4.96594 11.6016 5.09454Z" fill="#1A76D1"/>
<path d="M11.0547 5.66857C11.1841 5.66857 11.289 5.52065 11.289 5.33819C11.289 5.15573 11.1841 5.00781 11.0547 5.00781C10.9252 5.00781 10.8203 5.15573 10.8203 5.33819C10.8203 5.52065 10.9252 5.66857 11.0547 5.66857Z" fill="#1A76D1"/>
<path d="M16.9109 3C17.8985 3 18.0532 4.57107 18.0532 4.57107L15.7539 4.56396C15.7539 4.56396 15.9825 3 16.9109 3Z" fill="#1A76D1"/>
<path d="M18.8026 7.04154C18.9061 7.14879 18.9299 7.35565 18.8538 7.50204C18.7759 7.64994 18.6303 7.68196 18.5261 7.57472C18.4219 7.46798 18.3984 7.2601 18.4741 7.1127C18.5513 6.96479 18.6977 6.93175 18.8026 7.04154Z" fill="#1A76D1"/>
<path d="M18.5052 6.04826C18.6104 6.15551 18.6328 6.36339 18.5567 6.51079C18.4792 6.65717 18.3335 6.6892 18.229 6.58144C18.1244 6.4747 18.1017 6.26733 18.1778 6.12044C18.2542 5.97202 18.4013 5.94051 18.5052 6.04826Z" fill="#1A76D1"/>
<path d="M18.0876 5.03962C18.1918 5.14737 18.2152 5.35475 18.1391 5.50265C18.0616 5.64954 17.9145 5.68157 17.8118 5.57483C17.7065 5.46758 17.6838 5.25868 17.7595 5.1123C17.8366 4.96541 17.983 4.93237 18.0876 5.03962Z" fill="#1A76D1"/>
<path d="M17.6493 7.10813C17.5653 7.24638 17.5787 7.45325 17.6749 7.57117C17.7748 7.68858 17.9208 7.67079 18.0034 7.53254C18.086 7.39429 18.0744 7.1864 17.9767 7.06848C17.8783 6.95311 17.7319 6.97039 17.6493 7.10813Z" fill="#1A76D1"/>
<path d="M16.8234 7.1065C16.7351 7.2356 16.7358 7.44247 16.8266 7.56852C16.9193 7.69559 17.0657 7.69254 17.1558 7.56344C17.2445 7.43485 17.2431 7.22798 17.1519 7.10091C17.061 6.97486 16.9132 6.97689 16.8234 7.1065Z" fill="#1A76D1"/>
<path d="M16.1154 7.67716C16.2438 7.67716 16.3479 7.53038 16.3479 7.34932C16.3479 7.16826 16.2438 7.02148 16.1154 7.02148C15.9869 7.02148 15.8828 7.16826 15.8828 7.34932C15.8828 7.53038 15.9869 7.67716 16.1154 7.67716Z" fill="#1A76D1"/>
<path d="M15.2461 7.6881C15.3755 7.6881 15.4804 7.54018 15.4804 7.35772C15.4804 7.17526 15.3755 7.02734 15.2461 7.02734C15.1166 7.02734 15.0117 7.17526 15.0117 7.35772C15.0117 7.54018 15.1166 7.6881 15.2461 7.6881Z" fill="#1A76D1"/>
<path d="M17.4774 6.11423C17.3937 6.25248 17.4063 6.45884 17.5037 6.57625C17.6028 6.69315 17.7492 6.67638 17.8329 6.53762C17.9155 6.39937 17.9028 6.19301 17.8051 6.07661C17.7067 5.95819 17.5607 5.97598 17.4774 6.11423Z" fill="#1A76D1"/>
<path d="M16.8152 6.1065C16.7269 6.2356 16.7283 6.44247 16.8192 6.56852C16.9108 6.69508 17.0579 6.69305 17.1477 6.56344C17.2378 6.43434 17.2349 6.22696 17.1444 6.10091C17.0528 5.97486 16.9057 5.97689 16.8152 6.1065Z" fill="#1A76D1"/>
<path d="M16.1069 6.1016C16.0092 6.22155 16.0006 6.42995 16.086 6.56413C16.1711 6.70086 16.3186 6.71407 16.4145 6.59463C16.51 6.47366 16.5187 6.26628 16.4347 6.13057C16.3489 5.99537 16.2018 5.98114 16.1069 6.1016Z" fill="#1A76D1"/>
<path d="M15.5199 6.68912C15.6495 6.68912 15.7546 6.54097 15.7546 6.35823C15.7546 6.17549 15.6495 6.02734 15.5199 6.02734C15.3902 6.02734 15.2852 6.17549 15.2852 6.35823C15.2852 6.54097 15.3902 6.68912 15.5199 6.68912Z" fill="#1A76D1"/>
<path d="M17.0635 5.10314C16.9798 5.24089 16.9917 5.44725 17.0909 5.56516C17.1882 5.68207 17.3353 5.66428 17.4179 5.52603C17.5008 5.38829 17.4882 5.18142 17.3905 5.06401C17.292 4.9466 17.1471 4.96439 17.0635 5.10314Z" fill="#1A76D1"/>
<path d="M16.355 5.09454C16.2656 5.22313 16.2674 5.4305 16.3586 5.55808C16.4513 5.68413 16.5977 5.68108 16.6864 5.55147C16.7761 5.42339 16.7754 5.21601 16.6835 5.08945C16.5926 4.96238 16.4452 4.96594 16.355 5.09454Z" fill="#1A76D1"/>
<path d="M15.6707 5.07594C15.5672 5.18674 15.5477 5.39463 15.6263 5.53898C15.7049 5.68434 15.8513 5.7123 15.9555 5.60149C16.0575 5.49069 16.077 5.28332 15.9991 5.13795C15.9209 4.99207 15.7734 4.96514 15.6707 5.07594Z" fill="#1A76D1"/>
<circle cx="12" cy="12" r="11.95" stroke="#1A76D1" stroke-width="0.1"/>
</svg>
