<svg width="24" height="24" viewBox="0 0 24 24" fill="none" xmlns="http://www.w3.org/2000/svg">
<path d="M18.0072 7.79058L17.7158 5.06861C18.1121 4.78681 18.4902 4.47481 18.8458 4.13232L18.4655 3.75C16.7269 5.425 14.4306 6.34738 12 6.34738C9.56939 6.34738 7.27305 5.425 5.5345 3.75L5.15422 4.13232C5.50976 4.47481 5.88786 4.78681 6.28417 5.06861L5.99278 7.79058C5.85361 9.09021 4.99439 10.1829 3.75 10.642L3.94082 11.1427C5.37929 10.6123 6.37252 9.34901 6.53343 7.84646L6.79465 5.40575C8.34103 6.36556 10.1323 6.8821 12 6.8821C13.8677 6.8821 15.659 6.36556 17.2053 5.40575L17.4666 7.84646C17.6275 9.34901 18.621 10.6123 20.0592 11.1427L20.25 10.642C19.0056 10.1832 18.1464 9.09048 18.0072 7.79058Z" fill="#1A76D1"/>
<path d="M15.1295 11.4079L14.7261 9.82037C14.977 8.72874 15.2115 8.37423 15.2118 8.37369L14.7688 8.06409C14.7592 8.07692 14.7266 8.12478 14.6777 8.22076C14.27 8.23092 13.8878 8.39054 13.5983 8.67527L12.7361 9.52333C12.343 9.90966 11.6575 9.90966 11.2645 9.52333L10.4022 8.67527C10.1128 8.39054 9.73058 8.23092 9.32285 8.22076C9.27392 8.12478 9.2413 8.07692 9.23179 8.06409L8.78655 8.37075C8.78899 8.37396 9.02357 8.72874 9.27446 9.82037L8.87108 11.4079C8.79742 11.6975 8.66776 11.9656 8.48537 12.2049C8.12222 12.6806 7.9227 13.2698 7.9227 13.8636V14.1358C7.9227 14.8742 8.21518 15.5686 8.74605 16.091L8.84907 16.192C8.99123 16.3316 9.11436 16.4901 9.21439 16.6626L10.0973 18.1823V20.25H10.6409V19.7153H13.3591V20.25H13.9027V18.1823L14.7856 16.6626C14.8859 16.4901 15.0088 16.3319 15.1509 16.1923L15.2542 16.0907C15.7848 15.5686 16.0773 14.8742 16.0773 14.1358V13.8636C16.0773 13.2696 15.8778 12.6803 15.5152 12.2049C15.3328 11.9656 15.2029 11.6975 15.1295 11.4079ZM10.0176 9.05332L10.8798 9.90138C11.1788 10.1957 11.5768 10.3578 12 10.3578C12.4232 10.3578 12.8212 10.1957 13.1202 9.90138L13.9824 9.05332C14.1129 8.92525 14.273 8.83943 14.4464 8.79318C14.367 9.02952 14.2798 9.33404 14.1911 9.72171L13.0019 11.671C12.7921 12.0154 12.408 12.2293 12 12.2293C11.592 12.2293 11.2079 12.0154 10.9981 11.6713L9.80886 9.72198C9.72052 9.33431 9.63299 9.02979 9.55362 8.79344C9.72704 8.83943 9.88715 8.92525 10.0176 9.05332ZM11.0957 16.507H12.9043L13.0525 17.0417H10.9472L11.0957 16.507ZM11.2479 15.9723C11.3561 15.656 11.6575 15.4376 12 15.4376C12.3425 15.4376 12.6442 15.656 12.7521 15.9723H11.2479ZM10.7991 17.5764H13.2009L13.349 18.1111H10.6507L10.7991 17.5764ZM10.6409 19.1806V18.6459H13.3591V19.1806H10.6409ZM15.5337 14.1358C15.5337 14.7315 15.2977 15.2913 14.8699 15.7124L14.7666 15.814C14.5904 15.987 14.438 16.1835 14.3135 16.3974L13.7203 17.4179L13.2922 15.8736C13.1338 15.302 12.6024 14.9028 12 14.9028C11.3976 14.9028 10.8662 15.302 10.7078 15.8739L10.2797 17.4179L9.68654 16.3974C9.56232 16.1835 9.40983 15.9872 9.23342 15.8137L9.1304 15.7127C8.70228 15.2913 8.46634 14.7312 8.46634 14.1358V13.8636C8.46634 13.3845 8.62726 12.9094 8.91974 12.5255C9.14589 12.2293 9.30681 11.8964 9.39814 11.5373L9.65827 10.5142L10.5319 11.9464C10.8396 12.4506 11.402 12.764 12 12.764C12.598 12.764 13.1604 12.4506 13.4681 11.9464L14.3417 10.5142L14.6019 11.5373C14.6929 11.8967 14.8541 12.2293 15.08 12.5255C15.3727 12.9094 15.5337 13.3845 15.5337 13.8636V14.1358Z" fill="#1A76D1"/>
<path d="M11.1845 13.0313C10.9532 13.0313 10.7453 13.1276 10.5966 13.2802C10.623 13.2014 10.6409 13.1188 10.6409 13.0313C10.6409 12.5891 10.275 12.2293 9.82544 12.2293C9.37585 12.2293 9.00998 12.5891 9.00998 13.0313C9.00998 13.4735 9.37585 13.8334 9.82544 13.8334C10.0568 13.8334 10.2647 13.7372 10.4134 13.5845C10.387 13.6634 10.3691 13.746 10.3691 13.8334C10.3691 13.9208 10.387 14.0034 10.4134 14.0823C10.2647 13.9297 10.0568 13.8334 9.82544 13.8334C9.37585 13.8334 9.00998 14.1933 9.00998 14.6355C9.00998 15.0777 9.37585 15.4376 9.82544 15.4376C10.275 15.4376 10.6409 15.0777 10.6409 14.6355C10.6409 14.5481 10.623 14.4654 10.5966 14.3866C10.7453 14.5392 10.9532 14.6355 11.1845 14.6355C11.6341 14.6355 12 14.2756 12 13.8334C12 13.3912 11.6341 13.0313 11.1845 13.0313ZM9.82544 13.2987C9.67567 13.2987 9.55362 13.1789 9.55362 13.0313C9.55362 12.8837 9.67567 12.764 9.82544 12.764C9.97521 12.764 10.0973 12.8837 10.0973 13.0313C10.0973 13.1789 9.97521 13.2987 9.82544 13.2987ZM9.82544 14.9028C9.67567 14.9028 9.55362 14.7831 9.55362 14.6355C9.55362 14.4879 9.67567 14.3681 9.82544 14.3681C9.97521 14.3681 10.0973 14.4879 10.0973 14.6355C10.0973 14.7831 9.97521 14.9028 9.82544 14.9028ZM11.1845 14.1008C11.0348 14.1008 10.9127 13.981 10.9127 13.8334C10.9127 13.6858 11.0348 13.566 11.1845 13.566C11.3343 13.566 11.4564 13.6858 11.4564 13.8334C11.4564 13.981 11.3343 14.1008 11.1845 14.1008Z" fill="#1A76D1"/>
<path d="M14.99 13.0313C14.99 12.5891 14.6241 12.2293 14.1746 12.2293C13.725 12.2293 13.3591 12.5891 13.3591 13.0313C13.3591 13.1188 13.377 13.2014 13.4034 13.2802C13.2547 13.1276 13.0468 13.0313 12.8155 13.0313C12.3659 13.0313 12 13.3912 12 13.8334C12 14.2756 12.3659 14.6355 12.8155 14.6355C13.0468 14.6355 13.2547 14.5392 13.4034 14.3866C13.377 14.4654 13.3591 14.5481 13.3591 14.6355C13.3591 15.0777 13.725 15.4376 14.1746 15.4376C14.6241 15.4376 14.99 15.0777 14.99 14.6355C14.99 14.1933 14.6241 13.8334 14.1746 13.8334C13.9432 13.8334 13.7353 13.9297 13.5866 14.0823C13.613 14.0034 13.6309 13.9208 13.6309 13.8334C13.6309 13.746 13.613 13.6634 13.5866 13.5845C13.7353 13.7372 13.9432 13.8334 14.1746 13.8334C14.6241 13.8334 14.99 13.4735 14.99 13.0313ZM12.8155 14.1008C12.6657 14.1008 12.5436 13.981 12.5436 13.8334C12.5436 13.6858 12.6657 13.566 12.8155 13.566C12.9652 13.566 13.0873 13.6858 13.0873 13.8334C13.0873 13.981 12.9652 14.1008 12.8155 14.1008ZM14.1746 14.3681C14.3243 14.3681 14.4464 14.4879 14.4464 14.6355C14.4464 14.7831 14.3243 14.9028 14.1746 14.9028C14.0248 14.9028 13.9027 14.7831 13.9027 14.6355C13.9027 14.4879 14.0248 14.3681 14.1746 14.3681ZM14.1746 13.2987C14.0248 13.2987 13.9027 13.1789 13.9027 13.0313C13.9027 12.8837 14.0248 12.764 14.1746 12.764C14.3243 12.764 14.4464 12.8837 14.4464 13.0313C14.4464 13.1789 14.3243 13.2987 14.1746 13.2987Z" fill="#1A76D1"/>
<circle cx="12" cy="12" r="11.95" stroke="#1A76D1" stroke-width="0.1"/>
</svg>
