<svg width="24" height="24" viewBox="0 0 24 24" fill="none" xmlns="http://www.w3.org/2000/svg">
<path fill-rule="evenodd" clip-rule="evenodd" d="M7.86257 11.1347C9.12598 12.2418 10.7234 12.8946 12.4007 12.9891C12.7189 17.176 10.1503 19.8204 7.86257 20.7004C5.57485 19.8204 3.00625 17.176 3.32442 12.9891C5.00169 12.8945 6.59915 12.2418 7.86257 11.1347ZM5.96293 11.2715L6.7335 10.501L7.16173 10.9292C7.39716 10.7454 7.63649 10.5282 7.86257 10.33L8.26148 10.6795C9.42336 11.6975 10.8924 12.2978 12.4348 12.3848L12.9641 12.4146L13.0043 12.9432C13.0941 14.1248 12.9724 15.2882 12.6158 16.3827L13.5826 17.3494C13.7085 17.4745 13.8787 17.5447 14.0562 17.5447C14.2336 17.5447 14.4038 17.4745 14.5297 17.3494L17.349 14.5304C17.4741 14.4045 17.5443 14.2343 17.5443 14.0569C17.5443 13.8795 17.4741 13.7092 17.349 13.5834L16.577 12.8114L15.0358 14.3524C14.9787 14.4075 14.9023 14.438 14.8229 14.4373C14.7436 14.4366 14.6677 14.4048 14.6115 14.3487C14.5554 14.2926 14.5236 14.2167 14.5229 14.1373C14.5222 14.058 14.5527 13.9815 14.6079 13.9245L16.149 12.3835L15.0378 11.2725L13.4967 12.8133C13.4397 12.869 13.3631 12.9 13.2834 12.8995C13.2037 12.8991 13.1274 12.8672 13.0711 12.8109C13.0147 12.7545 12.9829 12.6783 12.9824 12.5986C12.982 12.5189 13.013 12.4423 13.0687 12.3853L14.6098 10.8443L13.4986 9.7333L11.9574 11.2744C11.9004 11.3301 11.8238 11.3611 11.7441 11.3607C11.6644 11.3602 11.5881 11.3284 11.5318 11.272C11.4754 11.2157 11.4436 11.1394 11.4431 11.0597C11.4427 10.9801 11.4737 10.9034 11.5294 10.8465L13.0705 9.3055L11.9594 8.19445L10.4183 9.73542C10.3614 9.79112 10.2847 9.82211 10.205 9.82167C10.1254 9.82122 10.0491 9.78937 9.99272 9.73303C9.93638 9.6767 9.90453 9.60041 9.90408 9.52074C9.90364 9.44107 9.93463 9.36443 9.99034 9.30746L11.5314 7.7665L10.4999 6.73503L11.2704 5.96455C11.3262 5.90759 11.3571 5.83095 11.3567 5.75128C11.3563 5.6716 11.3244 5.59532 11.2681 5.53898C11.2117 5.48264 11.1354 5.4508 11.0557 5.45035C10.9761 5.4499 10.8994 5.4809 10.8424 5.5366L5.53493 10.8436C5.50616 10.8715 5.48322 10.9049 5.46747 10.9418C5.45171 10.9787 5.44345 11.0183 5.44315 11.0584C5.44286 11.0986 5.45055 11.1383 5.46577 11.1754C5.48099 11.2126 5.50343 11.2463 5.5318 11.2746C5.56017 11.303 5.5939 11.3254 5.63102 11.3407C5.66814 11.3559 5.70791 11.3636 5.74803 11.3633C5.78815 11.363 5.82781 11.3547 5.8647 11.3389C5.90159 11.3232 5.93498 11.3002 5.96293 11.2715ZM4.62419 6.16686L3.51154 7.27934C3.45436 7.33388 3.37811 7.36388 3.2991 7.36295C3.22008 7.36202 3.14456 7.33023 3.08868 7.27437C3.03279 7.2185 3.00097 7.143 3.00002 7.06399C2.99907 6.98498 3.02906 6.90874 3.08358 6.85155L6.85003 3.08552C6.90706 3.03014 6.9836 2.99942 7.0631 3.00001C7.14261 3.00059 7.21868 3.03243 7.2749 3.08865C7.33112 3.14486 7.36295 3.22093 7.36353 3.30043C7.36411 3.37992 7.33338 3.45645 7.27799 3.51347L6.16526 4.62596L8.53126 6.99151L6.99001 8.53259L4.62419 6.16686ZM17.1814 17.7759C17.0556 17.901 16.8854 17.9712 16.7079 17.9712C16.5305 17.9712 16.3603 17.901 16.2344 17.7759L15.5969 17.1383L17.1379 15.5974L17.7756 16.235C17.9007 16.3608 17.9709 16.5311 17.9709 16.7085C17.9709 16.8859 17.9007 17.0561 17.7756 17.1819L17.6925 17.265L20.9144 20.4865C20.9698 20.5436 21.0006 20.6201 21 20.6996C20.9994 20.7791 20.9676 20.8551 20.9114 20.9114C20.8551 20.9676 20.7791 20.9994 20.6996 21C20.6201 21.0006 20.5435 20.9699 20.4865 20.9145L17.2645 17.6928L17.1813 17.7761L17.1814 17.7759ZM5.97837 16.3438H7.13377C7.21404 16.3438 7.29102 16.3757 7.34778 16.4324C7.40454 16.4892 7.43643 16.5662 7.43643 16.6464V17.8016H8.28902V16.6464C8.28902 16.5662 8.32091 16.4892 8.37767 16.4324C8.43443 16.3757 8.51141 16.3438 8.59168 16.3438H9.74693V15.4915H8.59149C8.51122 15.4915 8.43424 15.4596 8.37748 15.4029C8.32072 15.3461 8.28883 15.2691 8.28883 15.1889V14.0336H7.43643V15.1889C7.43643 15.2691 7.40454 15.3461 7.34778 15.4029C7.29102 15.4596 7.21404 15.4915 7.13377 15.4915H5.97837V16.344V16.3438ZM6.83096 16.9491V18.1042C6.83096 18.1844 6.86285 18.2614 6.91961 18.3182C6.97636 18.3749 7.05335 18.4068 7.13362 18.4068H8.59149C8.67176 18.4068 8.74874 18.3749 8.8055 18.3182C8.86226 18.2614 8.89415 18.1844 8.89415 18.1042V16.9491H10.0494C10.1297 16.9491 10.2067 16.9172 10.2634 16.8604C10.3202 16.8037 10.3521 16.7267 10.3521 16.6464V15.1889C10.3521 15.1086 10.3202 15.0316 10.2634 14.9749C10.2067 14.9181 10.1297 14.8863 10.0494 14.8863H8.89415V13.731C8.89415 13.6507 8.86226 13.5737 8.8055 13.517C8.74874 13.4602 8.67176 13.4284 8.59149 13.4284H7.13377C7.0535 13.4284 6.97652 13.4602 6.91976 13.517C6.863 13.5737 6.83111 13.6507 6.83111 13.731V14.8863H5.67571C5.59544 14.8863 5.51846 14.9181 5.4617 14.9749C5.40494 15.0316 5.37305 15.1086 5.37305 15.1889V16.6466C5.37305 16.7269 5.40494 16.8039 5.4617 16.8606C5.51846 16.9174 5.59544 16.9493 5.67571 16.9493L6.83096 16.9491Z" fill="#1A76D1"/>
<circle cx="12" cy="12" r="11.95" stroke="#1A76D1" stroke-width="0.1"/>
</svg>
