<svg width="24" height="24" viewBox="0 0 24 24" fill="none" xmlns="http://www.w3.org/2000/svg">
<path d="M16.8399 12.9249H18.254C18.3948 12.9249 18.5092 12.8107 18.5092 12.6697V11.2556C18.5092 11.1148 18.395 11.0004 18.254 11.0004H16.8399C16.6991 11.0004 16.5848 11.1146 16.5848 11.2556V12.6697C16.5848 12.8107 16.6991 12.9249 16.8399 12.9249ZM17.095 11.5109H17.9991V12.415H17.095V11.5109ZM16.8399 10.2315H18.254C18.3948 10.2315 18.5092 10.1174 18.5092 9.97638V8.56224C18.5092 8.42142 18.395 8.30711 18.254 8.30711H16.8399C16.6991 8.30711 16.5848 8.42122 16.5848 8.56224V9.97638C16.5848 10.1174 16.6991 10.2315 16.8399 10.2315ZM17.095 8.81737H17.9991V9.72144H17.095V8.81737ZM7.41505 12.6699V11.2558C7.41505 11.115 7.30094 11.0006 7.15992 11.0006H5.74578C5.60496 11.0006 5.49065 11.1148 5.49065 11.2558V12.6699C5.49065 12.8107 5.60476 12.925 5.74578 12.925H7.15992C7.30094 12.9249 7.41505 12.8107 7.41505 12.6699ZM6.90498 12.4148H6.00092V11.5107H6.90498V12.4148ZM5.74598 10.2315H7.16012C7.30094 10.2315 7.41525 10.1174 7.41525 9.97638V8.56224C7.41525 8.42142 7.30114 8.30711 7.16012 8.30711H5.74598C5.60515 8.30711 5.49085 8.42122 5.49085 8.56224V9.97638C5.49085 10.1174 5.60496 10.2315 5.74598 10.2315ZM6.00092 8.81737H6.90498V9.72144H6.00092V8.81737ZM20.7449 17.9551H19.9068V7.53817H20.0162C20.157 7.53817 20.2713 7.42406 20.2713 7.28304V6.24836C20.2713 6.10753 20.1572 5.99322 20.0162 5.99322H15.6972V1.75513C15.6972 1.61431 15.5831 1.5 15.442 1.5H8.55776C8.41693 1.5 8.30262 1.61411 8.30262 1.75513V5.99322H3.98381C3.84298 5.99322 3.72867 6.10734 3.72867 6.24836V7.28304C3.72867 7.42386 3.84279 7.53817 3.98381 7.53817H4.09321V17.9551H3.25513C3.11431 17.9551 3 18.0692 3 18.2102V19.2449C3 19.3857 3.11411 19.5 3.25513 19.5H20.7449C20.8857 19.5 21 19.3859 21 19.2449V18.2102C21 18.0692 20.8857 17.9551 20.7449 17.9551ZM19.7611 6.5033V7.0279H15.6972V6.5033H19.7611ZM4.23894 6.5033H8.30282V7.0279H4.23894V6.5033ZM20.4899 18.9899H3.51007V18.4653H9.10161C9.24243 18.4653 9.35674 18.3512 9.35674 18.2102C9.35674 18.0694 9.24263 17.9551 9.10161 17.9551H4.60328V7.53817H8.30262V11.9234C8.30262 12.0642 8.41673 12.1785 8.55776 12.1785C8.69878 12.1785 8.81289 12.0644 8.81289 11.9234V2.01007H15.1871V12.0948C15.1871 12.2357 15.3012 12.35 15.4422 12.35C15.5831 12.35 15.6974 12.2359 15.6974 12.0948V7.53817H19.3967V17.9551H14.7589C14.6181 17.9551 14.5038 18.0692 14.5038 18.2102C14.5038 18.351 14.6179 18.4653 14.7589 18.4653H20.4899V18.9899ZM12 7.56449C13.4277 7.56449 14.589 6.40313 14.589 4.97544C14.589 3.54775 13.4277 2.38659 12 2.38659C10.5723 2.38659 9.41095 3.54795 9.41095 4.97563C9.41095 6.40332 10.5723 7.56449 12 7.56449ZM12 2.89666C13.1462 2.89666 14.079 3.8292 14.079 4.97563C14.079 6.12207 13.1462 7.05442 12 7.05442C10.8538 7.05442 9.92102 6.12187 9.92102 4.97544C9.92102 3.82901 10.8538 2.89666 12 2.89666ZM11.2277 5.74771V6.3118C11.2277 6.45262 11.3418 6.56693 11.4829 6.56693H12.5171C12.658 6.56693 12.7723 6.45282 12.7723 6.3118V5.74771H13.3364C13.4772 5.74771 13.5915 5.6336 13.5915 5.49258V4.4583C13.5915 4.31747 13.4774 4.20316 13.3364 4.20316H12.7723V3.63908C12.7723 3.49825 12.6582 3.38394 12.5171 3.38394H11.4829C11.342 3.38394 11.2277 3.49806 11.2277 3.63908V4.20316H10.6636C10.5228 4.20316 10.4085 4.31728 10.4085 4.4583V5.49258C10.4085 5.6334 10.5226 5.74771 10.6636 5.74771H11.2277ZM10.9188 4.71343H11.4829C11.6237 4.71343 11.738 4.59932 11.738 4.4583V3.89421H12.2622V4.4583C12.2622 4.59912 12.3763 4.71343 12.5173 4.71343H13.0814V5.23764H12.5173C12.3765 5.23764 12.2622 5.35176 12.2622 5.49278V6.05686H11.738V5.49278C11.738 5.35195 11.6239 5.23764 11.4829 5.23764H10.9188V4.71343ZM15.3876 16.0206H15.5536C16.2277 16.0206 16.7759 15.4723 16.7759 14.7984C16.7759 14.1243 16.2275 13.5761 15.5536 13.5761H15.3876C14.9131 12.238 13.6826 11.2546 12.2123 11.1423C12.3245 10.6324 12.7795 10.2496 13.3226 10.2496C13.4634 10.2496 13.5777 10.1355 13.5777 9.99445C13.5777 9.85343 13.4636 9.73931 13.3226 9.73931C12.7375 9.73931 12.2227 10.0459 11.9305 10.5069C11.6382 10.0459 11.1234 9.73931 10.5383 9.73931C10.3975 9.73931 10.2832 9.85343 10.2832 9.99445C10.2832 10.1355 10.3973 10.2496 10.5383 10.2496C11.0814 10.2496 11.5367 10.6324 11.6486 11.1423C10.1781 11.2546 8.94782 12.238 8.4733 13.5761H8.30733C7.63326 13.5761 7.08509 14.1245 7.08509 14.7984C7.08509 15.4723 7.63346 16.0206 8.30733 16.0206H8.4733C8.97787 17.4434 10.337 18.4653 11.9305 18.4653C13.5239 18.4653 14.8831 17.4434 15.3876 16.0206ZM15.5534 14.086C15.946 14.086 16.2656 14.4056 16.2656 14.7982C16.2656 15.1908 15.946 15.5104 15.5534 15.5104H15.5275C15.5731 15.28 15.5972 15.0419 15.5972 14.7982C15.5972 14.5546 15.5731 14.3164 15.5275 14.086H15.5534ZM8.30714 15.5104C7.91452 15.5104 7.59496 15.1908 7.59496 14.7982C7.59496 14.4056 7.91452 14.086 8.30714 14.086H8.33306C8.2875 14.3164 8.26334 14.5546 8.26334 14.7982C8.26334 15.0417 8.2875 15.2798 8.33306 15.5104H8.30714ZM11.9303 17.9551C10.1897 17.9551 8.77341 16.539 8.77341 14.7982C8.77341 13.0574 10.1895 11.6413 11.9303 11.6413C13.671 11.6413 15.0871 13.0574 15.0871 14.7982C15.0871 16.539 13.671 17.9551 11.9303 17.9551ZM10.4026 14.3702C10.2137 14.3702 10.0599 14.524 10.0599 14.7129C10.0599 14.8538 9.94577 14.9681 9.80475 14.9681C9.66393 14.9681 9.54962 14.854 9.54962 14.7129C9.54962 14.2427 9.93222 13.8601 10.4024 13.8601C10.8726 13.8601 11.2552 14.2427 11.2552 14.7129C11.2552 14.8538 11.1411 14.9681 11.0001 14.9681C10.8593 14.9681 10.745 14.854 10.745 14.7129C10.7453 14.524 10.5916 14.3702 10.4026 14.3702ZM14.3109 14.7129C14.3109 14.8538 14.1968 14.9681 14.0558 14.9681C13.9148 14.9681 13.8007 14.854 13.8007 14.7129C13.8007 14.524 13.6469 14.3702 13.4579 14.3702C13.269 14.3702 13.1152 14.524 13.1152 14.7129C13.1152 14.8538 13.0011 14.9681 12.8601 14.9681C12.7192 14.9681 12.6049 14.854 12.6049 14.7129C12.6049 14.2427 12.9875 13.8601 13.4577 13.8601C13.9279 13.8601 14.3109 14.2427 14.3109 14.7129ZM13.2415 16.122C12.976 16.5965 12.4735 16.8913 11.9303 16.8913C11.387 16.8913 10.8846 16.5965 10.6191 16.122C10.5503 15.999 10.5941 15.8437 10.7171 15.7749C10.84 15.7062 10.9954 15.75 11.0641 15.8729C11.2395 16.1864 11.5714 16.3812 11.9301 16.3812C12.2889 16.3812 12.6206 16.1864 12.796 15.8729C12.8648 15.75 13.0201 15.706 13.1431 15.7749C13.2664 15.8437 13.3102 15.999 13.2415 16.122Z" fill="#1A76D1"/>
<circle cx="12" cy="12" r="11.95" stroke="#1A76D1" stroke-width="0.1"/>
</svg>
