<svg width="24" height="24" viewBox="0 0 24 24" fill="none" xmlns="http://www.w3.org/2000/svg">
<path fill-rule="evenodd" clip-rule="evenodd" d="M15.074 14.4441C14.9091 14.4581 14.7638 14.3355 14.7498 14.1705C14.7362 14.0056 14.858 13.8605 15.0232 13.8465C15.2147 13.8312 15.4063 13.8074 15.5958 13.7772C15.7596 13.7506 15.9137 13.8621 15.9401 14.0254C15.9665 14.1883 15.8554 14.3429 15.6919 14.3695C15.4884 14.4027 15.2796 14.4277 15.074 14.4441ZM12.5988 14.2768C12.4371 14.2408 12.3352 14.0806 12.3711 13.9191C12.4067 13.7568 12.5668 13.6553 12.7283 13.6911C12.9159 13.7326 13.1063 13.767 13.2958 13.7944C13.4597 13.8182 13.574 13.97 13.5504 14.1341C13.5272 14.2974 13.3751 14.4117 13.2111 14.3885C13.0066 14.3585 12.8012 14.3218 12.5988 14.2768ZM17.8997 8.64351L19.112 9.79543L21.771 6.99739C22.0878 6.66373 22.0742 6.1323 21.7407 5.81545C21.4073 5.4984 20.8755 5.51201 20.5586 5.84507L17.8997 8.64351ZM18.4493 9.99358C18.3723 10.0785 18.29 10.1723 18.2027 10.275C18.1313 11.0522 17.6893 11.747 17.0156 12.1413C16.3424 12.5354 15.5202 12.5804 14.8078 12.2624L17.6693 9.25139L18.4493 9.99358ZM18.3977 11.5807C18.3326 12.0584 18.2199 12.5238 18.0642 12.9716C17.8588 13.0704 17.4721 13.2312 17.2622 13.3148C17.1086 13.3771 17.0346 13.5522 17.0966 13.7053C17.1589 13.8587 17.3338 13.9329 17.4869 13.8707C17.569 13.8383 17.6511 13.8038 17.7325 13.767C16.9643 15.3393 15.6343 16.6135 13.9445 17.2932C13.4625 18.1643 13.355 19.2326 13.6223 20.5004H5.56543C5.61147 19.6759 5.48617 18.822 5.18933 17.9381C3.34226 15.515 3.6465 12.8292 6.10286 9.88149C6.63789 8.36208 6.7812 6.40172 6.5324 4H14.1595C15.8733 4.7548 17.1869 6.1253 17.8909 7.78202L17.0516 8.66492L17.2343 8.83846L13.7882 12.4644L14.5632 12.8104C15.4487 13.2057 16.4821 13.1485 17.319 12.6587C17.7712 12.3937 18.1399 12.0202 18.3977 11.5807Z" fill="#1A76D1"/>
<circle cx="12" cy="12" r="11.95" stroke="#1A76D1" stroke-width="0.1"/>
</svg>
