<svg width="24" height="24" viewBox="0 0 24 24" fill="none" xmlns="http://www.w3.org/2000/svg">
<circle cx="12" cy="12" r="11.95" stroke="#1A76D1" stroke-width="0.1"/>
<path d="M6.02632 20.1801C2.00152 13.6066 4.16872 7.32467 6.02632 5.53551C10.7942 2.30178 15.9077 4.18812 17.8685 5.53551C21.1967 9.64395 20.8871 15.2102 17.8685 20.1801H6.02632Z" fill="#1A76D1"/>
<path d="M11.6448 11.6355C11.521 12.5367 10.8708 13.2038 10.5612 13.4247C11.1804 14.4849 10.974 18.4167 10.7934 20.25H12.7284C12.3569 15.1608 12.7284 13.5793 12.9606 13.4247C12.0937 12.7355 11.7222 11.9448 11.6448 11.6355Z" fill="white"/>
<ellipse cx="11.6448" cy="11.3042" rx="0.4644" ry="0.39759" fill="#F8F8F8"/>
<path d="M14.9055 7.21281L16.521 5.87048L15.2826 8.71988L14.7408 7.85843L13.1928 9.38253L14.4312 6.4006L14.9055 7.21281Z" fill="#F8F8F8"/>
<path d="M11.6532 5.82763L12.2795 3.97636L12.853 6.97672L11.8838 6.4583L11.4213 8.43884L10.7711 5.32336L11.6532 5.82763Z" fill="#F8F8F8"/>
<path d="M7.97244 7.86913L7.40949 6.00301L9.68867 8.33446L8.5462 8.3112L9.32702 10.2171L6.91332 7.82006L7.97244 7.86913Z" fill="#F8F8F8"/>
</svg>
