<svg width="24" height="24" viewBox="0 0 24 24" fill="none" xmlns="http://www.w3.org/2000/svg">
<circle cx="12" cy="12" r="11.95" stroke="#1A76D1" stroke-width="0.1"/>
<path d="M16.3451 12.9038C17.0828 13.3011 17.5967 13.9985 17.6737 14.8081C18.266 14.9273 18.7105 15.4027 18.7105 15.9701C18.7105 16.6272 18.1151 17.1618 17.3833 17.1618C16.6515 17.1618 16.0561 16.6272 16.0561 15.9701C16.0561 15.4131 16.4847 14.9454 17.0607 14.8155C16.9566 13.9351 16.186 13.2322 15.2119 13.1193C14.6761 14.1214 11.9993 15.9037 11.9993 15.9037C11.9993 15.9037 9.00927 13.9125 8.71893 12.9565C7.7652 13.1293 7.0424 13.875 7.01035 14.7746C7.12857 14.8362 7.22412 14.9315 7.28272 15.047C7.71885 15.2316 8.10394 15.6207 8.39918 16.1747C8.44859 16.268 8.45492 16.3732 8.41878 16.4693C8.5956 16.878 8.69667 17.3246 8.69667 17.6997C8.69667 18.2253 8.69667 18.7223 8.05861 18.8499C7.98939 18.9016 7.90302 18.9298 7.81216 18.9298H7.38584C7.17185 18.9298 6.99789 18.7734 6.99789 18.5817L6.99932 18.5571C7.01362 18.3773 7.18329 18.2333 7.38604 18.2333H7.81237C7.85586 18.2333 7.89874 18.2399 7.93978 18.253C7.9655 18.2464 7.97367 18.241 7.97367 18.241C8.02124 18.1653 8.02124 17.8507 8.02124 17.6997C8.02124 17.3953 7.93631 17.0274 7.78725 16.6851C7.71007 16.6457 7.6478 16.5861 7.60941 16.514C7.35072 16.028 6.99932 15.7142 6.71347 15.7142C6.42129 15.7142 6.05234 16.0535 5.79507 16.5582C5.75301 16.6405 5.6793 16.7076 5.58844 16.7474C5.45409 17.0745 5.38017 17.4113 5.38017 17.6995C5.38017 17.8263 5.38017 18.1631 5.43428 18.2421C5.43489 18.2421 5.44694 18.2487 5.48063 18.2563C5.52473 18.241 5.5721 18.2332 5.61968 18.2332H6.04682C6.24406 18.2332 6.40883 18.3668 6.4315 18.541L6.43374 18.5448L6.43456 18.5679C6.43456 18.7734 6.2606 18.9298 6.04703 18.9298H5.61988C5.53515 18.9298 5.45327 18.9045 5.38589 18.8581C5.1421 18.8169 4.96998 18.7203 4.86094 18.5632C4.72925 18.3729 4.70515 18.1232 4.70515 17.6997C4.70515 17.328 4.80071 16.9003 4.97426 16.4917C4.94874 16.4042 4.95732 16.3129 4.99958 16.2306C5.18049 15.8757 5.41039 15.5717 5.66439 15.3519C5.80405 15.2311 5.95392 15.1341 6.11114 15.063C6.17035 14.9388 6.27305 14.8375 6.39842 14.7731C6.41945 14.0284 6.80719 13.3646 7.40768 12.9242C5.27808 13.113 3.75 13.6111 3.75 17.6954C3.75 20.1301 5.73157 20.25 8.32608 20.25C8.60887 20.25 8.89922 20.2482 9.19548 20.2482H14.8041C15.0991 20.2482 15.3899 20.25 15.6731 20.25C18.2676 20.25 20.25 20.1305 20.25 17.6954C20.2498 13.4549 18.6017 13.08 16.3451 12.9038ZM16.2875 18.5771C16.2875 18.6405 16.2236 18.6917 16.1448 18.6917H15.3687V19.3883C15.3687 19.4593 15.3115 19.5167 15.2413 19.5167H14.4754C14.4049 19.5167 14.348 19.4593 14.348 19.3883V18.6917H13.5719C13.4931 18.6917 13.429 18.6405 13.429 18.5771V17.8896C13.429 17.8262 13.4931 17.775 13.5719 17.775H14.348V17.0783C14.348 17.0074 14.4049 16.95 14.4754 16.95H15.2413C15.3115 16.95 15.3687 17.0074 15.3687 17.0783V17.775H16.1448C16.2238 17.775 16.2875 17.8262 16.2875 17.8896V18.5771Z" fill="#1A76D1"/>
<path d="M12.0005 13.4648C14.5089 13.4648 16.5411 10.0785 16.5411 7.82733C16.5411 5.57545 14.5089 3.75 12.0005 3.75C9.49257 3.75 7.45996 5.57545 7.45996 7.82733C7.45996 10.0789 9.49298 13.4648 12.0005 13.4648Z" fill="#1A76D1"/>
<path d="M17.3833 16.5199C17.7216 16.5199 17.9958 16.2737 17.9958 15.9699C17.9958 15.6661 17.7216 15.4199 17.3833 15.4199C17.045 15.4199 16.7708 15.6661 16.7708 15.9699C16.7708 16.2737 17.045 16.5199 17.3833 16.5199Z" fill="#1A76D1"/>
</svg>
