<svg width="24" height="24" viewBox="0 0 24 24" fill="none" xmlns="http://www.w3.org/2000/svg">
<path d="M20.708 9.79688H18.0958C17.9778 10.0024 17.8389 10.1993 17.6797 10.3852H20.708C20.8704 10.3852 21.0021 10.2535 21.0021 10.091C21.0021 9.92857 20.8704 9.79688 20.708 9.79688Z" fill="#1A76D1"/>
<path d="M1.29414 9.79688C1.13166 9.79688 1 9.92857 1 10.091C1 10.2535 1.13166 10.3852 1.29414 10.3852H4.32241C4.16318 10.1993 4.02434 10.0023 3.90629 9.79688H1.29414Z" fill="#1A76D1"/>
<path d="M8.977 7.88572C9.09548 7.67841 9.39833 7.69171 9.49893 7.90725L11.2385 11.6347L12.7758 6.76653C12.8508 6.5289 13.1705 6.48658 13.3044 6.69719L15.2768 9.79652H18.0919C18.9683 8.27117 18.714 6.28464 17.3724 5.03622C15.7919 3.56695 13.3455 3.68489 11.9044 5.23341L11.2123 5.97736C11.0955 6.10286 10.8973 6.1018 10.7815 5.97732L10.0896 5.23334C8.64622 3.68214 6.19895 3.56931 4.62258 5.03618C3.28054 6.28445 3.02616 8.27093 3.90271 9.79648H7.88514L8.977 7.88572Z" fill="#1A76D1"/>
<path d="M14.8726 10.2463L13.1522 7.54297L11.5773 12.5301C11.4968 12.7852 11.1434 12.8085 11.0303 12.566L9.21147 8.66848L8.31669 10.2344C8.26433 10.326 8.16687 10.3826 8.06129 10.3826H4.32422C4.42862 10.5044 8.63707 15.0235 8.83418 15.2352C8.8383 15.2378 9.87106 16.473 11.5967 16.1199C11.721 13.5666 13.8925 11.5351 16.5065 11.65C17.6926 10.3755 17.5991 10.4784 17.6811 10.3826H15.1207C15.0201 10.3826 14.9265 10.3312 14.8726 10.2463Z" fill="#1A76D1"/>
<path d="M16.2953 19.0008C16.6202 19.0008 16.8836 18.7374 16.8836 18.4125C16.8836 18.0876 16.6202 17.8242 16.2953 17.8242C15.9704 17.8242 15.707 18.0876 15.707 18.4125C15.707 18.7374 15.9704 19.0008 16.2953 19.0008Z" fill="#1A76D1"/>
<path d="M13.3711 16.0582H13.9631C14.0168 15.6292 14.1868 15.2359 14.44 14.9104L14.0218 14.4922C13.6649 14.9281 13.43 15.4675 13.3711 16.0582Z" fill="#1A76D1"/>
<path d="M18.1523 14.9104C18.4055 15.2359 18.5755 15.6292 18.6292 16.0582H19.2212C19.1623 15.4675 18.9274 14.9281 18.5705 14.4922L18.1523 14.9104Z" fill="#1A76D1"/>
<path d="M16.2938 12.2363C14.0231 12.2363 12.1758 14.0837 12.1758 16.3543C12.1758 18.625 14.0231 20.4723 16.2938 20.4723C18.5645 20.4723 20.4118 18.625 20.4118 16.3543C20.4118 14.0871 18.5678 12.2363 16.2938 12.2363ZM16.2938 19.5899C15.645 19.5899 15.1172 19.0621 15.1172 18.4133C15.1172 17.8661 15.4927 17.4049 15.9996 17.274V15.4719C15.9996 15.3094 16.1313 15.1778 16.2938 15.1778C16.4563 15.1778 16.5879 15.3094 16.5879 15.4719V17.274C17.0948 17.4049 17.4704 17.8661 17.4704 18.4133C17.4704 19.0621 16.9426 19.5899 16.2938 19.5899ZM19.5294 16.6485H18.3528C18.1903 16.6485 18.0586 16.5168 18.0586 16.3543C18.0586 15.3812 17.2669 14.5895 16.2938 14.5895C15.3206 14.5895 14.5289 15.3812 14.5289 16.3543C14.5289 16.5168 14.3973 16.6485 14.2348 16.6485H13.0582C12.8957 16.6485 12.7641 16.5168 12.7641 16.3543C12.7641 11.8775 19.8235 11.5927 19.8235 16.3543C19.8235 16.5168 19.6918 16.6485 19.5294 16.6485Z" fill="#1A76D1"/>
<path d="M16.5898 13.4277V14.02C17.0188 14.0738 17.412 14.2434 17.7375 14.4965L18.1559 14.078C17.7201 13.7212 17.1805 13.4866 16.5898 13.4277Z" fill="#1A76D1"/>
<path d="M14.8521 14.4965C15.1775 14.2433 15.5708 14.0738 15.9997 14.02V13.4277C15.409 13.4867 14.8694 13.7212 14.4336 14.078L14.8521 14.4965Z" fill="#1A76D1"/>
<circle cx="12" cy="12" r="11.95" stroke="#1A76D1" stroke-width="0.1"/>
</svg>
