<svg width="24" height="24" viewBox="0 0 24 24" fill="none" xmlns="http://www.w3.org/2000/svg">
<path d="M10.8231 6.76298C10.9401 6.81775 11.074 6.82383 11.1955 6.77989C11.3169 6.73596 11.416 6.6456 11.4708 6.52867C11.5532 6.35332 11.6469 6.18355 11.7514 6.02043C11.7861 5.96659 11.8099 5.90643 11.8213 5.8434C11.8328 5.78037 11.8316 5.71571 11.818 5.65311C11.8044 5.59051 11.7786 5.53121 11.7421 5.47861C11.7055 5.426 11.6589 5.38113 11.605 5.34656C11.5511 5.31198 11.4909 5.28838 11.4278 5.27712C11.3647 5.26586 11.3001 5.26714 11.2375 5.28091C11.175 5.29467 11.1157 5.32065 11.0632 5.35734C11.0107 5.39404 10.966 5.44073 10.9315 5.49475C10.8039 5.69383 10.6895 5.9011 10.5891 6.11523C10.5342 6.23215 10.5281 6.36609 10.5719 6.48756C10.6158 6.60904 10.7062 6.70811 10.8231 6.76298Z" fill="#1A76D1"/>
<path d="M11.8446 10.9451C11.7373 10.7902 11.6398 10.6287 11.5527 10.4616C11.5523 10.4606 11.5516 10.4597 11.5511 10.4587C11.5507 10.4579 11.55 10.4571 11.5496 10.4563C11.5492 10.4557 11.5488 10.455 11.5484 10.4544C11.489 10.3397 11.3865 10.2534 11.2634 10.2143C11.1403 10.1752 11.0067 10.1866 10.8921 10.2459C10.8232 10.2821 10.7641 10.3343 10.7199 10.3983C10.6756 10.4622 10.6474 10.5359 10.6378 10.6131C10.6367 10.6209 10.6354 10.6286 10.6347 10.6365C10.6334 10.6507 10.6289 10.6645 10.6289 10.6789C10.6289 10.6908 10.6323 10.7027 10.6331 10.7146C10.6336 10.7217 10.6349 10.7286 10.6356 10.7355C10.6381 10.7606 10.6425 10.7853 10.6489 10.8097C10.6545 10.8279 10.6612 10.8457 10.6689 10.8632C10.6742 10.8761 10.6769 10.8896 10.6834 10.9024C10.792 11.1121 10.9142 11.3145 11.0493 11.5083C11.0498 11.509 11.0505 11.5095 11.051 11.5102C11.0515 11.511 11.052 11.5119 11.0526 11.5127C11.0558 11.5173 11.0603 11.5204 11.0637 11.525C11.081 11.5482 11.1004 11.5697 11.1216 11.5894C11.1372 11.6032 11.1536 11.616 11.1708 11.6277C11.1806 11.6345 11.1901 11.6415 11.2003 11.6475C11.2223 11.6608 11.2454 11.6724 11.2692 11.6821C11.2726 11.6834 11.276 11.6845 11.2794 11.6858C11.364 11.7243 11.4595 11.7316 11.549 11.7064L11.5504 11.7062C11.5812 11.6997 11.6113 11.6901 11.6402 11.6776C11.6415 11.6771 11.6427 11.6763 11.644 11.6758C11.6742 11.6646 11.7032 11.6504 11.7306 11.6335C11.8365 11.5595 11.9088 11.4465 11.9314 11.3194C11.954 11.1922 11.9252 11.0612 11.8512 10.9553C11.849 10.9519 11.847 10.9484 11.8446 10.9451Z" fill="#1A76D1"/>
<path d="M12.6744 4.85894C12.6913 4.85726 12.7081 4.85472 12.7247 4.85133C12.8023 4.84382 12.8771 4.81796 12.9428 4.77588C12.9461 4.77366 12.9498 4.7731 12.9531 4.7708C13.1118 4.66003 13.2776 4.55963 13.4493 4.47023L13.4495 4.47007C13.4508 4.46944 13.4521 4.46865 13.4533 4.46793C13.5677 4.40832 13.6538 4.30576 13.6927 4.18274C13.7316 4.05973 13.7201 3.92632 13.6607 3.81178C13.6014 3.69724 13.499 3.61093 13.376 3.57179C13.2531 3.53265 13.1197 3.54387 13.005 3.603C12.7954 3.71188 12.5932 3.83426 12.3994 3.96935C12.3984 3.97007 12.3978 3.97102 12.3968 3.97173C12.3961 3.97221 12.3954 3.9726 12.3947 3.97308C12.3641 3.99494 12.3361 4.02029 12.3113 4.04862C12.3095 4.05068 12.3081 4.0529 12.3064 4.05496C12.2453 4.12538 12.2057 4.2119 12.1924 4.30419C12.1792 4.39648 12.1928 4.49064 12.2316 4.57542C12.2704 4.66019 12.3328 4.73201 12.4113 4.78228C12.4898 4.83255 12.5812 4.85918 12.6744 4.85894Z" fill="#1A76D1"/>
<path d="M10.7111 9.2983C10.7241 9.29481 10.7365 9.29029 10.749 9.28577C10.7691 9.27895 10.7887 9.27082 10.8078 9.26142C10.8139 9.25818 10.8197 9.25445 10.8257 9.25096C10.9033 9.20735 10.9673 9.14311 11.0106 9.06537C11.0539 8.98763 11.0749 8.89941 11.0712 8.81049C11.0709 8.80137 11.0724 8.7925 11.0716 8.7833C11.0621 8.66725 11.0581 8.55216 11.0573 8.4377C11.0568 8.3666 11.0572 8.29574 11.0602 8.22545C11.0604 8.22085 11.0603 8.21625 11.0605 8.21165C11.0605 8.21102 11.0604 8.21046 11.0605 8.20991V8.20714C11.0608 8.19826 11.059 8.18986 11.0589 8.18106C11.0591 8.15752 11.0576 8.134 11.0544 8.11067C11.0363 7.99129 10.9745 7.88291 10.8809 7.80663C10.7873 7.73034 10.6686 7.6916 10.5481 7.69794C10.4275 7.70427 10.3136 7.75524 10.2285 7.84092C10.1434 7.92659 10.0932 8.04086 10.0877 8.16148C10.0877 8.16307 10.0877 8.16465 10.0877 8.16624C10.0876 8.16664 10.0875 8.16695 10.0875 8.16727C10.0851 8.21989 10.0848 8.27269 10.084 8.32554C10.0835 8.35314 10.082 8.38063 10.082 8.40829C10.082 8.40916 10.0821 8.40996 10.0821 8.41083C10.0822 8.56064 10.0884 8.71203 10.0999 8.84575C10.1 8.84876 10.1005 8.85415 10.1009 8.85931C10.101 8.86105 10.1009 8.86272 10.1011 8.86438C10.1013 8.86644 10.1015 8.86858 10.1017 8.87072C10.1019 8.87316 10.1021 8.87643 10.1022 8.87809C10.1023 8.87841 10.1025 8.87873 10.1026 8.87912L10.1026 8.88039C10.1033 8.88713 10.1074 8.89268 10.1083 8.89933C10.1237 9.01485 10.1805 9.12084 10.2683 9.19751C10.3561 9.27417 10.4687 9.31628 10.5853 9.31597C10.5859 9.31597 10.5865 9.31589 10.5871 9.31589C10.6009 9.31581 10.6149 9.31526 10.629 9.31407C10.6397 9.31312 10.6495 9.30979 10.6599 9.30812C10.6771 9.30576 10.6942 9.30248 10.7111 9.2983Z" fill="#1A76D1"/>
<path d="M16.3063 13.0374C16.2929 13.0204 16.2785 13.0043 16.263 12.9892C16.2527 12.9785 16.2428 12.9677 16.2316 12.9581C16.2259 12.9532 16.2196 12.9494 16.2136 12.9448C16.1237 12.8745 16.0118 12.8383 15.8977 12.8425C15.8879 12.8427 15.8785 12.8412 15.8687 12.842C15.7525 12.8515 15.6375 12.8557 15.5227 12.8564C15.4601 12.8569 15.3979 12.856 15.3359 12.8538C15.3198 12.8532 15.3037 12.8534 15.2875 12.8527C15.1585 12.8465 15.0323 12.8919 14.9368 12.9788C14.8412 13.0657 14.7841 13.187 14.778 13.316C14.7777 13.3238 14.7773 13.3317 14.7773 13.3395C14.7774 13.4646 14.8256 13.5849 14.912 13.6754C14.9984 13.7659 15.1162 13.8197 15.2412 13.8257C15.2428 13.8258 15.2444 13.8258 15.246 13.8258C15.2463 13.8259 15.2465 13.8259 15.2468 13.8259C15.3288 13.8297 15.4111 13.8316 15.4937 13.8316C15.4948 13.8316 15.496 13.8315 15.4971 13.8315C15.647 13.8314 15.7977 13.8253 15.9321 13.8138C15.9345 13.8137 15.9408 13.8132 15.9464 13.8128C15.9475 13.8126 15.9486 13.8127 15.9498 13.8126L15.9543 13.8122C15.9624 13.8115 15.9704 13.811 15.9736 13.8106C16.0367 13.8049 16.0979 13.7866 16.1538 13.7569C16.2098 13.7273 16.2592 13.6867 16.2993 13.6378C16.3394 13.5888 16.3694 13.5323 16.3874 13.4716C16.4055 13.4109 16.4113 13.3473 16.4045 13.2843C16.3962 13.197 16.3638 13.1138 16.3107 13.0439C16.3092 13.0418 16.3079 13.0395 16.3063 13.0374Z" fill="#1A76D1"/>
<path d="M19.4404 6.36852C19.4607 6.40624 19.4859 6.4411 19.5154 6.47219C19.5179 6.47481 19.5204 6.47719 19.5229 6.47972C19.6038 6.56442 19.7125 6.61707 19.829 6.62798C19.9456 6.6389 20.0622 6.60735 20.1573 6.53913C20.2525 6.47092 20.3198 6.37063 20.3469 6.25673C20.374 6.14283 20.359 6.02298 20.3047 5.91924C20.3042 5.91813 20.3035 5.91702 20.3029 5.91591C20.3026 5.91544 20.3025 5.91488 20.3023 5.91441C20.2628 5.83871 20.2194 5.76476 20.1762 5.69072C20.1605 5.66385 20.1465 5.63611 20.1304 5.60947C20.0684 5.50722 20.0031 5.40696 19.9349 5.30978C19.8688 5.21466 19.7707 5.14636 19.6586 5.11719C19.5464 5.08803 19.4275 5.09993 19.3234 5.15076C19.2193 5.20158 19.1367 5.28797 19.0907 5.39432C19.0447 5.50067 19.0382 5.61997 19.0725 5.73067C19.0737 5.73511 19.0752 5.73931 19.0766 5.74375C19.0907 5.78802 19.1111 5.83002 19.1372 5.86843C19.1767 5.92479 19.2078 5.98701 19.2448 6.04551C19.3122 6.15204 19.3824 6.25708 19.4404 6.36852Z" fill="#1A76D1"/>
<path d="M17.3813 4.39312L17.3818 4.39344C17.5571 4.4758 17.7269 4.56953 17.89 4.67404C17.9278 4.69751 17.9687 4.71564 18.0115 4.72794C18.0136 4.72857 18.0156 4.72913 18.0176 4.72968C18.1299 4.76271 18.2503 4.75409 18.3567 4.70542C18.4632 4.65674 18.5484 4.57128 18.5969 4.46475C18.6453 4.35822 18.6536 4.23779 18.6203 4.1256C18.5871 4.01341 18.5144 3.91701 18.4157 3.85413L18.4145 3.85341C18.4131 3.85246 18.4121 3.85127 18.4107 3.8504C18.3198 3.79246 18.2264 3.73768 18.1319 3.68505C18.1248 3.68109 18.1181 3.67649 18.1109 3.67261C18.0245 3.62489 17.9364 3.58121 17.848 3.53857C17.8302 3.53001 17.8131 3.52002 17.7952 3.5117L17.7947 3.51146C17.7932 3.51083 17.7917 3.50996 17.7902 3.50924C17.6848 3.45953 17.565 3.44942 17.4527 3.48076C17.3404 3.51211 17.2431 3.5828 17.1786 3.67994C17.1142 3.77707 17.0868 3.89416 17.1016 4.00981C17.1163 4.12546 17.1721 4.23194 17.2589 4.3098C17.2622 4.31281 17.2653 4.31575 17.2687 4.31868C17.3016 4.34774 17.3383 4.37216 17.3777 4.39129C17.3789 4.39186 17.3801 4.39257 17.3813 4.39312Z" fill="#1A76D1"/>
<path d="M20.1706 10.0615C20.1127 10.0344 20.05 10.019 19.9861 10.0161C19.9222 10.0133 19.8584 10.023 19.7983 10.0448C19.7381 10.0667 19.6829 10.1001 19.6357 10.1433C19.5885 10.1864 19.5503 10.2385 19.5232 10.2964C19.5208 10.3015 19.5179 10.3065 19.5155 10.3115C19.4333 10.4857 19.3398 10.6543 19.2356 10.8163C19.1689 10.918 19.1429 11.0411 19.1627 11.161C19.1825 11.281 19.2467 11.3892 19.3425 11.4641C19.4383 11.539 19.5587 11.5752 19.6799 11.5655C19.8011 11.5559 19.9143 11.501 19.997 11.4118C20.0086 11.4002 20.0185 11.3866 20.0292 11.3737C20.0371 11.3632 20.047 11.3551 20.0542 11.3439C20.0559 11.3413 20.0573 11.3385 20.059 11.3359C20.0605 11.3335 20.0626 11.3318 20.0641 11.3294C20.11 11.2573 20.1525 11.1828 20.1951 11.1085C20.2092 11.084 20.2246 11.0604 20.2383 11.0357C20.2727 10.9734 20.3035 10.9098 20.3354 10.8465C20.3559 10.8057 20.3784 10.7659 20.3979 10.7247C20.3985 10.7233 20.3987 10.722 20.3993 10.7206C20.4012 10.7166 20.4034 10.7128 20.4053 10.7089C20.4324 10.651 20.4479 10.5883 20.4508 10.5244C20.4537 10.4605 20.444 10.3967 20.4222 10.3365C20.4004 10.2764 20.3669 10.2212 20.3238 10.174C20.2806 10.1268 20.2286 10.0885 20.1706 10.0615Z" fill="#1A76D1"/>
<path d="M20.9118 8.35177C20.9115 8.32593 20.9109 8.30104 20.9103 8.27544C20.9076 8.17485 20.9033 8.07585 20.8955 7.98494C20.8953 7.98288 20.8949 7.97733 20.8946 7.97289L20.894 7.96298H20.8939C20.8933 7.95482 20.8926 7.94675 20.8923 7.9434C20.8865 7.88036 20.8683 7.81909 20.8386 7.76317C20.8089 7.70726 20.7684 7.65781 20.7194 7.6177C20.6704 7.5776 20.614 7.54765 20.5533 7.52959C20.4926 7.51153 20.4289 7.50573 20.366 7.51252C20.2368 7.52611 20.1181 7.58986 20.0354 7.69006C19.9527 7.79026 19.9126 7.91891 19.9237 8.04836V8.04907H19.9235C19.9241 8.05613 19.924 8.0631 19.9246 8.07018C19.9329 8.17797 19.9372 8.28482 19.9379 8.39144C19.9384 8.45057 19.9378 8.50953 19.9358 8.56819C19.9351 8.58864 19.9353 8.60909 19.9343 8.62955C19.9337 8.6435 19.936 8.65681 19.9365 8.67061C19.9365 8.68708 19.9374 8.70354 19.9392 8.71991C19.9547 8.83227 20.0091 8.93566 20.0928 9.01219C20.1766 9.08873 20.2844 9.1336 20.3977 9.13906C20.4055 9.13938 20.4134 9.13969 20.4212 9.13969C20.5463 9.13962 20.6666 9.0914 20.7571 9.00504C20.8476 8.91868 20.9014 8.80079 20.9074 8.67582C20.9076 8.67059 20.9075 8.66527 20.9077 8.66005C20.9078 8.65957 20.9079 8.6591 20.9079 8.65863C20.9082 8.65315 20.9079 8.64761 20.9082 8.64222C20.9111 8.56929 20.9132 8.49621 20.9132 8.42313C20.9132 8.39917 20.9121 8.37563 20.9118 8.35177Z" fill="#1A76D1"/>
<path d="M15.1232 3.98954L15.1232 3.98978C15.1308 3.98915 15.1384 3.98915 15.146 3.98859C15.2531 3.98035 15.3595 3.97594 15.4653 3.97535C15.531 3.97488 15.5967 3.97519 15.6618 3.97773C15.6726 3.97814 15.6834 3.97797 15.6942 3.97844C15.6997 3.97868 15.7048 3.97749 15.7103 3.97757C15.8083 3.98133 15.9049 3.95278 15.9852 3.89632C16.0708 3.83975 16.1364 3.7575 16.1724 3.66137C16.2084 3.56524 16.2131 3.46017 16.1857 3.36123C16.1583 3.26229 16.1003 3.17456 16.02 3.11064C15.9396 3.04671 15.8411 3.00987 15.7386 3.00539C15.6583 3.00175 15.5779 2.99995 15.4973 3C15.4732 3 15.4495 3.00111 15.4254 3.00143C15.3999 3.00175 15.3754 3.0023 15.3501 3.00294C15.2495 3.00563 15.1505 3.00999 15.0601 3.01776C15.058 3.01784 15.0543 3.01816 15.0511 3.01839L15.0371 3.01926V3.01942C15.0338 3.01974 15.0298 3.0199 15.0277 3.02013C14.9075 3.03114 14.7958 3.08689 14.7147 3.17635C14.6336 3.2658 14.589 3.38244 14.5899 3.50317C14.5899 3.5176 14.5905 3.53218 14.5918 3.54693C14.6042 3.6757 14.6669 3.79438 14.7662 3.87723C14.8656 3.96009 14.9936 4.00044 15.1225 3.98954H15.1232Z" fill="#1A76D1"/>
<path d="M18.0363 12.0568C17.925 12.1349 17.8051 12.2016 17.6863 12.2694C17.6326 12.3001 17.5827 12.3367 17.5279 12.3651C17.4134 12.4246 17.3273 12.5272 17.2883 12.6502C17.2494 12.7732 17.2609 12.9066 17.3202 13.0211C17.3795 13.1357 17.4819 13.222 17.6048 13.2612C17.7277 13.3003 17.8612 13.2891 17.9759 13.23C18.0851 13.1734 18.1926 13.1125 18.298 13.0485C18.3065 13.0433 18.3145 13.0375 18.3229 13.0323C18.4108 12.9783 18.4977 12.9228 18.5818 12.8641C18.5834 12.863 18.5846 12.8614 18.5863 12.8603C18.5891 12.8583 18.5922 12.8565 18.595 12.8546C18.7008 12.7805 18.7728 12.6674 18.7952 12.5402C18.8176 12.413 18.7886 12.2821 18.7145 12.1764C18.6404 12.0706 18.5274 11.9986 18.4002 11.9761C18.273 11.9537 18.1421 11.9827 18.0363 12.0568Z" fill="#1A76D1"/>
<path d="M15.4936 5.40039C14.8969 5.40038 14.3136 5.57732 13.8174 5.90883C13.3213 6.24035 12.9346 6.71154 12.7062 7.26282C12.4779 7.81411 12.4181 8.42073 12.5345 9.00598C12.6509 9.59122 12.9383 10.1288 13.3602 10.5507C13.7822 10.9727 14.3197 11.26 14.905 11.3764C15.4902 11.4928 16.0969 11.4331 16.6481 11.2047C17.1994 10.9764 17.6706 10.5897 18.0021 10.0935C18.3336 9.59739 18.5106 9.01408 18.5106 8.41737C18.5106 7.61722 18.1927 6.84984 17.6269 6.28405C17.0611 5.71826 16.2938 5.4004 15.4936 5.40039ZM15.4936 9.811C15.2179 9.811 14.9485 9.72926 14.7193 9.57612C14.4901 9.42298 14.3115 9.20531 14.206 8.95065C14.1005 8.69598 14.0729 8.41576 14.1267 8.14542C14.1805 7.87508 14.3133 7.62675 14.5082 7.43186C14.7031 7.23696 14.9514 7.10424 15.2218 7.05049C15.4921 6.99673 15.7723 7.02435 16.027 7.12986C16.2817 7.23537 16.4993 7.41402 16.6524 7.64322C16.8055 7.87243 16.8872 8.14189 16.8872 8.41753C16.8867 8.78698 16.7397 9.14116 16.4785 9.40238C16.2172 9.6636 15.863 9.81057 15.4936 9.811Z" fill="#1A76D1"/>
<path d="M9.43865 15.0781L8.93849 15.5783C8.82579 15.6913 8.74398 15.8314 8.70089 15.9851C8.6578 16.1387 8.65487 16.3009 8.69238 16.4561C8.37456 16.6481 8.08288 16.8803 7.82459 17.1471C7.28662 17.6851 7.09591 18.0632 6.92769 18.3976C6.77043 18.7097 6.63457 18.9791 6.19973 19.4139C5.76496 19.8487 5.49538 19.9848 5.18331 20.142C5.07582 20.1961 4.99422 20.2908 4.95648 20.405C4.91874 20.5193 4.92795 20.6439 4.98207 20.7514C5.0362 20.8589 5.13081 20.9405 5.24509 20.9783C5.35937 21.016 5.48397 21.0068 5.59147 20.9527C5.92565 20.7846 6.30382 20.5938 6.84179 20.0559C7.37975 19.518 7.57031 19.14 7.73851 18.8056C7.89569 18.4935 8.03178 18.2239 8.46655 17.7891C8.8337 17.422 9.08291 17.2687 9.33965 17.1352C9.50023 17.1829 9.6707 17.1865 9.83312 17.1455C9.99555 17.1045 10.1439 17.0206 10.2627 16.9024L10.7632 16.4018C10.1699 16.1445 9.69642 15.6713 9.43865 15.0781Z" fill="#1A76D1"/>
<path d="M13.0151 11.9188L11.2162 12.6011C10.9711 12.6941 10.7531 12.847 10.5823 13.0458C10.4114 13.2447 10.2931 13.4832 10.2381 13.7395C10.1831 13.9958 10.1931 14.2618 10.2673 14.5133C10.3415 14.7647 10.4775 14.9936 10.6629 15.179C10.8483 15.3643 11.0772 15.5003 11.3286 15.5745C11.58 15.6488 11.8461 15.6588 12.1024 15.6038C12.3587 15.5488 12.5972 15.4305 12.796 15.2596C12.9949 15.0887 13.1478 14.8708 13.2408 14.6257L13.9231 12.8269C13.9712 12.7 13.9817 12.562 13.9532 12.4294C13.9247 12.2968 13.8585 12.1752 13.7626 12.0793C13.6667 11.9834 13.5451 11.9172 13.4125 11.8887C13.2799 11.8603 13.1419 11.8707 13.0151 11.9188Z" fill="#1A76D1"/>
<path d="M5.87632 15.6847C5.99424 15.4293 6.15952 15.1985 6.36341 15.0047C6.53187 14.8268 6.72936 14.6789 6.94743 14.5672C7.05484 14.5991 7.16887 14.6015 7.27753 14.5741C7.38619 14.5467 7.48546 14.4906 7.5649 14.4116L7.90241 14.074C7.5047 13.9032 7.18738 13.5867 7.01544 13.1895L6.67912 13.5258C6.60372 13.6014 6.549 13.6951 6.52017 13.7979C6.49135 13.9007 6.48939 14.0092 6.51449 14.113C6.30187 14.2414 6.10674 14.3968 5.93395 14.5752C5.68447 14.8151 5.4811 15.0986 5.33392 15.4118C5.21608 15.6671 5.05085 15.8978 4.847 16.0916C4.65319 16.2955 4.42247 16.4607 4.16706 16.5786C4.13145 16.5966 4.09973 16.6213 4.07369 16.6515C4.04765 16.6817 4.02781 16.7168 4.01531 16.7546C4.00281 16.7925 3.99789 16.8324 4.00083 16.8722C4.00376 16.9119 4.0145 16.9507 4.03243 16.9863C4.05036 17.022 4.07513 17.0537 4.10532 17.0797C4.13552 17.1058 4.17054 17.1256 4.2084 17.1381C4.24626 17.1506 4.28621 17.1555 4.32597 17.1526C4.36573 17.1496 4.40452 17.1389 4.44013 17.121C4.75327 16.9738 5.03676 16.7705 5.27653 16.5211C5.52592 16.2813 5.72922 15.9978 5.87632 15.6847Z" fill="#1A76D1"/>
<path d="M9.55935 12.8863L10.0158 11.683C10.048 11.5981 10.055 11.5058 10.036 11.4171C10.0169 11.3284 9.97264 11.247 9.90847 11.1829C9.8443 11.1187 9.76297 11.0744 9.67425 11.0554C9.58553 11.0364 9.49319 11.0434 9.40835 11.0755L8.20505 11.532C8.04107 11.5942 7.89529 11.6964 7.78099 11.8294C7.66669 11.9625 7.58753 12.122 7.55073 12.2935C7.51392 12.4649 7.52065 12.6429 7.57029 12.8111C7.61993 12.9793 7.71091 13.1324 7.83492 13.2564C7.95893 13.3804 8.11203 13.4714 8.28023 13.521C8.44843 13.5707 8.62639 13.5774 8.79787 13.5406C8.96934 13.5038 9.12886 13.4246 9.26188 13.3103C9.3949 13.196 9.49716 13.0502 9.55935 12.8863Z" fill="#1A76D1"/>
<circle cx="12" cy="12" r="11.95" stroke="#1A76D1" stroke-width="0.1"/>
</svg>
