<svg width="24" height="24" viewBox="0 0 24 24" fill="none" xmlns="http://www.w3.org/2000/svg">
<path d="M6.72614 18.5156H6.10547V20.9983H6.72614V18.5156Z" fill="#1A76D1"/>
<path d="M7.96663 7.9668H4.86328V8.58747H7.96663V7.9668Z" fill="#1A76D1"/>
<path d="M6.72614 6.72266H6.10547V7.34333H6.72614V6.72266Z" fill="#1A76D1"/>
<path d="M3.61719 9.20508V9.82575H9.20321C9.20348 9.82575 9.2036 9.82575 9.2036 9.82575L9.20321 9.20508H3.61719Z" fill="#1A76D1"/>
<path d="M5.93838 16.6554L6.88141 16.6554L7.87448 15.4141H4.94531L5.93838 16.6554Z" fill="#1A76D1"/>
<path d="M4.86328 14.7919H7.96663V14.1713H6.72529V13.5506H7.96663V12.9299H6.10462V12.3093H7.96663V11.6886H6.72529V11.0679H7.96663V10.4473H4.86328V14.7919Z" fill="#1A76D1"/>
<path d="M6.72614 17.2773H6.10547V17.898H6.72614V17.2773Z" fill="#1A76D1"/>
<path d="M3 5.48242V6.10309H9.82736C9.82763 6.10309 9.82775 6.10309 9.82775 6.10309L9.82736 5.48242H3Z" fill="#1A76D1"/>
<path d="M14.7956 8.60227V8.48345C14.3389 8.25822 14.0124 7.83791 13.9039 7.34518H13.5543C13.4405 7.34518 13.3316 7.32458 13.2307 7.28711C13.2162 7.44445 13.1896 7.60066 13.1513 7.75401L12.9928 8.38783C12.9535 8.54501 12.9336 8.70689 12.9336 8.86892V8.97599C12.9336 9.12332 12.9508 9.27065 12.9834 9.41445C13.4769 8.96012 14.1102 8.67004 14.7956 8.60227Z" fill="#1A76D1"/>
<path d="M15.5541 9.09901C15.5868 9.16434 15.6526 9.20499 15.7257 9.20499C15.7988 9.20499 15.8646 9.16434 15.8973 9.09893L16.036 8.82142V8.05027L16.2483 7.97956C16.6782 7.8363 16.9671 7.4355 16.9671 6.9823V5.79131C16.9671 5.6202 16.8278 5.48098 16.6567 5.48098H16.224C15.8543 5.48098 15.4969 5.39641 15.1752 5.24023L14.7194 5.35413C14.5811 5.38877 14.4844 5.51255 14.4844 5.65523V6.9823C14.4844 7.4355 14.7732 7.8363 15.2031 7.97956L15.4154 8.05027V8.82142L15.5541 9.09901ZM14.9765 7.34298L14.8856 7.25209L15.3245 6.8132L15.4154 6.90409C15.4983 6.98703 15.6085 7.03265 15.7257 7.03265C15.8429 7.03265 15.9531 6.98699 16.036 6.90409L16.1269 6.8132L16.5658 7.25209L16.4749 7.34298C16.2748 7.54311 16.0087 7.65332 15.7257 7.65332C15.4427 7.65332 15.1766 7.54311 14.9765 7.34298Z" fill="#1A76D1"/>
<path d="M17.5479 7.34679C17.4395 7.83948 17.113 8.25983 16.6562 8.48506V8.59976C17.5884 8.66978 18.457 9.05565 19.1389 9.70413V9.53387C19.1389 9.17443 19.0411 8.82154 18.8562 8.51326L18.6501 8.1698C18.4806 7.88716 18.3582 7.58039 18.2857 7.26172C18.1675 7.31618 18.0361 7.34679 17.8976 7.34679H17.5479Z" fill="#1A76D1"/>
<path d="M18.2066 6.4158C18.2066 6.24469 18.0674 6.10547 17.8963 6.10547H17.5859V6.72614H17.8963C18.0674 6.72614 18.2066 6.58691 18.2066 6.4158Z" fill="#1A76D1"/>
<path d="M13.8758 5.48268C13.9391 5.14883 14.1808 4.87291 14.5112 4.76937C14.4047 4.66134 14.3074 4.54248 14.2214 4.4135L14.7379 4.06922C15.0688 4.5656 15.6226 4.86201 16.2192 4.86201H16.652C17.0565 4.86201 17.4015 5.12149 17.5296 5.48268H17.8933C18.0021 5.48268 18.1065 5.50161 18.2036 5.53605V5.48268C18.2036 4.11371 17.0899 3 15.721 3C14.352 3 13.2383 4.11371 13.2383 5.48268V5.53605C13.3354 5.50161 13.4398 5.48268 13.5486 5.48268H13.8758Z" fill="#1A76D1"/>
<path d="M13.5486 6.72614H13.859V6.10547H13.5486C13.3775 6.10547 13.2383 6.24469 13.2383 6.4158C13.2383 6.58691 13.3775 6.72614 13.5486 6.72614Z" fill="#1A76D1"/>
<path d="M11.4144 12.3097C11.5074 12.3097 11.5947 12.2735 11.6605 12.2078L12.2058 11.6624C12.2716 11.5967 12.3078 11.5093 12.3078 11.4164C12.3078 11.2245 12.1517 11.0684 11.9598 11.0684C11.8668 11.0684 11.7795 11.1046 11.7137 11.1703L11.1684 11.7157C11.1026 11.7814 11.0664 11.8688 11.0664 11.9617C11.0664 12.1536 11.2225 12.3097 11.4144 12.3097Z" fill="#1A76D1"/>
<path d="M13.5501 10.8957C13.5519 10.3723 13.7103 9.87774 13.9918 9.46484C13.4643 9.7244 13.0331 10.1663 12.7915 10.73L12.7422 10.8451C12.8467 10.9876 12.913 11.1595 12.9266 11.3459C13.1254 11.1844 13.3333 11.0337 13.5501 10.8957Z" fill="#1A76D1"/>
<path d="M16.1833 12.6914C16.0335 12.577 15.8729 12.4866 15.7028 12.4226C15.2229 12.2419 14.7036 12.2804 14.2011 12.5338C13.4282 12.9236 12.7892 13.7821 12.4916 14.8305C11.9723 16.6598 12.5961 18.5419 13.8821 19.026C14.362 19.2067 14.8813 19.1682 15.3839 18.9148C16.1567 18.525 16.7957 17.6665 17.0933 16.6182C17.3284 15.7903 17.3358 14.9309 17.119 14.1726H16.9992C16.7412 14.1726 16.5067 14.0707 16.3333 13.9052C16.2944 14.1718 16.1481 14.4086 15.9266 14.5621C16.1966 14.8676 16.3442 15.2563 16.3442 15.6676V15.674C16.3442 16.1984 16.0992 16.685 15.6918 16.9982C15.7123 17.0876 15.7235 17.1805 15.7235 17.276C15.7235 17.9605 15.1666 18.5173 14.4822 18.5173C13.7977 18.5173 13.2408 17.9605 13.2408 17.276C13.2408 16.8174 13.491 16.4164 13.8619 16.2014L13.8619 16.1764C13.862 16.1253 13.836 16.0916 13.8205 16.0762C13.805 16.0607 13.7714 16.0346 13.7203 16.0346H13.6968C13.4917 16.0346 13.2992 15.9556 13.1547 15.8122C13.01 15.6684 12.9303 15.4767 12.9304 15.2725V15.2588C12.9306 14.8526 13.2446 14.519 13.6424 14.4863C13.8295 13.8687 14.2929 13.3556 14.8988 13.1132L15.2049 12.9908C15.3033 12.9514 15.4072 12.9314 15.5134 12.9314C15.7123 12.9314 15.8948 13.0017 16.038 13.1187C16.0521 12.9628 16.1036 12.8175 16.1833 12.6914Z" fill="#1A76D1"/>
<path d="M20.7705 12.207L18.7753 10.2119C18.3604 9.7969 17.858 9.50115 17.3097 9.3418C17.4168 10.0681 17.7826 10.7376 18.3466 11.221L19.8835 12.5384L16.9629 12.8629C16.7881 12.8823 16.6562 13.0296 16.6562 13.2055C16.6562 13.3955 16.8109 13.5502 17.001 13.5502H20.2141C20.6479 13.5502 21.0009 13.1972 21.0009 12.7634C21.0009 12.5532 20.9191 12.3556 20.7705 12.207Z" fill="#1A76D1"/>
<path d="M14.48 17.8956C14.8228 17.8956 15.1007 17.6178 15.1007 17.275C15.1007 16.9322 14.8228 16.6543 14.48 16.6543C14.1373 16.6543 13.8594 16.9322 13.8594 17.275C13.8594 17.6178 14.1373 17.8956 14.48 17.8956Z" fill="#1A76D1"/>
<path d="M15.7232 13.7609C15.7232 13.645 15.629 13.5508 15.5131 13.5508C15.4863 13.5508 15.46 13.5558 15.4352 13.5658L15.129 13.6882C14.7313 13.8473 14.4201 14.1704 14.2701 14.5645C14.6126 14.686 14.9005 14.9355 15.0698 15.274L14.5146 15.5516C14.3761 15.2746 14.0977 15.1025 13.788 15.1025H13.7061C13.6205 15.1025 13.5508 15.1721 13.5508 15.2577V15.2715C13.5507 15.3222 13.5765 15.3554 13.5919 15.3707C13.6192 15.3978 13.6564 15.4128 13.6965 15.4128H13.72C13.9238 15.4128 14.1152 15.4922 14.2592 15.6363C14.3692 15.7464 14.441 15.8841 14.4689 16.0338C14.4733 16.0338 14.4776 16.0335 14.4819 16.0335C14.8429 16.0335 15.1684 16.1885 15.3954 16.4354C15.6019 16.2397 15.7232 15.9656 15.7232 15.6728V15.6664C15.7232 15.3857 15.6139 15.1217 15.4153 14.9231L14.889 14.3968L15.5275 14.0775C15.6482 14.0171 15.7232 13.8958 15.7232 13.7609Z" fill="#1A76D1"/>
<path d="M17.6884 16.7877C17.339 18.0182 16.6002 18.9955 15.6613 19.469C15.2773 19.6627 14.8831 19.76 14.4936 19.76C14.2119 19.76 13.9327 19.7091 13.6613 19.607C12.8791 19.3125 12.2671 18.626 11.938 17.6738C11.619 16.751 11.6029 15.6811 11.8924 14.661C12.2418 13.4305 12.9806 12.4532 13.9195 11.9797C14.5813 11.646 15.2728 11.5983 15.9195 11.8417C16.1939 11.9451 16.4483 12.0983 16.679 12.2967C16.7463 12.2732 16.8168 12.256 16.8905 12.2478L18.3905 12.0812L17.9389 11.6941C17.2061 11.066 16.7514 10.1768 16.6668 9.22236C16.6217 9.21817 16.5764 9.21533 16.531 9.21289L16.4481 9.37884C16.3095 9.65593 16.0311 9.82801 15.7214 9.82801C15.4117 9.82801 15.1333 9.65593 14.9948 9.37896L14.9731 9.33559C14.4713 9.6955 14.1698 10.273 14.1698 10.9055V11.245L14.0191 11.3355C12.1978 12.4282 11.0664 14.4265 11.0664 16.5504V21.0001H18.5144V14.1727H17.7587C17.9596 14.9978 17.9374 15.9105 17.6884 16.7877Z" fill="#1A76D1"/>
<circle cx="12" cy="12" r="11.95" stroke="#1A76D1" stroke-width="0.1"/>
</svg>
