<svg width="24" height="24" viewBox="0 0 24 24" fill="none" xmlns="http://www.w3.org/2000/svg">
<path fill-rule="evenodd" clip-rule="evenodd" d="M5.66483 5.17102V5.0174H3.52514V15.7141H3V4.7587C3 4.61585 3.11754 4.5 3.26247 4.5H5.9273C6.07224 4.5 6.18977 4.61585 6.18977 4.7587V5.17102H5.66483ZM17.5259 21.0257C17.9389 21.0257 18.2738 21.3556 18.2738 21.7628C18.2738 22.1699 17.9391 22.5 17.5259 22.5C17.1129 22.5 16.778 22.1701 16.778 21.7628C16.7782 21.3558 17.1129 21.0257 17.5259 21.0257ZM3 16.4164V17.3475C3 17.4493 3.08418 17.5323 3.18742 17.5323H20.8124C20.9156 17.5323 20.9998 17.4493 20.9998 17.3475V16.4164C20.9998 16.3147 20.9156 16.2317 20.8124 16.2317H3.18762C3.08438 16.2315 3 16.3147 3 16.4164ZM6.21161 20.5351V20.2376H5.47343C5.37019 20.2376 5.28601 20.1547 5.28601 20.0529V19.1218C5.28601 19.0201 5.37019 18.9371 5.47343 18.9371H6.21161V18.0499H6.73656V18.9371H17.2634V18.0499H17.7884V18.9371H18.5266C18.6298 18.9371 18.714 19.0201 18.714 19.1218V20.0529C18.714 20.1547 18.6298 20.2376 18.5266 20.2376H17.7884V20.5351C17.6159 20.4995 17.436 20.4995 17.2634 20.5351V20.2376H6.73676V20.5351C6.56402 20.4995 6.38415 20.4995 6.21161 20.5351ZM20.4751 15.7141V13.9645C20.4751 13.8216 20.5926 13.7058 20.7375 13.7058C20.8825 13.7058 21 13.8216 21 13.9645V15.7141H20.4751ZM19.4746 15.7141C19.5778 15.7141 19.662 15.6311 19.662 15.5294V14.4255C19.662 14.3238 19.5778 14.2408 19.4746 14.2408H8.45335L5.61758 12.6271C5.52724 12.5757 5.41328 12.6058 5.36126 12.695L4.80653 13.6467C4.75511 13.7347 4.78608 13.848 4.87543 13.8987L7.82675 15.5781C7.94885 15.6636 8.09816 15.7141 8.25937 15.7141H19.4746ZM6.47408 21.0257C6.88705 21.0257 7.22199 21.3556 7.22199 21.7628C7.22199 22.1699 6.88725 22.5 6.47408 22.5C6.06112 22.5 5.72618 22.1701 5.72618 21.7628C5.72638 21.3558 6.06112 21.0257 6.47408 21.0257ZM20.8126 4.7587H14.7271C14.6238 4.7587 14.5396 4.84167 14.5396 4.94343V9.9873C14.5396 10.0891 14.6238 10.172 14.7271 10.172H20.8126C20.9158 10.172 21 10.0891 21 9.9873V4.94343C21.0002 4.84167 20.9158 4.7587 20.8126 4.7587ZM15.4517 7.37192C15.3068 7.37192 15.1893 7.25607 15.1893 7.11322C15.1893 6.97037 15.3068 6.85452 15.4517 6.85452H16.0164C16.1314 6.85452 16.229 6.92751 16.2646 7.02888L16.6478 7.91183L17.0161 7.01636C17.0562 6.91871 17.1523 6.85472 17.2591 6.85472H17.7076L17.9562 6.25063C18.0421 6.04124 18.3374 6.03674 18.435 6.23458L18.9838 7.23729L19.1953 6.95882C19.2447 6.89386 19.3219 6.85472 19.4045 6.85472H20.0883C20.2332 6.85472 20.3508 6.97057 20.3508 7.11342C20.3508 7.25627 20.2332 7.37212 20.0883 7.37212H19.5348L19.1671 7.85625C19.06 8.01789 18.8121 8.01124 18.7172 7.83727L18.2333 6.95315L18.1327 7.19796C18.0971 7.29932 17.9994 7.37212 17.8845 7.37212H17.4362L16.8979 8.68049C16.812 8.88988 16.506 8.8977 16.4139 8.6846L15.8443 7.37212H15.4517V7.37192ZM5.29673 5.68842C5.19349 5.68842 5.10931 5.77139 5.10931 5.87315V7.20715C5.10931 7.65058 5.4774 8.01339 5.9273 8.01339C6.3772 8.01339 6.74529 7.65058 6.74529 7.20715V5.87315C6.74529 5.77139 6.66111 5.68842 6.55787 5.68842H5.29673ZM10.7739 12.94H13.5467C13.7647 12.94 13.944 13.1167 13.944 13.3316C13.944 13.5465 13.7647 13.7232 13.5467 13.7232H9.88007C9.77683 13.7232 9.69265 13.6402 9.69265 13.5385V12.8177C9.69265 12.3203 10.1066 11.9123 10.6113 11.9123H13.0863L18.4031 12.5385C18.9925 12.608 18.99 13.06 18.9834 13.7232H14.3788C14.4368 13.6044 14.4692 13.4715 14.4692 13.3316C14.4692 12.831 14.0546 12.4224 13.5467 12.4224H10.7739C10.629 12.4224 10.5114 12.5383 10.5114 12.6811C10.5114 12.8242 10.629 12.94 10.7739 12.94ZM8.19643 12.8027C7.98936 13.0154 7.70564 13.1346 7.40644 13.1346C6.80148 13.1346 6.31128 12.6514 6.31128 12.0551C6.31128 11.4589 6.80148 10.9757 7.40644 10.9757C7.51226 10.9757 7.61471 10.9906 7.7114 11.0182L7.1797 11.9258C7.10723 12.0491 7.14992 12.207 7.275 12.2784L8.19643 12.8027ZM8.16487 11.2765L7.76421 11.9606L8.45851 12.3557C8.4865 12.2602 8.50159 12.1594 8.50159 12.0551C8.5014 11.7602 8.38068 11.4806 8.16487 11.2765ZM18.3491 10.6894H17.1906V11.8749L18.3491 12.0113V10.6894ZM6.25708 8.49048C6.07799 8.53529 5.88958 8.54292 5.70732 8.51298C5.89772 9.44876 6.96885 9.61334 8.10868 9.78828C9.29139 9.96988 10.5629 10.1652 10.6212 11.3947H11.1472C11.0955 9.72508 9.58921 9.49377 8.18869 9.27891C7.30617 9.14349 6.47408 9.0157 6.25708 8.49048ZM8.64673 11.0278C8.83117 10.8444 9.02574 10.681 9.22826 10.5376C9.41687 10.5963 9.62197 10.6773 9.78139 10.7953C9.46353 10.9861 9.17564 11.2215 8.92211 11.4896C8.85679 11.3199 8.76307 11.1642 8.64673 11.0278ZM11.0497 9.79611C11.2514 9.76539 11.4545 9.74954 11.6578 9.74856C13.1211 9.74171 14.4134 10.4916 15.2524 11.6465L14.5111 11.5593C13.7788 10.7546 12.7694 10.2587 11.6598 10.264C11.5728 10.2644 11.4859 10.2679 11.3991 10.2748C11.307 10.101 11.1908 9.94111 11.0497 9.79611Z" fill="#1A76D1"/>
<circle cx="12" cy="12" r="11.95" stroke="#1A76D1" stroke-width="0.1"/>
</svg>
