<svg width="24" height="24" viewBox="0 0 24 24" fill="none" xmlns="http://www.w3.org/2000/svg">
<path d="M14.5208 12.3617C13.5005 12.9751 12.7803 14.7087 12.4602 16.0423C12.4402 17.8293 12.4402 19.5096 12.4402 20.8165C12.3002 21.0832 11.58 21.0832 11.56 20.6564C11.56 19.1095 11.52 17.7493 11.5 16.469C11.0999 14.7354 10.1596 12.8951 9.25939 12.3617C9.33942 12.1216 9.35942 11.9082 9.35942 11.6682C10.3397 12.1483 11.0599 13.4285 11.48 14.602C11.48 14.3353 11.5 14.0686 11.5 13.7752C11.52 13.5885 11.1599 11.8816 9.31941 11.1881C9.2794 11.0014 9.21938 10.8414 9.11936 10.708C9.17937 10.628 9.23939 10.5747 9.2794 10.4947C10.1196 10.6814 11.0399 11.3481 11.52 12.2816C11.54 11.7482 11.58 11.1881 11.62 10.6013C10.9999 10.8681 10.0796 10.468 9.55947 9.93456C9.6595 9.72119 9.73952 9.50781 9.79954 9.26777C10.1996 9.77453 11.1599 10.2546 11.68 9.82787C11.7201 9.34779 11.7601 8.8677 11.8401 8.36095C12.0401 6.65398 11.64 5.10704 11.46 3.45341C11.46 3.45341 11.9001 3.34673 12.2602 3C12.4602 4.36024 12.8203 5.88051 12.7203 7.42745C12.6603 8.25426 12.6203 9.08107 12.5803 9.96123C13.0204 9.93456 13.6406 9.6145 13.9406 9.21443C14.0207 9.4278 14.1007 9.64117 14.2007 9.85454C13.7806 10.308 13.1004 10.6547 12.5603 10.6547C12.5403 11.0014 12.5403 11.4015 12.5403 11.7749C13.0404 11.1081 13.8206 10.5747 14.5408 10.4413C14.5808 10.5213 14.6408 10.5747 14.6808 10.6547C14.5808 10.788 14.5008 10.9747 14.4408 11.1614C13.6806 11.3748 12.8003 12.1216 12.4803 13.0818C12.4602 13.4285 12.4602 13.7486 12.4402 14.0953C12.8804 13.1084 13.5205 12.0683 14.3808 11.6415C14.4208 11.9082 14.4408 12.1483 14.5208 12.3617ZM8.65923 11.0014C8.21912 10.9481 7.81901 10.4947 7.73899 9.90788C7.23886 9.69451 7.0188 8.681 7.31888 8.3076C7.21885 7.9342 7.17884 7.61415 7.11882 7.16073C7.25886 6.92069 8.11909 6.89402 8.05907 7.3741C8.03907 7.58748 7.85902 8.1209 7.71898 8.44096C7.79901 8.65433 7.59895 8.97439 7.779 9.21443C7.83902 9.00106 7.93904 8.65433 8.1591 8.70767C8.25913 8.38762 8.35915 8.14757 8.49919 7.80085C8.67924 7.72083 9.2794 8.3076 9.03934 8.57432C8.9193 8.70767 8.55921 8.94772 8.35915 9.0544C8.1591 9.13442 7.91904 10.4947 8.83928 10.388C9.6395 9.64117 9.51946 8.17425 9.05934 7.21408C8.1591 5.42709 6.2786 6.17389 5.37836 7.5608C4.07801 9.56116 3.79794 13.0018 4.59815 15.3488C5.25833 17.2692 7.23886 19.2429 8.85929 18.3094C9.73952 17.8026 10.3197 15.9356 10.0596 14.7087C9.75953 14.0953 9.35942 13.5885 8.83928 13.2951C8.45918 13.4818 8.27913 13.5085 7.97905 14.0153C8.01906 14.4687 8.11909 14.9221 8.81928 15.2155C9.07935 15.2688 9.39943 15.3488 9.53947 15.4555C9.85956 15.6422 9.33942 16.5224 9.13936 16.4957C8.93931 16.229 8.81928 16.0423 8.65923 15.8289C8.23912 15.6422 7.87903 15.3488 7.67897 14.8421C7.59895 15.2688 7.55894 15.7756 7.69898 16.2023C7.89903 16.469 8.25913 17.0825 8.35915 17.3492C8.49919 17.856 7.55894 18.1227 7.37889 17.8826C7.35889 17.4559 7.35889 17.1358 7.35889 16.7358C7.0188 16.229 7.11882 14.9488 7.29887 14.3887C7.47892 13.8019 7.79901 13.2685 8.23912 12.9484C8.71925 12.575 9.19938 11.5615 8.65923 11.0014ZM6.07855 7.64082C6.21858 7.98755 6.33862 8.25426 6.43864 8.54765C7.05881 8.97439 7.23886 10.3346 7.09882 11.1614C7.29887 11.5615 7.37889 12.0683 7.17884 12.495C7.55894 13.2685 6.73872 15.2955 6.17857 15.0821C6.01853 15.4289 5.77847 15.8289 5.61842 15.989C5.29834 16.309 4.83822 15.2155 4.95825 14.9221C5.39837 14.7354 5.67844 14.602 6.11856 14.4954C6.49866 14.2286 6.85876 13.5619 6.79874 12.9484C6.57868 13.1084 6.2786 13.1618 5.87849 13.1084C5.61842 13.3752 5.19831 13.6952 4.99826 13.7752C4.55814 13.9619 4.43811 12.6017 4.65817 12.3617C5.07828 12.3883 5.37836 12.415 5.73846 12.4683C6.79874 12.9218 7.17884 11.6149 6.33862 11.1081C6.11856 10.9747 5.93851 11.0014 5.75846 10.9214C5.43838 10.9747 4.93824 10.9747 4.73819 10.8947C4.29807 10.7614 4.71818 9.50781 4.99826 9.4278C5.35836 9.74786 5.61842 9.96123 5.9185 10.2813C6.19858 10.3346 6.43864 10.4413 6.6387 10.5747C6.6587 10.1746 6.59869 9.6145 6.39863 9.26777C6.13856 9.16109 5.55841 8.81436 5.37836 8.60099C5.07828 8.3076 5.83848 7.53413 6.07855 7.64082ZM9.69951 7.48079C9.71952 6.30725 9.37943 5.26707 8.5192 4.78698C7.19885 4.06685 5.5384 5.02702 4.63816 6.33392C2.93771 8.76102 2.49759 13.0551 3.61789 16.0156C3.81794 16.5757 4.05801 17.0825 4.35809 17.5359C5.43838 19.2429 7.53894 20.6298 9.19938 19.5896C10.1196 19.0028 10.5998 17.7493 10.4997 16.4424C10.2997 17.4292 9.79954 18.4694 9.05934 18.8961C7.17884 19.963 4.93824 17.856 4.15804 15.6156C3.2578 13.0284 3.57788 9.32111 4.99826 7.16073C6.29861 5.16038 8.8993 4.73364 9.69951 7.48079ZM15.101 11.0814C15.421 11.3748 15.7811 11.4815 16.1412 11.2415C16.4213 11.0548 16.2012 10.4947 15.9212 10.6814C15.341 11.0814 14.5208 9.29444 14.4008 8.62766C14.0207 6.28058 14.7409 4.25355 16.8214 4.57361C17.7016 4.70697 18.6419 5.32041 19.3621 6.33392C21.4026 9.2411 21.5827 14.4687 19.6422 17.5359C18.942 18.6028 18.0617 19.3496 17.1815 19.6963C16.2613 20.043 15.141 20.043 14.3407 19.2162C13.1804 17.9626 13.2405 15.7222 14.1607 14.282C14.4208 13.8552 14.7809 13.5085 15.181 13.2685C15.461 13.4285 15.8011 13.4818 16.1012 13.4552C16.4213 13.4285 16.3813 12.7884 16.0612 12.8151C15.5811 12.8417 15.0409 12.655 14.9209 11.9883C14.8809 11.6949 14.9209 11.3215 15.101 11.0814Z" fill="#1A76D1"/>
<circle cx="12" cy="12" r="11.95" stroke="#1A76D1" stroke-width="0.1"/>
</svg>
