<svg width="24" height="24" viewBox="0 0 24 24" fill="none" xmlns="http://www.w3.org/2000/svg">
<circle cx="12" cy="12" r="11.95" stroke="#1A76D1" stroke-width="0.1"/>
<path d="M13.3393 19.5H10.6607V18.6964H13.3393V19.5ZM13.3393 18.1607H10.6607V17.625H13.3393V18.1607ZM13.3393 17.0893H10.6607V16.5536H13.3393V17.0893ZM13.3393 16.0179H10.6607V15.4821H13.3393V16.0179ZM13.3393 14.8974C13.3362 14.9136 13.3348 14.93 13.335 14.9464H10.665C10.6652 14.93 10.6638 14.9136 10.6607 14.8974V14.4107C10.6607 14.3397 10.6889 14.2715 10.7392 14.2213C10.7894 14.1711 10.8575 14.1429 10.9286 14.1429H13.0714C13.1425 14.1429 13.2106 14.1711 13.2608 14.2213C13.3111 14.2715 13.3393 14.3397 13.3393 14.4107V14.8974ZM13.0714 13.6071H10.9286C10.7155 13.6071 10.5111 13.6918 10.3604 13.8425C10.2097 13.9932 10.125 14.1976 10.125 14.4107V14.8945C10.0725 14.9908 9.9951 15.0714 9.90087 15.1276C9.80663 15.1839 9.69903 15.2138 9.58929 15.2143C9.44721 15.2143 9.31094 15.1578 9.21048 15.0574C9.11001 14.9569 9.05357 14.8207 9.05357 14.6786C9.05357 14.5365 9.11001 14.4002 9.21048 14.2998C9.31094 14.1993 9.44721 14.1429 9.58929 14.1429V13.6071C9.361 13.6083 9.13908 13.6824 8.95594 13.8187C8.77281 13.955 8.63807 14.1463 8.57143 14.3646C8.48323 14.326 8.40709 14.2642 8.35101 14.186C8.29494 14.1077 8.261 14.0157 8.25278 13.9198C8.24455 13.8238 8.26234 13.7274 8.30428 13.6407C8.34621 13.554 8.41074 13.4803 8.49107 13.4271C8.52787 13.4027 8.55805 13.3695 8.57893 13.3306C8.59981 13.2917 8.61073 13.2482 8.61073 13.204C8.61073 13.1598 8.59981 13.1164 8.57893 13.0774C8.55805 13.0385 8.52787 13.0053 8.49107 12.9809C8.39635 12.9175 8.3243 12.8256 8.28539 12.7185C8.24648 12.6114 8.24273 12.4947 8.27469 12.3853C8.30664 12.276 8.37265 12.1796 8.4631 12.1103C8.55356 12.041 8.66375 12.0024 8.77768 12C8.78223 12 8.79536 12.0021 8.80634 12.0032C8.91315 12.0072 9.01634 12.043 9.10264 12.106C9.18894 12.1691 9.25441 12.2565 9.29062 12.3571L9.7958 12.1787C9.73709 12.0144 9.63916 11.8669 9.5105 11.7491C9.38185 11.6313 9.22638 11.5467 9.05759 11.5026C9.04939 11.3993 9.07435 11.2961 9.12884 11.2079C9.16695 11.138 9.21995 11.0773 9.28411 11.0302C9.34826 10.983 9.42199 10.9505 9.50009 10.935C9.62386 10.9155 9.75062 10.9352 9.86266 10.9913C9.97469 11.0474 10.0664 11.1371 10.125 11.2479V11.7321C10.125 11.9453 10.2097 12.1497 10.3604 12.3004C10.5111 12.4511 10.7155 12.5357 10.9286 12.5357H13.0714C13.2845 12.5357 13.4889 12.4511 13.6396 12.3004C13.7903 12.1497 13.875 11.9453 13.875 11.7321V11.2479C13.9336 11.1372 14.0253 11.0476 14.1373 10.9916C14.2493 10.9356 14.376 10.916 14.4996 10.9355C14.5777 10.9511 14.6515 10.9836 14.7156 11.0307C14.7798 11.0779 14.8328 11.1386 14.8709 11.2085C14.912 11.2729 14.9372 11.3462 14.9443 11.4222C14.9514 11.4983 14.9403 11.575 14.9119 11.6459C14.8967 11.6876 14.8921 11.7325 14.8985 11.7765C14.905 11.8204 14.9223 11.8621 14.9488 11.8977C14.975 11.9338 15.0099 11.9627 15.0504 11.9815C15.0909 12.0002 15.1355 12.0083 15.18 12.0048C15.1867 12.0048 15.2068 12.0011 15.2143 12.0003C15.3293 12.0006 15.4411 12.0378 15.5333 12.1066C15.6254 12.1753 15.693 12.2719 15.7261 12.3821C15.7591 12.4922 15.7558 12.61 15.7167 12.7182C15.6776 12.8263 15.6048 12.919 15.5089 12.9825C15.4008 13.0504 15.2724 13.0785 15.1458 13.0621C15.0192 13.0456 14.9023 12.9855 14.8152 12.8922L14.4161 13.2496C14.5625 13.4153 14.7571 13.5311 14.9726 13.5808C15.1881 13.6305 15.4137 13.6116 15.6179 13.5268C15.7033 13.6344 15.7441 13.7707 15.7318 13.9076C15.7196 14.0444 15.6552 14.1713 15.552 14.262C15.4488 14.3528 15.3148 14.4004 15.1775 14.395C15.0402 14.3897 14.9102 14.3318 14.8144 14.2334L14.4153 14.5907C14.5461 14.7344 14.7138 14.8395 14.9001 14.8947C14.8582 14.9897 14.7897 15.0704 14.7028 15.1271C14.6159 15.1839 14.5145 15.2141 14.4107 15.2143C14.301 15.2138 14.1934 15.1839 14.0991 15.1276C14.0049 15.0714 13.9275 14.9908 13.875 14.8945V14.4107C13.875 14.1976 13.7903 13.9932 13.6396 13.8425C13.4889 13.6918 13.2845 13.6071 13.0714 13.6071ZM12 11.4643C12.2301 11.4593 12.4536 11.3866 12.6426 11.2553C12.8316 11.1239 12.9777 10.9397 13.0626 10.7258L13.2806 9.85714H13.3393V11.7321C13.3393 11.8032 13.3111 11.8713 13.2608 11.9215C13.2106 11.9718 13.1425 12 13.0714 12H10.9286C10.8575 12 10.7894 11.9718 10.7392 11.9215C10.6889 11.8713 10.6607 11.8032 10.6607 11.7321V9.85714H10.7196L10.9422 10.7454C11.0297 10.955 11.1763 11.1346 11.3641 11.2623C11.5519 11.3899 11.7729 11.4601 12 11.4643ZM11.2709 9.85714H12.7286L12.5494 10.5761C12.5015 10.6797 12.4254 10.7677 12.3299 10.8301C12.2343 10.8924 12.1231 10.9266 12.0089 10.9286C11.8948 10.9307 11.7825 10.9005 11.6847 10.8416C11.5869 10.7827 11.5078 10.6975 11.4562 10.5956L11.2709 9.85714ZM10.6607 9.32143V7.98214C10.6608 7.94059 10.6511 7.8996 10.6326 7.86241L10.0969 6.79098C10.085 6.76416 10.0807 6.73463 10.0843 6.70554C10.0923 6.69241 10.1689 6.64286 10.3929 6.64286C10.5534 6.62807 10.715 6.65616 10.8611 6.72425C11.0072 6.79235 11.1326 6.89801 11.2246 7.03045L11.7603 8.10188C11.785 8.14339 11.8201 8.17776 11.8621 8.20163C11.9042 8.2255 11.9517 8.23805 12 8.23805C12.0483 8.23805 12.0958 8.2255 12.1379 8.20163C12.1799 8.17776 12.215 8.14339 12.2397 8.10188L12.7741 7.03312C12.8658 6.89999 12.9913 6.79367 13.1377 6.72508C13.2841 6.65649 13.4461 6.62811 13.6071 6.64286C13.83 6.64286 13.9071 6.69241 13.9157 6.70554C13.92 6.73464 13.9156 6.76436 13.9031 6.79098L13.3674 7.86241C13.3489 7.8996 13.3392 7.94059 13.3393 7.98214V9.32143H10.6607ZM19.5 19.5H13.875V15.6123C14.0397 15.701 14.2236 15.7483 14.4107 15.75C14.653 15.7498 14.8881 15.6677 15.0778 15.5169C15.2674 15.3661 15.4005 15.1556 15.4554 14.9196C15.6321 14.879 15.7956 14.7941 15.9306 14.673C16.0656 14.5519 16.1676 14.3985 16.2272 14.2272C16.2867 14.0559 16.3018 13.8723 16.271 13.6936C16.2402 13.5148 16.1645 13.3469 16.0511 13.2054C16.1629 13.0657 16.238 12.9002 16.2695 12.724C16.301 12.5479 16.2879 12.3666 16.2313 12.1969C16.1747 12.0271 16.0765 11.8742 15.9456 11.7521C15.8148 11.63 15.6554 11.5427 15.4821 11.498C15.4874 11.3017 15.4364 11.108 15.3351 10.9398C15.2569 10.8013 15.1492 10.6817 15.0195 10.5896C14.8899 10.4974 14.7416 10.4349 14.5851 10.4065C14.3419 10.3688 14.0929 10.4102 13.875 10.5246V8.04536L14.3839 7.03045C14.431 6.93593 14.4546 6.83146 14.4527 6.72589C14.4508 6.62032 14.4234 6.51677 14.3729 6.42402C14.2841 6.3089 14.1667 6.21907 14.0323 6.16347C13.8979 6.10788 13.7513 6.08846 13.6071 6.10714C13.3467 6.08998 13.0866 6.14468 12.8551 6.26527C12.6237 6.38587 12.4298 6.56772 12.2946 6.79098L12 7.38321L11.7054 6.79098C11.5702 6.56772 11.3763 6.38587 11.1449 6.26527C10.9134 6.14468 10.6533 6.08998 10.3929 6.10714C10.2489 6.0887 10.1026 6.10824 9.96845 6.16383C9.83434 6.21941 9.71711 6.30911 9.62839 6.42402C9.57793 6.51677 9.55058 6.62032 9.54867 6.72589C9.54676 6.83146 9.57034 6.93593 9.61741 7.03045L10.125 8.04536V10.5252C9.90761 10.4112 9.65947 10.3696 9.41679 10.4065C9.26005 10.4347 9.11145 10.4971 8.98159 10.5893C8.85172 10.6815 8.74378 10.8012 8.66545 10.9398C8.56393 11.108 8.51272 11.3017 8.51786 11.498C8.34461 11.5428 8.18532 11.6302 8.05452 11.7523C7.92372 11.8743 7.82559 12.0273 7.76907 12.197C7.71255 12.3668 7.69945 12.548 7.73096 12.7241C7.76247 12.9003 7.83759 13.0657 7.94946 13.2054C7.83603 13.3468 7.76036 13.5148 7.72953 13.6934C7.6987 13.8721 7.71373 14.0557 7.7732 14.227C7.83267 14.3983 7.93464 14.5517 8.06957 14.6729C8.20449 14.794 8.36795 14.8789 8.54464 14.9196C8.59949 15.1556 8.73256 15.3661 8.92223 15.5169C9.1119 15.6677 9.347 15.7498 9.58929 15.75C9.77639 15.7483 9.96026 15.701 10.125 15.6123V19.5H4.5V11.4107C5.17098 11.25 7.21339 10.6741 8.16134 9.48911C9.11839 8.29286 9.07848 5.42411 9.03857 4.5H14.9614C14.9215 5.42411 14.8811 8.29286 15.8387 9.48884C16.7866 10.6738 18.8304 11.25 19.5 11.4107V19.5Z" fill="#1A76D1"/>
</svg>
