<svg width="24" height="24" viewBox="0 0 24 24" fill="none" xmlns="http://www.w3.org/2000/svg">
<path fill-rule="evenodd" clip-rule="evenodd" d="M11.9282 10.9124C13.8676 10.9124 15.4396 12.4845 15.4396 14.4238C15.4396 16.3632 13.8676 17.9352 11.9282 17.9352C9.98887 17.9352 8.41682 16.3632 8.41682 14.4238C8.41682 12.4845 9.98887 10.9124 11.9282 10.9124ZM15.9084 5.75925V6.33025H20.0406C20.1439 6.33025 20.2281 6.24607 20.2281 6.14283V5.94687C20.2281 5.84363 20.1439 5.75944 20.0406 5.75944H15.9084V5.75925ZM11.6395 2.73307H12.3601C12.4633 2.73307 12.5475 2.81725 12.5475 2.9205V3.6007H13.2277C13.3309 3.6007 13.4151 3.68488 13.4151 3.78812V4.50863C13.4151 4.61187 13.3309 4.69605 13.2277 4.69605H12.5475V5.37626C12.5475 5.4795 12.4633 5.56368 12.3601 5.56368H11.6395C11.5363 5.56368 11.4521 5.4795 11.4521 5.37626V4.69605H10.7719C10.6687 4.69605 10.5845 4.61187 10.5845 4.50863V3.78812C10.5845 3.68488 10.6687 3.6007 10.7719 3.6007H11.4521V2.9205C11.4521 2.81745 11.5363 2.73307 11.6395 2.73307ZM15.1958 1H8.80397C8.70073 1 8.61655 1.08418 8.61655 1.18742V12.1162C9.263 11.19 10.2881 10.5477 11.4672 10.4135C11.2496 10.09 10.8871 9.89567 10.4955 9.89567C10.3506 9.89567 10.2331 9.77813 10.2331 9.63319C10.2331 9.48826 10.3506 9.37072 10.4955 9.37072C11.0791 9.37072 11.6173 9.66893 11.9282 10.1595C12.2393 9.66893 12.7774 9.37072 13.3609 9.37072C13.5058 9.37072 13.6234 9.48826 13.6234 9.63319C13.6234 9.77813 13.5058 9.89567 13.3609 9.89567C12.9694 9.89567 12.607 10.09 12.3892 10.4135C13.6597 10.558 14.7511 11.2924 15.3833 12.3361V1.18762C15.3833 1.08438 15.2991 1 15.1958 1ZM11.9999 6.62072C10.6345 6.62072 9.52786 5.51385 9.52786 4.14867C9.52786 2.7833 10.6347 1.67663 11.9999 1.67663C13.3651 1.67663 14.4719 2.7835 14.4719 4.14867C14.4719 5.51385 13.3653 6.62072 11.9999 6.62072ZM17.3139 10.8006H18.4368C18.5401 10.8006 18.6242 10.8848 18.6242 10.988V12.111C18.6242 12.2142 18.5401 12.2984 18.4368 12.2984H17.3139C17.2106 12.2984 17.1264 12.2142 17.1264 12.111V10.988C17.1263 10.8848 17.2104 10.8006 17.3139 10.8006ZM5.56317 10.8006H6.68613C6.78937 10.8006 6.87355 10.8848 6.87355 10.988V12.111C6.87355 12.2142 6.78937 12.2984 6.68613 12.2984H5.56317C5.45993 12.2984 5.37575 12.2142 5.37575 12.111V10.988C5.37555 10.8848 5.45993 10.8006 5.56317 10.8006ZM5.56317 7.94777H6.68613C6.78937 7.94777 6.87355 8.03195 6.87355 8.1352V9.25815C6.87355 9.36139 6.78937 9.44557 6.68613 9.44557H5.56317C5.45993 9.44557 5.37575 9.36139 5.37575 9.25815V8.1352C5.37555 8.03195 5.45993 7.94777 5.56317 7.94777ZM17.3139 7.94777H18.4368C18.5401 7.94777 18.6242 8.03195 18.6242 8.1352V9.25815C18.6242 9.36139 18.5401 9.44557 18.4368 9.44557H17.3139C17.2106 9.44557 17.1264 9.36139 17.1264 9.25815V8.1352C17.1263 8.03195 17.2104 7.94777 17.3139 7.94777ZM8.09141 6.8552H4.1577V17.904H8.09141V15.9403C7.30419 15.8845 6.67898 15.2247 6.67898 14.4238C6.67898 13.6229 7.30419 12.9629 8.09141 12.9073V6.8552ZM19.8421 17.904V6.8552H15.9084V12.9242C16.6269 13.0445 17.1775 13.6719 17.1775 14.4236C17.1775 15.1753 16.6267 15.8027 15.9084 15.923V17.9039L19.8421 17.904ZM15.3833 17.904V16.5113C15.0362 17.0843 14.5508 17.5637 13.9732 17.904H15.3833ZM8.61635 16.7313V17.904H9.88305C9.38133 17.6084 8.94891 17.2074 8.61635 16.7313ZM21 18.8126V18.6166C21 18.5134 20.9158 18.4292 20.8126 18.4292H12.4301C12.0972 18.4705 11.7593 18.4705 11.4263 18.4292H4.11263H4.10211H3.18742C3.08418 18.4292 3 18.5134 3 18.6166V18.8126C3 18.9158 3.08418 19 3.18742 19H4.10211H20.8126C20.9156 19.0002 21 18.9158 21 18.8126ZM8.09141 5.75925H3.95916C3.85591 5.75925 3.77173 5.84343 3.77173 5.94667V6.14263C3.77173 6.24587 3.85591 6.33005 3.95916 6.33005H8.09141V5.75925ZM15.8451 13.4464C16.3114 13.5365 16.6525 13.9485 16.6525 14.4238C16.6525 14.9071 16.3035 15.3127 15.8453 15.4012C16.0041 14.7621 16.0041 14.0855 15.8451 13.4464ZM8.01139 13.4464C7.85236 14.0855 7.85236 14.7621 8.01139 15.4012C7.54502 15.3111 7.20392 14.8991 7.20392 14.4238C7.20392 13.9406 7.55296 13.5349 8.01139 13.4464ZM10.5793 15.7852C10.8523 16.2732 11.3687 16.578 11.9284 16.578C12.4881 16.578 13.0043 16.2734 13.2773 15.7852C13.3476 15.6589 13.3021 15.4997 13.1759 15.4294C13.0496 15.3591 12.8904 15.4046 12.8201 15.5309C12.6386 15.8553 12.2999 16.0528 11.9284 16.0528C11.557 16.0528 11.2182 15.8553 11.0368 15.5309C10.9665 15.4046 10.8073 15.3591 10.681 15.4294C10.5545 15.4995 10.5091 15.6589 10.5793 15.7852ZM11.2335 14.3359C11.2335 13.8512 10.8404 13.4581 10.3558 13.4581C9.87114 13.4581 9.47802 13.8512 9.47802 14.3359C9.47802 14.4808 9.59556 14.5983 9.74049 14.5983C9.88543 14.5983 10.003 14.4808 10.003 14.3359C10.003 14.1411 10.1608 13.9832 10.3556 13.9832C10.5503 13.9832 10.7082 14.1411 10.7082 14.3359C10.7082 14.4808 10.8257 14.5983 10.9707 14.5983C11.1162 14.5983 11.2335 14.481 11.2335 14.3359ZM14.3782 14.3359C14.3782 13.8512 13.9851 13.4581 13.5005 13.4581C13.0158 13.4581 12.6227 13.8512 12.6227 14.3359C12.6227 14.4808 12.7403 14.5983 12.8852 14.5983C13.0301 14.5983 13.1477 14.4808 13.1477 14.3359C13.1477 14.1411 13.3055 13.9832 13.5003 13.9832C13.6951 13.9832 13.8529 14.1411 13.8529 14.3359C13.8529 14.4808 13.9704 14.5983 14.1154 14.5983C14.2603 14.5983 14.3782 14.481 14.3782 14.3359Z" fill="#1A76D1"/>
<circle cx="12" cy="12" r="11.95" stroke="#1A76D1" stroke-width="0.1"/>
</svg>
